<svg width="732" height="573" viewBox="0 0 732 573" fill="none" xmlns="http://www.w3.org/2000/svg">
<g clip-path="url(#clip0_213_3)">
<path d="M337.564 122.239H156.989C156.102 122.238 155.252 121.873 154.625 121.223C153.998 120.573 153.646 119.691 153.645 118.772V72.3317C153.646 71.4126 153.998 70.5313 154.625 69.8814C155.252 69.2314 156.102 68.8658 156.989 68.8647H337.564C338.45 68.8658 339.3 69.2314 339.927 69.8814C340.554 70.5313 340.907 71.4126 340.908 72.3317V118.772C340.907 119.691 340.554 120.573 339.927 121.223C339.3 121.873 338.45 122.238 337.564 122.239ZM156.989 70.2515C156.457 70.2521 155.947 70.4715 155.57 70.8615C155.194 71.2514 154.983 71.7802 154.982 72.3317V118.772C154.983 119.324 155.194 119.853 155.57 120.243C155.947 120.633 156.457 120.852 156.989 120.852H337.564C338.096 120.852 338.606 120.633 338.982 120.243C339.358 119.853 339.57 119.324 339.57 118.772V72.3317C339.57 71.7802 339.358 71.2514 338.982 70.8615C338.606 70.4715 338.096 70.2521 337.564 70.2515L156.989 70.2515Z" fill="#3F3D56"/>
<path d="M185.046 107.893C192.569 107.893 198.668 101.57 198.668 93.7701C198.668 85.9704 192.569 79.6475 185.046 79.6475C177.523 79.6475 171.425 85.9704 171.425 93.7701C171.425 101.57 177.523 107.893 185.046 107.893Z" fill="#63FFD0"/>
<path d="M216.506 84.355C215.903 84.355 215.326 84.603 214.9 85.0444C214.475 85.4858 214.235 86.0845 214.235 86.7088C214.235 87.333 214.475 87.9317 214.9 88.3731C215.326 88.8145 215.903 89.0625 216.506 89.0625H323.533C324.135 89.0625 324.712 88.8145 325.138 88.3731C325.564 87.9317 325.803 87.333 325.803 86.7088C325.803 86.0845 325.564 85.4858 325.138 85.0444C324.712 84.603 324.135 84.355 323.533 84.355H216.506Z" fill="#E6E6E6"/>
<path d="M216.506 98.4777C215.903 98.4777 215.326 98.7256 214.9 99.1671C214.475 99.6085 214.235 100.207 214.235 100.831C214.235 101.456 214.475 102.054 214.9 102.496C215.326 102.937 215.903 103.185 216.506 103.185H262.56C262.858 103.186 263.154 103.125 263.43 103.007C263.706 102.889 263.956 102.716 264.168 102.497C264.379 102.279 264.547 102.019 264.661 101.733C264.775 101.447 264.834 101.141 264.834 100.831C264.834 100.522 264.775 100.216 264.661 99.9297C264.547 99.6438 264.379 99.3842 264.168 99.1655C263.956 98.9469 263.706 98.7736 263.43 98.6556C263.154 98.5376 262.858 98.4771 262.56 98.4777H216.506Z" fill="#E6E6E6"/>
<path d="M259.169 287.779H178.913C178.027 287.778 177.177 287.412 176.55 286.762C175.923 286.112 175.57 285.231 175.569 284.312V197.654C175.57 196.735 175.923 195.854 176.55 195.204C177.177 194.554 178.027 194.188 178.913 194.187H259.169C260.056 194.188 260.906 194.554 261.533 195.204C262.16 195.854 262.512 196.735 262.513 197.654V284.312C262.512 285.231 262.16 286.112 261.533 286.762C260.906 287.412 260.056 287.778 259.169 287.779ZM178.913 195.574C178.381 195.575 177.871 195.794 177.495 196.184C177.119 196.574 176.908 197.103 176.907 197.654V284.312C176.908 284.863 177.119 285.392 177.495 285.782C177.871 286.172 178.381 286.391 178.913 286.392H259.169C259.701 286.391 260.211 286.172 260.587 285.782C260.963 285.392 261.175 284.863 261.176 284.312V197.654C261.175 197.103 260.963 196.574 260.587 196.184C260.211 195.794 259.701 195.575 259.169 195.574H178.913Z" fill="#3F3D56"/>
<path d="M196.014 212.058C195.412 212.058 194.835 212.306 194.409 212.747C193.983 213.188 193.744 213.787 193.744 214.411C193.744 215.036 193.983 215.634 194.409 216.076C194.835 216.517 195.412 216.765 196.014 216.765H242.068C242.671 216.765 243.248 216.517 243.674 216.076C244.1 215.634 244.339 215.036 244.339 214.411C244.339 213.787 244.1 213.188 243.674 212.747C243.248 212.306 242.671 212.058 242.068 212.058H196.014Z" fill="#E6E6E6"/>
<path d="M196.015 225.925C195.716 225.925 195.42 225.985 195.145 226.103C194.869 226.221 194.618 226.395 194.407 226.613C194.195 226.832 194.028 227.092 193.913 227.378C193.799 227.663 193.74 227.97 193.74 228.279C193.74 228.589 193.799 228.895 193.913 229.181C194.028 229.467 194.195 229.726 194.407 229.945C194.618 230.164 194.869 230.337 195.145 230.455C195.42 230.573 195.716 230.634 196.015 230.633H242.069C242.671 230.633 243.248 230.385 243.674 229.944C244.1 229.502 244.339 228.903 244.339 228.279C244.339 227.655 244.1 227.056 243.674 226.615C243.248 226.173 242.671 225.925 242.069 225.925H196.015Z" fill="#E6E6E6"/>
<path d="M219.041 269.908C216.215 269.908 213.452 269.039 211.102 267.411C208.752 265.783 206.92 263.469 205.839 260.762C204.757 258.055 204.474 255.076 205.026 252.202C205.577 249.328 206.938 246.688 208.937 244.616C210.935 242.544 213.481 241.133 216.253 240.561C219.025 239.99 221.899 240.283 224.51 241.404C227.121 242.526 229.353 244.425 230.923 246.861C232.493 249.298 233.332 252.162 233.332 255.092C233.327 259.02 231.82 262.786 229.141 265.564C226.462 268.341 222.83 269.904 219.041 269.908Z" fill="#FFE600"/>
<path d="M390.642 0H470.898C471.784 0.00107931 472.634 0.366695 473.261 1.01665C473.888 1.6666 474.241 2.54781 474.242 3.46698V90.1245C474.241 91.0437 473.888 91.9249 473.261 92.5748C472.634 93.2248 471.784 93.5904 470.898 93.5915H390.642C389.755 93.5904 388.905 93.2248 388.278 92.5748C387.652 91.9249 387.299 91.0437 387.298 90.1245V3.46698C387.299 2.54781 387.652 1.6666 388.278 1.01665C388.905 0.366695 389.755 0.00107931 390.642 0ZM470.898 92.2047C471.43 92.2041 471.94 91.9847 472.316 91.5948C472.692 91.2048 472.904 90.676 472.904 90.1245V3.46698C472.904 2.91547 472.692 2.38671 472.316 1.99673C471.94 1.60675 471.43 1.38739 470.898 1.38679H390.642C390.11 1.38739 389.6 1.60675 389.224 1.99673C388.848 2.38671 388.636 2.91547 388.635 3.46698V90.1245C388.636 90.676 388.848 91.2048 389.224 91.5948C389.6 91.9847 390.11 92.2041 390.642 92.2047H470.898Z" fill="#3F3D56"/>
<path d="M453.797 75.7211C454.399 75.7211 454.977 75.4731 455.402 75.0317C455.828 74.5903 456.067 73.9916 456.067 73.3673C456.067 72.7431 455.828 72.1444 455.402 71.703C454.977 71.2615 454.399 71.0135 453.797 71.0135H407.743C407.141 71.0135 406.563 71.2615 406.138 71.703C405.712 72.1444 405.473 72.7431 405.473 73.3673C405.473 73.9916 405.712 74.5903 406.138 75.0317C406.563 75.4731 407.141 75.7211 407.743 75.7211H453.797Z" fill="#E6E6E6"/>
<path d="M453.797 61.8532C454.399 61.8532 454.977 61.6052 455.402 61.1638C455.828 60.7224 456.067 60.1237 456.067 59.4994C456.067 58.8752 455.828 58.2765 455.402 57.835C454.977 57.3936 454.399 57.1456 453.797 57.1456H407.743C407.141 57.1456 406.563 57.3936 406.138 57.835C405.712 58.2765 405.473 58.8752 405.473 59.4994C405.473 60.1237 405.712 60.7224 406.138 61.1638C406.563 61.6052 407.141 61.8532 407.743 61.8532H453.797Z" fill="#E6E6E6"/>
<path d="M430.77 17.8704C433.596 17.8704 436.359 18.7393 438.709 20.3673C441.059 21.9953 442.891 24.3092 443.972 27.0165C445.054 29.7237 445.337 32.7027 444.786 35.5767C444.234 38.4507 442.873 41.0907 440.875 43.1627C438.876 45.2348 436.33 46.6458 433.558 47.2175C430.786 47.7892 427.912 47.4958 425.301 46.3744C422.69 45.253 420.458 43.354 418.888 40.9176C417.318 38.4811 416.479 35.6166 416.479 32.6863C416.484 28.7582 417.991 24.9923 420.67 22.2147C423.349 19.4372 426.981 17.8748 430.77 17.8704Z" fill="#A8FF63"/>
<path d="M154.676 179.281C168.878 167.877 185.47 160.101 203.11 156.581C220.889 153.068 239.224 154.045 256.562 159.429C265.278 162.119 273.653 165.881 281.507 170.635C289.51 175.485 296.741 181.456 303.698 187.777C310.746 194.181 317.562 200.871 324.92 206.9C345.926 224.308 372.003 233.819 398.894 233.88C401.116 233.883 403.336 233.82 405.554 233.689C406.757 233.621 406.765 231.672 405.554 231.741C378.143 233.306 351.074 224.825 329.085 207.784C321.459 201.872 314.497 195.112 307.388 188.562C300.497 182.211 293.42 176.033 285.601 170.931C266.477 158.439 244.228 152.063 221.63 152.597C199.032 153.131 177.086 160.552 158.53 173.934C156.766 175.206 155.043 176.535 153.347 177.903C152.394 178.673 153.732 180.043 154.676 179.281V179.281Z" fill="#3F3D56"/>
<path d="M153.678 188.699C159.072 188.699 163.444 184.165 163.444 178.573C163.444 172.981 159.072 168.448 153.678 168.448C148.285 168.448 143.912 172.981 143.912 178.573C143.912 184.165 148.285 188.699 153.678 188.699Z" fill="#3F3D56"/>
<path d="M517 323.136C522.393 323.136 526.766 318.603 526.766 313.011C526.766 307.419 522.393 302.885 517 302.885C511.606 302.885 507.233 307.419 507.233 313.011C507.233 318.603 511.606 323.136 517 323.136Z" fill="#3F3D56"/>
<path d="M568.162 255.332H408.808C407.921 255.331 407.071 254.965 406.444 254.315C405.818 253.665 405.465 252.784 405.464 251.865V165.901C405.465 164.981 405.818 164.1 406.444 163.45C407.071 162.8 407.921 162.435 408.808 162.434H568.162C569.048 162.435 569.898 162.8 570.525 163.45C571.152 164.1 571.505 164.981 571.506 165.901V251.865C571.505 252.784 571.152 253.665 570.525 254.315C569.898 254.965 569.048 255.331 568.162 255.332ZM408.808 163.82C408.276 163.821 407.766 164.04 407.39 164.43C407.014 164.82 406.802 165.349 406.801 165.901V251.865C406.802 252.416 407.014 252.945 407.39 253.335C407.766 253.725 408.276 253.944 408.808 253.945H568.162C568.694 253.944 569.204 253.725 569.58 253.335C569.956 252.945 570.168 252.416 570.168 251.865V165.901C570.168 165.349 569.956 164.82 569.58 164.43C569.204 164.04 568.694 163.821 568.162 163.82H408.808Z" fill="#3F3D56"/>
<path d="M435.528 207.009C443.051 207.009 449.149 200.686 449.149 192.886C449.149 185.086 443.051 178.763 435.528 178.763C428.005 178.763 421.906 185.086 421.906 192.886C421.906 200.686 428.005 207.009 435.528 207.009Z" fill="#6C63FF"/>
<path d="M466.987 183.471C466.689 183.47 466.393 183.531 466.117 183.649C465.841 183.767 465.591 183.94 465.379 184.159C465.168 184.377 465 184.637 464.886 184.923C464.772 185.209 464.713 185.515 464.713 185.825C464.713 186.134 464.772 186.441 464.886 186.726C465 187.012 465.168 187.272 465.379 187.491C465.591 187.709 465.841 187.883 466.117 188.001C466.393 188.119 466.689 188.179 466.987 188.179H552.793C553.395 188.179 553.973 187.931 554.398 187.489C554.824 187.048 555.063 186.449 555.063 185.825C555.063 185.2 554.824 184.602 554.398 184.16C553.973 183.719 553.395 183.471 552.793 183.471H466.987Z" fill="#E6E6E6"/>
<path d="M466.987 197.594C466.689 197.593 466.393 197.654 466.117 197.772C465.841 197.89 465.591 198.063 465.379 198.282C465.168 198.5 465 198.76 464.886 199.046C464.772 199.331 464.713 199.638 464.713 199.947C464.713 200.257 464.772 200.563 464.886 200.849C465 201.135 465.168 201.395 465.379 201.613C465.591 201.832 465.841 202.005 466.117 202.123C466.393 202.241 466.689 202.302 466.987 202.301H513.041C513.643 202.301 514.221 202.053 514.647 201.612C515.072 201.17 515.312 200.572 515.312 199.947C515.312 199.323 515.072 198.724 514.647 198.283C514.221 197.842 513.643 197.594 513.041 197.594H466.987Z" fill="#E6E6E6"/>
<path d="M425.08 220.172C423.353 220.172 421.947 221.228 421.947 222.525C421.947 223.823 423.353 224.879 425.08 224.879H551.523C553.249 224.879 554.655 223.823 554.655 222.525C554.655 221.228 553.249 220.172 551.523 220.172H425.08Z" fill="#E6E6E6"/>
<path d="M425.08 234.294C423.353 234.294 421.947 235.35 421.947 236.648C421.947 237.946 423.353 239.002 425.08 239.002H551.523C553.249 239.002 554.655 237.946 554.655 236.648C554.655 235.35 553.249 234.294 551.523 234.294H425.08Z" fill="#E6E6E6"/>
<path d="M395.998 322.437C404.988 318.394 415.025 321.919 423.499 325.645C427.863 327.565 432.18 329.613 436.697 331.129C440.496 332.401 444.387 333.357 448.333 333.988C456.251 335.245 464.304 335.297 472.237 334.14C480.21 332.987 487.98 330.645 495.305 327.185C502.59 323.762 509.324 319.198 515.27 313.652C516.027 312.944 516.769 312.219 517.496 311.478C518.361 310.599 517.032 309.222 516.167 310.1C510.441 315.887 503.867 320.698 496.691 324.355C489.543 327.999 481.919 330.538 474.062 331.892C466.179 333.27 458.141 333.414 450.217 332.318C446.264 331.764 442.36 330.884 438.542 329.687C434.157 328.208 429.854 326.476 425.656 324.498C417.103 320.69 407.6 316.961 398.202 319.587C397.125 319.896 396.072 320.286 395.049 320.755C393.943 321.252 394.899 322.931 395.998 322.437V322.437Z" fill="#3F3D56"/>
<path d="M392.524 346.334H317.237L334.955 314.517C335.272 313.946 335.729 313.473 336.279 313.143C336.829 312.814 337.453 312.641 338.088 312.641C338.723 312.641 339.347 312.814 339.897 313.143C340.447 313.473 340.904 313.946 341.222 314.517L348.79 328.108L361.66 304.998C362.057 304.284 362.629 303.691 363.318 303.279C364.006 302.867 364.787 302.65 365.583 302.65C366.378 302.65 367.159 302.867 367.848 303.279C368.536 303.691 369.108 304.284 369.506 304.998L392.524 346.334Z" fill="#FF0000"/>
<path d="M392.596 346.325H312.34C311.453 346.324 310.604 345.958 309.977 345.308C309.35 344.659 308.997 343.777 308.996 342.858V296.418C308.997 295.498 309.35 294.617 309.977 293.967C310.604 293.317 311.453 292.952 312.34 292.951H392.596C393.482 292.952 394.332 293.317 394.959 293.967C395.586 294.617 395.939 295.498 395.94 296.418V342.858C395.939 343.777 395.586 344.659 394.959 345.308C394.332 345.958 393.482 346.324 392.596 346.325ZM312.34 294.337C311.808 294.338 311.298 294.557 310.922 294.947C310.546 295.337 310.334 295.866 310.334 296.418V342.858C310.334 343.41 310.546 343.938 310.922 344.328C311.298 344.718 311.808 344.938 312.34 344.938H392.596C393.128 344.938 393.638 344.718 394.014 344.328C394.39 343.938 394.602 343.41 394.602 342.858V296.418C394.602 295.866 394.39 295.337 394.014 294.947C393.638 294.557 393.128 294.338 392.596 294.337H312.34Z" fill="#3F3D56"/>
<path d="M550.007 305.453L535.702 312.984C530.596 315.672 525.668 315.213 523.781 309.607C523.332 308.273 523.166 306.855 523.295 305.448C523.424 304.042 523.845 302.681 524.528 301.458C525.211 300.236 526.141 299.181 527.254 298.366C528.367 297.55 529.637 296.994 530.976 296.735L544.572 294.103L602.801 274.074L638.074 248.142L651.004 269.501L610.247 292.302L550.007 305.453Z" fill="#FFB8B8"/>
<path d="M616.785 555.444L605.84 553.553L607.056 532.119H618.61L616.785 555.444Z" fill="#FFB8B8"/>
<path d="M723.013 534.509L712.421 537.935L704.189 518.233L714.502 512.835L723.013 534.509Z" fill="#FFB8B8"/>
<path d="M717.115 515.728L703.738 521.401L639.892 434.403L619.826 536.531L606.449 534.01C597.868 445.962 590.87 356.154 599.456 313.678L649.013 311.471L671.511 385.861L682.456 436.295L717.115 515.728Z" fill="#2F2E41"/>
<path d="M616.184 572.779C614.183 573.224 612.097 572.994 610.23 572.123L603.729 569.09C598.277 568.799 594.565 569.925 591.529 565.818C590.673 564.644 590.135 563.254 589.972 561.792C589.808 560.33 590.025 558.849 590.6 557.504C591.17 556.153 592.076 554.984 593.226 554.117C594.376 553.25 595.727 552.715 597.142 552.569L606.072 546.734L606.541 551.108C610.622 553.506 615.468 552.47 620.603 550.136L623.406 560.307C623.767 561.619 623.865 562.993 623.693 564.345C623.521 565.698 623.083 566.999 622.406 568.168C621.728 569.338 620.827 570.35 619.756 571.143C618.686 571.937 617.47 572.493 616.184 572.779Z" fill="#2F2E41"/>
<path d="M727.348 551.916C725.594 553.01 723.55 553.495 721.512 553.299L714.412 552.619C709.165 554.18 706.006 556.495 701.849 553.633C700.672 552.811 699.728 551.677 699.115 550.349C698.503 549.021 698.244 547.548 698.366 546.081C698.482 544.612 698.974 543.201 699.789 541.994C700.605 540.787 701.716 539.826 703.008 539.211L709.627 530.687L711.44 534.666C716.051 535.559 720.31 532.948 724.436 529.012L730.272 537.688C731.025 538.807 731.548 540.074 731.809 541.411C732.069 542.748 732.062 544.126 731.788 545.46C731.514 546.794 730.978 548.055 730.215 549.166C729.451 550.276 728.475 551.212 727.348 551.916Z" fill="#2F2E41"/>
<path d="M630.771 221.952C642.86 221.952 652.661 211.791 652.661 199.257C652.661 186.722 642.86 176.562 630.771 176.562C618.681 176.562 608.881 186.722 608.881 199.257C608.881 211.791 618.681 221.952 630.771 221.952Z" fill="#FFB8B8"/>
<path d="M657.526 247.169L628.947 240.865L625.299 216.278L645.364 211.865L657.526 247.169Z" fill="#FFB8B8"/>
<path d="M649.621 314.624H598.544L610.057 284.656C609.22 274.344 613.435 266.76 619.469 260.157L627.122 240.234C639.489 231.795 648.813 232.426 658.741 243.386C670.513 260.666 662.365 286.641 649.621 314.624Z" fill="#FFE600"/>
<path d="M626.514 378.296L625.062 394.862C624.543 400.775 621.548 404.858 615.966 403.535C614.637 403.22 613.39 402.611 612.31 401.75C611.229 400.889 610.341 399.797 609.705 398.547C609.07 397.297 608.703 395.92 608.628 394.509C608.554 393.098 608.775 391.687 609.275 390.373L614.353 377.035L628.946 315.254L626.514 270.494H650.836L647.796 318.406L626.514 378.296Z" fill="#FFB8B8"/>
<path d="M652.661 271.755H624.69L626.651 252.838C626.78 249.566 628.084 246.462 630.307 244.136C632.53 241.81 635.512 240.43 638.666 240.266C640.338 240.179 642.009 240.437 643.584 241.025C645.159 241.612 646.606 242.518 647.841 243.689C649.076 244.86 650.075 246.274 650.779 247.847C651.484 249.421 651.881 251.125 651.946 252.859L652.661 271.755Z" fill="#FFF500"/>
<path d="M657.863 175.921C662.407 175.921 666.091 172.102 666.091 167.391C666.091 162.679 662.407 158.86 657.863 158.86C653.318 158.86 649.635 162.679 649.635 167.391C649.635 172.102 653.318 175.921 657.863 175.921Z" fill="#2F2E41"/>
<path d="M649.385 165.302C649.52 163.138 650.446 161.108 651.974 159.627C653.502 158.146 655.517 157.324 657.609 157.329C657.439 157.307 657.271 157.28 657.098 157.268C654.921 157.124 652.778 157.883 651.14 159.376C649.502 160.87 648.504 162.977 648.364 165.234C648.224 167.491 648.954 169.713 650.394 171.412C651.834 173.111 653.865 174.148 656.042 174.294C656.215 174.305 656.385 174.301 656.557 174.301C654.481 174.029 652.584 172.946 651.252 171.274C649.919 169.602 649.252 167.467 649.385 165.302Z" fill="#2F2E41"/>
<path d="M649.338 168.945C642 162.634 620.953 170.655 619.595 174.898C609.672 176.3 602.159 182.302 602.159 192.975V192.975C608.059 195.481 614.768 195.172 622.021 192.975C633.583 202.744 634.376 215.024 627.344 229.129L635.995 229.309L646.717 213.061L647.23 229.542L667.059 229.129V205.511C667.123 197.658 665.38 189.903 661.974 182.889C658.884 176.665 654.089 173.031 649.338 168.945Z" fill="#2F2E41"/>
<path d="M630.874 210.673C633.047 210.673 634.809 208.116 634.809 204.962C634.809 201.808 633.047 199.251 630.874 199.251C628.701 199.251 626.939 201.808 626.939 204.962C626.939 208.116 628.701 210.673 630.874 210.673Z" fill="#FFB8B8"/>
<path d="M135.812 212.209C135.812 212.209 138.18 169.706 150.476 179.364C162.772 189.022 145.106 216.151 145.106 216.151L135.812 212.209Z" fill="#FFB9B9"/>
<path d="M90.0662 338.283C90.0662 338.283 117.379 370.073 102.098 372.258C86.8168 374.444 80.8057 342.31 80.8057 342.31L90.0662 338.283Z" fill="#FFB9B9"/>
<path d="M54.425 187.803C57.853 188.738 60.9382 190.702 63.2929 193.45C65.6476 196.197 67.1669 199.604 67.6601 203.243L76.3481 267.356L88.5277 318.497C88.5277 318.497 94.6174 324.18 92.1815 327.337C89.7456 330.494 95.2264 343.753 95.2264 343.753L80.002 348.803C80.002 348.803 78.175 335.545 75.1302 334.913C72.4543 334.358 42.4991 251.394 35.2787 231.295C34.2831 228.524 33.7197 226.948 33.7197 226.948C33.7197 226.948 34.9377 184.646 54.425 187.803Z" fill="#575A89"/>
<path d="M57.2058 522.143L66.5571 539.324C73.7987 555.353 67.3635 558.265 49.6079 550.32L45.5605 530.032L57.2058 522.143Z" fill="#FFB9B9"/>
<path d="M61.9242 544.978C61.9242 544.978 66.3634 537.484 67.969 538.739C69.5745 539.993 76.197 545.428 76.197 545.428L84.8232 553.994C84.8232 553.994 113.967 557.188 95.4483 567.775C76.9297 578.362 66.6957 569.584 66.6957 569.584C66.6957 569.584 40.7585 570.983 41.1769 563.48C41.5953 555.977 49.9602 544.108 49.9602 544.108C49.9602 544.108 60.5028 551.436 61.9242 544.978Z" fill="#2F2E41"/>
<path d="M15.709 327.936L24.4758 437.916C24.4758 437.916 24.768 503.661 34.1193 516.386C43.4706 529.111 43.7628 535.474 43.7628 535.474L63.0497 525.173C63.0497 525.173 53.114 508.008 55.1596 505.38C56.4206 503.714 57.3179 501.783 57.7896 499.723L52.5296 431.856L62.4653 313.696L15.709 327.936Z" fill="#2F2E41"/>
<path d="M39.6714 522.143L31.4891 544.563L12.9326 536.52L22.7224 519.719L39.6714 522.143Z" fill="#FFB9B9"/>
<path d="M26.0213 537.012C26.0213 537.012 32.9809 532.502 33.8509 534.306C34.7208 536.11 38.2006 543.776 38.2006 543.776L42.1154 555.051C42.1154 555.051 66.0391 570.835 45.5952 571.737C25.1513 572.639 19.9316 560.462 19.9316 560.462C19.9316 560.462 -3.1221 550.09 0.357732 543.776C3.83757 537.462 16.0169 530.914 16.0169 530.914C16.0169 530.914 22.1065 541.972 26.0213 537.012Z" fill="#2F2E41"/>
<path d="M89.9346 328.238L94.6103 429.432C94.6103 429.432 51.9451 520.931 47.2695 523.355C45.8762 524.101 44.6413 525.128 43.6374 526.377C42.6336 527.626 41.8813 529.071 41.425 530.626L15.709 523.961L27.3981 504.57L53.1141 439.734C53.1141 439.734 57.2052 437.916 58.3741 431.856C59.5431 425.797 61.8809 425.797 56.0363 424.585C50.1918 423.373 50.1918 417.313 50.1918 417.313L30.9048 325.209L89.9346 328.238Z" fill="#2F2E41"/>
<path d="M91.9706 149.124C94.0387 135.91 85.3837 123.46 72.6391 121.316C59.8944 119.172 47.8862 128.145 45.818 141.359C43.7498 154.572 52.4048 167.022 65.1495 169.166C77.8942 171.311 89.9024 162.337 91.9706 149.124Z" fill="#FFB9B9"/>
<path d="M48.1464 146.756C48.1464 146.756 46.393 177.66 44.0552 180.689C41.7174 183.719 68.6023 183.113 68.6023 183.113C68.6023 183.113 66.8489 157.057 68.6023 154.634C70.3556 152.21 48.1464 146.756 48.1464 146.756Z" fill="#FFB9B9"/>
<path d="M91.6859 334.905C91.6859 334.905 25.6425 328.846 13.3721 334.905C13.3721 334.905 17.8892 317.531 16.722 315.716C15.8731 314.388 18.2151 264.9 17.4799 236.352C17.063 220.244 13.4782 204.513 23.8993 192.553C27.4463 188.491 31.4025 185.08 35.5786 183.415C35.5786 183.415 34.4114 171.903 40.2548 171.298C40.2548 171.298 62.4689 168.87 70.6466 176.146C73.2614 178.456 74.9061 185.497 75.0804 191.563C71.0332 212.198 72.4656 235.095 76.1793 258.849C76.4067 260.358 76.6568 261.875 76.9069 263.391C80.848 286.949 86.8051 311.237 91.6859 334.905Z" fill="#575A89"/>
<path d="M56.6814 152.383C58.6585 152.261 60.589 152.954 62.5523 153.224C69.5768 154.191 76.8843 148.906 78.4353 141.738C78.5596 140.783 78.834 139.856 79.2477 138.993C80.3288 137.163 82.7908 136.814 84.8205 137.235C86.8502 137.656 88.7741 138.641 90.8411 138.753C94.0326 138.927 97.0966 136.89 98.7974 134.085C100.405 131.191 101.088 127.844 100.75 124.523L99.2203 126.188C98.5986 124.824 98.3586 123.307 98.5275 121.809C97.7167 121.585 96.8641 121.581 96.0513 121.796C95.2384 122.012 94.4926 122.44 93.8852 123.04C92.5361 123.189 93.5543 120.446 92.552 119.498C92.0646 119.188 91.4836 119.075 90.9208 119.182C88.0508 119.21 85.7291 116.934 83.4675 115.102C79.5489 111.935 74.9666 109.768 70.0908 108.776C66.85 108.121 63.4038 108.016 60.3303 109.267C57.8493 110.421 55.6101 112.068 53.739 114.114C48.9272 118.911 44.6663 124.548 42.6645 131.15C41.0371 136.558 40.991 142.344 42.532 147.78C43.3386 150.602 45.7696 160.269 49.3284 160.494C53.8002 160.777 51.1154 152.728 56.6814 152.383Z" fill="#2F2E41"/>
<path d="M66.3582 190.777L74.7338 191.708C74.7338 191.708 82.9557 208.246 82.3586 211.695C81.7615 215.145 80.4612 213.05 84.1618 218.569C87.8623 224.088 98.363 238.354 99.6634 240.448C100.964 242.542 136.413 214.5 134.209 206.098C134.209 206.098 145.405 214.426 150.202 215.534C150.202 215.534 113.668 265.209 108.577 271.567C103.486 277.924 99.3888 276.618 92.3923 272.849C85.3959 269.08 50.001 231.483 50.001 231.483L66.3582 190.777Z" fill="#575A89"/>
<path opacity="0.1" d="M76.9069 263.391L47.7959 233.209L55.1627 230.718L76.1793 258.849C76.4067 260.358 76.6568 261.875 76.9069 263.391Z" fill="black"/>
</g>
<defs>
<clipPath id="clip0_213_3">
<rect width="732" height="573" fill="white"/>
</clipPath>
</defs>
</svg>
