<svg width="968" height="783" viewBox="0 0 968 783" fill="none" xmlns="http://www.w3.org/2000/svg">
<g clip-path="url(#clip0_211_327)">
<path d="M477.564 332.239H296.989C296.102 332.238 295.252 331.873 294.625 331.223C293.998 330.573 293.646 329.691 293.645 328.772V282.332C293.646 281.413 293.998 280.531 294.625 279.881C295.252 279.231 296.102 278.866 296.989 278.865H477.564C478.45 278.866 479.3 279.231 479.927 279.881C480.554 280.531 480.907 281.413 480.908 282.332V328.772C480.907 329.691 480.554 330.573 479.927 331.223C479.3 331.873 478.45 332.238 477.564 332.239ZM296.989 280.252C296.457 280.252 295.947 280.471 295.57 280.861C295.194 281.251 294.983 281.78 294.982 282.332V328.772C294.983 329.324 295.194 329.853 295.57 330.243C295.947 330.633 296.457 330.852 296.989 330.852H477.564C478.096 330.852 478.606 330.633 478.982 330.243C479.358 329.853 479.57 329.324 479.57 328.772V282.332C479.57 281.78 479.358 281.251 478.982 280.861C478.606 280.471 478.096 280.252 477.564 280.252L296.989 280.252Z" fill="#3F3D56"/>
<path d="M325.046 317.893C332.569 317.893 338.668 311.57 338.668 303.77C338.668 295.97 332.569 289.647 325.046 289.647C317.523 289.647 311.425 295.97 311.425 303.77C311.425 311.57 317.523 317.893 325.046 317.893Z" fill="#63FFD0"/>
<path d="M356.506 294.355C355.903 294.355 355.326 294.603 354.9 295.044C354.475 295.486 354.235 296.084 354.235 296.709C354.235 297.333 354.475 297.932 354.9 298.373C355.326 298.815 355.903 299.063 356.506 299.063H463.533C464.135 299.063 464.712 298.815 465.138 298.373C465.564 297.932 465.803 297.333 465.803 296.709C465.803 296.084 465.564 295.486 465.138 295.044C464.712 294.603 464.135 294.355 463.533 294.355H356.506Z" fill="#E6E6E6"/>
<path d="M356.506 308.478C355.903 308.478 355.326 308.726 354.9 309.167C354.475 309.608 354.235 310.207 354.235 310.831C354.235 311.456 354.475 312.054 354.9 312.496C355.326 312.937 355.903 313.185 356.506 313.185H402.56C402.858 313.186 403.154 313.125 403.43 313.007C403.706 312.889 403.956 312.716 404.168 312.497C404.379 312.279 404.547 312.019 404.661 311.733C404.775 311.447 404.834 311.141 404.834 310.831C404.834 310.522 404.775 310.216 404.661 309.93C404.547 309.644 404.379 309.384 404.168 309.166C403.956 308.947 403.706 308.774 403.43 308.656C403.154 308.538 402.858 308.477 402.56 308.478H356.506Z" fill="#E6E6E6"/>
<path d="M399.169 497.779H318.913C318.027 497.778 317.177 497.412 316.55 496.762C315.923 496.112 315.57 495.231 315.569 494.312V407.654C315.57 406.735 315.923 405.854 316.55 405.204C317.177 404.554 318.027 404.188 318.913 404.187H399.169C400.056 404.188 400.906 404.554 401.533 405.204C402.16 405.854 402.512 406.735 402.513 407.654V494.312C402.512 495.231 402.16 496.112 401.533 496.762C400.906 497.412 400.056 497.778 399.169 497.779ZM318.913 405.574C318.381 405.575 317.871 405.794 317.495 406.184C317.119 406.574 316.908 407.103 316.907 407.654V494.312C316.908 494.863 317.119 495.392 317.495 495.782C317.871 496.172 318.381 496.391 318.913 496.392H399.169C399.701 496.391 400.211 496.172 400.587 495.782C400.963 495.392 401.175 494.863 401.176 494.312V407.654C401.175 407.103 400.963 406.574 400.587 406.184C400.211 405.794 399.701 405.575 399.169 405.574H318.913Z" fill="#3F3D56"/>
<path d="M336.014 422.058C335.412 422.058 334.835 422.306 334.409 422.747C333.983 423.188 333.744 423.787 333.744 424.411C333.744 425.036 333.983 425.634 334.409 426.076C334.835 426.517 335.412 426.765 336.014 426.765H382.068C382.671 426.765 383.248 426.517 383.674 426.076C384.1 425.634 384.339 425.036 384.339 424.411C384.339 423.787 384.1 423.188 383.674 422.747C383.248 422.306 382.671 422.058 382.068 422.058H336.014Z" fill="#E6E6E6"/>
<path d="M336.015 435.926C335.716 435.925 335.42 435.985 335.145 436.103C334.869 436.222 334.618 436.395 334.407 436.613C334.195 436.832 334.028 437.092 333.913 437.378C333.799 437.663 333.74 437.97 333.74 438.279C333.74 438.589 333.799 438.895 333.913 439.181C334.028 439.467 334.195 439.727 334.407 439.945C334.618 440.164 334.869 440.337 335.145 440.455C335.42 440.573 335.716 440.634 336.015 440.633H382.069C382.671 440.633 383.248 440.385 383.674 439.944C384.1 439.502 384.339 438.904 384.339 438.279C384.339 437.655 384.1 437.056 383.674 436.615C383.248 436.174 382.671 435.926 382.069 435.926H336.015Z" fill="#E6E6E6"/>
<path d="M359.041 479.908C356.215 479.908 353.452 479.039 351.102 477.411C348.752 475.783 346.92 473.469 345.839 470.762C344.757 468.055 344.474 465.076 345.026 462.202C345.577 459.328 346.938 456.688 348.937 454.616C350.935 452.544 353.481 451.133 356.253 450.561C359.025 449.99 361.899 450.283 364.51 451.404C367.121 452.526 369.353 454.425 370.923 456.861C372.493 459.298 373.332 462.162 373.332 465.092C373.327 469.02 371.82 472.786 369.141 475.564C366.462 478.341 362.83 479.904 359.041 479.908Z" fill="#FFE600"/>
<path d="M530.642 210H610.898C611.784 210.001 612.634 210.367 613.261 211.017C613.888 211.667 614.241 212.548 614.242 213.467V300.125C614.241 301.044 613.888 301.925 613.261 302.575C612.634 303.225 611.784 303.59 610.898 303.591H530.642C529.755 303.59 528.905 303.225 528.278 302.575C527.652 301.925 527.299 301.044 527.298 300.125V213.467C527.299 212.548 527.652 211.667 528.278 211.017C528.905 210.367 529.755 210.001 530.642 210ZM610.898 302.205C611.43 302.204 611.94 301.985 612.316 301.595C612.692 301.205 612.904 300.676 612.904 300.125V213.467C612.904 212.915 612.692 212.387 612.316 211.997C611.94 211.607 611.43 211.387 610.898 211.387H530.642C530.11 211.387 529.6 211.607 529.224 211.997C528.848 212.387 528.636 212.915 528.635 213.467V300.125C528.636 300.676 528.848 301.205 529.224 301.595C529.6 301.985 530.11 302.204 530.642 302.205H610.898Z" fill="#3F3D56"/>
<path d="M593.797 285.721C594.399 285.721 594.977 285.473 595.402 285.032C595.828 284.59 596.067 283.992 596.067 283.367C596.067 282.743 595.828 282.144 595.402 281.703C594.977 281.262 594.399 281.014 593.797 281.014H547.743C547.141 281.014 546.563 281.262 546.138 281.703C545.712 282.144 545.473 282.743 545.473 283.367C545.473 283.992 545.712 284.59 546.138 285.032C546.563 285.473 547.141 285.721 547.743 285.721H593.797Z" fill="#E6E6E6"/>
<path d="M593.797 271.853C594.399 271.853 594.977 271.605 595.402 271.164C595.828 270.722 596.067 270.124 596.067 269.499C596.067 268.875 595.828 268.276 595.402 267.835C594.977 267.394 594.399 267.146 593.797 267.146H547.743C547.141 267.146 546.563 267.394 546.138 267.835C545.712 268.276 545.473 268.875 545.473 269.499C545.473 270.124 545.712 270.722 546.138 271.164C546.563 271.605 547.141 271.853 547.743 271.853H593.797Z" fill="#E6E6E6"/>
<path d="M570.77 227.87C573.596 227.87 576.359 228.739 578.709 230.367C581.059 231.995 582.891 234.309 583.972 237.016C585.054 239.724 585.337 242.703 584.786 245.577C584.234 248.451 582.873 251.091 580.875 253.163C578.876 255.235 576.33 256.646 573.558 257.218C570.786 257.789 567.912 257.496 565.301 256.374C562.69 255.253 560.458 253.354 558.888 250.918C557.318 248.481 556.479 245.617 556.479 242.686C556.484 238.758 557.991 234.992 560.67 232.215C563.349 229.437 566.981 227.875 570.77 227.87Z" fill="#A8FF63"/>
<path d="M294.676 389.281C308.878 377.877 325.47 370.101 343.11 366.581C360.889 363.068 379.224 364.045 396.562 369.429C405.278 372.119 413.653 375.881 421.507 380.635C429.51 385.485 436.741 391.456 443.698 397.777C450.746 404.181 457.562 410.871 464.92 416.9C485.926 434.308 512.003 443.819 538.894 443.88C541.116 443.883 543.336 443.82 545.554 443.689C546.757 443.621 546.765 441.672 545.554 441.741C518.143 443.306 491.074 434.825 469.085 417.784C461.459 411.872 454.497 405.112 447.388 398.562C440.497 392.211 433.42 386.033 425.601 380.931C406.477 368.439 384.228 362.063 361.63 362.597C339.032 363.131 317.086 370.552 298.53 383.934C296.766 385.206 295.043 386.535 293.347 387.903C292.394 388.673 293.732 390.043 294.676 389.281V389.281Z" fill="#3F3D56"/>
<path d="M293.678 398.699C299.072 398.699 303.444 394.165 303.444 388.573C303.444 382.981 299.072 378.448 293.678 378.448C288.285 378.448 283.912 382.981 283.912 388.573C283.912 394.165 288.285 398.699 293.678 398.699Z" fill="#3F3D56"/>
<path d="M657 533.136C662.393 533.136 666.766 528.603 666.766 523.011C666.766 517.419 662.393 512.885 657 512.885C651.606 512.885 647.233 517.419 647.233 523.011C647.233 528.603 651.606 533.136 657 533.136Z" fill="#3F3D56"/>
<path d="M708.162 465.332H548.808C547.921 465.331 547.071 464.965 546.444 464.315C545.818 463.665 545.465 462.784 545.464 461.865V375.901C545.465 374.981 545.818 374.1 546.444 373.45C547.071 372.8 547.921 372.435 548.808 372.434H708.162C709.048 372.435 709.898 372.8 710.525 373.45C711.152 374.1 711.505 374.981 711.506 375.901V461.865C711.505 462.784 711.152 463.665 710.525 464.315C709.898 464.965 709.048 465.331 708.162 465.332ZM548.808 373.82C548.276 373.821 547.766 374.04 547.39 374.43C547.014 374.82 546.802 375.349 546.801 375.901V461.865C546.802 462.416 547.014 462.945 547.39 463.335C547.766 463.725 548.276 463.944 548.808 463.945H708.162C708.694 463.944 709.204 463.725 709.58 463.335C709.956 462.945 710.168 462.416 710.168 461.865V375.901C710.168 375.349 709.956 374.82 709.58 374.43C709.204 374.04 708.694 373.821 708.162 373.82H548.808Z" fill="#3F3D56"/>
<path d="M575.528 417.009C583.051 417.009 589.149 410.686 589.149 402.886C589.149 395.086 583.051 388.763 575.528 388.763C568.005 388.763 561.906 395.086 561.906 402.886C561.906 410.686 568.005 417.009 575.528 417.009Z" fill="#6C63FF"/>
<path d="M606.987 393.471C606.689 393.47 606.393 393.531 606.117 393.649C605.841 393.767 605.591 393.94 605.379 394.159C605.168 394.377 605 394.637 604.886 394.923C604.772 395.209 604.713 395.515 604.713 395.825C604.713 396.134 604.772 396.441 604.886 396.726C605 397.012 605.168 397.272 605.379 397.491C605.591 397.709 605.841 397.883 606.117 398.001C606.393 398.119 606.689 398.179 606.987 398.179H692.793C693.395 398.179 693.973 397.931 694.398 397.489C694.824 397.048 695.063 396.449 695.063 395.825C695.063 395.2 694.824 394.602 694.398 394.16C693.973 393.719 693.395 393.471 692.793 393.471H606.987Z" fill="#E6E6E6"/>
<path d="M606.987 407.594C606.689 407.593 606.393 407.654 606.117 407.772C605.841 407.89 605.591 408.063 605.379 408.282C605.168 408.5 605 408.76 604.886 409.046C604.772 409.331 604.713 409.638 604.713 409.947C604.713 410.257 604.772 410.563 604.886 410.849C605 411.135 605.168 411.395 605.379 411.613C605.591 411.832 605.841 412.005 606.117 412.123C606.393 412.241 606.689 412.302 606.987 412.301H653.041C653.643 412.301 654.221 412.053 654.647 411.612C655.072 411.17 655.312 410.572 655.312 409.947C655.312 409.323 655.072 408.724 654.647 408.283C654.221 407.842 653.643 407.594 653.041 407.594H606.987Z" fill="#E6E6E6"/>
<path d="M565.08 430.172C563.353 430.172 561.947 431.228 561.947 432.525C561.947 433.823 563.353 434.879 565.08 434.879H691.523C693.249 434.879 694.655 433.823 694.655 432.525C694.655 431.228 693.249 430.172 691.523 430.172H565.08Z" fill="#E6E6E6"/>
<path d="M565.08 444.294C563.353 444.294 561.947 445.35 561.947 446.648C561.947 447.946 563.353 449.002 565.08 449.002H691.523C693.249 449.002 694.655 447.946 694.655 446.648C694.655 445.35 693.249 444.294 691.523 444.294H565.08Z" fill="#E6E6E6"/>
<path d="M535.998 532.437C544.988 528.394 555.025 531.919 563.499 535.645C567.863 537.565 572.18 539.613 576.697 541.129C580.496 542.401 584.387 543.357 588.333 543.988C596.251 545.245 604.304 545.297 612.237 544.14C620.21 542.987 627.98 540.645 635.305 537.185C642.59 533.762 649.324 529.198 655.27 523.652C656.027 522.944 656.769 522.219 657.496 521.478C658.361 520.599 657.032 519.222 656.167 520.1C650.441 525.887 643.867 530.698 636.691 534.355C629.543 537.999 621.919 540.538 614.062 541.892C606.179 543.27 598.141 543.414 590.217 542.318C586.264 541.764 582.36 540.884 578.542 539.687C574.157 538.208 569.854 536.476 565.656 534.498C557.103 530.69 547.6 526.961 538.202 529.587C537.125 529.896 536.072 530.286 535.049 530.755C533.943 531.252 534.899 532.931 535.998 532.437V532.437Z" fill="#3F3D56"/>
<path d="M532.524 556.334H457.237L474.955 524.517C475.272 523.946 475.729 523.473 476.279 523.143C476.829 522.814 477.453 522.641 478.088 522.641C478.723 522.641 479.347 522.814 479.897 523.143C480.447 523.473 480.904 523.946 481.222 524.517L488.79 538.108L501.66 514.998C502.057 514.284 502.629 513.691 503.318 513.279C504.006 512.867 504.787 512.65 505.583 512.65C506.378 512.65 507.159 512.867 507.848 513.279C508.536 513.691 509.108 514.284 509.506 514.998L532.524 556.334Z" fill="#FF0000"/>
<path d="M532.596 556.325H452.34C451.453 556.324 450.604 555.958 449.977 555.308C449.35 554.659 448.997 553.777 448.996 552.858V506.418C448.997 505.498 449.35 504.617 449.977 503.967C450.604 503.317 451.453 502.952 452.34 502.951H532.596C533.482 502.952 534.332 503.317 534.959 503.967C535.586 504.617 535.939 505.498 535.94 506.418V552.858C535.939 553.777 535.586 554.659 534.959 555.308C534.332 555.958 533.482 556.324 532.596 556.325ZM452.34 504.337C451.808 504.338 451.298 504.557 450.922 504.947C450.546 505.337 450.334 505.866 450.334 506.418V552.858C450.334 553.41 450.546 553.938 450.922 554.328C451.298 554.718 451.808 554.938 452.34 554.938H532.596C533.128 554.938 533.638 554.718 534.014 554.328C534.39 553.938 534.602 553.41 534.602 552.858V506.418C534.602 505.866 534.39 505.337 534.014 504.947C533.638 504.557 533.128 504.338 532.596 504.337H452.34Z" fill="#3F3D56"/>
<path d="M690.007 515.453L675.702 522.984C670.596 525.672 665.668 525.213 663.781 519.607C663.332 518.273 663.166 516.855 663.295 515.448C663.424 514.042 663.845 512.681 664.528 511.458C665.211 510.236 666.141 509.181 667.254 508.366C668.367 507.55 669.637 506.994 670.976 506.735L684.572 504.103L742.801 484.074L778.074 458.142L791.004 479.501L750.247 502.302L690.007 515.453Z" fill="#FFB8B8"/>
<path d="M756.785 765.444L745.84 763.553L747.056 742.119H758.61L756.785 765.444Z" fill="#FFB8B8"/>
<path d="M863.013 744.509L852.421 747.935L844.189 728.233L854.502 722.835L863.013 744.509Z" fill="#FFB8B8"/>
<path d="M857.115 725.728L843.738 731.401L779.892 644.403L759.826 746.531L746.449 744.01C737.868 655.962 730.87 566.154 739.456 523.678L789.013 521.471L811.511 595.861L822.456 646.295L857.115 725.728Z" fill="#2F2E41"/>
<path d="M756.184 782.779C754.183 783.224 752.097 782.994 750.23 782.123L743.729 779.09C738.277 778.799 734.565 779.925 731.529 775.818C730.673 774.644 730.135 773.254 729.972 771.792C729.808 770.33 730.025 768.849 730.6 767.504C731.17 766.153 732.076 764.984 733.226 764.117C734.376 763.25 735.727 762.715 737.142 762.569L746.072 756.734L746.541 761.108C750.622 763.506 755.468 762.47 760.603 760.136L763.406 770.307C763.767 771.619 763.865 772.993 763.693 774.345C763.521 775.698 763.083 776.999 762.406 778.168C761.728 779.338 760.827 780.35 759.756 781.143C758.686 781.937 757.47 782.493 756.184 782.779Z" fill="#2F2E41"/>
<path d="M867.348 761.916C865.594 763.01 863.55 763.495 861.512 763.299L854.412 762.619C849.165 764.18 846.006 766.495 841.849 763.633C840.672 762.811 839.728 761.677 839.115 760.349C838.503 759.021 838.244 757.548 838.366 756.081C838.482 754.612 838.974 753.201 839.789 751.994C840.605 750.787 841.716 749.826 843.008 749.211L849.627 740.687L851.44 744.666C856.051 745.559 860.31 742.948 864.436 739.012L870.272 747.688C871.025 748.807 871.548 750.074 871.809 751.411C872.069 752.748 872.062 754.126 871.788 755.46C871.514 756.794 870.978 758.055 870.215 759.166C869.451 760.276 868.475 761.212 867.348 761.916Z" fill="#2F2E41"/>
<path d="M770.771 431.952C782.86 431.952 792.661 421.791 792.661 409.257C792.661 396.722 782.86 386.562 770.771 386.562C758.681 386.562 748.881 396.722 748.881 409.257C748.881 421.791 758.681 431.952 770.771 431.952Z" fill="#FFB8B8"/>
<path d="M797.526 457.169L768.947 450.865L765.299 426.278L785.364 421.865L797.526 457.169Z" fill="#FFB8B8"/>
<path d="M789.621 524.624H738.544L750.057 494.656C749.22 484.344 753.435 476.76 759.469 470.157L767.122 450.234C779.489 441.795 788.813 442.426 798.741 453.386C810.513 470.666 802.365 496.641 789.621 524.624Z" fill="#FFE600"/>
<path d="M766.514 588.296L765.062 604.862C764.543 610.775 761.548 614.858 755.966 613.535C754.637 613.22 753.39 612.611 752.31 611.75C751.229 610.889 750.341 609.797 749.705 608.547C749.07 607.297 748.703 605.92 748.628 604.509C748.554 603.098 748.775 601.687 749.275 600.373L754.353 587.035L768.946 525.254L766.514 480.494H790.836L787.796 528.406L766.514 588.296Z" fill="#FFB8B8"/>
<path d="M792.661 481.755H764.69L766.651 462.838C766.78 459.566 768.084 456.462 770.307 454.136C772.53 451.81 775.512 450.43 778.666 450.266C780.338 450.179 782.009 450.437 783.584 451.025C785.159 451.612 786.606 452.518 787.841 453.689C789.076 454.86 790.075 456.274 790.779 457.847C791.484 459.421 791.881 461.125 791.946 462.859L792.661 481.755Z" fill="#FFF500"/>
<path d="M797.863 385.921C802.407 385.921 806.091 382.102 806.091 377.39C806.091 372.679 802.407 368.86 797.863 368.86C793.318 368.86 789.635 372.679 789.635 377.39C789.635 382.102 793.318 385.921 797.863 385.921Z" fill="#2F2E41"/>
<path d="M789.385 375.302C789.52 373.138 790.446 371.108 791.974 369.627C793.502 368.146 795.517 367.324 797.609 367.329C797.439 367.307 797.271 367.28 797.098 367.268C794.921 367.124 792.778 367.883 791.14 369.376C789.502 370.87 788.504 372.977 788.364 375.234C788.224 377.491 788.954 379.713 790.394 381.412C791.834 383.111 793.865 384.148 796.042 384.294C796.215 384.305 796.385 384.301 796.557 384.301C794.481 384.029 792.584 382.946 791.252 381.274C789.919 379.602 789.252 377.467 789.385 375.302Z" fill="#2F2E41"/>
<path d="M789.338 378.945C782 372.634 760.953 380.655 759.595 384.898C749.672 386.3 742.159 392.302 742.159 402.975V402.975C748.059 405.481 754.768 405.172 762.021 402.975C773.583 412.744 774.376 425.024 767.344 439.129L775.995 439.309L786.717 423.061L787.23 439.542L807.059 439.129V415.511C807.123 407.658 805.38 399.903 801.974 392.889C798.884 386.665 794.089 383.03 789.338 378.945Z" fill="#2F2E41"/>
<path d="M770.874 420.673C773.047 420.673 774.809 418.116 774.809 414.962C774.809 411.808 773.047 409.251 770.874 409.251C768.701 409.251 766.939 411.808 766.939 414.962C766.939 418.116 768.701 420.673 770.874 420.673Z" fill="#FFB8B8"/>
<path d="M275.812 422.209C275.812 422.209 278.18 379.706 290.476 389.364C302.772 399.022 285.106 426.151 285.106 426.151L275.812 422.209Z" fill="#FFB9B9"/>
<path d="M230.066 548.283C230.066 548.283 257.379 580.073 242.098 582.258C226.817 584.444 220.806 552.31 220.806 552.31L230.066 548.283Z" fill="#FFB9B9"/>
<path d="M194.425 397.802C197.853 398.738 200.938 400.702 203.293 403.449C205.648 406.197 207.167 409.604 207.66 413.243L216.348 477.356L228.528 528.497C228.528 528.497 234.617 534.18 232.182 537.337C229.746 540.494 235.226 553.752 235.226 553.752L220.002 558.803C220.002 558.803 218.175 545.545 215.13 544.913C212.454 544.358 182.499 461.394 175.279 441.295C174.283 438.524 173.72 436.948 173.72 436.948C173.72 436.948 174.938 394.646 194.425 397.802Z" fill="#575A89"/>
<path d="M197.206 732.143L206.557 749.324C213.799 765.353 207.363 768.265 189.608 760.32L185.561 740.032L197.206 732.143Z" fill="#FFB9B9"/>
<path d="M201.924 754.978C201.924 754.978 206.363 747.484 207.969 748.739C209.575 749.993 216.197 755.428 216.197 755.428L224.823 763.994C224.823 763.994 253.967 767.188 235.448 777.775C216.93 788.362 206.696 779.584 206.696 779.584C206.696 779.584 180.758 780.983 181.177 773.48C181.595 765.977 189.96 754.108 189.96 754.108C189.96 754.108 200.503 761.436 201.924 754.978Z" fill="#2F2E41"/>
<path d="M155.709 537.936L164.476 647.916C164.476 647.916 164.768 713.661 174.119 726.386C183.471 739.111 183.763 745.474 183.763 745.474L203.05 735.173C203.05 735.173 193.114 718.008 195.16 715.38C196.421 713.714 197.318 711.783 197.79 709.723L192.53 641.856L202.465 523.696L155.709 537.936Z" fill="#2F2E41"/>
<path d="M179.671 732.143L171.489 754.563L152.933 746.52L162.722 729.719L179.671 732.143Z" fill="#FFB9B9"/>
<path d="M166.021 747.012C166.021 747.012 172.981 742.502 173.851 744.306C174.721 746.11 178.201 753.776 178.201 753.776L182.115 765.051C182.115 765.051 206.039 780.835 185.595 781.737C165.151 782.639 159.932 770.462 159.932 770.462C159.932 770.462 136.878 760.09 140.358 753.776C143.838 747.462 156.017 740.914 156.017 740.914C156.017 740.914 162.107 751.972 166.021 747.012Z" fill="#2F2E41"/>
<path d="M229.935 538.238L234.61 639.432C234.61 639.432 191.945 730.931 187.269 733.355C185.876 734.101 184.641 735.128 183.637 736.377C182.634 737.626 181.881 739.071 181.425 740.626L155.709 733.961L167.398 714.57L193.114 649.734C193.114 649.734 197.205 647.916 198.374 641.856C199.543 635.797 201.881 635.797 196.036 634.585C190.192 633.373 190.192 627.313 190.192 627.313L170.905 535.209L229.935 538.238Z" fill="#2F2E41"/>
<path d="M231.971 359.124C234.039 345.91 225.384 333.46 212.639 331.316C199.894 329.172 187.886 338.145 185.818 351.359C183.75 364.572 192.405 377.022 205.15 379.166C217.894 381.311 229.902 372.337 231.971 359.124Z" fill="#FFB9B9"/>
<path d="M188.146 356.756C188.146 356.756 186.393 387.66 184.055 390.689C181.717 393.719 208.602 393.113 208.602 393.113C208.602 393.113 206.849 367.057 208.602 364.633C210.356 362.21 188.146 356.756 188.146 356.756Z" fill="#FFB9B9"/>
<path d="M231.686 544.905C231.686 544.905 165.642 538.846 153.372 544.905C153.372 544.905 157.889 527.531 156.722 525.716C155.873 524.388 158.215 474.9 157.48 446.352C157.063 430.244 153.478 414.513 163.899 402.553C167.446 398.491 171.403 395.08 175.579 393.415C175.579 393.415 174.411 381.903 180.255 381.298C180.255 381.298 202.469 378.87 210.647 386.146C213.261 388.456 214.906 395.497 215.08 401.563C211.033 422.198 212.466 445.095 216.179 468.849C216.407 470.358 216.657 471.875 216.907 473.391C220.848 496.949 226.805 521.237 231.686 544.905Z" fill="#575A89"/>
<path d="M196.681 362.383C198.658 362.261 200.589 362.954 202.552 363.224C209.577 364.191 216.884 358.906 218.435 351.738C218.56 350.783 218.834 349.856 219.248 348.993C220.329 347.163 222.791 346.814 224.821 347.235C226.85 347.656 228.774 348.641 230.841 348.753C234.033 348.927 237.097 346.89 238.797 344.085C240.405 341.191 241.088 337.844 240.75 334.523L239.22 336.188C238.599 334.824 238.359 333.307 238.528 331.809C237.717 331.585 236.864 331.581 236.051 331.796C235.238 332.012 234.493 332.44 233.885 333.04C232.536 333.189 233.554 330.446 232.552 329.498C232.065 329.188 231.484 329.075 230.921 329.182C228.051 329.21 225.729 326.934 223.468 325.102C219.549 321.935 214.967 319.768 210.091 318.776C206.85 318.121 203.404 318.016 200.33 319.267C197.849 320.421 195.61 322.068 193.739 324.114C188.927 328.911 184.666 334.548 182.665 341.15C181.037 346.558 180.991 352.344 182.532 357.78C183.339 360.602 185.77 370.269 189.328 370.494C193.8 370.777 191.115 362.728 196.681 362.383Z" fill="#2F2E41"/>
<path d="M206.358 400.777L214.734 401.708C214.734 401.708 222.956 418.245 222.359 421.695C221.762 425.145 220.461 423.05 224.162 428.569C227.862 434.088 238.363 448.354 239.663 450.448C240.964 452.542 276.413 424.5 274.209 416.098C274.209 416.098 285.405 424.426 290.202 425.534C290.202 425.534 253.668 475.209 248.577 481.567C243.486 487.924 239.389 486.618 232.392 482.849C225.396 479.08 190.001 441.483 190.001 441.483L206.358 400.777Z" fill="#575A89"/>
<path opacity="0.1" d="M216.907 473.391L187.796 443.209L195.163 440.718L216.179 468.849C216.407 470.358 216.657 471.875 216.907 473.391Z" fill="black"/>
</g>
<g clip-path="url(#clip1_211_327)">
<path d="M738.865 543.123L670.865 513.123V487.332L695.099 487.196C698.86 487.174 702.519 485.976 705.564 483.769C708.608 481.561 710.885 478.456 712.074 474.888L729.099 423.815C730.001 421.109 730.247 418.228 729.817 415.409C729.386 412.589 728.292 409.912 726.625 407.598C724.957 405.285 722.763 403.4 720.225 402.101C717.686 400.801 714.875 400.123 712.022 400.123H670.865V376.123H722.534C726.607 376.123 730.559 374.742 733.746 372.205C736.932 369.668 739.164 366.125 740.076 362.156L751.8 311.156C752.407 308.518 752.41 305.778 751.811 303.138C751.212 300.499 750.025 298.029 748.34 295.911C746.654 293.794 744.512 292.084 742.074 290.909C739.636 289.734 736.964 289.123 734.258 289.123H670.865V283.123C670.865 281.547 670.555 279.987 669.952 278.531C669.349 277.075 668.465 275.752 667.351 274.638C666.236 273.524 664.913 272.64 663.457 272.037C662.002 271.434 660.441 271.123 658.865 271.123C657.289 271.123 655.729 271.434 654.273 272.037C652.817 272.64 651.494 273.524 650.38 274.638C649.266 275.752 648.382 277.075 647.779 278.531C647.176 279.987 646.865 281.547 646.865 283.123V289.123H221.865V283.123C221.865 279.941 220.601 276.888 218.351 274.638C216.1 272.387 213.048 271.123 209.865 271.123C206.683 271.123 203.63 272.387 201.38 274.638C199.13 276.888 197.865 279.941 197.865 283.123V289.123H147.473C144.766 289.123 142.094 289.734 139.656 290.909C137.218 292.084 135.077 293.794 133.391 295.911C131.705 298.029 130.518 300.499 129.919 303.138C129.32 305.778 129.324 308.518 129.93 311.156L141.654 362.156C142.567 366.125 144.799 369.668 147.985 372.205C151.171 374.742 155.124 376.123 159.197 376.123H197.865V400.123H169.707C166.871 400.123 164.074 400.794 161.545 402.08C159.017 403.366 156.828 405.232 155.158 407.525C153.488 409.818 152.383 412.474 151.934 415.275C151.485 418.076 151.705 420.943 152.575 423.644L169.951 477.57C171.125 481.211 173.428 484.384 176.527 486.628C179.626 488.872 183.359 490.071 187.185 490.049L197.865 489.989V513.123L142.865 543.123C140.501 543.123 138.161 543.589 135.977 544.493C133.793 545.398 131.809 546.724 130.137 548.395C128.466 550.067 127.14 552.051 126.235 554.235C125.331 556.419 124.865 558.759 124.865 561.123C124.865 565.897 126.762 570.475 130.137 573.851C133.513 577.227 138.091 579.123 142.865 579.123H197.865V711.123C197.865 714.306 199.13 717.358 201.38 719.608C203.63 721.859 206.683 723.123 209.865 723.123C213.048 723.123 216.1 721.859 218.351 719.608C220.601 717.358 221.865 714.306 221.865 711.123V579.123H646.865V711.123C646.865 714.306 648.13 717.358 650.38 719.608C652.63 721.859 655.683 723.123 658.865 723.123C662.048 723.123 665.1 721.859 667.351 719.608C669.601 717.358 670.865 714.306 670.865 711.123V579.123H738.865C743.639 579.123 748.217 577.227 751.593 573.851C754.969 570.475 756.865 565.897 756.865 561.123C756.865 558.759 756.4 556.419 755.495 554.235C754.59 552.051 753.265 550.067 751.593 548.395C749.922 546.724 747.937 545.398 745.754 544.493C743.57 543.589 741.229 543.123 738.865 543.123ZM221.865 376.123H646.865V400.123H221.865V376.123ZM221.865 513.123V489.854L646.865 487.467V513.123H221.865Z" fill="#E6E6E6"/>
<path d="M689.696 543.037C697.171 482.928 734.424 423.702 791.75 404.141C769.142 466.011 769.147 533.883 791.764 595.749C800.573 619.577 812.851 645.162 804.565 669.176C799.41 684.119 786.798 695.551 772.701 702.7C758.602 709.848 742.956 713.255 727.505 716.594L724.464 719.109C699.937 663.724 682.221 603.147 689.696 543.037Z" fill="#E6E6E6"/>
<path d="M792.319 405.278C759.275 442.28 737.838 490.078 733.018 539.527C731.976 550.218 731.85 561.154 734.187 571.691C736.525 582.234 741.616 591.081 748.84 599.018C755.445 606.274 763.041 612.932 767.766 621.668C772.747 630.875 772.939 641.337 769.529 651.117C765.356 663.084 757.133 672.838 748.76 682.097C739.463 692.377 729.644 702.908 725.692 716.537C725.214 718.188 722.679 717.349 723.157 715.7C730.033 691.988 753.051 678.519 764.028 657.162C769.151 647.196 771.301 635.626 766.499 625.107C762.299 615.908 754.472 609.035 747.721 601.746C740.633 594.092 735.198 585.694 732.398 575.56C729.534 565.194 729.233 554.23 729.997 543.56C731.911 519.376 737.614 495.644 746.899 473.232C757.355 447.594 772.119 423.934 790.552 403.275C791.694 401.997 793.453 404.008 792.319 405.278L792.319 405.278Z" fill="white"/>
<path d="M733.738 523.372C725.488 521.369 718.219 516.499 713.229 509.632C708.239 502.764 705.852 494.346 706.495 485.882C706.631 484.17 709.299 484.3 709.162 486.015C708.549 493.896 710.773 501.737 715.433 508.122C720.093 514.508 726.882 519.017 734.575 520.837C736.246 521.234 735.399 523.767 733.738 523.372L733.738 523.372Z" fill="white"/>
<path d="M745.007 595.78C759.906 586.883 770.905 572.698 775.81 556.053C776.295 554.403 778.829 555.242 778.345 556.89C773.208 574.202 761.732 588.94 746.207 598.164C744.727 599.042 743.534 596.653 745.007 595.78Z" fill="white"/>
<path d="M759.831 450.123C762.862 451.563 766.202 452.228 769.553 452.058C772.904 451.888 776.16 450.888 779.029 449.149C780.498 448.252 781.689 450.643 780.23 451.533C777.051 453.44 773.454 454.54 769.752 454.736C766.05 454.932 762.357 454.219 758.994 452.658C758.665 452.538 758.394 452.296 758.236 451.983C758.079 451.67 758.046 451.309 758.145 450.972C758.258 450.637 758.498 450.36 758.814 450.201C759.129 450.042 759.495 450.014 759.831 450.123L759.831 450.123Z" fill="white"/>
<path d="M966.488 511.504C965.587 512.09 964.686 512.676 963.784 513.284C951.711 521.223 940.303 530.13 929.672 539.916C928.839 540.66 928.005 541.426 927.194 542.192C901.834 566.042 881.122 594.394 866.112 625.806C860.15 638.311 855.149 651.251 851.15 664.515C845.63 682.833 841.101 703.133 830.174 718.117C829.051 719.693 827.832 721.198 826.523 722.623H727.768C727.544 722.511 727.318 722.42 727.092 722.308L723.149 722.488C723.308 721.789 723.487 721.068 723.646 720.37C723.736 719.964 723.848 719.559 723.938 719.153C724.005 718.883 724.074 718.612 724.119 718.365C724.141 718.275 724.164 718.185 724.186 718.117C724.231 717.869 724.299 717.644 724.344 717.418C725.335 713.385 726.357 709.352 727.408 705.319C727.408 705.297 727.408 705.297 727.43 705.274C735.52 674.564 746.244 644.259 761.227 616.545C761.678 615.712 762.128 614.855 762.625 614.022C769.448 601.567 777.277 589.691 786.035 578.512C790.85 572.407 795.971 566.548 801.379 560.96C815.379 546.549 831.559 534.429 849.325 525.045C884.745 506.344 925.751 499.179 963.605 510.603C964.573 510.896 965.52 511.189 966.488 511.504Z" fill="#E6E6E6"/>
<path d="M966.266 512.757C917.605 522.407 871.71 547.665 838.091 584.245C830.822 592.154 824.137 600.809 819.659 610.63C815.178 620.455 813.917 630.584 814.906 641.271C815.811 651.041 817.867 660.93 816.381 670.75C814.814 681.101 808.668 689.569 800.057 695.325C789.521 702.368 777.083 705.205 764.823 707.557C751.211 710.168 737.03 712.664 725.669 721.167C724.293 722.197 722.775 720.001 724.149 718.972C743.915 704.179 770.403 707.283 792.026 696.84C802.116 691.967 810.799 684.024 813.298 672.733C815.484 662.86 813.372 652.66 812.37 642.776C811.319 632.397 812.036 622.419 815.901 612.642C819.856 602.641 826.216 593.706 833.251 585.646C849.339 567.489 868.181 551.974 889.089 539.669C912.872 525.494 938.905 515.492 966.061 510.095C967.742 509.762 967.936 512.426 966.267 512.757H966.266Z" fill="white"/>
<path d="M848.392 571.779C843.011 565.213 840.14 556.948 840.29 548.46C840.44 539.973 843.602 531.815 849.212 525.443C850.352 524.158 852.403 525.869 851.262 527.156C846.027 533.079 843.082 540.678 842.958 548.582C842.834 556.486 845.54 564.174 850.587 570.258C851.682 571.582 849.481 573.094 848.392 571.779Z" fill="white"/>
<path d="M813.795 636.377C831.048 638.245 848.37 633.541 862.308 623.203C863.688 622.178 865.207 624.374 863.828 625.398C849.304 636.128 831.267 640.987 813.318 639.004C811.608 638.814 812.094 636.188 813.795 636.378V636.377Z" fill="white"/>
<path d="M913.328 529.004C914.88 531.979 917.147 534.521 919.925 536.403C922.703 538.284 925.905 539.446 929.243 539.785C930.955 539.953 930.467 542.579 928.766 542.411C925.08 542.02 921.545 540.733 918.471 538.66C915.398 536.588 912.878 533.795 911.133 530.525C910.943 530.23 910.872 529.874 910.934 529.529C910.997 529.184 911.189 528.876 911.47 528.667C911.762 528.467 912.12 528.391 912.468 528.454C912.816 528.517 913.125 528.715 913.328 529.004Z" fill="white"/>
<path d="M23.182 596.413C28.4355 554.169 54.616 512.547 94.9039 498.8C79.0155 542.28 79.0189 589.98 94.9136 633.458C101.104 650.204 109.733 668.185 103.91 685.062C100.287 695.563 91.4237 703.597 81.5162 708.621C71.608 713.645 60.612 716.039 49.7537 718.386L47.6167 720.153C30.3792 681.23 17.9285 638.657 23.182 596.413Z" fill="#E6E6E6"/>
<path d="M95.3037 499.598C71.8419 525.887 57.2597 558.899 53.6284 593.947C52.8961 601.46 52.8072 609.145 54.4496 616.551C56.1059 623.757 59.6617 630.388 64.7476 635.756C69.3891 640.855 74.7275 645.534 78.0486 651.673C81.5491 658.144 81.6836 665.497 79.2872 672.37C76.355 680.78 70.5759 687.635 64.6914 694.142C58.1579 701.367 51.2571 708.768 48.4798 718.346C48.1433 719.506 46.3622 718.916 46.6982 717.758C51.5302 701.093 67.7069 691.627 75.4216 676.618C79.0214 669.614 80.5324 661.483 77.1576 654.09C74.2065 647.625 68.7057 642.796 63.9614 637.673C58.9798 632.294 55.1602 626.392 53.1925 619.27C51.1797 611.985 50.9683 604.28 51.5053 596.781C52.8498 579.785 56.8582 563.106 63.3837 547.355C70.7315 529.338 81.1073 512.71 94.0622 498.191C94.8644 497.293 96.1006 498.706 95.3037 499.598V499.598Z" fill="white"/>
<path d="M54.1336 582.593C48.3361 581.185 43.2277 577.763 39.7206 572.936C36.2136 568.11 34.5363 562.194 34.9883 556.246C35.0839 555.042 36.9584 555.134 36.8627 556.339C36.4315 561.878 37.9945 567.388 41.2694 571.876C44.5443 576.363 49.3155 579.533 54.7218 580.811C55.8964 581.09 55.3014 582.87 54.1336 582.593Z" fill="white"/>
<path d="M62.0538 633.48C72.5248 627.228 80.2546 617.259 83.7019 605.56C84.0425 604.401 85.8237 604.991 85.4835 606.149C81.8735 618.315 73.8083 628.674 62.8976 635.156C61.8573 635.773 61.0191 634.094 62.0538 633.48V633.48Z" fill="white"/>
<path d="M72.4726 531.115C74.6023 532.127 76.95 532.594 79.3049 532.475C81.6598 532.355 83.9482 531.653 85.9644 530.43C86.9964 529.8 87.8336 531.48 86.8083 532.106C84.5743 533.446 82.0461 534.219 79.4446 534.357C76.8431 534.495 74.2474 533.993 71.8843 532.897C71.6529 532.812 71.4625 532.642 71.3516 532.422C71.2408 532.202 71.2179 531.948 71.2877 531.712C71.3668 531.476 71.5356 531.282 71.7574 531.17C71.9793 531.058 72.2363 531.038 72.4726 531.115Z" fill="white"/>
<path d="M217.707 574.252C217.073 574.664 216.44 575.076 215.806 575.503C207.321 581.083 199.304 587.342 191.833 594.22C191.247 594.742 190.661 595.281 190.091 595.819C172.268 612.581 157.713 632.506 147.164 654.582C142.974 663.37 139.459 672.464 136.649 681.786C132.769 694.659 129.587 708.926 121.907 719.456C121.118 720.564 120.261 721.621 119.342 722.623H49.9382C49.7804 722.544 49.6219 722.481 49.4634 722.401L46.6924 722.528C46.8037 722.037 46.9297 721.531 47.0411 721.04C47.1045 720.755 47.1833 720.47 47.2467 720.185C47.2939 719.995 47.3418 719.805 47.3735 719.63C47.389 719.567 47.4052 719.504 47.4207 719.456C47.4524 719.282 47.5003 719.124 47.532 718.965C48.2287 716.131 48.9465 713.297 49.6853 710.462C49.6853 710.446 49.6853 710.446 49.7008 710.43C55.386 688.848 62.9229 667.55 73.4528 648.074C73.7698 647.488 74.086 646.886 74.4347 646.3C79.2299 637.547 84.7323 629.201 90.8872 621.345C94.2712 617.054 97.8703 612.937 101.671 609.009C111.51 598.881 122.881 590.364 135.366 583.769C160.259 570.626 189.077 565.591 215.68 573.619C216.361 573.825 217.026 574.031 217.707 574.252Z" fill="#E6E6E6"/>
<path d="M217.551 575.133C182.991 581.997 151.472 599.577 127.472 625.374C122.364 630.932 117.665 637.015 114.518 643.916C111.502 650.667 110.349 658.103 111.178 665.45C111.814 672.317 113.259 679.267 112.214 686.168C111.113 693.442 106.794 699.394 100.742 703.439C93.338 708.388 84.5966 710.382 75.9805 712.035C66.414 713.87 56.4483 715.624 48.464 721.6C47.4966 722.324 46.4298 720.78 47.3957 720.057C61.2869 709.661 79.9021 711.843 95.0986 704.503C102.19 701.078 108.291 695.496 110.048 687.561C111.584 680.623 110.1 673.455 109.396 666.508C108.657 659.214 109.161 652.202 111.877 645.331C114.656 638.302 119.127 632.023 124.07 626.358C135.376 613.597 148.619 602.694 163.312 594.046C180.027 584.084 198.322 577.055 217.407 573.262C218.589 573.028 218.725 574.901 217.551 575.133H217.551Z" fill="white"/>
<path d="M134.711 616.612C130.929 611.998 128.911 606.19 129.017 600.225C129.122 594.26 131.345 588.526 135.287 584.049C136.088 583.146 137.529 584.348 136.727 585.252C133.048 589.415 130.979 594.756 130.892 600.31C130.805 605.865 132.706 611.268 136.253 615.544C137.023 616.474 135.476 617.537 134.711 616.612Z" fill="white"/>
<path d="M110.397 662.011C122.522 663.324 134.696 660.018 144.491 652.753C145.461 652.032 146.528 653.575 145.56 654.295C135.352 661.836 122.676 665.251 110.062 663.857C108.86 663.724 109.201 661.878 110.397 662.011Z" fill="white"/>
<path d="M180.346 586.551C181.437 588.642 183.03 590.428 184.983 591.751C186.935 593.073 189.185 593.89 191.531 594.128C192.734 594.246 192.391 596.091 191.196 595.974C188.605 595.699 186.121 594.794 183.961 593.337C181.801 591.881 180.03 589.918 178.804 587.62C178.67 587.413 178.62 587.163 178.664 586.92C178.708 586.678 178.843 586.461 179.041 586.314C179.246 586.174 179.498 586.12 179.742 586.165C179.987 586.209 180.204 586.348 180.346 586.551Z" fill="white"/>
<path d="M369.216 700.309L351.327 705.484L322.851 638.946L349.254 631.307L369.216 700.309Z" fill="#9E616A"/>
<path d="M411.999 459.17L393.543 478.857C393.543 478.857 296.341 521.921 296.341 544.068C296.341 566.215 319.718 662.186 329.562 669.569C335.49 674.04 332.81 678.855 335.752 685.674L370.165 673.26C370.165 673.26 367.704 665.878 370.165 662.186C372.626 658.495 370.165 656.034 370.165 656.034C370.165 656.034 366.474 657.265 367.704 653.574C368.934 649.882 368.934 648.652 367.704 647.422C366.474 646.191 362.782 635.118 362.782 635.118C362.782 635.118 364.013 590.823 346.787 574.828C346.787 574.828 426.763 551.45 436.607 535.455C446.45 519.46 448.911 461.631 448.911 461.631L411.999 459.17Z" fill="#2F2E41"/>
<path d="M376.509 710.508L316.898 722.811L316.743 722.057C315.473 715.903 316.7 709.497 320.153 704.248C323.606 698.999 329.002 695.336 335.156 694.066L335.157 694.065L344.34 683.557L366.362 687.626L371.565 686.552L376.509 710.508Z" fill="#2F2E41"/>
<path d="M434.294 625.577L411.465 640.882L458.827 695.61L474.295 685.239L434.294 625.577Z" fill="#9E616A"/>
<path d="M468.393 425.254C456.2 399.544 493.369 475.568 488.448 499.113C484.605 517.497 412.832 576.032 412.832 576.032C434.458 585.246 448.306 627.338 448.306 627.338C448.306 627.338 455.53 636.507 457.104 637.247C458.679 637.988 459.096 639.146 459.188 643.036C459.281 646.925 462.337 644.517 462.337 644.517C462.337 644.517 465.486 645.999 464.422 650.306C463.357 654.612 468.173 660.724 468.173 660.724L441.57 685.526C436.492 680.107 435.813 673.204 428.72 671.006C416.958 667.395 362.451 585.018 354.948 564.18C347.446 543.342 424.311 469.896 424.311 469.896L430.839 433.545L468.393 425.254Z" fill="#2F2E41"/>
<path d="M482.092 703.592L424.823 724.21L424.562 723.485C422.434 717.574 422.742 711.059 425.417 705.374C428.092 699.688 432.916 695.299 438.827 693.17L438.829 693.169L446.432 681.467L468.807 682.377L473.806 680.577L482.092 703.592Z" fill="#2F2E41"/>
<path d="M424.751 302.44L408.174 315.063L364.137 326.726C364.137 326.726 379.916 437.468 372.469 444.915C365.021 452.363 371.738 452.563 370.242 462.237C368.745 471.912 365.108 491.744 365.108 491.744C415.378 518.354 458.715 519.067 493.527 487.929C493.972 486.003 493.746 483.982 492.885 482.202C492.025 480.422 490.582 478.99 488.796 478.142C482.317 474.705 494.768 458.659 489.474 455.976C484.179 453.294 491.626 430.021 491.626 430.021L507.766 353.826L464.837 320.238L458.308 304.508L424.751 302.44Z" fill="#6C63FF"/>
<path d="M445.436 401.398C448.604 401.398 451.172 398.83 451.172 395.663C451.172 392.495 448.604 389.927 445.436 389.927C442.268 389.927 439.7 392.495 439.7 395.663C439.7 398.83 442.268 401.398 445.436 401.398Z" fill="#F2F2F2"/>
<path d="M441.722 295.415C459.832 295.415 474.513 280.733 474.513 262.623C474.513 244.513 459.832 229.832 441.722 229.832C423.612 229.832 408.931 244.513 408.931 262.623C408.931 280.733 423.612 295.415 441.722 295.415Z" fill="#9E616A"/>
<path opacity="0.1" d="M489.473 391.088L494.893 395.153L497.603 376.183L489.473 391.088Z" fill="black"/>
<path d="M366.734 326.618C366.734 326.618 359.959 325.263 355.894 337.458C351.829 349.653 331.424 413.87 331.424 422C331.424 430.13 429.746 447.854 429.746 447.854L420.088 413.972L375.425 400L366.734 326.618Z" fill="#6C63FF"/>
<path d="M434.052 442.831C442.792 442.831 449.878 435.745 449.878 427.005C449.878 418.265 442.792 411.18 434.052 411.18C425.312 411.18 418.227 418.265 418.227 427.005C418.227 435.745 425.312 442.831 434.052 442.831Z" fill="#9E616A"/>
<path opacity="0.1" d="M378.335 383.874L379.574 400.658L418.888 421.292L383.921 397.838L378.335 383.874Z" fill="black"/>
<path d="M470.845 377.267H470.335V363.295C470.335 362.233 470.125 361.182 469.719 360.201C469.313 359.22 468.717 358.328 467.966 357.577C467.215 356.826 466.324 356.231 465.343 355.824C464.362 355.418 463.31 355.209 462.248 355.209H432.648C431.586 355.209 430.534 355.418 429.553 355.824C428.572 356.231 427.681 356.826 426.93 357.577C426.179 358.328 425.583 359.22 425.177 360.201C424.771 361.182 424.562 362.233 424.562 363.295V439.944C424.562 441.006 424.771 442.057 425.177 443.038C425.583 444.019 426.179 444.911 426.93 445.661C427.681 446.412 428.572 447.008 429.553 447.414C430.534 447.821 431.586 448.03 432.648 448.03H462.248C463.31 448.03 464.362 447.821 465.343 447.414C466.324 447.008 467.215 446.412 467.966 445.662C468.717 444.911 469.313 444.019 469.719 443.038C470.125 442.057 470.335 441.006 470.335 439.944V387.212H470.845V377.267Z" fill="#F0F0F0"/>
<path d="M507.765 353.826C507.765 353.826 511.83 356.536 514.54 368.731C517.25 380.925 534.865 426.995 528.09 437.835C521.315 448.675 519.315 460.244 496.28 443.984L464.405 414.8L487.44 393.12L496.925 399.895L507.765 353.826Z" fill="#6C63FF"/>
<path d="M447.81 389.371C451.552 389.371 454.585 386.338 454.585 382.596C454.585 378.855 451.552 375.821 447.81 375.821C444.068 375.821 441.035 378.855 441.035 382.596C441.035 386.338 444.068 389.371 447.81 389.371Z" fill="#6C63FF"/>
<path d="M467.422 413.264C476.162 413.264 483.248 406.179 483.248 397.439C483.248 388.698 476.162 381.613 467.422 381.613C458.682 381.613 451.597 388.698 451.597 397.439C451.597 406.179 458.682 413.264 467.422 413.264Z" fill="#9E616A"/>
<path opacity="0.1" d="M372.872 436.86L421.701 446.002L374.16 447.827L372.872 436.86Z" fill="black"/>
<path d="M470.594 240.961C470.594 240.961 479.132 224.64 460.348 223.156C460.348 223.156 444.336 208.63 428.014 220.5C428.014 220.5 419.112 220.5 414.243 230.575C414.243 230.575 407.242 227.919 405.703 235.026C405.703 235.026 400.579 249.864 405.703 263.218C410.826 276.571 412.528 278.055 412.528 278.055C412.528 278.055 408.933 261.484 429.426 260C449.918 258.516 468.718 245.679 470.426 262C472.134 278.321 474.011 270.948 474.011 270.948C474.011 270.948 490.231 247.638 470.594 240.961Z" fill="#2F2E41"/>
<path d="M789.08 205.746H523.62C519.551 205.746 515.648 207.363 512.77 210.241C509.892 213.118 508.275 217.021 508.275 221.091V284.935C508.275 289.005 509.892 292.908 512.77 295.785C515.648 298.663 519.551 300.28 523.62 300.28H527.517V311.814C527.517 312.514 527.724 313.198 528.113 313.78C528.502 314.362 529.055 314.816 529.701 315.084C530.348 315.352 531.06 315.422 531.746 315.285C532.433 315.149 533.063 314.812 533.558 314.317L547.595 300.28H789.08C793.15 300.28 797.053 298.663 799.931 295.785C802.808 292.908 804.425 289.005 804.425 284.935V221.091C804.425 219.076 804.028 217.081 803.257 215.219C802.486 213.357 801.355 211.666 799.931 210.241C798.506 208.816 796.814 207.685 794.952 206.914C793.091 206.143 791.095 205.746 789.08 205.746Z" fill="#3F3D56"/>
<path d="M789.08 292.493H523.62C521.617 292.491 519.695 291.694 518.279 290.277C516.862 288.86 516.065 286.939 516.062 284.935V221.091C516.065 219.087 516.862 217.166 518.279 215.749C519.695 214.333 521.617 213.536 523.62 213.533H725.237C744.167 213.555 762.316 221.084 775.702 234.47C789.087 247.856 796.617 266.005 796.638 284.935C796.636 286.939 795.839 288.86 794.422 290.277C793.005 291.694 791.084 292.491 789.08 292.493Z" fill="white"/>
<path d="M713.36 227.497H599.898C597.501 227.497 595.559 229.44 595.559 231.836V233.197C595.559 235.594 597.501 237.536 599.898 237.536H713.36C715.757 237.536 717.699 235.594 717.699 233.197V231.836C717.699 229.44 715.757 227.497 713.36 227.497Z" fill="#6C63FF"/>
<path d="M737.204 247.575H576.056C573.659 247.575 571.717 249.518 571.717 251.914V253.275C571.717 255.672 573.659 257.614 576.056 257.614H737.204C739.6 257.614 741.543 255.672 741.543 253.275V251.914C741.543 249.518 739.6 247.575 737.204 247.575Z" fill="#E6E6E6"/>
<path d="M737.204 267.653H576.056C573.659 267.653 571.717 269.596 571.717 271.992V273.353C571.717 275.75 573.659 277.692 576.056 277.692H737.204C739.6 277.692 741.543 275.75 741.543 273.353V271.992C741.543 269.596 739.6 267.653 737.204 267.653Z" fill="#E6E6E6"/>
<path d="M955.464 0H748.549C746.978 -1.31322e-06 745.423 0.309373 743.972 0.910461C742.52 1.51155 741.202 2.39258 740.091 3.50325C738.981 4.61392 738.099 5.93247 737.498 7.38363C736.897 8.83479 736.588 10.3901 736.588 11.9609V61.7245C736.588 63.2952 736.897 64.8506 737.498 66.3017C738.099 67.7529 738.981 69.0714 740.091 70.1821C741.202 71.2928 742.52 72.1738 743.972 72.7749C745.423 73.376 746.978 73.6854 748.549 73.6854H751.586V82.676C751.586 83.2216 751.748 83.7549 752.051 84.2085C752.354 84.6621 752.785 85.0156 753.289 85.2244C753.793 85.4332 754.347 85.4878 754.882 85.3814C755.417 85.2749 755.909 85.0122 756.295 84.6264L767.236 73.6854H955.464C957.035 73.6854 958.59 73.376 960.042 72.7749C961.493 72.1738 962.811 71.2928 963.922 70.1821C965.033 69.0714 965.914 67.7529 966.515 66.3017C967.116 64.8506 967.425 63.2952 967.425 61.7245V11.9609C967.425 10.3901 967.116 8.83479 966.515 7.38363C965.914 5.93247 965.033 4.61392 963.922 3.50325C962.811 2.39258 961.493 1.51155 960.042 0.910461C958.59 0.309373 957.035 -1.31322e-06 955.464 0Z" fill="#F2F2F2"/>
<path d="M955.465 67.6157H748.549C746.987 67.6139 745.49 66.9927 744.386 65.8883C743.281 64.7839 742.66 63.2865 742.658 61.7247V11.9608C742.66 10.3989 743.281 8.90148 744.386 7.79707C745.49 6.69266 746.987 6.07144 748.549 6.0697H905.702C920.457 6.0865 934.603 11.9555 945.037 22.3893C955.47 32.823 961.339 46.9693 961.356 61.7246C961.354 63.2865 960.733 64.7839 959.628 65.8883C958.524 66.9927 957.027 67.614 955.465 67.6157Z" fill="white"/>
<path d="M895.914 16.9541H808.535C806.374 16.9541 804.622 18.7058 804.622 20.8666V20.8666C804.622 23.0274 806.374 24.7791 808.535 24.7791H895.914C898.074 24.7791 899.826 23.0274 899.826 20.8666C899.826 18.7058 898.074 16.9541 895.914 16.9541Z" fill="#F2F2F2"/>
<path d="M914.498 32.6041H789.951C787.79 32.6041 786.038 34.3558 786.038 36.5166V36.5166C786.038 38.6774 787.79 40.4291 789.951 40.4291H914.498C916.659 40.4291 918.411 38.6774 918.411 36.5166C918.411 34.3558 916.659 32.6041 914.498 32.6041Z" fill="#F2F2F2"/>
<path d="M914.498 48.2542H789.951C787.79 48.2542 786.038 50.0058 786.038 52.1666V52.1666C786.038 54.3275 787.79 56.0791 789.951 56.0791H914.498C916.659 56.0791 918.411 54.3275 918.411 52.1666C918.411 50.0058 916.659 48.2542 914.498 48.2542Z" fill="#F2F2F2"/>
<path d="M492.583 82H699.499C701.069 82 702.625 82.3094 704.076 82.9105C705.527 83.5115 706.845 84.3926 707.956 85.5033C709.067 86.6139 709.948 87.9325 710.549 89.3836C711.15 90.8348 711.459 92.3901 711.459 93.9608V143.724C711.459 145.295 711.15 146.851 710.549 148.302C709.948 149.753 709.067 151.071 707.956 152.182C706.845 153.293 705.527 154.174 704.076 154.775C702.625 155.376 701.069 155.685 699.499 155.685H696.461V164.676C696.461 165.222 696.3 165.755 695.997 166.208C695.693 166.662 695.263 167.016 694.759 167.224C694.255 167.433 693.7 167.488 693.165 167.381C692.63 167.275 692.138 167.012 691.753 166.626L680.811 155.685H492.583C491.012 155.685 489.457 155.376 488.006 154.775C486.555 154.174 485.236 153.293 484.125 152.182C483.015 151.071 482.134 149.753 481.533 148.302C480.931 146.851 480.622 145.295 480.622 143.724V93.9608C480.622 92.3901 480.931 90.8348 481.533 89.3836C482.134 87.9325 483.015 86.6139 484.125 85.5033C485.236 84.3926 486.555 83.5115 488.006 82.9105C489.457 82.3094 491.012 82 492.583 82Z" fill="#F2F2F2"/>
<path d="M486.692 143.725C486.709 128.969 492.578 114.823 503.011 104.389C513.445 93.9556 527.591 88.0865 542.346 88.0697H699.499C701.061 88.0714 702.558 88.6927 703.663 89.7971C704.767 90.9015 705.388 92.3989 705.39 93.9607V143.725C705.388 145.286 704.767 146.784 703.663 147.888C702.558 148.993 701.061 149.614 699.499 149.616H492.583C491.022 149.614 489.524 148.993 488.42 147.888C487.315 146.784 486.694 145.287 486.692 143.725Z" fill="white"/>
<path d="M552.134 106.779L639.513 106.779C641.674 106.779 643.426 105.027 643.426 102.867C643.426 100.706 641.674 98.9542 639.513 98.9542L552.134 98.9542C549.973 98.9542 548.222 100.706 548.222 102.867C548.222 105.027 549.973 106.779 552.134 106.779Z" fill="#F2F2F2"/>
<path d="M533.549 122.429L658.097 122.429C660.258 122.429 662.01 120.677 662.01 118.517V118.517C662.01 116.356 660.258 114.604 658.097 114.604L533.549 114.604C531.389 114.604 529.637 116.356 529.637 118.517C529.637 120.677 531.389 122.429 533.549 122.429Z" fill="#F2F2F2"/>
<path d="M533.549 138.079L658.097 138.079C660.258 138.079 662.01 136.327 662.01 134.167C662.01 132.006 660.258 130.254 658.097 130.254L533.549 130.254C531.389 130.254 529.637 132.006 529.637 134.167C529.637 136.327 531.389 138.079 533.549 138.079Z" fill="#F2F2F2"/>
<path d="M860.485 724.137H1.19067C0.874886 724.137 0.572035 724.011 0.34874 723.788C0.125444 723.565 0 723.262 0 722.946C0 722.63 0.125444 722.327 0.34874 722.104C0.572035 721.881 0.874886 721.755 1.19067 721.755H860.485C860.8 721.755 861.103 721.881 861.327 722.104C861.55 722.327 861.675 722.63 861.675 722.946C861.675 723.262 861.55 723.565 861.327 723.788C861.103 724.011 860.8 724.137 860.485 724.137Z" fill="#CCCCCC"/>
<g clip-path="url(#clip2_211_327)">
<path d="M475.564 331.239H294.989C294.102 331.238 293.252 330.873 292.625 330.223C291.998 329.573 291.646 328.691 291.645 327.772V281.332C291.646 280.413 291.998 279.531 292.625 278.881C293.252 278.231 294.102 277.866 294.989 277.865H475.564C476.45 277.866 477.3 278.231 477.927 278.881C478.554 279.531 478.907 280.413 478.908 281.332V327.772C478.907 328.691 478.554 329.573 477.927 330.223C477.3 330.873 476.45 331.238 475.564 331.239V331.239ZM294.989 279.252C294.457 279.252 293.947 279.471 293.57 279.861C293.194 280.251 292.983 280.78 292.982 281.332V327.772C292.983 328.324 293.194 328.853 293.57 329.243C293.947 329.633 294.457 329.852 294.989 329.852H475.564C476.096 329.852 476.606 329.633 476.982 329.243C477.358 328.853 477.57 328.324 477.57 327.772V281.332C477.57 280.78 477.358 280.251 476.982 279.861C476.606 279.471 476.096 279.252 475.564 279.252L294.989 279.252Z" fill="#3F3D56"/>
<path d="M323.046 316.893C330.569 316.893 336.668 310.57 336.668 302.77C336.668 294.97 330.569 288.647 323.046 288.647C315.523 288.647 309.425 294.97 309.425 302.77C309.425 310.57 315.523 316.893 323.046 316.893Z" fill="#63FFD0"/>
<path d="M354.506 293.355C353.903 293.355 353.326 293.603 352.9 294.044C352.475 294.486 352.235 295.084 352.235 295.709C352.235 296.333 352.475 296.932 352.9 297.373C353.326 297.815 353.903 298.063 354.506 298.063H461.533C462.135 298.063 462.712 297.815 463.138 297.373C463.564 296.932 463.803 296.333 463.803 295.709C463.803 295.084 463.564 294.486 463.138 294.044C462.712 293.603 462.135 293.355 461.533 293.355H354.506Z" fill="#E6E6E6"/>
<path d="M354.506 307.478C353.903 307.478 353.326 307.726 352.9 308.167C352.475 308.608 352.235 309.207 352.235 309.831C352.235 310.456 352.475 311.054 352.9 311.496C353.326 311.937 353.903 312.185 354.506 312.185H400.56C400.858 312.186 401.154 312.125 401.43 312.007C401.706 311.889 401.956 311.716 402.168 311.497C402.379 311.279 402.547 311.019 402.661 310.733C402.775 310.447 402.834 310.141 402.834 309.831C402.834 309.522 402.775 309.216 402.661 308.93C402.547 308.644 402.379 308.384 402.168 308.166C401.956 307.947 401.706 307.774 401.43 307.656C401.154 307.538 400.858 307.477 400.56 307.478H354.506Z" fill="#E6E6E6"/>
<path d="M397.169 496.779H316.913C316.027 496.778 315.177 496.412 314.55 495.762C313.923 495.112 313.57 494.231 313.569 493.312V406.654C313.57 405.735 313.923 404.854 314.55 404.204C315.177 403.554 316.027 403.188 316.913 403.187H397.169C398.056 403.188 398.906 403.554 399.533 404.204C400.159 404.854 400.512 405.735 400.513 406.654V493.312C400.512 494.231 400.159 495.112 399.533 495.762C398.906 496.412 398.056 496.778 397.169 496.779ZM316.913 404.574C316.381 404.575 315.871 404.794 315.495 405.184C315.119 405.574 314.908 406.103 314.907 406.654V493.312C314.908 493.863 315.119 494.392 315.495 494.782C315.871 495.172 316.381 495.391 316.913 495.392H397.169C397.701 495.391 398.211 495.172 398.587 494.782C398.963 494.392 399.175 493.863 399.176 493.312V406.654C399.175 406.103 398.963 405.574 398.587 405.184C398.211 404.794 397.701 404.575 397.169 404.574H316.913Z" fill="#3F3D56"/>
<path d="M334.014 421.058C333.412 421.058 332.835 421.306 332.409 421.747C331.983 422.188 331.744 422.787 331.744 423.411C331.744 424.036 331.983 424.634 332.409 425.076C332.835 425.517 333.412 425.765 334.014 425.765H380.068C380.671 425.765 381.248 425.517 381.674 425.076C382.1 424.634 382.339 424.036 382.339 423.411C382.339 422.787 382.1 422.188 381.674 421.747C381.248 421.306 380.671 421.058 380.068 421.058H334.014Z" fill="#E6E6E6"/>
<path d="M334.015 434.926C333.716 434.925 333.42 434.985 333.145 435.103C332.869 435.222 332.618 435.395 332.407 435.613C332.195 435.832 332.028 436.092 331.913 436.378C331.799 436.663 331.74 436.97 331.74 437.279C331.74 437.589 331.799 437.895 331.913 438.181C332.028 438.467 332.195 438.727 332.407 438.945C332.618 439.164 332.869 439.337 333.145 439.455C333.42 439.573 333.716 439.634 334.015 439.633H380.069C380.671 439.633 381.248 439.385 381.674 438.944C382.1 438.502 382.339 437.904 382.339 437.279C382.339 436.655 382.1 436.056 381.674 435.615C381.248 435.174 380.671 434.926 380.069 434.926H334.015Z" fill="#E6E6E6"/>
<path d="M357.041 478.908C354.215 478.908 351.452 478.039 349.102 476.411C346.752 474.783 344.92 472.469 343.839 469.762C342.757 467.055 342.474 464.076 343.026 461.202C343.577 458.328 344.938 455.688 346.937 453.616C348.935 451.544 351.481 450.133 354.253 449.561C357.025 448.99 359.899 449.283 362.51 450.404C365.121 451.526 367.353 453.425 368.923 455.861C370.493 458.298 371.332 461.162 371.332 464.092C371.327 468.02 369.82 471.786 367.141 474.564C364.462 477.341 360.83 478.904 357.041 478.908V478.908Z" fill="#FFE600"/>
<path d="M528.642 209H608.898C609.784 209.001 610.634 209.367 611.261 210.017C611.888 210.667 612.241 211.548 612.242 212.467V299.125C612.241 300.044 611.888 300.925 611.261 301.575C610.634 302.225 609.784 302.59 608.898 302.591H528.642C527.755 302.59 526.905 302.225 526.278 301.575C525.652 300.925 525.299 300.044 525.298 299.125V212.467C525.299 211.548 525.652 210.667 526.278 210.017C526.905 209.367 527.755 209.001 528.642 209V209ZM608.898 301.205C609.43 301.204 609.94 300.985 610.316 300.595C610.692 300.205 610.904 299.676 610.904 299.125V212.467C610.904 211.915 610.692 211.387 610.316 210.997C609.94 210.607 609.43 210.387 608.898 210.387H528.642C528.11 210.387 527.6 210.607 527.224 210.997C526.848 211.387 526.636 211.915 526.635 212.467V299.125C526.636 299.676 526.848 300.205 527.224 300.595C527.6 300.985 528.11 301.204 528.642 301.205H608.898Z" fill="#3F3D56"/>
<path d="M591.797 284.721C592.399 284.721 592.977 284.473 593.402 284.032C593.828 283.59 594.067 282.992 594.067 282.367C594.067 281.743 593.828 281.144 593.402 280.703C592.977 280.262 592.399 280.014 591.797 280.014H545.743C545.141 280.014 544.563 280.262 544.138 280.703C543.712 281.144 543.473 281.743 543.473 282.367C543.473 282.992 543.712 283.59 544.138 284.032C544.563 284.473 545.141 284.721 545.743 284.721H591.797Z" fill="#E6E6E6"/>
<path d="M591.797 270.853C592.399 270.853 592.977 270.605 593.402 270.164C593.828 269.722 594.067 269.124 594.067 268.499C594.067 267.875 593.828 267.276 593.402 266.835C592.977 266.394 592.399 266.146 591.797 266.146H545.743C545.141 266.146 544.563 266.394 544.138 266.835C543.712 267.276 543.473 267.875 543.473 268.499C543.473 269.124 543.712 269.722 544.138 270.164C544.563 270.605 545.141 270.853 545.743 270.853H591.797Z" fill="#E6E6E6"/>
<path d="M568.77 226.87C571.596 226.87 574.359 227.739 576.709 229.367C579.059 230.995 580.891 233.309 581.972 236.016C583.054 238.724 583.337 241.703 582.786 244.577C582.234 247.451 580.873 250.091 578.875 252.163C576.876 254.235 574.33 255.646 571.558 256.218C568.786 256.789 565.912 256.496 563.301 255.374C560.69 254.253 558.458 252.354 556.888 249.918C555.318 247.481 554.479 244.617 554.479 241.686C554.484 237.758 555.991 233.992 558.67 231.215C561.349 228.437 564.981 226.875 568.77 226.87Z" fill="#A8FF63"/>
<path d="M292.676 388.281C306.878 376.877 323.47 369.101 341.11 365.581C358.889 362.068 377.224 363.045 394.562 368.429C403.278 371.119 411.653 374.881 419.507 379.635C427.51 384.485 434.741 390.456 441.698 396.777C448.746 403.181 455.562 409.871 462.92 415.9C483.926 433.308 510.003 442.819 536.894 442.88C539.116 442.883 541.336 442.82 543.554 442.689C544.757 442.621 544.765 440.672 543.554 440.741C516.143 442.306 489.074 433.825 467.085 416.784C459.459 410.872 452.497 404.112 445.388 397.562C438.497 391.211 431.42 385.033 423.601 379.931C404.477 367.439 382.228 361.063 359.63 361.597C337.032 362.131 315.086 369.552 296.53 382.934C294.766 384.206 293.043 385.535 291.347 386.903C290.394 387.673 291.732 389.043 292.676 388.281V388.281Z" fill="#3F3D56"/>
<path d="M291.678 397.699C297.072 397.699 301.444 393.165 301.444 387.573C301.444 381.981 297.072 377.448 291.678 377.448C286.285 377.448 281.912 381.981 281.912 387.573C281.912 393.165 286.285 397.699 291.678 397.699Z" fill="#3F3D56"/>
<path d="M655 532.136C660.393 532.136 664.766 527.603 664.766 522.011C664.766 516.419 660.393 511.885 655 511.885C649.606 511.885 645.233 516.419 645.233 522.011C645.233 527.603 649.606 532.136 655 532.136Z" fill="#3F3D56"/>
<path d="M706.162 464.332H546.808C545.921 464.331 545.071 463.965 544.444 463.315C543.818 462.665 543.465 461.784 543.464 460.865V374.901C543.465 373.981 543.818 373.1 544.444 372.45C545.071 371.8 545.921 371.435 546.808 371.434H706.162C707.048 371.435 707.898 371.8 708.525 372.45C709.152 373.1 709.505 373.981 709.506 374.901V460.865C709.505 461.784 709.152 462.665 708.525 463.315C707.898 463.965 707.048 464.331 706.162 464.332ZM546.808 372.82C546.276 372.821 545.766 373.04 545.39 373.43C545.014 373.82 544.802 374.349 544.801 374.901V460.865C544.802 461.416 545.014 461.945 545.39 462.335C545.766 462.725 546.276 462.944 546.808 462.945H706.162C706.694 462.944 707.204 462.725 707.58 462.335C707.956 461.945 708.168 461.416 708.168 460.865V374.901C708.168 374.349 707.956 373.82 707.58 373.43C707.204 373.04 706.694 372.821 706.162 372.82H546.808Z" fill="#3F3D56"/>
<path d="M573.528 416.009C581.051 416.009 587.149 409.686 587.149 401.886C587.149 394.086 581.051 387.763 573.528 387.763C566.005 387.763 559.906 394.086 559.906 401.886C559.906 409.686 566.005 416.009 573.528 416.009Z" fill="#6C63FF"/>
<path d="M604.987 392.471C604.689 392.47 604.393 392.531 604.117 392.649C603.841 392.767 603.591 392.94 603.379 393.159C603.168 393.377 603 393.637 602.886 393.923C602.772 394.209 602.713 394.515 602.713 394.825C602.713 395.134 602.772 395.441 602.886 395.726C603 396.012 603.168 396.272 603.379 396.491C603.591 396.709 603.841 396.883 604.117 397.001C604.393 397.119 604.689 397.179 604.987 397.179H690.793C691.395 397.179 691.973 396.931 692.398 396.489C692.824 396.048 693.063 395.449 693.063 394.825C693.063 394.2 692.824 393.602 692.398 393.16C691.973 392.719 691.395 392.471 690.793 392.471H604.987Z" fill="#E6E6E6"/>
<path d="M604.987 406.594C604.689 406.593 604.393 406.654 604.117 406.772C603.841 406.89 603.591 407.063 603.379 407.282C603.168 407.5 603 407.76 602.886 408.046C602.772 408.331 602.713 408.638 602.713 408.947C602.713 409.257 602.772 409.563 602.886 409.849C603 410.135 603.168 410.395 603.379 410.613C603.591 410.832 603.841 411.005 604.117 411.123C604.393 411.241 604.689 411.302 604.987 411.301H651.041C651.643 411.301 652.221 411.053 652.647 410.612C653.072 410.17 653.312 409.572 653.312 408.947C653.312 408.323 653.072 407.724 652.647 407.283C652.221 406.842 651.643 406.594 651.041 406.594H604.987Z" fill="#E6E6E6"/>
<path d="M563.08 429.172C561.353 429.172 559.947 430.228 559.947 431.525C559.947 432.823 561.353 433.879 563.08 433.879H689.523C691.249 433.879 692.655 432.823 692.655 431.525C692.655 430.228 691.249 429.172 689.523 429.172H563.08Z" fill="#E6E6E6"/>
<path d="M563.08 443.294C561.353 443.294 559.947 444.35 559.947 445.648C559.947 446.946 561.353 448.002 563.08 448.002H689.523C691.249 448.002 692.655 446.946 692.655 445.648C692.655 444.35 691.249 443.294 689.523 443.294H563.08Z" fill="#E6E6E6"/>
<path d="M533.998 531.437C542.988 527.394 553.025 530.919 561.499 534.645C565.863 536.565 570.18 538.613 574.697 540.129C578.496 541.401 582.387 542.357 586.333 542.988C594.251 544.245 602.304 544.297 610.237 543.14C618.21 541.987 625.98 539.645 633.305 536.185C640.59 532.762 647.324 528.198 653.27 522.652C654.027 521.944 654.769 521.219 655.496 520.478C656.361 519.599 655.032 518.222 654.167 519.1C648.441 524.887 641.867 529.698 634.691 533.355C627.543 536.999 619.919 539.538 612.062 540.892C604.179 542.27 596.141 542.414 588.217 541.318C584.264 540.764 580.36 539.884 576.542 538.687C572.157 537.208 567.854 535.476 563.656 533.498C555.103 529.69 545.6 525.961 536.202 528.587C535.125 528.896 534.072 529.286 533.049 529.755C531.943 530.252 532.899 531.931 533.998 531.437V531.437Z" fill="#3F3D56"/>
<path d="M530.524 555.334H455.237L472.955 523.517C473.272 522.946 473.729 522.473 474.279 522.143C474.829 521.814 475.453 521.641 476.088 521.641C476.723 521.641 477.347 521.814 477.897 522.143C478.447 522.473 478.904 522.946 479.222 523.517L486.79 537.108L499.66 513.998C500.057 513.284 500.629 512.691 501.318 512.279C502.006 511.867 502.787 511.65 503.583 511.65C504.378 511.65 505.159 511.867 505.848 512.279C506.536 512.691 507.108 513.284 507.506 513.998L530.524 555.334Z" fill="#FF0000"/>
<path d="M530.596 555.325H450.34C449.453 555.324 448.604 554.958 447.977 554.308C447.35 553.659 446.997 552.777 446.996 551.858V505.418C446.997 504.498 447.35 503.617 447.977 502.967C448.604 502.317 449.453 501.952 450.34 501.951H530.596C531.482 501.952 532.332 502.317 532.959 502.967C533.586 503.617 533.939 504.498 533.94 505.418V551.858C533.939 552.777 533.586 553.659 532.959 554.308C532.332 554.958 531.482 555.324 530.596 555.325ZM450.34 503.337C449.808 503.338 449.298 503.557 448.922 503.947C448.546 504.337 448.334 504.866 448.334 505.418V551.858C448.334 552.41 448.546 552.938 448.922 553.328C449.298 553.718 449.808 553.938 450.34 553.938H530.596C531.128 553.938 531.638 553.718 532.014 553.328C532.39 552.938 532.602 552.41 532.602 551.858V505.418C532.602 504.866 532.39 504.337 532.014 503.947C531.638 503.557 531.128 503.338 530.596 503.337H450.34Z" fill="#3F3D56"/>
<path d="M688.007 514.453L673.702 521.984C668.596 524.672 663.668 524.213 661.781 518.607C661.332 517.273 661.166 515.855 661.295 514.448C661.424 513.042 661.845 511.681 662.528 510.458C663.211 509.236 664.141 508.181 665.254 507.366C666.367 506.55 667.637 505.994 668.976 505.735L682.572 503.103L740.801 483.074L776.074 457.142L789.004 478.501L748.247 501.302L688.007 514.453Z" fill="#FFB8B8"/>
<path d="M861.013 743.509L850.421 746.935L842.189 727.233L852.502 721.835L861.013 743.509Z" fill="#FFB8B8"/>
<path d="M855.115 724.728L841.738 730.401L777.892 643.403L757.826 745.531L744.449 743.01C735.868 654.962 728.87 565.154 737.456 522.678L787.013 520.471L809.511 594.861L820.456 645.295L855.115 724.728Z" fill="#2F2E41"/>
<path d="M768.771 430.952C780.86 430.952 790.661 420.791 790.661 408.257C790.661 395.722 780.86 385.562 768.771 385.562C756.681 385.562 746.881 395.722 746.881 408.257C746.881 420.791 756.681 430.952 768.771 430.952Z" fill="#FFB8B8"/>
<path d="M795.526 456.169L766.947 449.865L763.299 425.278L783.364 420.865L795.526 456.169Z" fill="#FFB8B8"/>
<path d="M787.621 523.624H736.544L748.057 493.656C747.22 483.344 751.435 475.76 757.469 469.157L765.122 449.234C777.489 440.795 786.813 441.426 796.741 452.386C808.513 469.666 800.365 495.641 787.621 523.624Z" fill="#FFE600"/>
<path d="M764.514 587.296L763.062 603.862C762.543 609.775 759.548 613.858 753.966 612.535C752.637 612.22 751.39 611.611 750.31 610.75C749.229 609.889 748.341 608.797 747.705 607.547C747.07 606.297 746.703 604.92 746.628 603.509C746.554 602.098 746.775 600.687 747.275 599.373L752.353 586.035L766.946 524.254L764.514 479.494H788.836L785.796 527.406L764.514 587.296Z" fill="#FFB8B8"/>
<path d="M790.661 480.755H762.69L764.651 461.838C764.78 458.566 766.084 455.462 768.307 453.136C770.53 450.81 773.512 449.43 776.666 449.266V449.266C778.338 449.179 780.009 449.437 781.584 450.025C783.159 450.612 784.606 451.518 785.841 452.689C787.076 453.86 788.075 455.274 788.779 456.847C789.484 458.421 789.881 460.125 789.946 461.859L790.661 480.755Z" fill="#FFF500"/>
<path d="M795.863 384.921C800.407 384.921 804.091 381.102 804.091 376.39C804.091 371.679 800.407 367.86 795.863 367.86C791.318 367.86 787.635 371.679 787.635 376.39C787.635 381.102 791.318 384.921 795.863 384.921Z" fill="#2F2E41"/>
<path d="M787.385 374.302C787.52 372.138 788.446 370.108 789.974 368.627C791.502 367.146 793.517 366.324 795.609 366.329C795.439 366.307 795.271 366.28 795.098 366.268C792.921 366.124 790.778 366.883 789.14 368.376C787.502 369.87 786.504 371.977 786.364 374.234C786.224 376.491 786.954 378.713 788.394 380.412C789.834 382.111 791.865 383.148 794.042 383.294C794.215 383.305 794.385 383.301 794.557 383.301C792.481 383.029 790.584 381.946 789.252 380.274C787.919 378.602 787.252 376.467 787.385 374.302V374.302Z" fill="#2F2E41"/>
<path d="M787.338 377.945C780 371.634 758.953 379.655 757.595 383.898C747.672 385.3 740.159 391.302 740.159 401.975V401.975C746.059 404.481 752.768 404.172 760.021 401.975C771.583 411.744 772.376 424.024 765.344 438.129L773.995 438.309L784.717 422.061L785.23 438.542L805.059 438.129V414.511C805.123 406.658 803.38 398.903 799.974 391.889C796.884 385.665 792.089 382.03 787.338 377.945Z" fill="#2F2E41"/>
<path d="M768.874 419.673C771.047 419.673 772.809 417.116 772.809 413.962C772.809 410.808 771.047 408.251 768.874 408.251C766.701 408.251 764.939 410.808 764.939 413.962C764.939 417.116 766.701 419.673 768.874 419.673Z" fill="#FFB8B8"/>
<path d="M273.812 421.209C273.812 421.209 276.18 378.706 288.476 388.364C300.772 398.022 283.106 425.151 283.106 425.151L273.812 421.209Z" fill="#FFB9B9"/>
<path d="M228.066 547.283C228.066 547.283 255.379 579.073 240.098 581.258C224.817 583.444 218.806 551.31 218.806 551.31L228.066 547.283Z" fill="#FFB9B9"/>
<path d="M192.425 396.802C195.853 397.738 198.938 399.702 201.293 402.449C203.648 405.197 205.167 408.604 205.66 412.243L214.348 476.356L226.528 527.497C226.528 527.497 232.617 533.18 230.182 536.337C227.746 539.494 233.226 552.752 233.226 552.752L218.002 557.803C218.002 557.803 216.175 544.545 213.13 543.913C210.454 543.358 180.499 460.394 173.279 440.295C172.283 437.524 171.72 435.948 171.72 435.948C171.72 435.948 172.938 393.646 192.425 396.802Z" fill="#575A89"/>
<path d="M153.709 536.936L162.476 646.916C162.476 646.916 162.768 712.661 172.119 725.386C181.471 738.111 181.763 744.474 181.763 744.474L201.05 734.173C201.05 734.173 191.114 717.008 193.16 714.38C194.421 712.714 195.318 710.783 195.79 708.723L190.53 640.856L200.465 522.696L153.709 536.936Z" fill="#2F2E41"/>
<path d="M227.935 537.238L232.61 638.432C232.61 638.432 189.945 729.931 185.269 732.355C183.876 733.101 182.641 734.128 181.637 735.377C180.634 736.626 179.881 738.071 179.425 739.626L153.709 732.961L165.398 713.57L191.114 648.734C191.114 648.734 195.205 646.916 196.374 640.856C197.543 634.797 199.881 634.797 194.036 633.585C188.192 632.373 188.192 626.313 188.192 626.313L168.905 534.209L227.935 537.238Z" fill="#2F2E41"/>
<path d="M229.971 358.124C232.039 344.91 223.384 332.46 210.639 330.316C197.894 328.172 185.886 337.145 183.818 350.359C181.75 363.572 190.405 376.022 203.15 378.166C215.894 380.311 227.902 371.337 229.971 358.124Z" fill="#FFB9B9"/>
<path d="M186.146 355.756C186.146 355.756 184.393 386.66 182.055 389.689C179.717 392.719 206.602 392.113 206.602 392.113C206.602 392.113 204.849 366.057 206.602 363.633C208.356 361.21 186.146 355.756 186.146 355.756Z" fill="#FFB9B9"/>
<path d="M229.686 543.905C229.686 543.905 163.642 537.846 151.372 543.905C151.372 543.905 155.889 526.531 154.722 524.716C153.873 523.388 156.215 473.9 155.48 445.352C155.063 429.244 151.478 413.513 161.899 401.553C165.446 397.491 169.403 394.08 173.579 392.415C173.579 392.415 172.411 380.903 178.255 380.298C178.255 380.298 200.469 377.87 208.647 385.146C211.261 387.456 212.906 394.497 213.08 400.563C209.033 421.198 210.466 444.095 214.179 467.849C214.407 469.358 214.657 470.875 214.907 472.391C218.848 495.949 224.805 520.237 229.686 543.905Z" fill="#575A89"/>
<path d="M194.681 361.383C196.658 361.261 198.589 361.954 200.552 362.224C207.577 363.191 214.884 357.906 216.435 350.738C216.56 349.783 216.834 348.856 217.248 347.993C218.329 346.163 220.791 345.814 222.821 346.235C224.85 346.656 226.774 347.641 228.841 347.753C232.033 347.927 235.097 345.89 236.797 343.085C238.405 340.191 239.088 336.844 238.75 333.523L237.22 335.188C236.599 333.824 236.359 332.307 236.528 330.809C235.717 330.585 234.864 330.581 234.051 330.796C233.238 331.012 232.493 331.44 231.885 332.04C230.536 332.189 231.554 329.446 230.552 328.498C230.065 328.188 229.484 328.075 228.921 328.182C226.051 328.21 223.729 325.934 221.468 324.102C217.549 320.935 212.967 318.768 208.091 317.776C204.85 317.121 201.404 317.016 198.33 318.267C195.849 319.421 193.61 321.068 191.739 323.114C186.927 327.911 182.666 333.548 180.665 340.15C179.037 345.558 178.991 351.344 180.532 356.78C181.339 359.602 183.77 369.269 187.328 369.494C191.8 369.777 189.115 361.728 194.681 361.383Z" fill="#2F2E41"/>
<path d="M204.358 399.777L212.734 400.708C212.734 400.708 220.956 417.245 220.359 420.695C219.762 424.145 218.461 422.05 222.162 427.569C225.862 433.088 236.363 447.354 237.663 449.448C238.964 451.542 274.413 423.5 272.209 415.098C272.209 415.098 283.405 423.426 288.202 424.534C288.202 424.534 251.668 474.209 246.577 480.567C241.486 486.924 237.389 485.618 230.392 481.849C223.396 478.08 188.001 440.483 188.001 440.483L204.358 399.777Z" fill="#575A89"/>
<path opacity="0.1" d="M214.907 472.391L185.796 442.209L193.163 439.718L214.179 467.849C214.407 469.358 214.657 470.875 214.907 472.391Z" fill="black"/>
</g>
<g clip-path="url(#clip3_211_327)">
<path d="M736.865 542.123L668.865 512.123V486.332L693.099 486.196C696.86 486.174 700.519 484.976 703.564 482.769C706.608 480.561 708.885 477.456 710.074 473.888L727.099 422.815C728.001 420.109 728.247 417.228 727.817 414.409C727.386 411.589 726.292 408.912 724.625 406.598C722.957 404.285 720.763 402.4 718.225 401.101C715.686 399.801 712.875 399.123 710.022 399.123H668.865V375.123H720.534C724.607 375.123 728.559 373.742 731.746 371.205C734.932 368.668 737.164 365.125 738.076 361.156L749.8 310.156C750.407 307.518 750.41 304.778 749.811 302.138C749.212 299.499 748.025 297.029 746.34 294.911C744.654 292.794 742.512 291.084 740.074 289.909C737.636 288.734 734.964 288.123 732.258 288.123H668.865V282.123C668.865 280.547 668.555 278.987 667.952 277.531C667.349 276.075 666.465 274.752 665.351 273.638C664.236 272.524 662.913 271.64 661.457 271.037C660.002 270.434 658.441 270.123 656.865 270.123C655.289 270.123 653.729 270.434 652.273 271.037C650.817 271.64 649.494 272.524 648.38 273.638C647.266 274.752 646.382 276.075 645.779 277.531C645.176 278.987 644.865 280.547 644.865 282.123V288.123H219.865V282.123C219.865 278.941 218.601 275.888 216.351 273.638C214.1 271.387 211.048 270.123 207.865 270.123C204.683 270.123 201.63 271.387 199.38 273.638C197.13 275.888 195.865 278.941 195.865 282.123V288.123H145.473C142.766 288.123 140.094 288.734 137.656 289.909C135.218 291.084 133.077 292.794 131.391 294.911C129.705 297.029 128.518 299.499 127.919 302.138C127.32 304.778 127.324 307.518 127.93 310.156L139.654 361.156C140.567 365.125 142.799 368.668 145.985 371.205C149.171 373.742 153.124 375.123 157.197 375.123H195.865V399.123H167.707C164.871 399.123 162.074 399.794 159.545 401.08C157.017 402.366 154.828 404.232 153.158 406.525C151.488 408.818 150.383 411.474 149.934 414.275C149.485 417.076 149.705 419.943 150.575 422.644L167.951 476.57C169.125 480.211 171.428 483.384 174.527 485.628C177.626 487.872 181.359 489.071 185.185 489.049L195.865 488.989V512.123L140.865 542.123C138.501 542.123 136.161 542.589 133.977 543.493C131.793 544.398 129.809 545.724 128.137 547.395C126.466 549.067 125.14 551.051 124.235 553.235C123.331 555.419 122.865 557.759 122.865 560.123V560.123C122.865 564.897 124.762 569.475 128.137 572.851C131.513 576.227 136.091 578.123 140.865 578.123H195.865V710.123C195.865 713.306 197.13 716.358 199.38 718.608C201.63 720.859 204.683 722.123 207.865 722.123C211.048 722.123 214.1 720.859 216.351 718.608C218.601 716.358 219.865 713.306 219.865 710.123V578.123H644.865V710.123C644.865 713.306 646.13 716.358 648.38 718.608C650.63 720.859 653.683 722.123 656.865 722.123C660.048 722.123 663.1 720.859 665.351 718.608C667.601 716.358 668.865 713.306 668.865 710.123V578.123H736.865C741.639 578.123 746.217 576.227 749.593 572.851C752.969 569.475 754.865 564.897 754.865 560.123V560.123C754.865 557.759 754.4 555.419 753.495 553.235C752.59 551.051 751.265 549.067 749.593 547.395C747.922 545.724 745.937 544.398 743.754 543.493C741.57 542.589 739.229 542.123 736.865 542.123V542.123ZM219.865 375.123H644.865V399.123H219.865V375.123ZM219.865 512.123V488.854L644.865 486.467V512.123H219.865Z" fill="#E6E6E6"/>
<path d="M687.696 542.037C695.171 481.928 732.424 422.702 789.75 403.141C767.142 465.011 767.147 532.883 789.764 594.749C798.573 618.577 810.851 644.162 802.565 668.176C797.41 683.119 784.798 694.551 770.701 701.7C756.602 708.848 740.956 712.255 725.505 715.594L722.464 718.109C697.937 662.724 680.221 602.147 687.696 542.037Z" fill="#E6E6E6"/>
<path d="M790.319 404.278C757.275 441.28 735.838 489.078 731.018 538.527C729.976 549.218 729.85 560.154 732.187 570.691C734.525 581.234 739.616 590.081 746.84 598.018C753.445 605.274 761.041 611.932 765.766 620.668C770.747 629.875 770.939 640.337 767.529 650.117C763.356 662.084 755.133 671.838 746.76 681.097C737.463 691.377 727.644 701.908 723.692 715.537C723.214 717.188 720.679 716.349 721.157 714.7C728.033 690.988 751.051 677.519 762.028 656.162C767.151 646.196 769.301 634.626 764.499 624.107C760.299 614.908 752.472 608.035 745.721 600.746C738.633 593.092 733.198 584.694 730.398 574.56C727.534 564.194 727.233 553.23 727.997 542.56C729.911 518.376 735.614 494.644 744.899 472.232C755.355 446.594 770.119 422.934 788.552 402.275C789.694 400.997 791.453 403.008 790.319 404.278L790.319 404.278Z" fill="white"/>
<path d="M731.738 522.372C723.488 520.369 716.219 515.499 711.229 508.632C706.239 501.764 703.852 493.346 704.495 484.882C704.631 483.17 707.299 483.3 707.162 485.015C706.549 492.896 708.773 500.737 713.433 507.122C718.093 513.508 724.882 518.017 732.575 519.837C734.246 520.234 733.399 522.767 731.738 522.372L731.738 522.372Z" fill="white"/>
<path d="M743.007 594.78C757.906 585.883 768.905 571.698 773.81 555.053C774.295 553.403 776.829 554.242 776.345 555.89C771.208 573.202 759.732 587.94 744.207 597.164C742.727 598.042 741.534 595.653 743.007 594.78V594.78Z" fill="white"/>
<path d="M757.831 449.123C760.862 450.563 764.202 451.228 767.553 451.058C770.904 450.888 774.16 449.888 777.029 448.149C778.498 447.252 779.689 449.643 778.23 450.533C775.051 452.44 771.454 453.54 767.752 453.736C764.05 453.932 760.357 453.219 756.994 451.658C756.665 451.538 756.394 451.296 756.236 450.983C756.079 450.67 756.046 450.309 756.145 449.972C756.258 449.637 756.498 449.36 756.814 449.201C757.129 449.042 757.495 449.014 757.831 449.123L757.831 449.123Z" fill="white"/>
<path d="M964.488 510.504C963.587 511.09 962.686 511.676 961.784 512.284C949.711 520.223 938.303 529.13 927.672 538.916C926.839 539.66 926.005 540.426 925.194 541.192C899.834 565.042 879.122 593.394 864.112 624.806C858.15 637.311 853.149 650.251 849.15 663.515C843.63 681.833 839.101 702.133 828.174 717.117C827.051 718.693 825.832 720.198 824.523 721.623H725.768C725.544 721.511 725.318 721.42 725.092 721.308L721.149 721.488C721.308 720.789 721.487 720.068 721.646 719.37C721.736 718.964 721.848 718.559 721.938 718.153C722.005 717.883 722.074 717.612 722.119 717.365C722.141 717.275 722.164 717.185 722.186 717.117C722.231 716.869 722.299 716.644 722.344 716.418C723.335 712.385 724.357 708.352 725.408 704.319C725.408 704.297 725.408 704.297 725.43 704.274C733.52 673.564 744.244 643.259 759.227 615.545C759.678 614.712 760.128 613.855 760.625 613.022C767.448 600.567 775.277 588.691 784.035 577.512C788.85 571.407 793.971 565.548 799.379 559.96C813.379 545.549 829.559 533.429 847.325 524.045C882.745 505.344 923.751 498.179 961.605 509.603C962.573 509.896 963.52 510.189 964.488 510.504Z" fill="#E6E6E6"/>
<path d="M964.266 511.757C915.605 521.407 869.71 546.665 836.091 583.245C828.822 591.154 822.137 599.809 817.659 609.63C813.178 619.455 811.917 629.584 812.906 640.271C813.811 650.041 815.867 659.93 814.381 669.75C812.814 680.101 806.668 688.569 798.057 694.325C787.521 701.368 775.083 704.205 762.823 706.557C749.211 709.168 735.03 711.664 723.669 720.167C722.293 721.197 720.775 719.001 722.149 717.972C741.915 703.179 768.403 706.283 790.026 695.84C800.116 690.967 808.799 683.024 811.298 671.733C813.484 661.86 811.372 651.66 810.37 641.776C809.319 631.397 810.036 621.419 813.901 611.642C817.856 601.641 824.216 592.706 831.251 584.646C847.339 566.489 866.181 550.974 887.089 538.669C910.872 524.494 936.905 514.492 964.061 509.095C965.742 508.762 965.936 511.426 964.267 511.757H964.266Z" fill="white"/>
<path d="M846.392 570.779C841.011 564.213 838.14 555.948 838.29 547.46C838.44 538.973 841.602 530.815 847.212 524.443C848.352 523.158 850.403 524.869 849.262 526.156C844.027 532.079 841.082 539.678 840.958 547.582C840.834 555.486 843.54 563.174 848.587 569.258C849.682 570.582 847.481 572.094 846.392 570.779V570.779Z" fill="white"/>
<path d="M811.795 635.377C829.048 637.245 846.37 632.541 860.308 622.203C861.688 621.178 863.207 623.374 861.828 624.398C847.304 635.128 829.267 639.987 811.318 638.004C809.608 637.814 810.094 635.188 811.795 635.378V635.377Z" fill="white"/>
<path d="M911.328 528.004C912.88 530.979 915.147 533.521 917.925 535.403C920.703 537.284 923.905 538.446 927.243 538.785C928.955 538.953 928.467 541.579 926.766 541.411C923.08 541.02 919.545 539.733 916.471 537.66C913.398 535.588 910.878 532.795 909.133 529.525C908.943 529.23 908.872 528.874 908.934 528.529C908.997 528.184 909.189 527.876 909.47 527.667C909.762 527.467 910.12 527.391 910.468 527.454C910.816 527.517 911.125 527.715 911.328 528.004V528.004Z" fill="white"/>
<path d="M21.182 595.413C26.4355 553.169 52.616 511.547 92.9039 497.8C77.0155 541.28 77.0189 588.98 92.9136 632.458C99.1043 649.204 107.733 667.185 101.91 684.062C98.2872 694.563 89.4237 702.597 79.5162 707.621C69.608 712.645 58.612 715.039 47.7537 717.386L45.6167 719.153C28.3792 680.23 15.9285 637.657 21.182 595.413Z" fill="#E6E6E6"/>
<path d="M93.3037 498.598C69.8419 524.887 55.2597 557.899 51.6284 592.947C50.8961 600.46 50.8072 608.145 52.4496 615.551C54.1059 622.757 57.6617 629.388 62.7476 634.756C67.3891 639.855 72.7275 644.534 76.0486 650.673C79.5491 657.144 79.6836 664.497 77.2872 671.37C74.355 679.78 68.5759 686.635 62.6914 693.142C56.1579 700.367 49.2571 707.768 46.4798 717.346C46.1433 718.506 44.3622 717.916 44.6982 716.758C49.5302 700.093 65.7069 690.627 73.4216 675.618C77.0214 668.614 78.5324 660.483 75.1576 653.09C72.2065 646.625 66.7057 641.796 61.9614 636.673C56.9798 631.294 53.1602 625.392 51.1925 618.27C49.1797 610.985 48.9683 603.28 49.5053 595.781C50.8498 578.785 54.8582 562.106 61.3837 546.355C68.7315 528.338 79.1073 511.71 92.0622 497.191C92.8644 496.293 94.1006 497.706 93.3037 498.598V498.598Z" fill="white"/>
<path d="M52.1336 581.593C46.3361 580.185 41.2277 576.763 37.7206 571.936C34.2136 567.11 32.5363 561.194 32.9883 555.246C33.0839 554.042 34.9584 554.134 34.8627 555.339C34.4315 560.878 35.9945 566.388 39.2694 570.876C42.5443 575.363 47.3155 578.533 52.7218 579.811C53.8964 580.09 53.3014 581.87 52.1336 581.593V581.593Z" fill="white"/>
<path d="M60.0538 632.48C70.5248 626.228 78.2546 616.259 81.7019 604.56C82.0425 603.401 83.8237 603.991 83.4835 605.149C79.8735 617.315 71.8083 627.674 60.8976 634.156C59.8573 634.773 59.0191 633.094 60.0538 632.48V632.48Z" fill="white"/>
<path d="M70.4726 530.115C72.6023 531.127 74.95 531.594 77.3049 531.475C79.6598 531.355 81.9482 530.653 83.9644 529.43C84.9964 528.8 85.8336 530.48 84.8083 531.106C82.5743 532.446 80.0461 533.219 77.4446 533.357C74.8431 533.495 72.2474 532.993 69.8843 531.897C69.6529 531.812 69.4625 531.642 69.3516 531.422C69.2408 531.202 69.2179 530.948 69.2877 530.712C69.3668 530.476 69.5356 530.282 69.7574 530.17C69.9793 530.058 70.2363 530.038 70.4726 530.115V530.115Z" fill="white"/>
<path d="M215.707 573.252C215.073 573.664 214.44 574.076 213.806 574.503C205.321 580.083 197.304 586.342 189.833 593.22C189.247 593.742 188.661 594.281 188.091 594.819C170.268 611.581 155.713 631.506 145.164 653.582C140.974 662.37 137.459 671.464 134.649 680.786C130.769 693.659 127.587 707.926 119.907 718.456C119.118 719.564 118.261 720.621 117.342 721.623H47.9382C47.7804 721.544 47.6219 721.481 47.4634 721.401L44.6924 721.528C44.8037 721.037 44.9297 720.531 45.0411 720.04C45.1045 719.755 45.1833 719.47 45.2467 719.185C45.2939 718.995 45.3418 718.805 45.3735 718.63C45.389 718.567 45.4052 718.504 45.4207 718.456C45.4524 718.282 45.5003 718.124 45.532 717.965C46.2287 715.131 46.9465 712.297 47.6853 709.462C47.6853 709.446 47.6853 709.446 47.7008 709.43C53.386 687.848 60.9229 666.55 71.4528 647.074C71.7698 646.488 72.086 645.886 72.4347 645.3C77.2298 636.547 82.7323 628.201 88.8872 620.345C92.2712 616.054 95.8703 611.937 99.6707 608.009C109.51 597.881 120.881 589.364 133.366 582.769C158.259 569.626 187.077 564.591 213.68 572.619C214.361 572.825 215.026 573.031 215.707 573.252Z" fill="#E6E6E6"/>
<path d="M215.551 574.133C180.991 580.997 149.472 598.577 125.472 624.374C120.364 629.932 115.665 636.015 112.518 642.916C109.502 649.667 108.349 657.103 109.178 664.45C109.814 671.317 111.259 678.267 110.214 685.168C109.113 692.442 104.794 698.394 98.7425 702.439C91.338 707.388 82.5966 709.382 73.9805 711.035C64.414 712.87 54.4483 714.624 46.464 720.6C45.4966 721.324 44.4298 719.78 45.3957 719.057C59.2869 708.661 77.9021 710.843 93.0986 703.503C100.19 700.078 106.291 694.496 108.048 686.561C109.584 679.623 108.1 672.455 107.396 665.508C106.657 658.214 107.161 651.202 109.877 644.331C112.656 637.302 117.127 631.023 122.07 625.358C133.376 612.597 146.619 601.694 161.312 593.046C178.027 583.084 196.322 576.055 215.407 572.262C216.589 572.028 216.725 573.901 215.551 574.133H215.551Z" fill="white"/>
<path d="M132.711 615.612C128.929 610.998 126.911 605.19 127.017 599.225C127.122 593.26 129.345 587.526 133.287 583.049C134.088 582.146 135.529 583.348 134.727 584.252C131.048 588.415 128.979 593.756 128.892 599.31C128.805 604.865 130.706 610.268 134.253 614.544C135.023 615.474 133.476 616.537 132.711 615.612V615.612Z" fill="white"/>
<path d="M108.397 661.011C120.522 662.324 132.696 659.018 142.491 651.753C143.461 651.032 144.528 652.575 143.56 653.295C133.352 660.836 120.676 664.251 108.062 662.857C106.86 662.724 107.201 660.878 108.397 661.011V661.011Z" fill="white"/>
<path d="M178.346 585.551C179.437 587.642 181.03 589.428 182.983 590.751C184.935 592.073 187.185 592.89 189.531 593.128C190.734 593.246 190.391 595.091 189.196 594.974C186.605 594.699 184.121 593.794 181.961 592.337C179.801 590.881 178.03 588.918 176.804 586.62C176.67 586.413 176.62 586.163 176.664 585.92C176.708 585.678 176.843 585.461 177.041 585.314C177.246 585.174 177.498 585.12 177.742 585.165C177.987 585.209 178.204 585.348 178.346 585.551V585.551Z" fill="white"/>
<path d="M367.216 699.309L349.327 704.484L320.851 637.946L347.254 630.307L367.216 699.309Z" fill="#9E616A"/>
<path d="M409.999 458.17L391.543 477.857C391.543 477.857 294.341 520.921 294.341 543.068C294.341 565.215 317.718 661.186 327.562 668.569C333.49 673.04 330.81 677.855 333.752 684.674L368.165 672.26C368.165 672.26 365.704 664.878 368.165 661.186C370.626 657.495 368.165 655.034 368.165 655.034C368.165 655.034 364.474 656.265 365.704 652.574C366.934 648.882 366.934 647.652 365.704 646.422C364.474 645.191 360.782 634.118 360.782 634.118C360.782 634.118 362.013 589.823 344.787 573.828C344.787 573.828 424.763 550.45 434.607 534.455C444.45 518.46 446.911 460.631 446.911 460.631L409.999 458.17Z" fill="#2F2E41"/>
<path d="M374.509 709.508L314.898 721.811L314.743 721.057C313.473 714.903 314.7 708.497 318.153 703.248C321.606 697.999 327.002 694.336 333.156 693.066L333.157 693.065L342.34 682.557L364.362 686.626L369.565 685.552L374.509 709.508Z" fill="#2F2E41"/>
<path d="M432.294 624.577L409.465 639.882L456.827 694.61L472.295 684.239L432.294 624.577Z" fill="#9E616A"/>
<path d="M466.393 424.254C454.2 398.544 491.369 474.568 486.448 498.113C482.605 516.497 410.832 575.032 410.832 575.032C432.458 584.246 446.306 626.338 446.306 626.338C446.306 626.338 453.53 635.507 455.104 636.247C456.679 636.988 457.096 638.146 457.188 642.036C457.281 645.925 460.337 643.517 460.337 643.517C460.337 643.517 463.486 644.999 462.422 649.306C461.357 653.612 466.173 659.724 466.173 659.724L439.57 684.526C434.492 679.107 433.813 672.204 426.72 670.006C414.958 666.395 360.451 584.018 352.948 563.18C345.446 542.342 422.311 468.896 422.311 468.896L428.839 432.545L466.393 424.254Z" fill="#2F2E41"/>
<path d="M480.092 702.592L422.823 723.21L422.562 722.485C420.434 716.574 420.742 710.059 423.417 704.374C426.092 698.688 430.916 694.299 436.827 692.17L436.829 692.169L444.432 680.467L466.807 681.377L471.806 679.577L480.092 702.592Z" fill="#2F2E41"/>
<path d="M422.751 301.44L406.174 314.063L362.137 325.726C362.137 325.726 377.916 436.468 370.469 443.915C363.021 451.363 369.738 451.563 368.242 461.237C366.745 470.912 363.108 490.744 363.108 490.744C413.378 517.354 456.715 518.067 491.527 486.929C491.972 485.003 491.746 482.982 490.885 481.202C490.025 479.422 488.582 477.99 486.796 477.142C480.317 473.705 492.768 457.659 487.474 454.976C482.179 452.294 489.626 429.021 489.626 429.021L505.766 352.826L462.837 319.238L456.308 303.508L422.751 301.44Z" fill="#6C63FF"/>
<path d="M443.436 400.398C446.604 400.398 449.172 397.83 449.172 394.663C449.172 391.495 446.604 388.927 443.436 388.927C440.268 388.927 437.7 391.495 437.7 394.663C437.7 397.83 440.268 400.398 443.436 400.398Z" fill="#F2F2F2"/>
<path d="M439.722 294.415C457.832 294.415 472.513 279.733 472.513 261.623C472.513 243.513 457.832 228.832 439.722 228.832C421.612 228.832 406.931 243.513 406.931 261.623C406.931 279.733 421.612 294.415 439.722 294.415Z" fill="#9E616A"/>
<path opacity="0.1" d="M487.473 390.088L492.893 394.153L495.603 375.183L487.473 390.088Z" fill="black"/>
<path d="M364.734 325.618C364.734 325.618 357.959 324.263 353.894 336.458C349.829 348.653 329.424 412.87 329.424 421C329.424 429.13 427.746 446.854 427.746 446.854L418.088 412.972L373.425 399L364.734 325.618Z" fill="#6C63FF"/>
<path d="M432.052 441.831C440.792 441.831 447.878 434.745 447.878 426.005C447.878 417.265 440.792 410.18 432.052 410.18C423.312 410.18 416.227 417.265 416.227 426.005C416.227 434.745 423.312 441.831 432.052 441.831Z" fill="#9E616A"/>
<path opacity="0.1" d="M376.335 382.874L377.574 399.658L416.888 420.292L381.921 396.838L376.335 382.874Z" fill="black"/>
<path d="M468.845 376.267H468.335V362.295C468.335 361.233 468.125 360.182 467.719 359.201C467.313 358.22 466.717 357.328 465.966 356.577C465.215 355.826 464.324 355.231 463.343 354.824C462.362 354.418 461.31 354.209 460.248 354.209H430.648C429.586 354.209 428.534 354.418 427.553 354.824C426.572 355.231 425.681 355.826 424.93 356.577C424.179 357.328 423.583 358.22 423.177 359.201C422.771 360.182 422.562 361.233 422.562 362.295V438.944C422.562 440.006 422.771 441.057 423.177 442.038C423.583 443.019 424.179 443.911 424.93 444.661C425.681 445.412 426.572 446.008 427.553 446.414C428.534 446.821 429.586 447.03 430.648 447.03H460.248C461.31 447.03 462.362 446.821 463.343 446.414C464.324 446.008 465.215 445.412 465.966 444.662C466.717 443.911 467.313 443.019 467.719 442.038C468.125 441.057 468.335 440.006 468.335 438.944V386.212H468.845V376.267Z" fill="#F0F0F0"/>
<path d="M505.765 352.826C505.765 352.826 509.83 355.536 512.54 367.731C515.25 379.925 532.865 425.995 526.09 436.835C519.315 447.675 517.315 459.244 494.28 442.984L462.405 413.8L485.44 392.12L494.925 398.895L505.765 352.826Z" fill="#6C63FF"/>
<path d="M445.81 388.371C449.552 388.371 452.585 385.338 452.585 381.596C452.585 377.855 449.552 374.821 445.81 374.821C442.068 374.821 439.035 377.855 439.035 381.596C439.035 385.338 442.068 388.371 445.81 388.371Z" fill="#6C63FF"/>
<path d="M465.422 412.264C474.162 412.264 481.248 405.179 481.248 396.439C481.248 387.698 474.162 380.613 465.422 380.613C456.682 380.613 449.597 387.698 449.597 396.439C449.597 405.179 456.682 412.264 465.422 412.264Z" fill="#9E616A"/>
<path opacity="0.1" d="M370.872 435.86L419.701 445.002L372.16 446.827L370.872 435.86Z" fill="black"/>
<path d="M468.594 239.961C468.594 239.961 477.132 223.64 458.348 222.156C458.348 222.156 442.336 207.63 426.014 219.5C426.014 219.5 417.112 219.5 412.243 229.575C412.243 229.575 405.242 226.919 403.703 234.026C403.703 234.026 398.579 248.864 403.703 262.218C408.826 275.571 410.528 277.055 410.528 277.055C410.528 277.055 406.933 260.484 427.426 259C447.918 257.516 466.718 244.679 468.426 261C470.134 277.321 472.011 269.948 472.011 269.948C472.011 269.948 488.231 246.638 468.594 239.961Z" fill="#2F2E41"/>
<path d="M787.08 204.746H521.62C517.551 204.746 513.648 206.363 510.77 209.241C507.892 212.118 506.275 216.021 506.275 220.091V283.935C506.275 288.005 507.892 291.908 510.77 294.785C513.648 297.663 517.551 299.28 521.62 299.28H525.517V310.814C525.517 311.514 525.724 312.198 526.113 312.78C526.502 313.362 527.055 313.816 527.701 314.084C528.348 314.352 529.06 314.422 529.746 314.285C530.433 314.149 531.063 313.812 531.558 313.317L545.595 299.28H787.08C791.15 299.28 795.053 297.663 797.931 294.785C800.808 291.908 802.425 288.005 802.425 283.935V220.091C802.425 218.076 802.028 216.081 801.257 214.219C800.486 212.357 799.355 210.666 797.931 209.241C796.506 207.816 794.814 206.685 792.952 205.914C791.091 205.143 789.095 204.746 787.08 204.746V204.746Z" fill="#3F3D56"/>
<path d="M787.08 291.493H521.62C519.617 291.491 517.695 290.694 516.279 289.277C514.862 287.86 514.065 285.939 514.062 283.935V220.091C514.065 218.087 514.862 216.166 516.279 214.749C517.695 213.333 519.617 212.536 521.62 212.533H723.237C742.167 212.555 760.316 220.084 773.702 233.47C787.087 246.856 794.617 265.005 794.638 283.935C794.636 285.939 793.839 287.86 792.422 289.277C791.005 290.694 789.084 291.491 787.08 291.493V291.493Z" fill="white"/>
<path d="M711.36 226.497H597.898C595.501 226.497 593.559 228.44 593.559 230.836V232.197C593.559 234.594 595.501 236.536 597.898 236.536H711.36C713.757 236.536 715.699 234.594 715.699 232.197V230.836C715.699 228.44 713.757 226.497 711.36 226.497Z" fill="#6C63FF"/>
<path d="M735.204 246.575H574.056C571.659 246.575 569.717 248.518 569.717 250.914V252.275C569.717 254.672 571.659 256.614 574.056 256.614H735.204C737.6 256.614 739.543 254.672 739.543 252.275V250.914C739.543 248.518 737.6 246.575 735.204 246.575Z" fill="#E6E6E6"/>
<path d="M735.204 266.653H574.056C571.659 266.653 569.717 268.596 569.717 270.992V272.353C569.717 274.75 571.659 276.692 574.056 276.692H735.204C737.6 276.692 739.543 274.75 739.543 272.353V270.992C739.543 268.596 737.6 266.653 735.204 266.653Z" fill="#E6E6E6"/>
<path d="M953.464 -1H746.549C744.978 -1 743.423 -0.690627 741.972 -0.0895386C740.52 0.51155 739.202 1.39258 738.091 2.50325C736.981 3.61392 736.099 4.93247 735.498 6.38363C734.897 7.83479 734.588 9.39013 734.588 10.9609V60.7245C734.588 62.2952 734.897 63.8506 735.498 65.3017C736.099 66.7529 736.981 68.0714 738.091 69.1821C739.202 70.2928 740.52 71.1738 741.972 71.7749C743.423 72.376 744.978 72.6854 746.549 72.6854H749.586V81.676C749.586 82.2216 749.748 82.7549 750.051 83.2085C750.354 83.6621 750.785 84.0156 751.289 84.2244C751.793 84.4332 752.347 84.4878 752.882 84.3814C753.417 84.2749 753.909 84.0122 754.295 83.6264L765.236 72.6854H953.464C955.035 72.6854 956.59 72.376 958.042 71.7749C959.493 71.1738 960.811 70.2928 961.922 69.1821C963.033 68.0714 963.914 66.7529 964.515 65.3017C965.116 63.8506 965.425 62.2952 965.425 60.7245V10.9609C965.425 9.39013 965.116 7.83479 964.515 6.38363C963.914 4.93247 963.033 3.61392 961.922 2.50325C960.811 1.39258 959.493 0.51155 958.042 -0.0895386C956.59 -0.690627 955.035 -1 953.464 -1Z" fill="#F2F2F2"/>
<path d="M953.465 66.6157H746.549C744.987 66.6139 743.49 65.9927 742.386 64.8883C741.281 63.7839 740.66 62.2865 740.658 60.7247V10.9608C740.66 9.39889 741.281 7.90148 742.386 6.79707C743.49 5.69266 744.987 5.07144 746.549 5.0697H903.702C918.457 5.0865 932.603 10.9555 943.037 21.3893C953.47 31.823 959.339 45.9693 959.356 60.7246C959.354 62.2865 958.733 63.7839 957.628 64.8883C956.524 65.9927 955.027 66.614 953.465 66.6157V66.6157Z" fill="white"/>
<path d="M893.914 15.9541H806.535C804.374 15.9541 802.622 17.7058 802.622 19.8666V19.8666C802.622 22.0274 804.374 23.7791 806.535 23.7791H893.914C896.074 23.7791 897.826 22.0274 897.826 19.8666C897.826 17.7058 896.074 15.9541 893.914 15.9541Z" fill="#F2F2F2"/>
<path d="M912.498 31.6041H787.951C785.79 31.6041 784.038 33.3558 784.038 35.5166V35.5166C784.038 37.6774 785.79 39.4291 787.951 39.4291H912.498C914.659 39.4291 916.411 37.6774 916.411 35.5166C916.411 33.3558 914.659 31.6041 912.498 31.6041Z" fill="#F2F2F2"/>
<path d="M912.498 47.2542H787.951C785.79 47.2542 784.038 49.0058 784.038 51.1666V51.1666C784.038 53.3275 785.79 55.0791 787.951 55.0791H912.498C914.659 55.0791 916.411 53.3275 916.411 51.1666C916.411 49.0058 914.659 47.2542 912.498 47.2542Z" fill="#F2F2F2"/>
<path d="M490.583 81H697.499C699.069 81 700.625 81.3094 702.076 81.9105C703.527 82.5115 704.845 83.3926 705.956 84.5033C707.067 85.6139 707.948 86.9325 708.549 88.3836C709.15 89.8348 709.459 91.3901 709.459 92.9608V142.724C709.459 144.295 709.15 145.851 708.549 147.302C707.948 148.753 707.067 150.071 705.956 151.182C704.845 152.293 703.527 153.174 702.076 153.775C700.625 154.376 699.069 154.685 697.499 154.685H694.461V163.676C694.461 164.222 694.3 164.755 693.997 165.208C693.693 165.662 693.263 166.016 692.759 166.224C692.255 166.433 691.7 166.488 691.165 166.381C690.63 166.275 690.138 166.012 689.753 165.626L678.811 154.685H490.583C489.012 154.685 487.457 154.376 486.006 153.775C484.555 153.174 483.236 152.293 482.125 151.182C481.015 150.071 480.134 148.753 479.533 147.302C478.931 145.851 478.622 144.295 478.622 142.724V92.9608C478.622 91.3901 478.931 89.8348 479.533 88.3836C480.134 86.9325 481.015 85.6139 482.125 84.5033C483.236 83.3926 484.555 82.5115 486.006 81.9105C487.457 81.3094 489.012 81 490.583 81Z" fill="#F2F2F2"/>
<path d="M484.692 142.725C484.709 127.969 490.578 113.823 501.011 103.389C511.445 92.9556 525.591 87.0865 540.346 87.0697H697.499C699.061 87.0714 700.558 87.6927 701.663 88.7971C702.767 89.9015 703.388 91.3989 703.39 92.9607V142.725C703.388 144.286 702.767 145.784 701.663 146.888C700.558 147.993 699.061 148.614 697.499 148.616H490.583C489.022 148.614 487.524 147.993 486.42 146.888C485.315 145.784 484.694 144.287 484.692 142.725V142.725Z" fill="white"/>
<path d="M550.134 105.779L637.513 105.779C639.674 105.779 641.426 104.027 641.426 101.867C641.426 99.7059 639.674 97.9542 637.513 97.9542L550.134 97.9542C547.973 97.9542 546.222 99.7059 546.222 101.867C546.222 104.027 547.973 105.779 550.134 105.779Z" fill="#F2F2F2"/>
<path d="M531.549 121.429L656.097 121.429C658.258 121.429 660.01 119.677 660.01 117.517V117.517C660.01 115.356 658.258 113.604 656.097 113.604L531.549 113.604C529.389 113.604 527.637 115.356 527.637 117.517C527.637 119.677 529.389 121.429 531.549 121.429Z" fill="#F2F2F2"/>
<path d="M531.549 137.079L656.097 137.079C658.258 137.079 660.01 135.327 660.01 133.167C660.01 131.006 658.258 129.254 656.097 129.254L531.549 129.254C529.389 129.254 527.637 131.006 527.637 133.167C527.637 135.327 529.389 137.079 531.549 137.079Z" fill="#F2F2F2"/>
<path d="M858.485 723.137H-0.809326C-1.12511 723.137 -1.42796 723.011 -1.65126 722.788C-1.87456 722.565 -2 722.262 -2 721.946C-2 721.63 -1.87456 721.327 -1.65126 721.104C-1.42796 720.881 -1.12511 720.755 -0.809326 720.755H858.485C858.8 720.755 859.103 720.881 859.327 721.104C859.55 721.327 859.675 721.63 859.675 721.946C859.675 722.262 859.55 722.565 859.327 722.788C859.103 723.011 858.8 723.137 858.485 723.137V723.137Z" fill="#CCCCCC"/>
</g>
</g>
<defs>
<clipPath id="clip0_211_327">
<rect width="732" height="573" fill="white" transform="translate(140 210)"/>
</clipPath>
<clipPath id="clip1_211_327">
<rect width="967.425" height="724.21" fill="white"/>
</clipPath>
<clipPath id="clip2_211_327">
<rect width="732" height="573" fill="white" transform="translate(138 209)"/>
</clipPath>
<clipPath id="clip3_211_327">
<rect width="967.425" height="724.21" fill="white" transform="translate(-2 -1)"/>
</clipPath>
</defs>
</svg>
