<svg width="644" height="386" viewBox="0 0 644 386" fill="none" xmlns="http://www.w3.org/2000/svg">
<path d="M494.549 346.565H202.925C201.117 346.563 199.383 345.851 198.105 344.585C196.827 343.319 196.108 341.603 196.105 339.812V142.611C196.108 140.821 196.827 139.105 198.105 137.839C199.383 136.573 201.117 135.86 202.925 135.858H494.549C496.357 135.86 498.091 136.573 499.369 137.839C500.647 139.105 501.366 140.821 501.368 142.611V339.812C501.366 341.603 500.647 343.319 499.369 344.585C498.091 345.851 496.357 346.563 494.549 346.565Z" fill="white"/>
<path d="M494.549 346.565H202.925C201.117 346.563 199.383 345.851 198.105 344.585C196.827 343.319 196.108 341.603 196.105 339.812V142.611C196.108 140.821 196.827 139.105 198.105 137.839C199.383 136.573 201.117 135.86 202.925 135.858H494.549C496.357 135.86 498.091 136.573 499.369 137.839C500.647 139.105 501.366 140.821 501.368 142.611V339.812C501.366 341.603 500.647 343.319 499.369 344.585C498.091 345.851 496.357 346.563 494.549 346.565ZM202.925 137.359C201.518 137.361 200.17 137.914 199.176 138.899C198.182 139.884 197.622 141.219 197.621 142.611V339.812C197.622 341.205 198.182 342.54 199.176 343.525C200.17 344.509 201.518 345.063 202.925 345.065H494.549C495.956 345.063 497.304 344.509 498.298 343.525C499.292 342.54 499.852 341.205 499.853 339.812V142.611C499.852 141.219 499.292 139.884 498.298 138.899C497.304 137.914 495.956 137.361 494.549 137.359H202.925Z" fill="#3F3D56"/>
<path d="M382.496 345.379H314.98V234.691C314.983 232.066 316.038 229.549 317.912 227.693C319.787 225.837 322.328 224.793 324.979 224.79H372.497C375.148 224.793 377.689 225.837 379.564 227.693C381.438 229.549 382.493 232.066 382.496 234.691V345.379Z" fill="#E6E6E6"/>
<path d="M478.645 93.8231H440.088V30.0127C440.09 28.2223 440.809 26.5059 442.087 25.2399C443.366 23.9739 445.099 23.2618 446.907 23.2598H471.825C473.633 23.2618 475.367 23.9739 476.645 25.2399C477.923 26.5059 478.642 28.2223 478.645 30.0127V93.8231Z" fill="white"/>
<path d="M478.645 93.8231H440.088V30.0127C440.09 28.2223 440.809 26.5059 442.087 25.2399C443.366 23.9739 445.099 23.2618 446.907 23.2598H471.825C473.633 23.2618 475.367 23.9739 476.645 25.2399C477.923 26.5059 478.642 28.2223 478.645 30.0127V93.8231ZM441.603 92.3225H477.129V30.0127C477.128 28.6202 476.568 27.2851 475.574 26.3005C474.58 25.3158 473.232 24.762 471.825 24.7604H446.907C445.501 24.762 444.153 25.3158 443.158 26.3005C442.164 27.2851 441.605 28.6202 441.603 30.0127V92.3225Z" fill="#3F3D56"/>
<path d="M286.463 256.942H229.432C227.157 256.94 224.976 256.044 223.367 254.451C221.759 252.858 220.854 250.698 220.852 248.445V201.885C220.854 199.632 221.759 197.472 223.368 195.879C224.976 194.286 227.157 193.39 229.432 193.388H286.463C288.737 193.39 290.918 194.286 292.527 195.879C294.135 197.472 295.04 199.632 295.043 201.885V248.445C295.04 250.698 294.135 252.858 292.527 254.451C290.918 256.044 288.737 256.94 286.463 256.942V256.942Z" fill="#E6E6E6"/>
<path d="M469.361 256.942H412.33C410.055 256.94 407.874 256.044 406.266 254.451C404.657 252.858 403.753 250.698 403.75 248.445V201.885C403.753 199.632 404.657 197.472 406.266 195.879C407.875 194.286 410.055 193.39 412.33 193.388H469.361C471.636 193.39 473.817 194.286 475.425 195.879C477.034 197.472 477.939 199.632 477.941 201.885V248.445C477.939 250.698 477.034 252.858 475.425 254.451C473.817 256.044 471.636 256.94 469.361 256.942V256.942Z" fill="#E6E6E6"/>
<path d="M174.332 139.915V109.574C174.332 107.243 174.954 104.954 176.135 102.938C177.317 100.922 179.015 99.2509 181.058 98.0944L351.29 1.7427C353.403 0.546695 355.806 -0.0545841 358.239 0.003893C360.672 0.0623701 363.043 0.778363 365.095 2.07447L516.969 98.0032C518.861 99.1981 520.418 100.846 521.497 102.794C522.576 104.742 523.141 106.929 523.141 109.151V139.915C523.141 143.421 521.734 146.784 519.23 149.264C516.727 151.743 513.331 153.137 509.79 153.137H187.684C184.143 153.137 180.746 151.744 178.243 149.264C175.739 146.784 174.332 143.421 174.332 139.915V139.915Z" fill="#FF5146"/>
<path opacity="0.2" d="M509.79 139.628H187.683C184.142 139.628 180.746 138.235 178.243 135.756C175.739 133.276 174.332 129.913 174.332 126.406V138.411C174.332 141.918 175.739 145.281 178.243 147.761C180.746 150.24 184.142 151.633 187.683 151.633H509.79C513.331 151.633 516.727 150.24 519.231 147.761C521.734 145.281 523.141 141.918 523.141 138.411V126.406C523.141 129.913 521.734 133.276 519.231 135.756C516.727 138.235 513.331 139.628 509.79 139.628V139.628Z" fill="black"/>
<path d="M643.997 345.069L0 346.275L0.00286722 347.776L644 346.569L643.997 345.069Z" fill="#3F3D56"/>
<path d="M217.312 314.531C217.465 313.938 217.486 313.319 217.372 312.717C217.258 312.115 217.012 311.546 216.651 311.048C216.291 310.551 215.825 310.138 215.285 309.838C214.746 309.538 214.147 309.359 213.531 309.313L189.469 279.522L183.516 285.018L208.934 313.475C208.925 314.506 209.298 315.504 209.983 316.281C210.668 317.057 211.616 317.558 212.649 317.688C213.682 317.818 214.727 317.569 215.586 316.987C216.445 316.405 217.059 315.532 217.312 314.531V314.531Z" fill="#FFB8B8"/>
<path d="M194.087 284.255L186.483 290.022C186.266 290.186 186.017 290.302 185.751 290.362C185.486 290.422 185.21 290.424 184.943 290.369C184.676 290.314 184.425 290.203 184.205 290.043C183.986 289.883 183.804 289.678 183.672 289.442L179.039 281.173C178.198 280.072 177.832 278.685 178.021 277.317C178.211 275.95 178.94 274.712 180.049 273.876C181.159 273.039 182.558 272.673 183.939 272.856C185.321 273.04 186.573 273.758 187.421 274.855L194.254 281.416C194.45 281.604 194.602 281.831 194.701 282.083C194.8 282.334 194.843 282.604 194.827 282.873C194.811 283.143 194.737 283.405 194.609 283.644C194.482 283.882 194.303 284.091 194.087 284.255H194.087Z" fill="#3F3D56"/>
<path d="M181.314 266.27C186.655 266.27 190.984 261.983 190.984 256.694C190.984 251.405 186.655 247.118 181.314 247.118C175.974 247.118 171.645 251.405 171.645 256.694C171.645 261.983 175.974 266.27 181.314 266.27Z" fill="#FFB8B8"/>
<path d="M201.956 380.908H206.783L206.323 371.962H199.199L201.956 380.908Z" fill="#FFB8B8"/>
<path d="M200.727 379.348L210.232 379.347H210.232C211.028 379.347 211.816 379.502 212.551 379.804C213.286 380.105 213.953 380.547 214.516 381.104C215.078 381.661 215.525 382.323 215.829 383.05C216.133 383.778 216.29 384.558 216.29 385.346V385.541L200.727 385.542L200.727 379.348Z" fill="#2F2E41"/>
<path d="M150.494 374.141L154.601 376.653L158.957 368.802L153.989 365.724L150.494 374.141Z" fill="#FFB8B8"/>
<path d="M150.275 372.172L158.362 377.119L158.363 377.12C159.039 377.534 159.627 378.076 160.093 378.715C160.558 379.354 160.891 380.077 161.074 380.844C161.257 381.61 161.286 382.405 161.159 383.183C161.031 383.961 160.751 384.706 160.333 385.376L160.229 385.542L146.988 377.442L150.275 372.172Z" fill="#2F2E41"/>
<path d="M201.609 378.285C201.25 378.285 200.899 378.177 200.604 377.974C200.309 377.772 200.083 377.486 199.956 377.154L182.497 335.816C182.459 335.715 182.394 335.626 182.309 335.559C182.224 335.493 182.122 335.45 182.014 335.437C181.906 335.424 181.796 335.441 181.698 335.486C181.599 335.53 181.514 335.601 181.453 335.69L157.467 373.108C157.233 373.456 156.88 373.71 156.472 373.822C156.065 373.934 155.63 373.898 155.248 373.72L151.966 372.203C151.545 372.007 151.219 371.655 151.057 371.224C150.895 370.793 150.91 370.316 151.098 369.895L170.749 326.517C170.32 325.483 166.135 314.869 172.565 309.625L172.61 309.597L190.047 301.895L190.487 315.141L207.867 374.857C207.932 375.082 207.951 375.317 207.924 375.55C207.896 375.782 207.822 376.006 207.705 376.21C207.588 376.413 207.432 376.591 207.245 376.734C207.057 376.876 206.843 376.981 206.615 377.04L202.063 378.226C201.914 378.265 201.762 378.285 201.609 378.285V378.285Z" fill="#2F2E41"/>
<path d="M190.31 282.518C189.646 279.879 188.705 277.22 187.444 275.992C186.98 275.544 186.544 275.068 186.139 274.568C185.29 273.51 184.223 272.644 183.008 272.028C183.453 271.783 183.713 271.491 183.713 271.177C183.713 270.315 181.774 269.617 179.383 269.617C176.991 269.617 175.052 270.315 175.052 271.177C175.058 271.277 175.083 271.375 175.128 271.465C175.172 271.555 175.234 271.636 175.309 271.702C173.747 272.333 172.39 273.375 171.386 274.717C170.381 276.059 169.767 277.648 169.612 279.311C169.052 285.243 168.889 292.826 170.849 297.623C172.493 301.589 172.624 306.013 171.217 310.068C171.122 310.35 171.11 310.653 171.183 310.942C171.257 311.231 171.412 311.493 171.632 311.697C171.851 311.9 172.124 312.038 172.42 312.093C172.715 312.147 173.021 312.117 173.299 312.005L190.601 305.1C190.893 304.984 191.142 304.784 191.318 304.526C191.494 304.269 191.587 303.965 191.587 303.654V293.167C191.601 289.579 191.172 286.003 190.31 282.518Z" fill="#3F3D56"/>
<path d="M157.206 325.71C157.808 325.572 158.372 325.304 158.859 324.926C159.346 324.548 159.743 324.069 160.022 323.523C160.301 322.977 160.457 322.377 160.476 321.765C160.496 321.153 160.38 320.544 160.137 319.981L173.674 284.628L166.809 282.873L154.288 317.862C153.36 318.329 152.638 319.118 152.258 320.078C151.878 321.037 151.867 322.102 152.227 323.069C152.586 324.037 153.292 324.84 154.21 325.327C155.127 325.813 156.193 325.95 157.206 325.71L157.206 325.71Z" fill="#FFB8B8"/>
<path d="M173.617 291.336L164.942 287.315C164.695 287.2 164.476 287.035 164.3 286.829C164.124 286.623 163.994 286.382 163.92 286.122C163.847 285.863 163.83 285.59 163.872 285.323C163.915 285.057 164.014 284.802 164.165 284.577L169.437 276.693C170.036 275.447 171.109 274.488 172.421 274.024C173.734 273.561 175.178 273.631 176.438 274.22C177.698 274.808 178.671 275.867 179.144 277.165C179.618 278.462 179.553 279.892 178.963 281.143L176.237 290.173C176.159 290.432 176.026 290.671 175.846 290.874C175.666 291.077 175.445 291.239 175.196 291.349C174.947 291.459 174.677 291.515 174.405 291.513C174.132 291.511 173.863 291.45 173.617 291.336V291.336Z" fill="#3F3D56"/>
<path d="M190.198 254.338C190.634 254.389 191.076 254.31 191.466 254.11C192.179 253.648 192.109 252.597 191.868 251.788C191.266 249.847 190.181 248.087 188.712 246.672C187.243 245.256 185.437 244.229 183.461 243.687C182.085 243.324 180.343 243.338 179.555 244.514C177.576 243.208 175.19 242.648 172.83 242.935C170.47 243.222 168.291 244.338 166.69 246.079C165.125 247.897 164.082 250.098 163.67 252.451C162.844 256.46 159.305 264.73 161.265 268.331C162.57 270.728 168.572 268.861 171.112 269.905C172.376 270.449 173.757 270.677 175.132 270.567C176.507 270.457 177.833 270.013 178.993 269.275C180.128 268.499 180.981 267.382 181.427 266.089C181.872 264.796 181.886 263.396 181.466 262.095C181.022 261.138 180.509 260.214 179.932 259.33C179.353 258.435 179.117 257.364 179.266 256.311C179.622 254.71 187.254 254.278 190.198 254.338Z" fill="#2F2E41"/>
<path d="M297.665 83H293.261C293.001 81.7334 292.545 80.6207 291.894 79.6619C291.255 78.7031 290.474 77.8982 289.55 77.2472C288.639 76.5843 287.627 76.0871 286.514 75.7557C285.402 75.4242 284.241 75.2585 283.034 75.2585C280.832 75.2585 278.838 75.8149 277.05 76.9276C275.275 78.0402 273.86 79.6797 272.807 81.8459C271.765 84.0121 271.244 86.6695 271.244 89.8182C271.244 92.9669 271.765 95.6243 272.807 97.7905C273.86 99.9567 275.275 101.596 277.05 102.709C278.838 103.821 280.832 104.378 283.034 104.378C284.241 104.378 285.402 104.212 286.514 103.881C287.627 103.549 288.639 103.058 289.55 102.407C290.474 101.744 291.255 100.933 291.894 99.9744C292.545 99.0038 293.001 97.8911 293.261 96.6364H297.665C297.333 98.4948 296.73 100.158 295.854 101.626C294.978 103.094 293.889 104.342 292.587 105.372C291.285 106.39 289.823 107.165 288.201 107.698C286.591 108.231 284.869 108.497 283.034 108.497C279.933 108.497 277.175 107.74 274.76 106.224C272.345 104.709 270.445 102.555 269.06 99.7614C267.675 96.9678 266.983 93.6534 266.983 89.8182C266.983 85.983 267.675 82.6686 269.06 79.875C270.445 77.0814 272.345 74.9271 274.76 73.4119C277.175 71.8968 279.933 71.1392 283.034 71.1392C284.869 71.1392 286.591 71.4055 288.201 71.9382C289.823 72.4709 291.285 73.2521 292.587 74.282C293.889 75.3 294.978 76.5428 295.854 78.0107C296.73 79.4666 297.333 81.1297 297.665 83ZM304.212 108V80.7273H308.26V84.8466H308.545C309.042 83.4972 309.941 82.4022 311.243 81.5618C312.546 80.7214 314.013 80.3011 315.647 80.3011C315.955 80.3011 316.339 80.3071 316.801 80.3189C317.263 80.3307 317.612 80.3485 317.849 80.3722V84.6335C317.706 84.598 317.381 84.5447 316.872 84.4737C316.375 84.3909 315.848 84.3494 315.292 84.3494C313.966 84.3494 312.782 84.6276 311.741 85.1839C310.711 85.7285 309.894 86.486 309.29 87.4567C308.698 88.4155 308.403 89.5104 308.403 90.7415V108H304.212ZM333.42 108.568C330.792 108.568 328.526 107.988 326.62 106.828C324.726 105.656 323.264 104.023 322.234 101.928C321.216 99.8205 320.707 97.3703 320.707 94.5767C320.707 91.7831 321.216 89.321 322.234 87.1903C323.264 85.0478 324.696 83.3788 326.531 82.1832C328.378 80.9759 330.532 80.3722 332.994 80.3722C334.415 80.3722 335.817 80.6089 337.202 81.0824C338.587 81.5559 339.848 82.3253 340.984 83.3906C342.121 84.4441 343.026 85.8409 343.701 87.581C344.376 89.321 344.713 91.4635 344.713 94.0085V95.7841H323.69V92.1619H340.452C340.452 90.6231 340.144 89.25 339.528 88.0426C338.925 86.8352 338.06 85.8823 336.936 85.1839C335.823 84.4856 334.509 84.1364 332.994 84.1364C331.325 84.1364 329.881 84.5507 328.662 85.3793C327.454 86.196 326.525 87.2614 325.874 88.5753C325.223 89.8892 324.898 91.2978 324.898 92.8011V95.2159C324.898 97.2756 325.253 99.0215 325.963 100.454C326.685 101.874 327.685 102.957 328.964 103.703C330.242 104.437 331.728 104.804 333.42 104.804C334.521 104.804 335.515 104.65 336.403 104.342C337.303 104.023 338.078 103.549 338.729 102.922C339.38 102.283 339.883 101.49 340.238 100.543L344.287 101.679C343.861 103.052 343.144 104.259 342.138 105.301C341.132 106.331 339.889 107.136 338.41 107.716C336.93 108.284 335.267 108.568 333.42 108.568ZM331.006 77.0341L325.466 68.7955H330.366L334.699 77.0341H331.006ZM362.167 108.568C359.61 108.568 357.408 107.964 355.562 106.757C353.715 105.55 352.295 103.887 351.3 101.768C350.306 99.6489 349.809 97.2282 349.809 94.5057C349.809 91.7358 350.318 89.2914 351.336 87.1726C352.366 85.0419 353.798 83.3788 355.633 82.1832C357.479 80.9759 359.634 80.3722 362.096 80.3722C364.013 80.3722 365.742 80.7273 367.28 81.4375C368.819 82.1477 370.08 83.142 371.062 84.4205C372.045 85.6989 372.654 87.1903 372.891 88.8949H368.701C368.381 87.652 367.671 86.5511 366.57 85.5923C365.481 84.6217 364.013 84.1364 362.167 84.1364C360.533 84.1364 359.101 84.5625 357.87 85.4148C356.651 86.2552 355.698 87.4448 355.011 88.9837C354.336 90.5107 353.999 92.304 353.999 94.3636C353.999 96.4706 354.331 98.3054 354.993 99.8679C355.668 101.43 356.615 102.644 357.834 103.508C359.065 104.372 360.51 104.804 362.167 104.804C363.256 104.804 364.244 104.615 365.132 104.236C366.02 103.857 366.771 103.312 367.387 102.602C368.002 101.892 368.44 101.04 368.701 100.045H372.891C372.654 101.655 372.068 103.105 371.133 104.396C370.21 105.674 368.985 106.692 367.458 107.45C365.943 108.195 364.179 108.568 362.167 108.568ZM383.207 91.5938V108H379.017V71.6364H383.207V84.9886H383.562C384.202 83.58 385.16 82.4614 386.439 81.6328C387.729 80.7924 389.445 80.3722 391.588 80.3722C393.446 80.3722 395.074 80.745 396.471 81.4908C397.867 82.2247 398.951 83.3551 399.72 84.8821C400.501 86.3973 400.892 88.3267 400.892 90.6705V108H396.702V90.9545C396.702 88.7884 396.139 87.1134 395.015 85.9297C393.902 84.7341 392.357 84.1364 390.381 84.1364C389.007 84.1364 387.776 84.4264 386.687 85.0064C385.61 85.5864 384.758 86.4328 384.131 87.5455C383.515 88.6581 383.207 90.0076 383.207 91.5938ZM419.993 108.568C417.365 108.568 415.098 107.988 413.192 106.828C411.298 105.656 409.836 104.023 408.806 101.928C407.788 99.8205 407.279 97.3703 407.279 94.5767C407.279 91.7831 407.788 89.321 408.806 87.1903C409.836 85.0478 411.269 83.3788 413.103 82.1832C414.95 80.9759 417.104 80.3722 419.566 80.3722C420.987 80.3722 422.39 80.6089 423.775 81.0824C425.159 81.5559 426.42 82.3253 427.556 83.3906C428.693 84.4441 429.598 85.8409 430.273 87.581C430.948 89.321 431.285 91.4635 431.285 94.0085V95.7841H410.262V92.1619H427.024C427.024 90.6231 426.716 89.25 426.1 88.0426C425.497 86.8352 424.633 85.8823 423.508 85.1839C422.395 84.4856 421.082 84.1364 419.566 84.1364C417.897 84.1364 416.453 84.5507 415.234 85.3793C414.027 86.196 413.097 87.2614 412.446 88.5753C411.795 89.8892 411.47 91.2978 411.47 92.8011V95.2159C411.47 97.2756 411.825 99.0215 412.535 100.454C413.257 101.874 414.257 102.957 415.536 103.703C416.814 104.437 418.3 104.804 419.993 104.804C421.093 104.804 422.088 104.65 422.975 104.342C423.875 104.023 424.65 103.549 425.301 102.922C425.953 102.283 426.456 101.49 426.811 100.543L430.859 101.679C430.433 103.052 429.717 104.259 428.711 105.301C427.704 106.331 426.462 107.136 424.982 107.716C423.502 108.284 421.839 108.568 419.993 108.568Z" fill="white"/>
</svg>
