<svg width="198" height="220" viewBox="0 0 198 220" fill="none" xmlns="http://www.w3.org/2000/svg">
<path d="M1.79921 48.0399C1.17026 48.2394 0.637159 48.7118 0.316851 49.3537C-0.00345758 49.9957 -0.0848219 50.7546 0.09061 51.464L41.2882 217.316C41.4651 218.025 41.8842 218.626 42.4537 218.987C43.0231 219.348 43.6964 219.44 44.3257 219.242L196.201 171.304C196.83 171.105 197.363 170.632 197.683 169.99C198.003 169.349 198.085 168.59 197.909 167.88L156.712 2.02815C156.535 1.31918 156.116 0.718244 155.546 0.357175C154.977 -0.00389529 154.304 -0.0956141 153.674 0.102135L1.79921 48.0399Z" fill="#E6E6E6"/>
<path d="M46.2343 211.41L190.962 165.729L151.766 7.93384L7.03815 53.6155L46.2343 211.41Z" fill="white"/>
<path d="M26.173 74.6857C25.2074 74.9904 24.8093 76.7985 25.2856 78.7159C25.7619 80.6334 26.9351 81.9455 27.9007 81.6407L93.9087 60.806C94.8743 60.5012 95.2724 58.6931 94.7961 56.7757C94.3198 54.8582 93.1467 53.5462 92.1811 53.8509L26.173 74.6857Z" fill="#E6E6E6"/>
<path d="M31.4888 96.0857C30.5232 96.3905 30.1251 98.1986 30.6014 100.116C31.0777 102.033 32.2509 103.346 33.2165 103.041L99.2245 82.2061C100.19 81.9013 100.588 80.0932 100.112 78.1758C99.6356 76.2583 98.4625 74.9462 97.4969 75.251L31.4888 96.0857Z" fill="#E6E6E6"/>
<path d="M36.7433 117.239C35.7778 117.544 35.3796 119.352 35.8559 121.27C36.3322 123.187 37.5054 124.499 38.471 124.194L104.479 103.36C105.445 103.055 105.843 101.247 105.366 99.3293C104.89 97.4118 103.717 96.0997 102.751 96.4045L36.7433 117.239Z" fill="#E6E6E6"/>
<path d="M42.0591 138.639C41.0935 138.944 40.6954 140.752 41.1717 142.67C41.648 144.587 42.8211 145.899 43.7867 145.594L109.795 124.76C110.76 124.455 111.158 122.647 110.682 120.729C110.206 118.812 109.033 117.5 108.067 117.805L42.0591 138.639Z" fill="#E6E6E6"/>
<path d="M125.679 43.5243C125.274 43.6517 124.895 43.868 124.563 44.1608C124.232 44.4536 123.955 44.8171 123.748 45.2307C123.542 45.6442 123.41 46.0995 123.359 46.5707C123.309 47.0419 123.341 47.5196 123.455 47.9766C123.568 48.4337 123.761 48.861 124.021 49.2341C124.281 49.6073 124.604 49.919 124.971 50.1515C125.338 50.3839 125.742 50.5325 126.16 50.5887C126.578 50.645 127.002 50.6078 127.407 50.4793L139.747 46.5844C140.565 46.3261 141.259 45.7121 141.675 44.8773C142.092 44.0425 142.197 43.0554 141.968 42.1331C141.739 41.2108 141.194 40.4289 140.454 39.9593C139.713 39.4898 138.838 39.3711 138.019 39.6293L125.679 43.5243Z" fill="#E6E6E6"/>
<path d="M130.892 64.5097C130.487 64.6371 130.107 64.8534 129.776 65.1462C129.445 65.439 129.168 65.8025 128.961 66.216C128.755 66.6296 128.622 67.0849 128.572 67.5561C128.521 68.0273 128.554 68.505 128.667 68.9621C128.781 69.4191 128.973 69.8464 129.233 70.2196C129.494 70.5927 129.816 70.9044 130.183 71.1369C130.551 71.3693 130.955 71.5179 131.373 71.5741C131.791 71.6304 132.215 71.5932 132.62 71.4647L144.96 67.5698C145.778 67.3115 146.472 66.6975 146.888 65.8627C147.305 65.0279 147.41 64.0408 147.181 63.1185C146.952 62.1962 146.407 61.4143 145.666 60.9447C144.926 60.4752 144.05 60.3565 143.232 60.6147L130.892 64.5097Z" fill="#E6E6E6"/>
<path d="M136.105 85.495C135.7 85.6228 135.321 85.8394 134.99 86.1323C134.659 86.4252 134.383 86.7887 134.177 87.202C133.97 87.6154 133.838 88.0705 133.788 88.5413C133.738 89.0122 133.77 89.4895 133.884 89.9462C133.997 90.4029 134.189 90.8299 134.449 91.2029C134.709 91.5759 135.031 91.8875 135.398 92.12C135.765 92.3525 136.169 92.5013 136.586 92.558C137.004 92.6146 137.427 92.5779 137.833 92.45L150.172 88.5551C150.991 88.2968 151.684 87.6828 152.101 86.848C152.517 86.0132 152.623 85.0261 152.394 84.1038C152.164 83.1815 151.62 82.3996 150.879 81.93C150.139 81.4605 149.263 81.3418 148.445 81.6L136.105 85.495Z" fill="#E6E6E6"/>
<path d="M141.318 106.48C140.5 106.739 139.808 107.354 139.392 108.188C138.976 109.022 138.871 110.009 139.1 110.93C139.329 111.852 139.873 112.634 140.613 113.103C141.353 113.573 142.228 113.692 143.045 113.435L155.385 109.54C156.203 109.281 156.895 108.667 157.311 107.833C157.727 106.998 157.832 106.012 157.603 105.09C157.374 104.169 156.83 103.387 156.09 102.917C155.35 102.448 154.475 102.328 153.658 102.585L141.318 106.48Z" fill="#E6E6E6"/>
<path d="M146.298 142.855C145.781 143.018 145.298 143.293 144.876 143.666C144.454 144.039 144.101 144.503 143.837 145.029C143.574 145.556 143.406 146.137 143.341 146.737C143.277 147.337 143.319 147.946 143.463 148.528C143.608 149.111 143.853 149.655 144.184 150.131C144.516 150.606 144.927 151.003 145.395 151.3C145.863 151.596 146.378 151.785 146.91 151.857C147.443 151.929 147.983 151.881 148.499 151.717L164.223 146.754C165.265 146.425 166.149 145.643 166.68 144.579C167.211 143.516 167.345 142.258 167.053 141.083C166.761 139.907 166.067 138.911 165.124 138.313C164.18 137.714 163.064 137.563 162.022 137.892V137.892L146.298 142.855Z" fill="#6C63FF"/>
<path d="M162.48 124.957L46.1275 161.683L46.4171 162.848L162.77 126.123L162.48 124.957Z" fill="#E6E6E6"/>
</svg>
