<svg width="644" height="539" viewBox="0 0 644 539" fill="none" xmlns="http://www.w3.org/2000/svg">
<g clip-path="url(#clip0_76_1382)">
<path d="M494.549 500.024H202.925C201.117 500.022 199.383 499.31 198.105 498.044C196.827 496.778 196.108 495.061 196.105 493.271V296.07C196.108 294.28 196.827 292.563 198.105 291.297C199.383 290.031 201.117 289.319 202.925 289.317H494.549C496.357 289.319 498.091 290.031 499.369 291.297C500.647 292.563 501.366 294.28 501.368 296.07V493.271C501.366 495.061 500.647 496.778 499.369 498.044C498.091 499.31 496.357 500.022 494.549 500.024Z" fill="white"/>
<path d="M494.549 500.024H202.925C201.117 500.022 199.383 499.31 198.105 498.044C196.827 496.778 196.108 495.061 196.105 493.271V296.07C196.108 294.28 196.827 292.563 198.105 291.297C199.383 290.031 201.117 289.319 202.925 289.317H494.549C496.357 289.319 498.091 290.031 499.369 291.297C500.647 292.563 501.366 294.28 501.368 296.07V493.271C501.366 495.061 500.647 496.778 499.369 498.044C498.091 499.31 496.357 500.022 494.549 500.024ZM202.925 290.818C201.518 290.819 200.17 291.373 199.176 292.358C198.182 293.342 197.622 294.677 197.621 296.07V493.271C197.622 494.664 198.182 495.999 199.176 496.983C200.17 497.968 201.518 498.522 202.925 498.523H494.549C495.956 498.522 497.304 497.968 498.298 496.983C499.292 495.999 499.852 494.664 499.853 493.271V296.07C499.852 294.677 499.292 293.342 498.298 292.358C497.304 291.373 495.956 290.819 494.549 290.818H202.925Z" fill="#3F3D56"/>
<path d="M382.494 498.837H314.979V388.15C314.982 385.525 316.036 383.008 317.911 381.152C319.785 379.295 322.327 378.251 324.978 378.248H372.495C375.146 378.251 377.688 379.295 379.562 381.152C381.437 383.008 382.491 385.525 382.494 388.15V498.837Z" fill="#E6E6E6"/>
<path d="M478.645 247.282H440.088V183.471C440.09 181.681 440.809 179.964 442.087 178.698C443.366 177.433 445.099 176.72 446.907 176.718H471.825C473.633 176.72 475.367 177.433 476.645 178.698C477.923 179.964 478.642 181.681 478.645 183.471V247.282Z" fill="white"/>
<path d="M478.645 247.282H440.088V183.471C440.09 181.681 440.809 179.964 442.087 178.698C443.366 177.433 445.099 176.72 446.907 176.718H471.825C473.633 176.72 475.367 177.433 476.645 178.698C477.923 179.964 478.642 181.681 478.645 183.471V247.282ZM441.603 245.781H477.129V183.471C477.128 182.079 476.568 180.744 475.574 179.759C474.58 178.774 473.232 178.221 471.825 178.219H446.907C445.501 178.221 444.153 178.774 443.158 179.759C442.164 180.744 441.605 182.079 441.603 183.471V245.781Z" fill="#3F3D56"/>
<path d="M286.463 410.401H229.432C227.157 410.398 224.976 409.502 223.367 407.909C221.759 406.316 220.854 404.156 220.852 401.904V355.343C220.854 353.09 221.759 350.93 223.368 349.337C224.976 347.745 227.157 346.849 229.432 346.846H286.463C288.737 346.849 290.918 347.745 292.527 349.337C294.135 350.93 295.04 353.09 295.043 355.343V401.904C295.04 404.156 294.135 406.316 292.527 407.909C290.918 409.502 288.737 410.398 286.463 410.401V410.401Z" fill="#E6E6E6"/>
<path d="M469.361 410.401H412.33C410.055 410.398 407.874 409.502 406.266 407.909C404.657 406.316 403.753 404.156 403.75 401.904V355.343C403.753 353.09 404.657 350.93 406.266 349.337C407.875 347.745 410.055 346.849 412.33 346.846H469.361C471.636 346.849 473.817 347.745 475.425 349.337C477.034 350.93 477.939 353.09 477.941 355.343V401.904C477.939 404.156 477.034 406.316 475.425 407.909C473.817 409.502 471.636 410.398 469.361 410.401V410.401Z" fill="#E6E6E6"/>
<path d="M174.333 293.373V263.032C174.333 260.701 174.955 258.412 176.136 256.396C177.317 254.38 179.015 252.709 181.059 251.553L351.29 155.201C353.403 154.005 355.806 153.404 358.24 153.462C360.673 153.521 363.043 154.237 365.095 155.533L516.97 251.462C518.862 252.656 520.419 254.304 521.497 256.252C522.576 258.201 523.142 260.387 523.142 262.609V293.373C523.142 296.88 521.735 300.243 519.231 302.722C516.727 305.202 513.331 306.595 509.79 306.595H187.684C184.143 306.595 180.747 305.202 178.243 302.722C175.739 300.243 174.333 296.88 174.333 293.373V293.373Z" fill="#FF5146"/>
<path opacity="0.2" d="M509.79 293.087H187.684C184.143 293.087 180.747 291.693 178.243 289.214C175.739 286.734 174.333 283.371 174.333 279.865V291.87C174.333 295.376 175.739 298.739 178.243 301.219C180.747 303.699 184.143 305.092 187.684 305.092H509.79C513.331 305.092 516.727 303.699 519.231 301.219C521.735 298.739 523.142 295.376 523.142 291.87V279.865C523.142 283.371 521.735 286.734 519.231 289.214C516.727 291.693 513.331 293.087 509.79 293.087V293.087Z" fill="black"/>
<path d="M643.997 498.527L0 499.734L0.00286722 501.235L644 500.028L643.997 498.527Z" fill="#3F3D56"/>
<path d="M217.312 467.99C217.466 467.397 217.486 466.777 217.372 466.176C217.258 465.574 217.012 465.004 216.652 464.507C216.291 464.009 215.825 463.596 215.286 463.296C214.747 462.997 214.148 462.818 213.531 462.772L189.47 432.981L183.516 438.476L208.934 466.933C208.926 467.964 209.299 468.963 209.983 469.739C210.668 470.516 211.617 471.016 212.649 471.147C213.682 471.277 214.727 471.027 215.587 470.446C216.446 469.864 217.06 468.99 217.312 467.99V467.99Z" fill="#FFB8B8"/>
<path d="M194.086 437.713L186.481 443.48C186.265 443.644 186.015 443.76 185.75 443.82C185.484 443.88 185.208 443.883 184.942 443.828C184.675 443.773 184.423 443.661 184.204 443.501C183.984 443.341 183.802 443.136 183.67 442.9L179.038 434.631C178.197 433.53 177.831 432.144 178.02 430.776C178.209 429.408 178.939 428.17 180.048 427.334C181.157 426.498 182.556 426.131 183.938 426.315C185.32 426.498 186.572 427.217 187.419 428.313L194.253 434.874C194.449 435.062 194.601 435.29 194.7 435.541C194.799 435.793 194.842 436.062 194.826 436.332C194.81 436.601 194.735 436.864 194.608 437.102C194.48 437.341 194.302 437.549 194.086 437.713H194.086Z" fill="#3F3D56"/>
<path d="M181.315 419.729C186.656 419.729 190.985 415.441 190.985 410.153C190.985 404.864 186.656 400.577 181.315 400.577C175.975 400.577 171.646 404.864 171.646 410.153C171.646 415.441 175.975 419.729 181.315 419.729Z" fill="#FFB8B8"/>
<path d="M201.957 534.366H206.784L206.324 525.42H199.2L201.957 534.366Z" fill="#FFB8B8"/>
<path d="M200.726 532.806L210.231 532.806H210.231C211.027 532.806 211.815 532.961 212.55 533.262C213.285 533.564 213.952 534.006 214.515 534.563C215.077 535.12 215.524 535.781 215.828 536.509C216.133 537.237 216.289 538.017 216.289 538.804V538.999L200.726 539L200.726 532.806Z" fill="#2F2E41"/>
<path d="M150.494 527.599L154.601 530.111L158.957 522.261L153.989 519.182L150.494 527.599Z" fill="#FFB8B8"/>
<path d="M150.275 525.631L158.362 530.578L158.363 530.578C159.039 530.992 159.627 531.534 160.093 532.173C160.558 532.812 160.891 533.535 161.074 534.302C161.257 535.069 161.286 535.863 161.159 536.641C161.031 537.419 160.751 538.164 160.333 538.834L160.229 539L146.988 530.9L150.275 525.631Z" fill="#2F2E41"/>
<path d="M201.608 531.744C201.249 531.743 200.899 531.635 200.603 531.433C200.308 531.231 200.082 530.945 199.955 530.612L182.496 489.275C182.458 489.174 182.393 489.085 182.308 489.018C182.223 488.951 182.121 488.909 182.013 488.896C181.905 488.883 181.795 488.9 181.697 488.944C181.598 488.989 181.513 489.06 181.452 489.149L157.466 526.567C157.232 526.915 156.879 527.168 156.471 527.281C156.064 527.393 155.629 527.357 155.247 527.178L151.965 525.662C151.544 525.465 151.218 525.114 151.056 524.683C150.894 524.251 150.909 523.774 151.097 523.353L170.748 479.976C170.319 478.942 166.134 468.327 172.564 463.083L172.609 463.056L190.046 455.353L190.486 468.599L207.866 528.316C207.931 528.54 207.95 528.776 207.923 529.008C207.895 529.24 207.821 529.465 207.704 529.668C207.587 529.872 207.431 530.05 207.244 530.192C207.056 530.335 206.842 530.439 206.614 530.499L202.062 531.685C201.913 531.724 201.761 531.744 201.608 531.744V531.744Z" fill="#2F2E41"/>
<path d="M190.31 435.977C189.646 433.338 188.705 430.678 187.443 429.45C186.979 429.002 186.544 428.527 186.138 428.027C185.29 426.968 184.222 426.102 183.008 425.487C183.452 425.242 183.713 424.95 183.713 424.635C183.713 423.774 181.774 423.076 179.382 423.076C176.99 423.076 175.051 423.774 175.051 424.635C175.057 424.735 175.083 424.833 175.127 424.923C175.171 425.013 175.233 425.094 175.309 425.161C173.747 425.791 172.39 426.834 171.385 428.176C170.38 429.517 169.767 431.106 169.611 432.769C169.052 438.702 168.888 446.285 170.849 451.081C172.493 455.048 172.624 459.471 171.217 463.526C171.121 463.808 171.11 464.112 171.183 464.401C171.256 464.689 171.412 464.951 171.631 465.155C171.85 465.359 172.124 465.496 172.419 465.551C172.715 465.606 173.02 465.575 173.299 465.463L190.601 458.559C190.892 458.443 191.142 458.243 191.317 457.985C191.493 457.727 191.587 457.423 191.587 457.112V446.626C191.601 443.038 191.172 439.462 190.31 435.977Z" fill="#3F3D56"/>
<path d="M157.205 479.169C157.808 479.03 158.372 478.762 158.859 478.385C159.345 478.007 159.742 477.528 160.022 476.982C160.301 476.435 160.456 475.835 160.476 475.223C160.496 474.611 160.38 474.002 160.136 473.439L173.674 438.086L166.809 436.331L154.287 471.32C153.36 471.788 152.637 472.576 152.258 473.536C151.878 474.496 151.867 475.56 152.226 476.528C152.586 477.495 153.291 478.298 154.209 478.785C155.127 479.272 156.193 479.408 157.205 479.168L157.205 479.169Z" fill="#FFB8B8"/>
<path d="M173.617 444.794L164.943 440.773C164.696 440.659 164.477 440.493 164.3 440.287C164.124 440.082 163.995 439.841 163.921 439.581C163.847 439.321 163.831 439.048 163.873 438.782C163.915 438.515 164.015 438.261 164.165 438.036L169.437 430.151C170.037 428.906 171.11 427.946 172.422 427.483C173.734 427.019 175.178 427.089 176.438 427.678C177.698 428.267 178.671 429.325 179.145 430.623C179.618 431.92 179.553 433.351 178.964 434.601L176.238 443.632C176.16 443.89 176.026 444.129 175.847 444.332C175.667 444.535 175.445 444.697 175.196 444.807C174.948 444.918 174.678 444.974 174.405 444.971C174.133 444.969 173.864 444.909 173.617 444.794V444.794Z" fill="#3F3D56"/>
<path d="M190.197 407.796C190.633 407.847 191.075 407.768 191.466 407.569C192.179 407.107 192.109 406.056 191.867 405.246C191.266 403.305 190.18 401.546 188.711 400.13C187.242 398.714 185.436 397.688 183.461 397.145C182.084 396.783 180.342 396.797 179.555 397.972C177.576 396.667 175.19 396.107 172.829 396.394C170.469 396.681 168.291 397.796 166.69 399.537C165.125 401.355 164.082 403.556 163.669 405.91C162.843 409.918 159.304 418.188 161.265 421.79C162.569 424.186 168.572 422.319 171.111 423.363C172.376 423.908 173.757 424.135 175.131 424.025C176.506 423.915 177.832 423.472 178.992 422.733C180.128 421.957 180.981 420.84 181.426 419.547C181.872 418.255 181.885 416.854 181.466 415.553C181.021 414.597 180.509 413.673 179.932 412.788C179.353 411.893 179.117 410.822 179.266 409.77C179.621 408.168 187.254 407.736 190.197 407.796Z" fill="#2F2E41"/>
</g>
<defs>
<clipPath id="clip0_76_1382">
<rect width="644" height="539" fill="white"/>
</clipPath>
</defs>
</svg>
