<svg width="746" height="510" viewBox="0 0 746 510" fill="none" xmlns="http://www.w3.org/2000/svg">
<g clip-path="url(#clip0_212_2)">
<path d="M438.925 452.676C446.109 465.374 440.018 508.261 440.018 508.261C440.018 508.261 400.127 491.375 392.944 478.683C391.233 475.663 390.133 472.336 389.708 468.892C389.284 465.447 389.542 461.952 390.468 458.608C391.394 455.263 392.971 452.134 395.107 449.398C397.244 446.663 399.898 444.376 402.919 442.667C405.94 440.959 409.268 439.862 412.713 439.44C416.158 439.019 419.653 439.28 422.997 440.209C426.341 441.139 429.468 442.718 432.202 444.857C434.935 446.996 437.22 449.653 438.925 452.676V452.676Z" fill="#F1F1F1"/>
<path d="M440.596 508.206L439.748 508.384C431.586 469.606 403.083 443.309 402.796 443.048L403.379 442.407C403.668 442.67 432.374 469.146 440.596 508.206Z" fill="white"/>
<path d="M504.197 467.134C494.449 484.817 439.491 508.773 439.491 508.773C439.491 508.773 430.43 449.509 440.172 431.832C442.49 427.628 445.614 423.922 449.364 420.925C453.114 417.928 457.418 415.699 462.03 414.366C466.642 413.032 471.471 412.62 476.242 413.153C481.013 413.685 485.632 415.153 489.836 417.471C494.04 419.789 497.746 422.912 500.743 426.662C503.74 430.413 505.969 434.716 507.302 439.328C508.636 443.94 509.048 448.769 508.515 453.54C507.982 458.311 506.515 462.93 504.197 467.134Z" fill="#F1F1F1"/>
<path d="M439.976 509.414L439.15 508.545C478.92 470.776 489.215 418.1 489.314 417.572L490.492 417.794C490.392 418.325 480.034 471.371 439.976 509.414Z" fill="white"/>
<path d="M705.565 19.3354H0.300781V353.996H705.565V19.3354Z" fill="#E6E6E6"/>
<path d="M685.399 48.0332H20.4678V327.251H685.399V48.0332Z" fill="white"/>
<path d="M705.265 0H0V29.9617H705.265V0Z" fill="#6C63FF"/>
<path d="M22.2652 21.1808C25.3322 21.1808 27.8185 18.6945 27.8185 15.6275C27.8185 12.5605 25.3322 10.0742 22.2652 10.0742C19.1982 10.0742 16.7119 12.5605 16.7119 15.6275C16.7119 18.6945 19.1982 21.1808 22.2652 21.1808Z" fill="white"/>
<path d="M43.3433 21.1808C46.4103 21.1808 48.8966 18.6945 48.8966 15.6275C48.8966 12.5605 46.4103 10.0742 43.3433 10.0742C40.2763 10.0742 37.79 12.5605 37.79 15.6275C37.79 18.6945 40.2763 21.1808 43.3433 21.1808Z" fill="white"/>
<path d="M64.4234 21.1808C67.4904 21.1808 69.9767 18.6945 69.9767 15.6275C69.9767 12.5605 67.4904 10.0742 64.4234 10.0742C61.3564 10.0742 58.8701 12.5605 58.8701 15.6275C58.8701 18.6945 61.3564 21.1808 64.4234 21.1808Z" fill="white"/>
<path d="M281.261 132.323C279.766 132.328 278.557 134.375 278.56 136.896C278.563 139.41 279.77 141.447 281.261 141.452H559.703C561.198 141.447 562.407 139.399 562.404 136.878C562.401 134.364 561.193 132.328 559.703 132.323H281.261Z" fill="#E6E6E6"/>
<path d="M281.261 159.712C279.766 159.717 278.557 161.765 278.56 164.285C278.563 166.799 279.77 168.836 281.261 168.841H487.014C488.509 168.836 489.718 166.788 489.715 164.267C489.712 161.754 488.505 159.717 487.014 159.712H281.261Z" fill="#E6E6E6"/>
<path d="M281.261 186.482C279.766 186.487 278.557 188.535 278.56 191.055C278.563 193.569 279.77 195.606 281.261 195.611H559.703C561.198 195.606 562.407 193.558 562.404 191.037C562.401 188.524 561.193 186.487 559.703 186.482H281.261Z" fill="#E6E6E6"/>
<path d="M281.261 213.871C279.766 213.876 278.557 215.924 278.56 218.445C278.563 220.958 279.77 222.995 281.261 223H487.014C488.509 222.995 489.718 220.947 489.715 218.427C489.712 215.913 488.505 213.876 487.014 213.871H281.261Z" fill="#E6E6E6"/>
<path d="M65.1874 233.323C63.6927 233.328 62.4833 235.375 62.4863 237.896C62.4893 240.41 63.6969 242.447 65.1874 242.452H202.63C204.124 242.447 205.334 240.399 205.331 237.878C205.328 235.364 204.12 233.328 202.63 233.323H65.1874Z" fill="#E6E6E6"/>
<path d="M65.1874 260.712C63.6927 260.717 62.4833 262.765 62.4863 265.285C62.4893 267.799 63.6969 269.836 65.1874 269.841H129.941C131.435 269.836 132.645 267.788 132.642 265.267C132.639 262.754 131.431 260.717 129.941 260.712H65.1874Z" fill="#E6E6E6"/>
<path d="M186.52 117.606C183.857 109.954 179.556 102.975 173.918 97.1557C168.28 91.3365 161.44 86.8171 153.876 83.9128C146.312 81.0085 138.206 79.7891 130.122 80.3397C122.038 80.8903 114.172 83.1976 107.071 87.1008C99.9708 91.0039 93.8073 96.4089 89.0104 102.939C84.2135 109.469 80.8987 116.967 79.2972 124.909C77.6958 132.852 77.8462 141.048 79.7379 148.927C81.6296 156.805 85.2172 164.176 90.2503 170.526C90.7503 171.156 91.2703 171.786 91.8001 172.396C91.8401 172.436 91.87 172.476 91.91 172.516C93.2138 174.018 94.5994 175.447 96.0604 176.796C96.4403 177.146 96.8402 177.506 97.2401 177.846C98.0003 178.526 98.7801 179.176 99.5901 179.796C101.172 181.043 102.821 182.201 104.53 183.266L104.59 183.296C105.7 183.986 106.83 184.626 107.98 185.236L108.45 185.476C109.53 186.036 110.63 186.566 111.76 187.056C111.99 187.156 112.24 187.256 112.47 187.356C112.49 187.366 112.5 187.366 112.52 187.376C114.803 188.326 117.149 189.117 119.54 189.746C124.228 190.995 129.059 191.628 133.91 191.626C135.68 191.626 137.43 191.546 139.16 191.376C143.113 191.011 147.015 190.223 150.8 189.026C150.81 189.026 150.82 189.016 150.83 189.016C153.221 188.254 155.556 187.329 157.82 186.246C157.83 186.236 157.85 186.236 157.86 186.226C158.37 185.986 158.86 185.726 159.36 185.476L159.6 185.356C160 185.146 160.4 184.936 160.8 184.716C161.8 184.166 162.78 183.586 163.75 182.966C164.02 182.806 164.28 182.636 164.55 182.456C165.43 181.876 166.3 181.256 167.14 180.626C167.29 180.516 167.45 180.406 167.6 180.286C176.969 173.175 183.845 163.28 187.244 152.02C190.643 140.76 190.389 128.713 186.52 117.606Z" fill="white"/>
<path d="M152.293 158.88C156.904 158.88 160.642 155.142 160.642 150.531C160.642 145.92 156.904 142.182 152.293 142.182C147.682 142.182 143.944 145.92 143.944 150.531C143.944 155.142 147.682 158.88 152.293 158.88Z" fill="#2F2E41"/>
<path d="M154.62 142.412C156.065 142.412 157.485 142.787 158.742 143.501C159.998 144.214 161.048 145.241 161.789 146.482C162.53 147.723 162.936 149.134 162.967 150.579C162.999 152.024 162.655 153.452 161.97 154.724C162.693 153.818 163.22 152.772 163.517 151.651C163.814 150.531 163.874 149.361 163.694 148.215C163.514 147.07 163.097 145.975 162.47 145C161.843 144.025 161.02 143.191 160.053 142.551C159.086 141.912 157.997 141.481 156.854 141.286C155.711 141.09 154.54 141.135 153.416 141.418C152.292 141.7 151.238 142.213 150.323 142.925C149.408 143.637 148.652 144.532 148.102 145.552C148.882 144.572 149.874 143.781 151.002 143.237C152.131 142.694 153.368 142.411 154.621 142.412H154.62Z" fill="#2F2E41"/>
<path d="M136.692 150.513C150.237 150.513 161.218 139.533 161.218 125.987C161.218 112.442 150.237 101.461 136.692 101.461C123.147 101.461 112.166 112.442 112.166 125.987C112.166 139.533 123.147 150.513 136.692 150.513Z" fill="#2F2E41"/>
<path d="M117.443 110.77C121.669 106.018 127.576 103.093 133.918 102.613C140.259 102.133 146.54 104.136 151.433 108.198C151.233 108.007 151.033 107.815 150.826 107.63C145.981 103.29 139.61 101.052 133.115 101.409C126.62 101.766 120.533 104.688 116.193 109.533C111.853 114.378 109.615 120.749 109.972 127.243C110.328 133.738 113.251 139.826 118.096 144.166C118.142 144.207 118.189 144.249 118.236 144.29C118.444 144.475 118.658 144.65 118.871 144.827C114.263 140.444 111.538 134.442 111.272 128.087C111.006 121.733 113.219 115.524 117.444 110.77H117.443Z" fill="#2F2E41"/>
<path d="M136.483 150.305C145.207 150.305 152.279 143.233 152.279 134.509C152.279 125.785 145.207 118.713 136.483 118.713C127.76 118.713 120.688 125.785 120.688 134.509C120.688 143.233 127.76 150.305 136.483 150.305Z" fill="#A0616A"/>
<path d="M164.75 175.666V180.966C163.78 181.586 162.8 182.166 161.8 182.716C161.4 182.936 161 183.146 160.601 183.356L160.36 183.476C159.86 183.726 159.37 183.986 158.86 184.226C158.851 184.236 158.83 184.236 158.82 184.246C156.557 185.329 154.221 186.254 151.83 187.016C151.82 187.016 151.811 187.026 151.8 187.026C148.015 188.223 144.113 189.011 140.16 189.376C138.43 189.546 136.68 189.626 134.91 189.626C130.059 189.627 125.228 188.995 120.541 187.746C118.149 187.117 115.804 186.325 113.521 185.376C113.501 185.366 113.49 185.366 113.47 185.356C113.24 185.256 112.99 185.156 112.76 185.056C111.63 184.566 110.53 184.036 109.45 183.476L108.98 183.236C107.83 182.626 106.7 181.986 105.59 181.296L105.53 181.266C103.821 180.201 102.172 179.043 100.59 177.796C99.7803 177.176 99.0005 176.526 98.2402 175.846C97.8403 175.506 97.4404 175.146 97.0605 174.796C95.5995 173.447 94.214 172.018 92.9102 170.516C93.0831 169.474 93.3373 168.448 93.6704 167.446L93.6802 167.436C93.74 167.265 93.8102 167.098 93.8902 166.936C93.9453 166.792 94.0088 166.652 94.0801 166.516C95.8701 163.166 99.1104 162.336 103.13 162.156C105.4 162.056 107.91 162.166 110.561 162.136C111.96 162.126 113.41 162.076 114.86 161.946C124.01 161.116 122.351 155.716 122.76 152.806C123.17 149.986 125.71 152.426 125.88 152.586L125.89 152.596C131.068 155.019 136.797 156.023 142.49 155.506C143.47 155.386 144.45 155.316 145.43 155.286C148.01 155.256 147.45 155.996 146.561 156.606C146.129 156.89 145.678 157.144 145.21 157.366C145.21 157.366 144.8 159.866 144.38 163.606C143.981 167.186 150.84 168.866 151.41 168.996C151.422 169.004 151.436 169.007 151.45 169.006C153.955 168.356 156.593 168.426 159.061 169.206H159.07C160.48 169.724 161.738 170.587 162.73 171.715C163.722 172.843 164.417 174.201 164.75 175.666Z" fill="#CBCBCB"/>
<path d="M113.62 182.096C113.62 182.836 113.601 183.546 113.57 184.216C113.561 184.616 113.541 185.006 113.521 185.376C113.501 185.366 113.49 185.366 113.47 185.356C113.24 185.256 112.99 185.156 112.76 185.056C111.63 184.566 110.53 184.036 109.45 183.476L108.98 183.236C107.83 182.626 106.7 181.986 105.59 181.296C105.62 180.946 105.67 180.596 105.72 180.246C105.83 179.476 105.92 178.696 105.98 177.926C106.374 172.516 105.393 167.095 103.13 162.166V162.156C102.93 161.756 102.811 161.536 102.811 161.536C102.811 161.536 105.72 159.036 109.87 161.536C110.135 161.692 110.369 161.895 110.561 162.136C113.061 165.086 113.74 175.006 113.62 182.096Z" fill="#2F2E41"/>
<path d="M159.03 180.736C158.99 181.856 158.93 183.026 158.86 184.216V184.226C158.85 184.236 158.83 184.236 158.82 184.246C156.556 185.328 154.22 186.254 151.83 187.016C151.82 187.016 151.81 187.026 151.8 187.026L151.69 184.216L151.68 183.846L151.15 170.166C151.136 169.856 151.184 169.547 151.293 169.256C151.402 168.966 151.568 168.701 151.782 168.476C151.996 168.252 152.253 168.073 152.538 167.951C152.823 167.829 153.13 167.766 153.44 167.766H158.51C158.76 167.766 158.94 168.276 159.06 169.196V169.206C159.306 173.045 159.296 176.897 159.03 180.736Z" fill="#2F2E41"/>
<path d="M122.974 114.764V130.564H126.632L131.287 125.576L130.664 130.564H146.834L145.834 125.576L147.834 130.564H150.412V114.764H122.974Z" fill="#2F2E41"/>
<path d="M120.479 133.47C121.168 133.47 121.726 132.447 121.726 131.184C121.726 129.922 121.168 128.898 120.479 128.898C119.791 128.898 119.232 129.922 119.232 131.184C119.232 132.447 119.791 133.47 120.479 133.47Z" fill="#A0616A"/>
<path d="M152.489 133.47C153.178 133.47 153.736 132.447 153.736 131.184C153.736 129.922 153.178 128.898 152.489 128.898C151.8 128.898 151.242 129.922 151.242 131.184C151.242 132.447 151.8 133.47 152.489 133.47Z" fill="#A0616A"/>
<path d="M186.52 117.606C183.857 109.954 179.556 102.975 173.918 97.1557C168.28 91.3365 161.44 86.8171 153.876 83.9128C146.312 81.0085 138.206 79.7891 130.122 80.3397C122.038 80.8903 114.172 83.1976 107.071 87.1008C99.9708 91.0039 93.8073 96.4089 89.0104 102.939C84.2135 109.469 80.8987 116.967 79.2972 124.909C77.6958 132.852 77.8462 141.048 79.7379 148.927C81.6296 156.805 85.2172 164.176 90.2503 170.526C90.7503 171.156 91.2703 171.786 91.8001 172.396C91.8401 172.436 91.87 172.476 91.91 172.516C93.2138 174.018 94.5994 175.447 96.0604 176.796C96.4403 177.146 96.8402 177.506 97.2401 177.846C98.0003 178.526 98.7801 179.176 99.5901 179.796C101.172 181.043 102.821 182.201 104.53 183.266L104.59 183.296C105.7 183.986 106.83 184.626 107.98 185.236L108.45 185.476C109.53 186.036 110.63 186.566 111.76 187.056C111.99 187.156 112.24 187.256 112.47 187.356C112.49 187.366 112.5 187.366 112.52 187.376C114.803 188.326 117.149 189.117 119.54 189.746C124.228 190.995 129.059 191.628 133.91 191.626C135.68 191.626 137.43 191.546 139.16 191.376C143.113 191.011 147.015 190.223 150.8 189.026C150.81 189.026 150.82 189.016 150.83 189.016C153.221 188.254 155.556 187.329 157.82 186.246C157.83 186.236 157.85 186.236 157.86 186.226C158.37 185.986 158.86 185.726 159.36 185.476L159.6 185.356C160 185.146 160.4 184.936 160.8 184.716C161.8 184.166 162.78 183.586 163.75 182.966C164.02 182.806 164.28 182.636 164.55 182.456C165.43 181.876 166.3 181.256 167.14 180.626C167.29 180.516 167.45 180.406 167.6 180.286C176.969 173.175 183.845 163.28 187.244 152.02C190.643 140.76 190.389 128.713 186.52 117.606ZM165.76 177.856C165.43 178.116 165.09 178.366 164.75 178.596C164.42 178.846 164.09 179.086 163.75 179.306C163.46 179.516 163.17 179.716 162.87 179.906C162.62 180.076 162.37 180.236 162.12 180.396C161.29 180.916 160.45 181.416 159.6 181.896C159.51 181.946 159.42 181.996 159.33 182.046C158.95 182.256 158.57 182.456 158.19 182.656C158.14 182.686 158.08 182.706 158.03 182.736L157.97 182.766C157.49 183.016 157 183.256 156.51 183.486C154.619 184.397 152.672 185.185 150.68 185.846C150.42 185.936 150.16 186.026 149.9 186.106C146.318 187.245 142.623 187.996 138.88 188.346C137.24 188.496 135.58 188.576 133.91 188.576C129.321 188.586 124.752 187.987 120.32 186.796C118.046 186.202 115.817 185.447 113.65 184.536C113.42 184.446 113.19 184.346 112.97 184.256C112.85 184.206 112.74 184.156 112.62 184.096C111.68 183.686 110.75 183.236 109.84 182.766L109.4 182.536C108.29 181.956 107.2 181.336 106.14 180.676C105.75 180.436 105.36 180.186 104.98 179.926C103.78 179.136 102.61 178.286 101.47 177.396C100.7 176.816 99.9602 176.196 99.24 175.556C98.8601 175.236 98.49 174.886 98.1302 174.556C96.7123 173.247 95.3702 171.858 94.1101 170.396C93.6902 169.916 93.2801 169.436 92.8899 168.936C92.8012 168.837 92.7178 168.734 92.6399 168.626C86.1426 160.427 82.2346 150.479 81.4142 140.05C80.5937 129.621 82.8981 119.184 88.0335 110.07C93.1688 100.956 100.902 93.5783 110.248 88.8774C119.593 84.1765 130.127 82.3657 140.506 83.6758C150.885 84.9859 160.638 89.3576 168.522 96.2334C176.406 103.109 182.064 112.177 184.773 122.282C187.483 132.386 187.121 143.068 183.735 152.966C180.349 162.864 174.091 171.529 165.76 177.856H165.76Z" fill="#CBCBCB"/>
<path d="M529.244 201.146C529.738 201.506 530.203 201.904 530.635 202.337L584.389 191.734L588.708 179.144L608.561 183.178L603.081 206.21C602.638 208.071 601.604 209.738 600.133 210.96C598.663 212.183 596.835 212.896 594.925 212.992L532.67 216.111C531.544 218.179 529.816 219.856 527.714 220.919C525.612 221.981 523.236 222.378 520.903 222.057C518.57 221.737 516.39 220.713 514.653 219.123C512.916 217.533 511.704 215.452 511.178 213.156C510.653 210.861 510.838 208.46 511.711 206.272C512.583 204.085 514.101 202.215 516.062 200.911C518.023 199.607 520.335 198.931 522.69 198.973C525.044 199.015 527.33 199.773 529.244 201.146Z" fill="#FFB7B7"/>
<path d="M583.08 189.244C582.727 188.623 582.512 187.933 582.45 187.221C582.388 186.509 582.481 185.793 582.721 185.12L591.112 161.621C591.822 158.035 593.925 154.878 596.959 152.841C599.994 150.803 603.712 150.052 607.299 150.752C610.887 151.452 614.05 153.546 616.096 156.575C618.142 159.603 618.904 163.32 618.214 166.909L616.999 191.912C616.964 192.626 616.776 193.324 616.448 193.958C616.119 194.592 615.658 195.148 615.095 195.588C614.532 196.028 613.88 196.342 613.185 196.507C612.491 196.673 611.768 196.686 611.067 196.548L586.437 191.667C585.736 191.528 585.073 191.24 584.494 190.822C583.915 190.404 583.432 189.866 583.08 189.244Z" fill="#6C63FF"/>
<path d="M569.599 494.016L553.795 494.015L546.277 433.059L569.601 433.06L569.599 494.016Z" fill="#FFB7B7"/>
<path d="M573.628 509.335L522.672 509.333V508.688C522.672 503.428 524.762 498.384 528.481 494.664C532.201 490.945 537.245 488.855 542.506 488.855H542.507L573.629 488.856L573.628 509.335Z" fill="#2F2E41"/>
<path d="M719.25 477.453L704.614 483.412L674.665 429.791L696.268 420.997L719.25 477.453Z" fill="#FFB7B7"/>
<path d="M728.76 490.121L681.564 509.335L681.321 508.738C679.338 503.866 679.371 498.406 681.414 493.558C683.456 488.711 687.34 484.873 692.212 482.889L692.213 482.889L721.038 471.154L728.76 490.121Z" fill="#2F2E41"/>
<path d="M583.977 240.902L576.706 202.429C575.125 196.765 574.844 190.816 575.885 185.028C576.925 179.24 579.26 173.761 582.714 169.002L609.297 133.46L634.686 134.207C646.692 163.301 648.902 195.512 640.984 225.973L636.317 243.927C657.247 262.805 671.28 315.736 684.053 374.884L719.07 452.326L658.826 470.616L619.795 357.043L584.929 471.461L533.874 469.501L572.705 292.52L583.977 240.902Z" fill="#2F2E41"/>
<path d="M624.43 126.277C638.11 126.277 649.199 115.188 649.199 101.509C649.199 87.8294 638.11 76.7402 624.43 76.7402C610.751 76.7402 599.662 87.8294 599.662 101.509C599.662 115.188 610.751 126.277 624.43 126.277Z" fill="#FFB7B7"/>
<path d="M722.196 157.765C717.594 148.777 716.024 138.57 712.482 129.114C708.94 119.657 702.506 110.275 692.75 107.669C687.217 106.19 681.336 107.093 675.652 106.389C670.654 105.77 665.273 103.219 663.359 98.7797C663.744 94.3794 663.194 89.9474 661.747 85.7743C658.181 75.6436 649.678 67.6461 639.766 63.5118C631.714 60.1533 622.441 59.2048 614.219 62.1212C605.996 65.0377 599.094 72.1654 597.616 80.7637C596.138 89.362 600.878 98.963 609.05 102.017C614.917 104.21 622.474 103.48 626.305 108.436C630.186 113.456 627.404 120.772 623.879 126.049L624.12 126.294C635.633 126.429 648.079 124.204 656.01 115.856C656.87 114.944 657.662 113.97 658.378 112.941C658.621 113.331 658.876 113.711 659.15 114.074C663.143 119.377 669.395 122.385 675.351 125.315C681.307 128.246 687.484 131.535 691.062 137.127C697.526 147.232 693.283 160.842 696.98 172.255C698.625 177.335 701.798 181.784 706.066 184.995C710.333 188.205 715.488 190.021 720.825 190.194C726.163 190.367 731.423 188.889 735.89 185.962C740.357 183.034 743.811 178.8 745.783 173.837C735.72 174.678 726.797 166.754 722.196 157.765Z" fill="#2F2E41"/>
<path d="M482.164 221.145L483.212 195.694L519.158 124.225C520.172 122.193 521.824 120.55 523.862 119.548C525.11 118.926 526.469 118.558 527.861 118.468C529.252 118.377 530.648 118.564 531.966 119.019C533.493 119.546 534.878 120.418 536.012 121.567C537.146 122.717 538 124.113 538.506 125.647C538.723 126.309 538.875 126.991 538.961 127.682C539.217 129.734 538.854 131.816 537.919 133.661L501.924 205.227L482.164 221.145Z" fill="#6C63FF"/>
<path d="M528.339 118.947L489.32 196.527L486.345 195.031L524.084 119.997C525.407 119.335 526.86 118.976 528.339 118.947Z" fill="#3F3D56"/>
<path d="M538.465 127.746L500.933 202.369L497.958 200.872L536.897 123.453C537.376 124.184 537.758 124.974 538.031 125.804C538.238 126.435 538.384 127.086 538.465 127.746Z" fill="#3F3D56"/>
<path d="M534.729 121.087L495.278 199.524L492.303 198.028L531.803 119.492C532.224 119.636 532.635 119.809 533.032 120.009C533.632 120.312 534.2 120.673 534.729 121.087Z" fill="#3F3D56"/>
<path d="M486.677 216.869L482.707 220.066L483.04 211.637C484.403 212.11 485.878 214.162 486.677 216.869Z" fill="#3F3D56"/>
<path d="M527.608 136.747C527.744 137.343 527.832 137.949 527.873 138.559L575.331 165.937L586.867 159.297L599.164 175.396L579.885 189.136C578.328 190.246 576.452 190.821 574.54 190.775C572.628 190.728 570.783 190.063 569.281 188.878L520.344 150.271C518.135 151.088 515.73 151.214 513.448 150.631C511.166 150.048 509.116 148.785 507.57 147.008C506.024 145.232 505.055 143.027 504.793 140.687C504.531 138.346 504.987 135.982 506.101 133.907C507.216 131.832 508.936 130.146 511.032 129.073C513.128 127.999 515.501 127.589 517.836 127.898C520.171 128.206 522.356 129.218 524.102 130.798C525.847 132.379 527.071 134.454 527.608 136.747Z" fill="#FFB7B7"/>
<path d="M575.983 163.201C576.126 162.501 576.418 161.84 576.84 161.263C577.261 160.686 577.802 160.207 578.426 159.859L600.205 147.681C603.098 145.447 606.759 144.453 610.385 144.914C614.011 145.376 617.306 147.257 619.547 150.144C621.789 153.032 622.794 156.69 622.342 160.317C621.89 163.944 620.018 167.244 617.137 169.494L599.773 187.525C599.277 188.04 598.677 188.441 598.012 188.703C597.347 188.964 596.634 189.08 595.92 189.04C595.207 189.001 594.51 188.809 593.878 188.476C593.246 188.144 592.693 187.679 592.256 187.113L576.918 167.234C576.481 166.669 576.171 166.015 576.01 165.319C575.849 164.623 575.84 163.901 575.983 163.201Z" fill="#6C63FF"/>
<path d="M742.628 510H361.628C361.363 510 361.108 509.895 360.921 509.707C360.733 509.52 360.628 509.265 360.628 509C360.628 508.735 360.733 508.48 360.921 508.293C361.108 508.105 361.363 508 361.628 508H742.628C742.893 508 743.147 508.105 743.335 508.293C743.523 508.48 743.628 508.735 743.628 509C743.628 509.265 743.523 509.52 743.335 509.707C743.147 509.895 742.893 510 742.628 510Z" fill="#CBCBCB"/>
</g>
<defs>
<clipPath id="clip0_212_2">
<rect width="745.783" height="510" fill="white"/>
</clipPath>
</defs>
</svg>
