<svg width="746" height="510" viewBox="0 0 746 510" fill="none" xmlns="http://www.w3.org/2000/svg">
<path d="M438.925 453.196C446.109 465.909 440.018 508.846 440.018 508.846C440.018 508.846 400.127 491.941 392.944 479.233C391.233 476.21 390.133 472.88 389.708 469.431C389.284 465.983 389.542 462.484 390.468 459.135C391.394 455.787 392.971 452.654 395.107 449.915C397.244 447.177 399.898 444.887 402.919 443.177C405.94 441.466 409.268 440.368 412.713 439.946C416.158 439.524 419.653 439.785 422.997 440.716C426.341 441.646 429.468 443.228 432.202 445.369C434.935 447.511 437.22 450.17 438.925 453.196V453.196Z" fill="#F1F1F1"/>
<path d="M440.596 508.79L439.748 508.969C431.586 470.146 403.083 443.819 402.796 443.558L403.379 442.917C403.668 443.18 432.374 469.685 440.596 508.79Z" fill="white"/>
<path d="M504.197 467.671C494.449 485.375 439.491 509.357 439.491 509.357C439.491 509.357 430.43 450.026 440.172 432.328C442.49 428.119 445.614 424.409 449.364 421.409C453.114 418.408 457.418 416.177 462.03 414.842C466.642 413.507 471.471 413.094 476.242 413.627C481.013 414.161 485.632 415.63 489.836 417.95C494.04 420.271 497.746 423.398 500.743 427.153C503.74 430.907 505.969 435.216 507.302 439.833C508.636 444.45 509.048 449.285 508.515 454.061C507.982 458.838 506.515 463.462 504.197 467.671V467.671Z" fill="#F1F1F1"/>
<path d="M439.976 510L439.15 509.13C478.92 471.318 489.215 418.581 489.314 418.053L490.492 418.275C490.392 418.806 480.034 471.914 439.976 510Z" fill="white"/>
<path d="M705.565 19.3574H0.300781V354.403H705.565V19.3574Z" fill="#E6E6E6"/>
<path d="M685.399 48.0884H20.4678V327.627H685.399V48.0884Z" fill="white"/>
<path d="M705.265 0H0V29.9962H705.265V0Z" fill="#FF2015"/>
<path d="M22.2652 21.2048C25.3322 21.2048 27.8185 18.7157 27.8185 15.6451C27.8185 12.5746 25.3322 10.0854 22.2652 10.0854C19.1982 10.0854 16.7119 12.5746 16.7119 15.6451C16.7119 18.7157 19.1982 21.2048 22.2652 21.2048Z" fill="white"/>
<path d="M43.3433 21.2048C46.4103 21.2048 48.8966 18.7157 48.8966 15.6451C48.8966 12.5746 46.4103 10.0854 43.3433 10.0854C40.2763 10.0854 37.79 12.5746 37.79 15.6451C37.79 18.7157 40.2763 21.2048 43.3433 21.2048Z" fill="white"/>
<path d="M64.4234 21.2048C67.4904 21.2048 69.9767 18.7157 69.9767 15.6451C69.9767 12.5746 67.4904 10.0854 64.4234 10.0854C61.3564 10.0854 58.8701 12.5746 58.8701 15.6451C58.8701 18.7157 61.3564 21.2048 64.4234 21.2048Z" fill="white"/>
<path d="M281.261 132.475C279.766 132.48 278.557 134.53 278.56 137.054C278.563 139.571 279.77 141.61 281.261 141.615H559.703C561.198 141.609 562.407 139.56 562.404 137.036C562.401 134.519 561.193 132.48 559.703 132.475H281.261Z" fill="#E6E6E6"/>
<path d="M281.261 159.896C279.766 159.901 278.557 161.951 278.56 164.475C278.563 166.991 279.77 169.03 281.261 169.035H487.014C488.509 169.03 489.718 166.98 489.715 164.457C489.712 161.94 488.505 159.901 487.014 159.896H281.261Z" fill="#E6E6E6"/>
<path d="M281.261 186.697C279.766 186.702 278.557 188.752 278.56 191.276C278.563 193.792 279.77 195.831 281.261 195.836H559.703C561.198 195.831 562.407 193.781 562.404 191.257C562.401 188.741 561.193 186.702 559.703 186.697H281.261Z" fill="#E6E6E6"/>
<path d="M281.261 214.117C279.766 214.122 278.557 216.172 278.56 218.695C278.563 221.212 279.77 223.251 281.261 223.256H487.014C488.509 223.251 489.718 221.201 489.715 218.677C489.712 216.161 488.505 214.122 487.014 214.117H281.261Z" fill="#E6E6E6"/>
<path d="M65.1874 233.591C63.6927 233.596 62.4833 235.646 62.4863 238.17C62.4893 240.686 63.6969 242.725 65.1874 242.73H202.63C204.124 242.725 205.334 240.675 205.331 238.151C205.328 235.635 204.12 233.596 202.63 233.591H65.1874Z" fill="#E6E6E6"/>
<path d="M65.1874 261.012C63.6927 261.017 62.4833 263.067 62.4863 265.59C62.4893 268.107 63.6969 270.146 65.1874 270.151H129.941C131.435 270.146 132.645 268.096 132.642 265.572C132.639 263.056 131.431 261.017 129.941 261.012H65.1874Z" fill="#E6E6E6"/>
<path d="M186.52 117.741C183.857 110.08 179.556 103.093 173.918 97.2675C168.28 91.4416 161.44 86.917 153.876 84.0094C146.312 81.1017 138.206 79.8809 130.122 80.4322C122.038 80.9834 114.172 83.2934 107.071 87.201C99.9708 91.1086 93.8073 96.5198 89.0104 103.057C84.2135 109.595 80.8987 117.101 79.2972 125.053C77.6958 133.005 77.8462 141.211 79.7379 149.098C81.6296 156.986 85.2172 164.365 90.2503 170.722C90.7503 171.353 91.2703 171.984 91.8001 172.594C91.8401 172.634 91.87 172.675 91.91 172.715C93.2138 174.218 94.5994 175.649 96.0604 176.999C96.4403 177.35 96.8402 177.71 97.2401 178.051C98.0003 178.731 98.7801 179.382 99.5901 180.003C101.172 181.251 102.821 182.411 104.53 183.477L104.59 183.507C105.7 184.198 106.83 184.838 107.98 185.449L108.45 185.689C109.53 186.25 110.63 186.781 111.76 187.271C111.99 187.371 112.24 187.472 112.47 187.572C112.49 187.582 112.5 187.582 112.52 187.592C114.803 188.542 117.149 189.335 119.54 189.964C124.228 191.215 129.059 191.848 133.91 191.847C135.68 191.847 137.43 191.766 139.16 191.596C143.113 191.231 147.015 190.442 150.8 189.244C150.81 189.244 150.82 189.234 150.83 189.234C153.221 188.471 155.556 187.544 157.82 186.46C157.83 186.45 157.85 186.45 157.86 186.44C158.37 186.2 158.86 185.94 159.36 185.689L159.6 185.569C160 185.359 160.4 185.149 160.8 184.929C161.8 184.378 162.78 183.797 163.75 183.177C164.02 183.016 164.28 182.846 164.55 182.666C165.43 182.085 166.3 181.465 167.14 180.834C167.29 180.724 167.45 180.614 167.6 180.493C176.969 173.374 183.845 163.468 187.244 152.195C190.643 140.922 190.389 128.861 186.52 117.741V117.741Z" fill="white"/>
<path d="M152.293 159.063C156.904 159.063 160.642 155.321 160.642 150.704C160.642 146.088 156.904 142.346 152.293 142.346C147.682 142.346 143.944 146.088 143.944 150.704C143.944 155.321 147.682 159.063 152.293 159.063Z" fill="#2F2E41"/>
<path d="M154.62 142.576C156.065 142.576 157.485 142.951 158.742 143.665C159.998 144.379 161.048 145.408 161.789 146.65C162.53 147.892 162.936 149.306 162.967 150.752C162.999 152.198 162.655 153.628 161.97 154.902C162.693 153.995 163.22 152.947 163.517 151.825C163.814 150.704 163.874 149.532 163.694 148.386C163.514 147.239 163.097 146.143 162.47 145.167C161.843 144.19 161.02 143.355 160.053 142.715C159.086 142.075 157.997 141.643 156.854 141.448C155.711 141.252 154.54 141.298 153.416 141.58C152.292 141.863 151.238 142.377 150.323 143.089C149.408 143.802 148.652 144.698 148.102 145.719C148.882 144.738 149.874 143.946 151.002 143.402C152.131 142.857 153.368 142.575 154.621 142.576H154.62Z" fill="#2F2E41"/>
<path d="M136.692 150.687C150.237 150.687 161.218 139.693 161.218 126.132C161.218 112.571 150.237 101.578 136.692 101.578C123.147 101.578 112.166 112.571 112.166 126.132C112.166 139.693 123.147 150.687 136.692 150.687Z" fill="#2F2E41"/>
<path d="M117.443 110.898C121.669 106.14 127.576 103.211 133.918 102.731C140.259 102.251 146.54 104.256 151.433 108.323C151.233 108.132 151.033 107.94 150.826 107.754C145.981 103.409 139.61 101.169 133.115 101.526C126.62 101.883 120.533 104.809 116.193 109.659C111.853 114.51 109.615 120.888 109.972 127.39C110.328 133.892 113.251 139.986 118.096 144.332C118.142 144.373 118.189 144.415 118.236 144.456C118.444 144.642 118.658 144.817 118.871 144.994C114.263 140.605 111.538 134.596 111.272 128.235C111.006 121.873 113.219 115.657 117.444 110.898H117.443Z" fill="#2F2E41"/>
<path d="M136.483 150.478C145.207 150.478 152.279 143.398 152.279 134.664C152.279 125.93 145.207 118.85 136.483 118.85C127.76 118.85 120.688 125.93 120.688 134.664C120.688 143.398 127.76 150.478 136.483 150.478Z" fill="#A0616A"/>
<path d="M164.75 175.868V181.174C163.78 181.794 162.8 182.375 161.8 182.926C161.4 183.146 161 183.356 160.601 183.566L160.36 183.687C159.86 183.937 159.37 184.197 158.86 184.437C158.851 184.447 158.83 184.447 158.82 184.457C156.557 185.542 154.221 186.468 151.83 187.231C151.82 187.231 151.811 187.241 151.8 187.241C148.015 188.439 144.113 189.228 140.16 189.593C138.43 189.764 136.68 189.844 134.91 189.844C130.059 189.845 125.228 189.212 120.541 187.962C118.149 187.332 115.804 186.539 113.521 185.589C113.501 185.579 113.49 185.579 113.47 185.569C113.24 185.469 112.99 185.369 112.76 185.268C111.63 184.778 110.53 184.247 109.45 183.687L108.98 183.446C107.83 182.836 106.7 182.195 105.59 181.504L105.53 181.474C103.821 180.408 102.172 179.248 100.59 178C99.7803 177.379 99.0005 176.729 98.2402 176.048C97.8403 175.707 97.4404 175.347 97.0605 174.997C95.5995 173.646 94.214 172.215 92.9102 170.712C93.0831 169.669 93.3373 168.641 93.6704 167.638L93.6802 167.628C93.74 167.457 93.8102 167.29 93.8902 167.128C93.9453 166.984 94.0088 166.843 94.0801 166.707C95.8701 163.353 99.1104 162.522 103.13 162.342C105.4 162.242 107.91 162.352 110.561 162.322C111.96 162.312 113.41 162.262 114.86 162.132C124.01 161.301 122.351 155.895 122.76 152.981C123.17 150.158 125.71 152.601 125.88 152.761L125.89 152.771C131.068 155.197 136.797 156.203 142.49 155.684C143.47 155.564 144.45 155.494 145.43 155.464C148.01 155.434 147.45 156.175 146.561 156.786C146.129 157.07 145.678 157.325 145.21 157.547C145.21 157.547 144.8 160.049 144.38 163.794C143.981 167.378 150.84 169.06 151.41 169.19C151.422 169.198 151.436 169.201 151.45 169.2C153.955 168.549 156.593 168.619 159.061 169.4H159.07C160.48 169.919 161.738 170.783 162.73 171.912C163.722 173.042 164.417 174.401 164.75 175.868Z" fill="#CBCBCB"/>
<path d="M113.62 182.305C113.62 183.046 113.601 183.757 113.57 184.428C113.561 184.828 113.541 185.219 113.521 185.589C113.501 185.579 113.49 185.579 113.47 185.569C113.24 185.469 112.99 185.369 112.76 185.269C111.63 184.778 110.53 184.248 109.45 183.687L108.98 183.447C107.83 182.836 106.7 182.195 105.59 181.504C105.62 181.154 105.67 180.804 105.72 180.453C105.83 179.682 105.92 178.901 105.98 178.131C106.374 172.715 105.393 167.287 103.13 162.352V162.342C102.93 161.942 102.811 161.722 102.811 161.722C102.811 161.722 105.72 159.219 109.87 161.722C110.135 161.878 110.369 162.081 110.561 162.322C113.061 165.276 113.74 175.207 113.62 182.305Z" fill="#2F2E41"/>
<path d="M159.03 180.943C158.99 182.065 158.93 183.236 158.86 184.427V184.437C158.85 184.447 158.83 184.447 158.82 184.457C156.556 185.542 154.22 186.468 151.83 187.231C151.82 187.231 151.81 187.241 151.8 187.241L151.69 184.427L151.68 184.057L151.15 170.361C151.136 170.051 151.184 169.742 151.293 169.451C151.402 169.16 151.568 168.895 151.782 168.67C151.996 168.446 152.253 168.267 152.538 168.144C152.823 168.022 153.13 167.959 153.44 167.958H158.51C158.76 167.958 158.94 168.469 159.06 169.39V169.4C159.306 173.244 159.296 177.101 159.03 180.943V180.943Z" fill="#2F2E41"/>
<path d="M122.974 114.896V130.715H126.632L131.287 125.721L130.664 130.715H146.834L145.834 125.721L147.834 130.715H150.412V114.896H122.974Z" fill="#2F2E41"/>
<path d="M120.479 133.624C121.168 133.624 121.726 132.599 121.726 131.336C121.726 130.072 121.168 129.047 120.479 129.047C119.791 129.047 119.232 130.072 119.232 131.336C119.232 132.599 119.791 133.624 120.479 133.624Z" fill="#A0616A"/>
<path d="M152.489 133.624C153.178 133.624 153.736 132.599 153.736 131.336C153.736 130.072 153.178 129.047 152.489 129.047C151.8 129.047 151.242 130.072 151.242 131.336C151.242 132.599 151.8 133.624 152.489 133.624Z" fill="#A0616A"/>
<path d="M186.52 117.741C183.857 110.08 179.556 103.093 173.918 97.2675C168.28 91.4416 161.44 86.917 153.876 84.0094C146.312 81.1017 138.206 79.8809 130.122 80.4322C122.038 80.9834 114.172 83.2934 107.071 87.201C99.9708 91.1086 93.8073 96.5198 89.0104 103.057C84.2135 109.595 80.8987 117.101 79.2972 125.053C77.6958 133.005 77.8462 141.211 79.7379 149.098C81.6296 156.986 85.2172 164.365 90.2503 170.722C90.7503 171.353 91.2703 171.984 91.8001 172.594C91.8401 172.634 91.87 172.675 91.91 172.715C93.2138 174.218 94.5994 175.649 96.0604 176.999C96.4403 177.35 96.8402 177.71 97.2401 178.051C98.0003 178.731 98.7801 179.382 99.5901 180.003C101.172 181.251 102.821 182.411 104.53 183.477L104.59 183.507C105.7 184.198 106.83 184.838 107.98 185.449L108.45 185.689C109.53 186.25 110.63 186.781 111.76 187.271C111.99 187.371 112.24 187.472 112.47 187.572C112.49 187.582 112.5 187.582 112.52 187.592C114.803 188.542 117.149 189.335 119.54 189.964C124.228 191.215 129.059 191.848 133.91 191.847C135.68 191.847 137.43 191.766 139.16 191.596C143.113 191.231 147.015 190.442 150.8 189.244C150.81 189.244 150.82 189.234 150.83 189.234C153.221 188.471 155.556 187.544 157.82 186.46C157.83 186.45 157.85 186.45 157.86 186.44C158.37 186.2 158.86 185.94 159.36 185.689L159.6 185.569C160 185.359 160.4 185.149 160.8 184.929C161.8 184.378 162.78 183.797 163.75 183.177C164.02 183.016 164.28 182.846 164.55 182.666C165.43 182.085 166.3 181.465 167.14 180.834C167.29 180.724 167.45 180.614 167.6 180.493C176.969 173.374 183.845 163.468 187.244 152.195C190.643 140.922 190.389 128.861 186.52 117.741V117.741ZM165.76 178.061C165.43 178.321 165.09 178.571 164.75 178.802C164.42 179.052 164.09 179.292 163.75 179.512C163.46 179.723 163.17 179.923 162.87 180.113C162.62 180.283 162.37 180.443 162.12 180.604C161.29 181.124 160.45 181.625 159.6 182.105C159.51 182.155 159.42 182.205 159.33 182.256C158.95 182.466 158.57 182.666 158.19 182.866C158.14 182.896 158.08 182.916 158.03 182.946L157.97 182.976C157.49 183.227 157 183.467 156.51 183.697C154.619 184.609 152.672 185.398 150.68 186.06C150.42 186.15 150.16 186.24 149.9 186.32C146.318 187.461 142.623 188.213 138.88 188.563C137.24 188.713 135.58 188.793 133.91 188.793C129.321 188.802 124.752 188.203 120.32 187.011C118.046 186.417 115.817 185.661 113.65 184.748C113.42 184.658 113.19 184.558 112.97 184.468C112.85 184.418 112.74 184.368 112.62 184.308C111.68 183.897 110.75 183.447 109.84 182.976L109.4 182.746C108.29 182.165 107.2 181.545 106.14 180.884C105.75 180.644 105.36 180.393 104.98 180.133C103.78 179.342 102.61 178.491 101.47 177.6C100.7 177.02 99.9602 176.399 99.24 175.758C98.8601 175.438 98.49 175.087 98.1302 174.757C96.7123 173.446 95.3702 172.056 94.1101 170.592C93.6902 170.112 93.2801 169.631 92.8899 169.13C92.8012 169.031 92.7178 168.928 92.6399 168.82C86.1426 160.612 82.2346 150.652 81.4142 140.211C80.5937 129.77 82.8981 119.321 88.0335 110.197C93.1688 101.072 100.902 93.686 110.248 88.9797C119.593 84.2734 130.127 82.4604 140.506 83.772C150.885 85.0837 160.638 89.4604 168.522 96.3441C176.406 103.228 182.064 112.307 184.773 122.422C187.483 132.538 187.121 143.233 183.735 153.142C180.349 163.051 174.091 171.726 165.76 178.061H165.76Z" fill="#CBCBCB"/>
<path d="M529.244 201.377C529.738 201.738 530.203 202.136 530.635 202.57L584.389 191.955L588.708 179.35L608.561 183.389L603.081 206.447C602.638 208.31 601.604 209.979 600.133 211.203C598.663 212.427 596.835 213.141 594.925 213.237L532.67 216.359C531.544 218.43 529.816 220.109 527.714 221.173C525.612 222.236 523.236 222.634 520.903 222.313C518.57 221.992 516.39 220.967 514.653 219.375C512.916 217.783 511.704 215.7 511.178 213.402C510.653 211.103 510.838 208.699 511.711 206.509C512.583 204.319 514.101 202.447 516.062 201.142C518.023 199.837 520.335 199.16 522.69 199.202C525.044 199.244 527.33 200.003 529.244 201.377V201.377Z" fill="#FFB7B7"/>
<path d="M583.08 189.462C582.727 188.84 582.512 188.149 582.45 187.437C582.388 186.724 582.481 186.006 582.721 185.333L591.112 161.807C591.822 158.217 593.925 155.056 596.959 153.017C599.994 150.977 603.712 150.225 607.299 150.926C610.887 151.627 614.05 153.723 616.096 156.755C618.142 159.787 618.904 163.508 618.214 167.101L616.999 192.133C616.964 192.848 616.776 193.546 616.448 194.181C616.119 194.816 615.658 195.373 615.095 195.813C614.532 196.254 613.88 196.568 613.185 196.733C612.491 196.899 611.768 196.913 611.067 196.774L586.437 191.887C585.736 191.749 585.073 191.46 584.494 191.042C583.915 190.623 583.432 190.084 583.08 189.462V189.462Z" fill="#FF2015"/>
<path d="M569.599 494.584L553.795 494.583L546.277 433.557L569.601 433.558L569.599 494.584Z" fill="#FFB7B7"/>
<path d="M573.628 509.92L522.672 509.918V509.273C522.672 504.007 524.762 498.957 528.481 495.233C532.201 491.509 537.245 489.417 542.506 489.417H542.507L573.629 489.418L573.628 509.92Z" fill="#2F2E41"/>
<path d="M719.25 478.002L704.614 483.968L674.665 430.286L696.268 421.481L719.25 478.002Z" fill="#FFB7B7"/>
<path d="M728.76 490.685L681.564 509.92L681.321 509.323C679.338 504.445 679.371 498.979 681.414 494.126C683.456 489.273 687.34 485.431 692.212 483.445L692.213 483.444L721.038 471.696L728.76 490.685Z" fill="#2F2E41"/>
<path d="M583.977 241.178L576.706 202.662C575.125 196.991 574.844 191.035 575.885 185.241C576.925 179.446 579.26 173.961 582.714 169.196L609.297 133.614L634.686 134.361C646.692 163.489 648.902 195.737 640.984 226.233L636.317 244.207C657.247 263.107 671.28 316.099 684.053 375.315L719.07 452.846L658.826 471.157L619.795 357.454L584.929 472.003L533.874 470.041L572.705 292.856L583.977 241.178Z" fill="#2F2E41"/>
<path d="M624.43 126.422C638.11 126.422 649.199 115.32 649.199 101.625C649.199 87.93 638.11 76.8281 624.43 76.8281C610.751 76.8281 599.662 87.93 599.662 101.625C599.662 115.32 610.751 126.422 624.43 126.422Z" fill="#FFB7B7"/>
<path d="M722.196 157.946C717.594 148.948 716.024 138.729 712.482 129.262C708.94 119.795 702.506 110.402 692.75 107.793C687.217 106.313 681.336 107.216 675.652 106.511C670.654 105.892 665.273 103.337 663.359 98.8932C663.744 94.4878 663.194 90.0508 661.747 85.8729C658.181 75.7305 649.678 67.7238 639.766 63.5847C631.714 60.2224 622.441 59.2728 614.219 62.1926C605.996 65.1124 599.094 72.2483 597.616 80.8565C596.138 89.4647 600.878 99.0767 609.05 102.134C614.917 104.33 622.474 103.599 626.305 108.56C630.186 113.586 627.404 120.911 623.879 126.194L624.12 126.439C635.633 126.574 648.079 124.347 656.01 115.989C656.87 115.076 657.662 114.101 658.378 113.071C658.621 113.461 658.876 113.841 659.15 114.205C663.143 119.514 669.394 122.525 675.351 125.459C681.307 128.394 687.484 131.687 691.062 137.285C697.526 147.402 693.283 161.027 696.98 172.453C698.625 177.539 701.798 181.993 706.066 185.207C710.333 188.421 715.488 190.239 720.825 190.412C726.163 190.586 731.423 189.106 735.89 186.176C740.357 183.245 743.811 179.006 745.783 174.037C735.72 174.879 726.797 166.945 722.196 157.946Z" fill="#2F2E41"/>
<path d="M482.164 221.4L483.212 195.919L519.158 124.368C520.172 122.334 521.824 120.689 523.862 119.686C525.11 119.063 526.469 118.695 527.861 118.604C529.252 118.513 530.648 118.701 531.966 119.156C533.493 119.683 534.878 120.556 536.012 121.707C537.146 122.858 538 124.256 538.506 125.791C538.723 126.454 538.875 127.137 538.961 127.829C539.217 129.884 538.854 131.968 537.919 133.815L501.924 205.463L482.164 221.4Z" fill="#FF2015"/>
<path d="M528.339 119.084L489.32 196.753L486.345 195.255L524.084 120.135C525.407 119.472 526.86 119.113 528.339 119.084V119.084Z" fill="#3F3D56"/>
<path d="M538.465 127.892L500.933 202.601L497.958 201.103L536.897 123.595C537.376 124.326 537.758 125.117 538.031 125.948C538.238 126.58 538.384 127.232 538.465 127.892V127.892Z" fill="#3F3D56"/>
<path d="M534.729 121.226L495.278 199.754L492.303 198.256L531.803 119.629C532.224 119.774 532.635 119.947 533.032 120.147C533.632 120.45 534.2 120.811 534.729 121.226Z" fill="#3F3D56"/>
<path d="M486.677 217.118L482.707 220.319L483.04 211.88C484.403 212.354 485.878 214.408 486.677 217.118Z" fill="#3F3D56"/>
<path d="M527.608 136.904C527.744 137.501 527.832 138.107 527.873 138.718L575.331 166.128L586.867 159.48L599.164 175.597L579.885 189.354C578.328 190.465 576.452 191.041 574.54 190.994C572.628 190.948 570.783 190.281 569.281 189.095L520.344 150.443C518.135 151.262 515.73 151.388 513.448 150.804C511.166 150.221 509.116 148.956 507.57 147.178C506.024 145.399 505.055 143.192 504.793 140.848C504.531 138.505 504.987 136.138 506.101 134.061C507.216 131.984 508.936 130.296 511.032 129.221C513.128 128.146 515.501 127.736 517.836 128.045C520.171 128.353 522.356 129.366 524.102 130.949C525.847 132.531 527.071 134.608 527.608 136.904V136.904Z" fill="#FFB7B7"/>
<path d="M575.983 163.388C576.126 162.687 576.418 162.026 576.84 161.448C577.261 160.871 577.802 160.391 578.426 160.042L600.205 147.851C603.098 145.615 606.759 144.619 610.385 145.081C614.011 145.543 617.306 147.426 619.547 150.317C621.789 153.208 622.794 156.87 622.342 160.502C621.89 164.133 620.018 167.437 617.137 169.689L599.773 187.741C599.277 188.256 598.677 188.658 598.012 188.92C597.347 189.182 596.634 189.297 595.92 189.258C595.207 189.219 594.51 189.026 593.878 188.693C593.246 188.36 592.693 187.895 592.256 187.329L576.918 167.426C576.481 166.86 576.171 166.206 576.01 165.509C575.849 164.813 575.84 164.089 575.983 163.388V163.388Z" fill="#FF2015"/>
</svg>
