<svg width="904" height="510" viewBox="0 0 904 510" fill="none" xmlns="http://www.w3.org/2000/svg">
<path d="M67.9996 508.891L67.0484 507.132C79.8019 500.234 95.6742 491.651 103.964 477.564C112.137 463.678 112.32 444.822 104.443 428.354C97.7393 414.338 85.4251 401.781 68.8319 392.041C65.5589 390.119 62.1231 388.298 58.8004 386.537C50.7689 382.281 42.4639 377.879 35.616 371.634C26.1844 363.033 19.0482 348.6 24.367 335.743C26.1163 331.64 28.9811 328.109 32.6361 325.551C36.2912 322.994 40.59 321.513 45.0445 321.276L45.1573 323.273C41.0764 323.489 37.1379 324.845 33.7888 327.187C30.4396 329.529 27.8139 332.762 26.2096 336.521C21.2669 348.468 28.0482 362.026 36.9637 370.157C43.6244 376.23 51.8155 380.572 59.7369 384.77C63.0785 386.541 66.534 388.373 69.8446 390.316C86.7831 400.259 99.371 413.114 106.247 427.49C114.408 444.551 114.193 464.127 105.688 478.579C97.1153 493.145 80.9715 501.876 67.9996 508.891Z" fill="#F1F1F1"/>
<path d="M57.7197 331.817C67.3847 331.817 75.2197 328.011 75.2197 323.317C75.2197 318.622 67.3847 314.817 57.7197 314.817C48.0547 314.817 40.2197 318.622 40.2197 323.317C40.2197 328.011 48.0547 331.817 57.7197 331.817Z" fill="#F1F1F1"/>
<path d="M71.7197 387.817C81.3847 387.817 89.2197 384.011 89.2197 379.317C89.2197 374.622 81.3847 370.817 71.7197 370.817C62.0547 370.817 54.2197 374.622 54.2197 379.317C54.2197 384.011 62.0547 387.817 71.7197 387.817Z" fill="#F1F1F1"/>
<path d="M39.7197 396.817C49.3847 396.817 57.2197 393.011 57.2197 388.317C57.2197 383.622 49.3847 379.817 39.7197 379.817C30.0547 379.817 22.2197 383.622 22.2197 388.317C22.2197 393.011 30.0547 396.817 39.7197 396.817Z" fill="#F1F1F1"/>
<path d="M89.7197 443.817C99.3847 443.817 107.22 440.011 107.22 435.317C107.22 430.622 99.3847 426.817 89.7197 426.817C80.0547 426.817 72.2197 430.622 72.2197 435.317C72.2197 440.011 80.0547 443.817 89.7197 443.817Z" fill="#F1F1F1"/>
<path d="M124.72 443.817C134.385 443.817 142.22 440.011 142.22 435.317C142.22 430.622 134.385 426.817 124.72 426.817C115.055 426.817 107.22 430.622 107.22 435.317C107.22 440.011 115.055 443.817 124.72 443.817Z" fill="#F1F1F1"/>
<path d="M903.807 15.4292H341.011V282.486H903.807V15.4292Z" fill="#E6E6E6"/>
<path d="M887.715 38.3301H357.104V261.144H887.715V38.3301Z" fill="white"/>
<path d="M903.568 0H340.771V23.9092H903.568V0Z" fill="#FF2015"/>
<path d="M358.539 15.4904C360.986 15.4904 362.97 13.5064 362.97 11.0589C362.97 8.61149 360.986 6.62744 358.539 6.62744C356.091 6.62744 354.107 8.61149 354.107 11.0589C354.107 13.5064 356.091 15.4904 358.539 15.4904Z" fill="white"/>
<path d="M375.359 15.4904C377.807 15.4904 379.791 13.5064 379.791 11.0589C379.791 8.61149 377.807 6.62744 375.359 6.62744C372.912 6.62744 370.928 8.61149 370.928 11.0589C370.928 13.5064 372.912 15.4904 375.359 15.4904Z" fill="white"/>
<path d="M392.181 15.4904C394.628 15.4904 396.612 13.5064 396.612 11.0589C396.612 8.61149 394.628 6.62744 392.181 6.62744C389.733 6.62744 387.749 8.61149 387.749 11.0589C387.749 13.5064 389.733 15.4904 392.181 15.4904Z" fill="white"/>
<path d="M594.432 91.208C593.863 91.208 593.317 91.4342 592.914 91.8368C592.511 92.2394 592.285 92.7855 592.285 93.3549C592.285 93.9243 592.511 94.4703 592.914 94.873C593.317 95.2756 593.863 95.5018 594.432 95.5018H712.236C712.805 95.5018 713.351 95.2756 713.754 94.873C714.157 94.4703 714.383 93.9243 714.383 93.3549C714.383 92.7855 714.157 92.2394 713.754 91.8368C713.351 91.4342 712.805 91.208 712.236 91.208H594.432Z" fill="#E6E6E6"/>
<path d="M594.432 104.09C593.864 104.092 593.319 104.318 592.917 104.721C592.516 105.123 592.29 105.669 592.29 106.237C592.29 106.806 592.516 107.351 592.917 107.754C593.319 108.156 593.864 108.383 594.432 108.384H654.574C655.142 108.383 655.687 108.156 656.089 107.754C656.49 107.351 656.716 106.806 656.716 106.237C656.716 105.669 656.49 105.123 656.089 104.721C655.687 104.318 655.142 104.092 654.574 104.09H594.432Z" fill="#E6E6E6"/>
<path d="M591.468 166.444C590.899 166.444 590.353 166.67 589.95 167.073C589.548 167.475 589.321 168.021 589.321 168.591C589.321 169.16 589.548 169.706 589.95 170.109C590.353 170.511 590.899 170.738 591.468 170.738H812.351C812.921 170.738 813.467 170.511 813.869 170.109C814.272 169.706 814.498 169.16 814.498 168.591C814.498 168.021 814.272 167.475 813.869 167.073C813.467 166.67 812.921 166.444 812.351 166.444H591.468Z" fill="#E6E6E6"/>
<path d="M591.468 179.326C590.9 179.327 590.355 179.554 589.953 179.957C589.552 180.359 589.326 180.904 589.326 181.473C589.326 182.042 589.552 182.587 589.953 182.99C590.355 183.392 590.9 183.619 591.468 183.62H754.689C755.257 183.619 755.802 183.392 756.204 182.99C756.605 182.587 756.831 182.042 756.831 181.473C756.831 180.904 756.605 180.359 756.204 179.957C755.802 179.554 755.257 179.327 754.689 179.326H591.468Z" fill="#E6E6E6"/>
<path d="M591.468 191.917C590.9 191.919 590.355 192.145 589.953 192.548C589.552 192.95 589.326 193.496 589.326 194.064C589.326 194.633 589.552 195.178 589.953 195.581C590.355 195.983 590.9 196.21 591.468 196.211H812.351C812.92 196.21 813.465 195.983 813.866 195.581C814.268 195.178 814.494 194.633 814.494 194.064C814.494 193.496 814.268 192.95 813.866 192.548C813.465 192.145 812.92 191.919 812.351 191.917H591.468Z" fill="#E6E6E6"/>
<path d="M591.468 204.8C590.9 204.801 590.355 205.028 589.953 205.43C589.552 205.833 589.326 206.378 589.326 206.947C589.326 207.515 589.552 208.061 589.953 208.463C590.355 208.866 590.9 209.092 591.468 209.094H754.689C755.257 209.092 755.802 208.866 756.204 208.463C756.605 208.061 756.831 207.515 756.831 206.947C756.831 206.378 756.605 205.833 756.204 205.43C755.802 205.028 755.257 204.801 754.689 204.8H591.468Z" fill="#E6E6E6"/>
<path d="M475.989 175.157C486.314 175.157 494.683 166.787 494.683 156.462C494.683 146.138 486.314 137.768 475.989 137.768C465.665 137.768 457.295 146.138 457.295 156.462C457.295 166.787 465.665 175.157 475.989 175.157Z" fill="#A0616A"/>
<path d="M470.069 141.507C470.069 141.507 478.793 143.844 483.311 144.779C487.828 145.713 487.361 143.065 487.361 143.065C487.361 143.065 493.281 143.844 492.969 143.221C492.658 142.597 495.462 139.326 492.19 135.587C488.919 131.848 489.854 129.044 489.854 129.044H487.05L486.271 127.954H481.909C481.909 127.954 477.086 123.725 468.518 124.971C459.95 126.217 449.817 129.511 448.882 134.652C448.755 135.35 448.588 136.124 448.394 136.943C446.052 146.834 451.03 156.089 456.193 164.845C457.462 166.997 463.6 171.69 463.443 168.47C463.286 165.251 457.918 158.02 461.656 157.553C465.395 157.086 471.783 147.583 470.069 141.507Z" fill="#2F2E41"/>
<path d="M465.384 216.897C461.775 216.609 458.196 216.021 454.685 215.139L454.881 211.411L456.518 181.769L456.533 181.542H489.464L494.632 208.835L495.328 212.518C493.965 213.048 492.586 213.548 491.177 213.988C491.161 213.988 491.161 214.003 491.146 214.003C489.191 214.609 487.206 215.139 485.205 215.579C482.545 216.153 479.853 216.568 477.143 216.822C475.048 217.029 472.945 217.131 470.839 217.125C469.021 217.125 467.187 217.049 465.384 216.897Z" fill="#FF2015"/>
<path d="M444.213 211.624C442.849 211.033 441.53 210.397 440.227 209.73L439.666 209.442C439.287 209.245 438.894 209.033 438.515 208.82C437.999 208.533 437.499 208.245 437.014 207.957C436.544 207.684 436.06 207.396 435.59 207.108C435.559 207.093 435.545 207.078 435.514 207.078C433.877 206.032 432.271 204.956 430.725 203.789C430.468 203.592 430.21 203.395 429.952 203.198L429.68 198.834L430.073 198.591L456.518 181.77L456.881 181.542L456.912 181.527L460.64 181.542V195.424C462.746 198.47 464.171 204.85 465.05 213.2C465.171 214.397 465.277 215.625 465.384 216.898C461.775 216.609 458.196 216.021 454.685 215.14C454.306 215.064 453.942 214.973 453.563 214.867C451.354 214.289 449.179 213.591 447.047 212.776C446.395 212.533 445.758 212.276 445.122 212.018L445.061 211.988C444.788 211.867 444.486 211.745 444.213 211.624Z" fill="#2F2E41"/>
<path d="M438.515 208.82C438 208.532 437.499 208.244 437.015 207.956C436.545 207.684 436.06 207.396 435.59 207.108C435.56 207.093 435.545 207.077 435.515 207.077C433.878 206.032 432.272 204.956 430.726 203.789C430.468 203.592 430.211 203.395 429.953 203.198C429.832 203.092 429.711 203.001 429.574 202.895C428.604 202.152 427.665 201.379 426.755 200.561C426.71 200.531 426.68 200.485 426.634 200.455C427.552 199.749 428.582 199.201 429.68 198.833L430.756 199.152L438.424 201.455L438.47 204.562L438.515 208.82Z" fill="#2F2E41"/>
<path d="M503.088 208.866C502.633 209.108 502.178 209.351 501.724 209.578C501.618 209.639 501.527 209.684 501.436 209.73C500.829 210.033 500.239 210.336 499.633 210.624C499.617 210.639 499.587 210.639 499.587 210.654C499.557 210.669 499.512 210.684 499.481 210.7C498.118 211.351 496.738 211.957 495.329 212.518C493.965 213.049 492.586 213.549 491.177 213.988C491.161 213.988 491.161 214.003 491.146 214.003C489.191 214.609 487.206 215.14 485.205 215.579C485.183 214.334 485.346 213.093 485.691 211.897L485.705 211.685L487.009 190.59L485.266 181.542L490.267 180.8L517.772 195.606C517.772 195.606 514.741 198.637 502.3 205.092C501.2 205.663 502.815 207.563 503.088 208.866Z" fill="#2F2E41"/>
<path d="M476.81 213.185C474.84 213.367 472.84 213.458 470.84 213.458C468.899 213.458 466.975 213.382 465.05 213.2C465.171 214.397 465.277 215.625 465.384 216.898C467.187 217.049 469.021 217.125 470.84 217.125C472.945 217.131 475.049 217.03 477.143 216.822C479.853 216.568 482.545 216.153 485.205 215.579C485.183 214.334 485.346 213.093 485.691 211.897L485.705 211.684C482.78 212.397 479.807 212.898 476.81 213.185ZM534.078 128.138C530.876 118.939 525.705 110.549 518.928 103.554C512.15 96.5587 503.928 91.1259 494.835 87.6346C485.741 84.1433 475.996 82.6775 466.278 83.3394C456.56 84.0013 447.104 86.775 438.568 91.4671C430.032 96.1591 422.623 102.657 416.856 110.507C411.089 118.356 407.104 127.37 405.179 136.918C403.254 146.466 403.434 156.319 405.708 165.791C407.982 175.262 412.294 184.123 418.344 191.756C418.95 192.514 419.572 193.272 420.208 193.999C420.269 194.06 420.299 194.105 420.344 194.151C421.909 195.955 423.574 197.67 425.33 199.288C425.755 199.682 426.194 200.076 426.633 200.455C426.679 200.485 426.71 200.531 426.755 200.561C427.664 201.379 428.604 202.152 429.573 202.895C429.71 203.001 429.832 203.092 429.952 203.198C430.21 203.395 430.468 203.592 430.725 203.789C432.271 204.956 433.878 206.032 435.514 207.078C435.545 207.078 435.56 207.093 435.59 207.108C436.06 207.396 436.544 207.684 437.014 207.956C437.5 208.244 438 208.532 438.515 208.82C438.894 209.032 439.287 209.245 439.666 209.442L440.227 209.73C441.53 210.396 442.849 211.033 444.213 211.624C444.486 211.745 444.788 211.866 445.061 211.988L445.122 212.018C445.758 212.275 446.395 212.533 447.047 212.776C449.179 213.591 451.354 214.289 453.563 214.867C453.942 214.973 454.306 215.064 454.685 215.14C458.196 216.021 461.775 216.609 465.384 216.898C467.187 217.049 469.021 217.125 470.839 217.125C472.944 217.131 475.048 217.03 477.143 216.822C479.853 216.568 482.545 216.153 485.205 215.579C487.206 215.14 489.191 214.609 491.146 214.003C491.161 214.003 491.161 213.988 491.177 213.988C492.586 213.549 493.965 213.048 495.329 212.518C496.738 211.957 498.117 211.351 499.481 210.7C499.512 210.684 499.557 210.669 499.587 210.654C499.587 210.639 499.617 210.639 499.633 210.624C500.239 210.336 500.829 210.033 501.436 209.73C501.527 209.684 501.617 209.639 501.724 209.578C502.178 209.351 502.633 209.108 503.088 208.866C503.118 208.851 503.133 208.835 503.163 208.82C504.36 208.154 505.543 207.456 506.71 206.714C507.028 206.517 507.346 206.32 507.664 206.093C508.134 205.805 508.589 205.486 509.028 205.168C509.619 204.759 510.21 204.335 510.786 203.895C510.978 203.772 511.16 203.635 511.332 203.486C512.741 202.425 514.105 201.304 515.408 200.122C525.291 191.315 532.34 179.776 535.664 166.962C538.987 154.149 538.435 140.638 534.078 128.138L534.078 128.138ZM514.272 196.212C512.631 197.755 510.911 199.212 509.119 200.576C508.726 200.879 508.316 201.182 507.907 201.455C507.513 201.758 507.119 202.046 506.71 202.319C506.361 202.562 506.013 202.804 505.649 203.031C505.619 203.062 505.573 203.077 505.543 203.107C505.285 203.289 505.013 203.456 504.755 203.622C503.951 204.122 503.118 204.623 502.3 205.092C502.103 205.198 501.921 205.32 501.724 205.426C501.618 205.486 501.512 205.547 501.39 205.608C500.936 205.865 500.481 206.093 500.027 206.335C499.966 206.38 499.89 206.396 499.83 206.441C499.807 206.445 499.786 206.455 499.769 206.471C499.451 206.638 499.133 206.79 498.815 206.941C498.542 207.078 498.284 207.214 498.011 207.335C496.905 207.866 495.768 208.366 494.632 208.835C493.434 209.32 492.222 209.76 490.995 210.169C490.691 210.275 490.373 210.396 490.055 210.487C488.615 210.942 487.176 211.351 485.705 211.684C482.78 212.396 479.807 212.898 476.81 213.185C474.84 213.367 472.84 213.458 470.84 213.458C468.899 213.458 466.975 213.382 465.05 213.2C461.617 212.886 458.216 212.288 454.882 211.412C454.76 211.381 454.624 211.351 454.503 211.321C451.768 210.608 449.088 209.696 446.486 208.593C446.35 208.532 446.198 208.487 446.077 208.426C445.925 208.366 445.789 208.32 445.668 208.259C445.516 208.199 445.38 208.138 445.244 208.078C444.107 207.578 443.001 207.032 441.894 206.471L441.379 206.199C440.394 205.683 439.424 205.153 438.469 204.562C438.136 204.38 437.788 204.168 437.454 203.956C437.075 203.728 436.696 203.486 436.332 203.243C436.242 203.183 436.151 203.122 436.06 203.062C435.211 202.486 434.348 201.91 433.529 201.289C432.954 200.864 432.393 200.455 431.832 200.016C431.468 199.743 431.104 199.455 430.756 199.152C430.529 198.985 430.301 198.788 430.074 198.591C429.771 198.333 429.468 198.076 429.165 197.803C428.695 197.424 428.255 197 427.831 196.606C426.124 195.033 424.51 193.364 422.997 191.605C422.482 191.029 421.996 190.453 421.527 189.847C421.418 189.728 421.316 189.601 421.224 189.468C413.594 179.837 408.933 168.193 407.808 155.958C406.683 143.723 409.144 131.425 414.89 120.564C420.635 109.703 429.418 100.749 440.165 94.795C450.913 88.8406 463.161 86.1429 475.416 87.0311C487.671 87.9193 499.402 92.3549 509.179 99.7969C518.956 107.239 526.355 117.365 530.475 128.941C534.595 140.517 535.256 153.041 532.379 164.986C529.502 176.932 523.21 187.781 514.272 196.212L514.272 196.212Z" fill="#3F3D56"/>
<path d="M163.436 496.698L175.696 496.697L181.528 449.409L163.434 449.41L163.436 496.698Z" fill="#A0616A"/>
<path d="M160.309 492.695L184.453 492.694H184.454C188.534 492.695 192.448 494.316 195.333 497.201C198.219 500.087 199.84 504 199.84 508.081V508.581L160.309 508.582L160.309 492.695Z" fill="#2F2E41"/>
<path d="M209.436 496.698L221.696 496.697L227.528 449.409L209.434 449.41L209.436 496.698Z" fill="#A0616A"/>
<path d="M206.309 492.695L230.453 492.694H230.454C234.534 492.695 238.448 494.316 241.333 497.201C244.219 500.087 245.84 504 245.84 508.081V508.581L206.309 508.582L206.309 492.695Z" fill="#2F2E41"/>
<path d="M126.236 309.84C127.24 308.766 127.995 307.484 128.45 306.086C128.905 304.688 129.047 303.208 128.867 301.749C128.688 300.289 128.191 298.888 127.411 297.641C126.631 296.395 125.587 295.335 124.353 294.536L132.871 259.832L115.379 266.065L109.972 298.065C108.767 300.227 108.396 302.756 108.931 305.173C109.466 307.589 110.869 309.726 112.874 311.177C114.879 312.628 117.346 313.294 119.809 313.048C122.272 312.801 124.559 311.66 126.236 309.84V309.84Z" fill="#9E616A"/>
<path d="M256.378 306.84C255.375 305.766 254.619 304.484 254.164 303.086C253.71 301.688 253.567 300.208 253.747 298.749C253.926 297.289 254.424 295.888 255.204 294.641C255.984 293.395 257.027 292.335 258.261 291.536L249.743 256.832L267.236 263.065L272.643 295.065C273.848 297.227 274.218 299.756 273.683 302.173C273.148 304.589 271.745 306.726 269.741 308.177C267.736 309.628 265.268 310.294 262.805 310.048C260.342 309.801 258.056 308.66 256.378 306.84V306.84Z" fill="#9E616A"/>
<path d="M142.367 285.513L159.36 484.578L184.224 482.311L194.175 328.461L203.033 389.379L204.807 486.145L227.307 484.645L239.801 380.545L236.736 279.728L151.319 271.078L142.367 285.513Z" fill="#2F2E41"/>
<path d="M189.112 104.368C203.353 104.368 214.898 92.8237 214.898 78.5826C214.898 64.3415 203.353 52.7969 189.112 52.7969C174.871 52.7969 163.326 64.3415 163.326 78.5826C163.326 92.8237 174.871 104.368 189.112 104.368Z" fill="#A0616A"/>
<path d="M180.946 57.9538C180.946 57.9538 192.98 61.177 199.211 62.4663C205.443 63.7556 204.798 60.1026 204.798 60.1026C204.798 60.1026 212.964 61.177 212.534 60.3174C212.104 59.4579 215.972 54.9454 211.46 49.7883C206.947 44.6311 208.236 40.7633 208.236 40.7633H204.369L203.294 39.2591H197.277C197.277 39.2591 190.625 33.4261 178.807 35.1451C166.988 36.8641 153.012 41.4079 151.723 48.499C151.548 49.4608 151.317 50.5294 151.05 51.658C147.818 65.3016 154.685 78.0673 161.807 90.1451C163.557 93.1133 172.023 99.5858 171.807 95.1451C171.59 90.7043 164.186 80.7312 169.343 80.0865C174.5 79.4419 183.31 66.3341 180.946 57.9538Z" fill="#2F2E41"/>
<path d="M162.28 113.176H207.692L239.801 282.751C239.801 282.751 211.807 285.145 195.807 291.145C179.807 297.145 153.209 277.439 153.209 277.439L162.28 113.176Z" fill="#FF2015"/>
<path d="M167.949 132.326V113.176L162.807 113.145L125.24 137.03L133.392 267.893C133.392 267.893 143.04 311.551 157.673 311.098C172.307 310.645 183.591 155.007 167.949 132.326Z" fill="#2F2E41"/>
<path d="M137.307 140.645L125.24 137.03C125.24 137.03 116.307 139.645 116.307 148.645C116.307 157.645 108.61 285.513 108.61 285.513L133.061 287.674L138.307 222.645L137.307 140.645Z" fill="#2F2E41"/>
<path d="M204.307 125.645L201.902 113.176L208.807 112.145L233.807 122.145C233.807 122.145 256.307 286.645 246.307 291.645C236.307 296.645 229.555 292.771 229.555 292.771C229.555 292.771 196.664 171.445 202.486 155.045L204.307 125.645Z" fill="#2F2E41"/>
<path d="M216.307 124.645L220.573 122.788C220.573 122.788 233.096 116.582 240.201 129.114C247.307 141.645 272.307 281.645 272.307 281.645L251.736 285.513L236.358 235.129L216.307 124.645Z" fill="#2F2E41"/>
<path d="M382 509.145H1C0.734784 509.145 0.480429 509.04 0.292892 508.852C0.105356 508.665 0 508.41 0 508.145C0 507.88 0.105356 507.625 0.292892 507.438C0.480429 507.25 0.734784 507.145 1 507.145H382C382.265 507.145 382.52 507.25 382.707 507.438C382.895 507.625 383 507.88 383 508.145C383 508.41 382.895 508.665 382.707 508.852C382.52 509.04 382.265 509.145 382 509.145Z" fill="#CACACA"/>
</svg>
