<svg width="277" height="213" viewBox="0 0 277 213" fill="none" xmlns="http://www.w3.org/2000/svg">
<path d="M13.4304 1.45455V16H10.7741L4.44602 6.84517H4.33949V16H1.2642V1.45455H3.96307L10.2415 10.6023H10.3693V1.45455H13.4304ZM20.886 16.2131C19.7638 16.2131 18.7979 15.9858 17.9883 15.5312C17.1834 15.072 16.5631 14.4233 16.1275 13.5852C15.6919 12.7424 15.4741 11.7457 15.4741 10.5952C15.4741 9.47301 15.6919 8.48816 16.1275 7.64062C16.5631 6.79309 17.1763 6.13258 17.967 5.65909C18.7624 5.18561 19.6952 4.94886 20.7653 4.94886C21.485 4.94886 22.1549 5.06487 22.7752 5.29688C23.4002 5.52415 23.9447 5.86742 24.4087 6.3267C24.8775 6.78598 25.2421 7.36364 25.5025 8.05966C25.7629 8.75095 25.8931 9.56061 25.8931 10.4886V11.3196H16.6815V9.4446H23.0451C23.0451 9.009 22.9504 8.62311 22.761 8.28693C22.5716 7.95076 22.3088 7.68797 21.9727 7.49858C21.6412 7.30445 21.2553 7.20739 20.815 7.20739C20.3557 7.20739 19.9485 7.31392 19.5934 7.52699C19.243 7.73532 18.9684 8.01705 18.7695 8.37216C18.5707 8.72254 18.4689 9.11316 18.4641 9.54403V11.3267C18.4641 11.8665 18.5636 12.3329 18.7624 12.7259C18.966 13.1188 19.2525 13.4219 19.6218 13.6349C19.9911 13.848 20.4291 13.9545 20.9357 13.9545C21.2719 13.9545 21.5797 13.9072 21.859 13.8125C22.1384 13.7178 22.3775 13.5758 22.5763 13.3864C22.7752 13.197 22.9267 12.965 23.0309 12.6903L25.8292 12.875C25.6871 13.5473 25.396 14.1345 24.9556 14.6364C24.52 15.1335 23.9566 15.5218 23.2653 15.8011C22.5787 16.0758 21.7856 16.2131 20.886 16.2131ZM19.6076 3.68466L21.1133 0.453125H23.9116L21.7454 3.68466H19.6076ZM28.5352 10.169C28.5352 8.40767 28.7695 6.78598 29.2383 5.30398C29.7118 3.82197 30.4338 2.44886 31.4045 1.18466H34.2951C33.9258 1.65341 33.5825 2.22633 33.2653 2.90341C32.948 3.57576 32.671 4.31439 32.4343 5.11932C32.1976 5.92424 32.0129 6.75758 31.8803 7.61932C31.7478 8.47633 31.6815 9.32623 31.6815 10.169C31.6815 11.2912 31.7951 12.4252 32.0224 13.571C32.2544 14.7121 32.5669 15.7727 32.9599 16.7528C33.3576 17.733 33.8027 18.5355 34.2951 19.1605H31.4045C30.4338 17.8963 29.7118 16.5232 29.2383 15.0412C28.7695 13.5592 28.5352 11.9351 28.5352 10.169ZM40.9251 16.2131C39.8029 16.2131 38.837 15.9858 38.0273 15.5312C37.2224 15.072 36.6022 14.4233 36.1665 13.5852C35.7309 12.7424 35.5131 11.7457 35.5131 10.5952C35.5131 9.47301 35.7309 8.48816 36.1665 7.64062C36.6022 6.79309 37.2153 6.13258 38.006 5.65909C38.8015 5.18561 39.7343 4.94886 40.8043 4.94886C41.524 4.94886 42.194 5.06487 42.8143 5.29688C43.4393 5.52415 43.9838 5.86742 44.4478 6.3267C44.9165 6.78598 45.2811 7.36364 45.5415 8.05966C45.802 8.75095 45.9322 9.56061 45.9322 10.4886V11.3196H36.7205V9.4446H43.0842C43.0842 9.009 42.9895 8.62311 42.8001 8.28693C42.6107 7.95076 42.3479 7.68797 42.0117 7.49858C41.6803 7.30445 41.2944 7.20739 40.854 7.20739C40.3948 7.20739 39.9876 7.31392 39.6325 7.52699C39.2821 7.73532 39.0075 8.01705 38.8086 8.37216C38.6097 8.72254 38.5079 9.11316 38.5032 9.54403V11.3267C38.5032 11.8665 38.6026 12.3329 38.8015 12.7259C39.0051 13.1188 39.2915 13.4219 39.6609 13.6349C40.0302 13.848 40.4682 13.9545 40.9748 13.9545C41.311 13.9545 41.6187 13.9072 41.8981 13.8125C42.1774 13.7178 42.4165 13.5758 42.6154 13.3864C42.8143 13.197 42.9658 12.965 43.07 12.6903L45.8683 12.875C45.7262 13.5473 45.435 14.1345 44.9947 14.6364C44.5591 15.1335 43.9956 15.5218 43.3043 15.8011C42.6178 16.0758 41.8247 16.2131 40.9251 16.2131ZM53.006 10.169C53.006 11.9351 52.7693 13.5592 52.2958 15.0412C51.8271 16.5232 51.1074 17.8963 50.1367 19.1605H47.2461C47.6154 18.6918 47.9587 18.1188 48.2759 17.4418C48.5932 16.7647 48.8701 16.026 49.1069 15.2259C49.3436 14.4209 49.5283 13.5876 49.6609 12.7259C49.7934 11.8641 49.8597 11.0118 49.8597 10.169C49.8597 9.04687 49.7437 7.91525 49.5117 6.77415C49.2844 5.62831 48.9719 4.56771 48.5742 3.59233C48.1812 2.61222 47.7385 1.80966 47.2461 1.18466H50.1367C51.1074 2.44886 51.8271 3.82197 52.2958 5.30398C52.7693 6.78598 53.006 8.40767 53.006 10.169ZM63.7447 1.45455V16H60.7191V1.45455H63.7447ZM71.1399 16.2131C70.0178 16.2131 69.0518 15.9858 68.2422 15.5312C67.4373 15.072 66.817 14.4233 66.3814 13.5852C65.9458 12.7424 65.728 11.7457 65.728 10.5952C65.728 9.47301 65.9458 8.48816 66.3814 7.64062C66.817 6.79309 67.4302 6.13258 68.2209 5.65909C69.0163 5.18561 69.9491 4.94886 71.0192 4.94886C71.7389 4.94886 72.4089 5.06487 73.0291 5.29688C73.6541 5.52415 74.1986 5.86742 74.6626 6.3267C75.1314 6.78598 75.496 7.36364 75.7564 8.05966C76.0168 8.75095 76.147 9.56061 76.147 10.4886V11.3196H66.9354V9.4446H73.299C73.299 9.009 73.2043 8.62311 73.0149 8.28693C72.8255 7.95076 72.5627 7.68797 72.2266 7.49858C71.8951 7.30445 71.5092 7.20739 71.0689 7.20739C70.6096 7.20739 70.2024 7.31392 69.8473 7.52699C69.4969 7.73532 69.2223 8.01705 69.0234 8.37216C68.8246 8.72254 68.7228 9.11316 68.718 9.54403V11.3267C68.718 11.8665 68.8175 12.3329 69.0163 12.7259C69.2199 13.1188 69.5064 13.4219 69.8757 13.6349C70.245 13.848 70.683 13.9545 71.1896 13.9545C71.5258 13.9545 71.8336 13.9072 72.1129 13.8125C72.3923 13.7178 72.6314 13.5758 72.8303 13.3864C73.0291 13.197 73.1806 12.965 73.2848 12.6903L76.0831 12.875C75.9411 13.5473 75.6499 14.1345 75.2095 14.6364C74.7739 15.1335 74.2105 15.5218 73.5192 15.8011C72.8326 16.0758 72.0395 16.2131 71.1399 16.2131ZM79.8899 16.1847C79.4212 16.1847 79.0187 16.0189 78.6825 15.6875C78.3511 15.3513 78.1854 14.9489 78.1854 14.4801C78.1854 14.0161 78.3511 13.6184 78.6825 13.2869C79.0187 12.9555 79.4212 12.7898 79.8899 12.7898C80.3445 12.7898 80.7422 12.9555 81.0831 13.2869C81.424 13.6184 81.5945 14.0161 81.5945 14.4801C81.5945 14.7926 81.514 15.0791 81.353 15.3395C81.1967 15.5952 80.9908 15.8011 80.7351 15.9574C80.4794 16.1089 80.1977 16.1847 79.8899 16.1847ZM79.8899 8.54261C79.4212 8.54261 79.0187 8.37689 78.6825 8.04545C78.3511 7.71401 78.1854 7.31155 78.1854 6.83807C78.1854 6.37405 78.3511 5.97869 78.6825 5.65199C79.0187 5.32055 79.4212 5.15483 79.8899 5.15483C80.3445 5.15483 80.7422 5.32055 81.0831 5.65199C81.424 5.97869 81.5945 6.37405 81.5945 6.83807C81.5945 7.1553 81.514 7.44413 81.353 7.70455C81.1967 7.96023 80.9908 8.16383 80.7351 8.31534C80.4794 8.46686 80.1977 8.54261 79.8899 8.54261ZM88.679 16V13.7841L93.8565 8.99006C94.2969 8.56392 94.6662 8.1804 94.9645 7.83949C95.2675 7.49858 95.4972 7.16477 95.6534 6.83807C95.8097 6.50663 95.8878 6.14915 95.8878 5.76562C95.8878 5.33949 95.7907 4.97254 95.5966 4.66477C95.4025 4.35227 95.1373 4.11316 94.8011 3.94744C94.465 3.77699 94.0838 3.69176 93.6577 3.69176C93.2126 3.69176 92.8243 3.78172 92.4929 3.96165C92.1615 4.14157 91.9058 4.39962 91.7259 4.7358C91.5459 5.07197 91.456 5.47206 91.456 5.93608H88.5369C88.5369 4.98437 88.7524 4.15814 89.1832 3.45739C89.6141 2.75663 90.2178 2.21449 90.9943 1.83097C91.7708 1.44744 92.6657 1.25568 93.679 1.25568C94.7206 1.25568 95.6274 1.44034 96.3991 1.80966C97.1757 2.17424 97.7794 2.68087 98.2102 3.32955C98.6411 3.97822 98.8565 4.72159 98.8565 5.55966C98.8565 6.1089 98.7476 6.65104 98.5298 7.18608C98.3168 7.72112 97.9356 8.31534 97.3864 8.96875C96.8371 9.61742 96.063 10.3963 95.0639 11.3054L92.9403 13.3864V13.4858H99.0483V16H88.679ZM106.98 16.3196C105.758 16.3149 104.707 16.0142 103.826 15.4176C102.95 14.821 102.276 13.9569 101.802 12.8253C101.333 11.6937 101.101 10.3324 101.106 8.74148C101.106 7.1553 101.341 5.8035 101.809 4.68608C102.283 3.56865 102.958 2.71875 103.833 2.13636C104.714 1.54924 105.763 1.25568 106.98 1.25568C108.197 1.25568 109.243 1.54924 110.119 2.13636C111 2.72348 111.677 3.57576 112.15 4.69318C112.624 5.80587 112.858 7.1553 112.853 8.74148C112.853 10.3371 112.617 11.7008 112.143 12.8324C111.674 13.964 111.002 14.8281 110.126 15.4247C109.25 16.0213 108.201 16.3196 106.98 16.3196ZM106.98 13.7699C107.813 13.7699 108.478 13.3509 108.975 12.5128C109.473 11.6747 109.719 10.4176 109.714 8.74148C109.714 7.63826 109.6 6.7197 109.373 5.9858C109.151 5.25189 108.833 4.70028 108.422 4.33097C108.014 3.96165 107.534 3.77699 106.98 3.77699C106.151 3.77699 105.488 4.19129 104.991 5.01989C104.494 5.84848 104.243 7.08901 104.238 8.74148C104.238 9.8589 104.35 10.7917 104.572 11.5398C104.799 12.2831 105.119 12.8419 105.531 13.2159C105.943 13.5852 106.426 13.7699 106.98 13.7699ZM121.374 1.45455V16H118.299V4.37358H118.214L114.883 6.46165V3.73438L118.484 1.45455H121.374ZM130.414 16.1989C129.666 16.1941 128.944 16.0687 128.248 15.8224C127.556 15.5762 126.936 15.1761 126.387 14.6222C125.837 14.0682 125.402 13.3343 125.08 12.4205C124.763 11.5066 124.604 10.3845 124.604 9.05398C124.609 7.83239 124.748 6.741 125.023 5.77983C125.302 4.81392 125.7 3.99479 126.216 3.32244C126.737 2.65009 127.36 2.13873 128.084 1.78835C128.809 1.43324 129.621 1.25568 130.52 1.25568C131.491 1.25568 132.348 1.44508 133.091 1.82386C133.835 2.19792 134.431 2.70691 134.881 3.35085C135.336 3.99479 135.61 4.71686 135.705 5.51705H132.672C132.554 5.01042 132.305 4.61269 131.926 4.32386C131.548 4.03504 131.079 3.89062 130.52 3.89062C129.573 3.89062 128.854 4.30256 128.361 5.12642C127.873 5.95028 127.625 7.07008 127.615 8.4858H127.715C127.933 8.05492 128.226 7.68797 128.596 7.38494C128.97 7.07718 129.393 6.8428 129.867 6.68182C130.345 6.5161 130.849 6.43324 131.38 6.43324C132.241 6.43324 133.008 6.63684 133.681 7.04403C134.353 7.4465 134.883 8.00047 135.272 8.70597C135.66 9.41146 135.854 10.2187 135.854 11.1278C135.854 12.1127 135.624 12.9886 135.165 13.7557C134.711 14.5227 134.074 15.1241 133.255 15.5597C132.44 15.9905 131.493 16.2036 130.414 16.1989ZM130.4 13.7841C130.873 13.7841 131.297 13.6705 131.671 13.4432C132.045 13.2159 132.338 12.9081 132.551 12.5199C132.765 12.1316 132.871 11.696 132.871 11.2131C132.871 10.7301 132.765 10.2969 132.551 9.91335C132.343 9.52983 132.054 9.22443 131.685 8.99716C131.316 8.76989 130.894 8.65625 130.421 8.65625C130.066 8.65625 129.737 8.72254 129.434 8.85511C129.135 8.98769 128.873 9.17235 128.645 9.40909C128.423 9.64583 128.248 9.92045 128.12 10.233C127.992 10.5407 127.928 10.8698 127.928 11.2202C127.928 11.6889 128.034 12.1174 128.248 12.5057C128.465 12.8939 128.759 13.2041 129.128 13.4361C129.502 13.6681 129.926 13.7841 130.4 13.7841ZM144.86 7.52699V9.92756H138.226V7.52699H144.86ZM153.738 1.45455V16H150.662V4.37358H150.577L147.246 6.46165V3.73438L150.847 1.45455H153.738ZM163.523 1.45455V16H160.447V4.37358H160.362L157.031 6.46165V3.73438L160.632 1.45455H163.523ZM173.805 7.52699V9.92756H167.172V7.52699H173.805ZM182.058 16.3196C180.836 16.3149 179.785 16.0142 178.904 15.4176C178.029 14.821 177.354 13.9569 176.88 12.8253C176.412 11.6937 176.18 10.3324 176.184 8.74148C176.184 7.1553 176.419 5.8035 176.887 4.68608C177.361 3.56865 178.036 2.71875 178.912 2.13636C179.792 1.54924 180.841 1.25568 182.058 1.25568C183.275 1.25568 184.321 1.54924 185.197 2.13636C186.078 2.72348 186.755 3.57576 187.228 4.69318C187.702 5.80587 187.936 7.1553 187.931 8.74148C187.931 10.3371 187.695 11.7008 187.221 12.8324C186.752 13.964 186.08 14.8281 185.204 15.4247C184.328 16.0213 183.279 16.3196 182.058 16.3196ZM182.058 13.7699C182.891 13.7699 183.556 13.3509 184.054 12.5128C184.551 11.6747 184.797 10.4176 184.792 8.74148C184.792 7.63826 184.679 6.7197 184.451 5.9858C184.229 5.25189 183.912 4.70028 183.5 4.33097C183.092 3.96165 182.612 3.77699 182.058 3.77699C181.229 3.77699 180.566 4.19129 180.069 5.01989C179.572 5.84848 179.321 7.08901 179.316 8.74148C179.316 9.8589 179.428 10.7917 179.65 11.5398C179.877 12.2831 180.197 12.8419 180.609 13.2159C181.021 13.5852 181.504 13.7699 182.058 13.7699ZM195.387 1.25568C196.135 1.25568 196.855 1.38115 197.546 1.6321C198.242 1.88305 198.862 2.28314 199.407 2.83239C199.956 3.38163 200.389 4.1108 200.707 5.01989C201.029 5.92424 201.192 7.03456 201.197 8.35085C201.197 9.58665 201.057 10.6899 200.778 11.6605C200.503 12.6264 200.108 13.4479 199.592 14.125C199.076 14.8021 198.453 15.3182 197.724 15.6733C196.995 16.0237 196.18 16.1989 195.281 16.1989C194.31 16.1989 193.453 16.0118 192.71 15.6378C191.966 15.259 191.367 14.7453 190.913 14.0966C190.463 13.4432 190.191 12.7093 190.096 11.8949H193.129C193.247 12.4252 193.496 12.8371 193.874 13.1307C194.253 13.4195 194.722 13.5639 195.281 13.5639C196.228 13.5639 196.947 13.152 197.44 12.3281C197.932 11.4995 198.181 10.3655 198.185 8.92614H198.086C197.868 9.35227 197.575 9.71922 197.205 10.027C196.836 10.33 196.412 10.5644 195.934 10.7301C195.46 10.8958 194.956 10.9787 194.421 10.9787C193.564 10.9787 192.799 10.7775 192.127 10.375C191.455 9.97254 190.924 9.41856 190.536 8.71307C190.148 8.00758 189.954 7.20265 189.954 6.2983C189.949 5.32292 190.174 4.45407 190.629 3.69176C191.083 2.92945 191.718 2.33286 192.532 1.90199C193.351 1.46638 194.303 1.25095 195.387 1.25568ZM195.408 3.67045C194.93 3.67045 194.504 3.78409 194.13 4.01136C193.761 4.23864 193.467 4.54403 193.249 4.92756C193.036 5.31108 192.932 5.73958 192.937 6.21307C192.937 6.69129 193.041 7.12216 193.249 7.50568C193.462 7.88447 193.751 8.1875 194.116 8.41477C194.485 8.63731 194.906 8.74858 195.38 8.74858C195.735 8.74858 196.064 8.68229 196.367 8.54972C196.67 8.41714 196.933 8.23485 197.156 8.00284C197.383 7.7661 197.56 7.49384 197.688 7.18608C197.816 6.87831 197.88 6.55161 197.88 6.20597C197.875 5.74669 197.766 5.32528 197.553 4.94176C197.34 4.55824 197.047 4.25047 196.673 4.01847C196.299 3.78646 195.877 3.67045 195.408 3.67045ZM3.77131 64H0.475852L5.49716 49.4545H9.46023L14.4744 64H11.179L7.53551 52.7784H7.42188L3.77131 64ZM3.56534 58.2827H11.3494V60.6832H3.56534V58.2827ZM19.1939 49.4545V64H16.1683V49.4545H19.1939ZM24.6431 49.4545V64H21.6175V49.4545H24.6431ZM32.0384 64.2131C30.9162 64.2131 29.9503 63.9858 29.1406 63.5312C28.3357 63.072 27.7154 62.4233 27.2798 61.5852C26.8442 60.7424 26.6264 59.7457 26.6264 58.5952C26.6264 57.473 26.8442 56.4882 27.2798 55.6406C27.7154 54.7931 28.3286 54.1326 29.1193 53.6591C29.9148 53.1856 30.8475 52.9489 31.9176 52.9489C32.6373 52.9489 33.3073 53.0649 33.9276 53.2969C34.5526 53.5241 35.0971 53.8674 35.5611 54.3267C36.0298 54.786 36.3944 55.3636 36.6548 56.0597C36.9152 56.7509 37.0455 57.5606 37.0455 58.4886V59.3196H27.8338V57.4446H34.1974C34.1974 57.009 34.1027 56.6231 33.9134 56.2869C33.724 55.9508 33.4612 55.688 33.125 55.4986C32.7936 55.3045 32.4077 55.2074 31.9673 55.2074C31.508 55.2074 31.1009 55.3139 30.7457 55.527C30.3954 55.7353 30.1207 56.017 29.9219 56.3722C29.723 56.7225 29.6212 57.1132 29.6165 57.544V59.3267C29.6165 59.8665 29.7159 60.3329 29.9148 60.7259C30.1184 61.1188 30.4048 61.4219 30.7741 61.6349C31.1435 61.848 31.5814 61.9545 32.0881 61.9545C32.4242 61.9545 32.732 61.9072 33.0114 61.8125C33.2907 61.7178 33.5298 61.5758 33.7287 61.3864C33.9276 61.197 34.0791 60.965 34.1832 60.6903L36.9815 60.875C36.8395 61.5473 36.5483 62.1345 36.108 62.6364C35.6723 63.1335 35.1089 63.5218 34.4176 63.8011C33.7311 64.0758 32.938 64.2131 32.0384 64.2131ZM39.0199 64V53.0909H41.9531V54.9943H42.0668C42.2656 54.3172 42.5994 53.8059 43.0682 53.4602C43.5369 53.1098 44.0767 52.9347 44.6875 52.9347C44.839 52.9347 45.0024 52.9441 45.1776 52.9631C45.3527 52.982 45.5066 53.008 45.6392 53.0412V55.7259C45.4972 55.6832 45.3007 55.6454 45.0497 55.6122C44.7988 55.5791 44.5691 55.5625 44.3608 55.5625C43.9157 55.5625 43.518 55.6596 43.1676 55.8537C42.822 56.0431 42.5473 56.3082 42.3438 56.6491C42.1449 56.9901 42.0455 57.383 42.0455 57.8281V64H39.0199ZM51.6104 68.3182C50.6303 68.3182 49.7899 68.1832 49.0891 67.9134C48.3931 67.6482 47.8391 67.286 47.4272 66.8267C47.0153 66.3674 46.7478 65.8513 46.6246 65.2784L49.4229 64.902C49.5082 65.1198 49.6431 65.3234 49.8278 65.5128C50.0124 65.7022 50.2563 65.8537 50.5593 65.9673C50.8671 66.0857 51.2411 66.1449 51.6815 66.1449C52.3396 66.1449 52.8817 65.9839 53.3079 65.6619C53.7388 65.3447 53.9542 64.812 53.9542 64.0639V62.0682H53.8263C53.6938 62.3712 53.4949 62.6577 53.2298 62.9276C52.9646 63.1974 52.6237 63.4176 52.207 63.5881C51.7904 63.7585 51.2932 63.8438 50.7156 63.8438C49.8964 63.8438 49.1507 63.6544 48.4783 63.2756C47.8107 62.892 47.2781 62.3073 46.8803 61.5213C46.4873 60.7306 46.2908 59.7315 46.2908 58.5241C46.2908 57.2884 46.4921 56.2562 46.8945 55.4276C47.297 54.599 47.832 53.9787 48.4996 53.5668C49.172 53.1548 49.9083 52.9489 50.7085 52.9489C51.3192 52.9489 51.8306 53.053 52.2425 53.2614C52.6545 53.465 52.9859 53.7206 53.2369 54.0284C53.4925 54.3314 53.689 54.6297 53.8263 54.9233H53.94V53.0909H56.9442V64.1065C56.9442 65.0346 56.717 65.8111 56.2624 66.4361C55.8079 67.0611 55.1781 67.5298 54.3732 67.8423C53.573 68.1596 52.6521 68.3182 51.6104 68.3182ZM51.6744 61.571C52.1621 61.571 52.574 61.4503 52.9102 61.2088C53.2511 60.9626 53.5115 60.6122 53.6914 60.1577C53.8761 59.6984 53.9684 59.1491 53.9684 58.5099C53.9684 57.8707 53.8784 57.3168 53.6985 56.848C53.5186 56.3745 53.2582 56.0076 52.9173 55.7472C52.5763 55.4867 52.1621 55.3565 51.6744 55.3565C51.1772 55.3565 50.7582 55.4915 50.4173 55.7614C50.0763 56.0265 49.8183 56.3958 49.6431 56.8693C49.4679 57.3428 49.3803 57.8897 49.3803 58.5099C49.3803 59.1397 49.4679 59.6842 49.6431 60.1435C49.823 60.598 50.0811 60.9508 50.4173 61.2017C50.7582 61.4479 51.1772 61.571 51.6744 61.571ZM59.3519 64V53.0909H62.3775V64H59.3519ZM60.8718 51.6847C60.422 51.6847 60.0361 51.5355 59.7141 51.2372C59.3969 50.9342 59.2383 50.572 59.2383 50.1506C59.2383 49.7339 59.3969 49.3764 59.7141 49.0781C60.0361 48.7751 60.422 48.6236 60.8718 48.6236C61.3216 48.6236 61.7051 48.7751 62.0224 49.0781C62.3443 49.3764 62.5053 49.7339 62.5053 50.1506C62.5053 50.572 62.3443 50.9342 62.0224 51.2372C61.7051 51.5355 61.3216 51.6847 60.8718 51.6847ZM69.7727 64.2131C68.6506 64.2131 67.6847 63.9858 66.875 63.5312C66.0701 63.072 65.4498 62.4233 65.0142 61.5852C64.5786 60.7424 64.3608 59.7457 64.3608 58.5952C64.3608 57.473 64.5786 56.4882 65.0142 55.6406C65.4498 54.7931 66.063 54.1326 66.8537 53.6591C67.6491 53.1856 68.5819 52.9489 69.652 52.9489C70.3717 52.9489 71.0417 53.0649 71.6619 53.2969C72.2869 53.5241 72.8314 53.8674 73.2955 54.3267C73.7642 54.786 74.1288 55.3636 74.3892 56.0597C74.6496 56.7509 74.7798 57.5606 74.7798 58.4886V59.3196H65.5682V57.4446H71.9318C71.9318 57.009 71.8371 56.6231 71.6477 56.2869C71.4583 55.9508 71.1955 55.688 70.8594 55.4986C70.5279 55.3045 70.142 55.2074 69.7017 55.2074C69.2424 55.2074 68.8352 55.3139 68.4801 55.527C68.1297 55.7353 67.8551 56.017 67.6562 56.3722C67.4574 56.7225 67.3556 57.1132 67.3509 57.544V59.3267C67.3509 59.8665 67.4503 60.3329 67.6491 60.7259C67.8527 61.1188 68.1392 61.4219 68.5085 61.6349C68.8778 61.848 69.3158 61.9545 69.8224 61.9545C70.1586 61.9545 70.4664 61.9072 70.7457 61.8125C71.0251 61.7178 71.2642 61.5758 71.4631 61.3864C71.6619 61.197 71.8134 60.965 71.9176 60.6903L74.7159 60.875C74.5739 61.5473 74.2827 62.1345 73.8423 62.6364C73.4067 63.1335 72.8433 63.5218 72.152 63.8011C71.4654 64.0758 70.6723 64.2131 69.7727 64.2131ZM77.4219 58.169C77.4219 56.4077 77.6562 54.786 78.125 53.304C78.5985 51.822 79.3205 50.4489 80.2912 49.1847H83.1818C82.8125 49.6534 82.4692 50.2263 82.152 50.9034C81.8348 51.5758 81.5578 52.3144 81.321 53.1193C81.0843 53.9242 80.8996 54.7576 80.767 55.6193C80.6345 56.4763 80.5682 57.3262 80.5682 58.169C80.5682 59.2912 80.6818 60.4252 80.9091 61.571C81.1411 62.7121 81.4536 63.7727 81.8466 64.7528C82.2443 65.733 82.6894 66.5355 83.1818 67.1605H80.2912C79.3205 65.8963 78.5985 64.5232 78.125 63.0412C77.6562 61.5592 77.4219 59.9351 77.4219 58.169ZM94.0146 56.2017L91.2447 56.3722C91.1973 56.1354 91.0955 55.9223 90.9393 55.733C90.783 55.5388 90.5771 55.3849 90.3214 55.2713C90.0704 55.1529 89.7698 55.0938 89.4194 55.0938C88.9506 55.0938 88.5553 55.1932 88.2333 55.392C87.9113 55.5862 87.7504 55.8466 87.7504 56.1733C87.7504 56.4337 87.8545 56.6539 88.0629 56.8338C88.2712 57.0137 88.6287 57.1581 89.1353 57.267L91.1097 57.6648C92.1703 57.8826 92.9611 58.233 93.4819 58.7159C94.0027 59.1989 94.2631 59.8333 94.2631 60.6193C94.2631 61.3343 94.0524 61.9616 93.631 62.5014C93.2144 63.0412 92.6415 63.4626 91.9123 63.7656C91.1879 64.0639 90.3522 64.2131 89.4052 64.2131C87.9611 64.2131 86.8105 63.9124 85.9535 63.3111C85.1012 62.705 84.6017 61.8812 84.4549 60.8395L87.4308 60.6832C87.5207 61.1236 87.7385 61.4598 88.0842 61.6918C88.4298 61.919 88.8725 62.0327 89.4123 62.0327C89.9426 62.0327 90.3687 61.9309 90.6907 61.7273C91.0174 61.5189 91.1831 61.2514 91.1879 60.9247C91.1831 60.6501 91.0671 60.4252 90.8398 60.25C90.6126 60.0701 90.2622 59.9328 89.7887 59.8381L87.8995 59.4616C86.8342 59.2486 86.0411 58.8793 85.5202 58.3537C85.0041 57.8281 84.7461 57.1581 84.7461 56.3438C84.7461 55.643 84.9355 55.0393 85.3143 54.5327C85.6978 54.026 86.2352 53.6354 86.9265 53.3608C87.6225 53.0862 88.4369 52.9489 89.3697 52.9489C90.7475 52.9489 91.8318 53.2401 92.6225 53.8224C93.418 54.4048 93.882 55.1979 94.0146 56.2017ZM101.268 58.169C101.268 59.9351 101.031 61.5592 100.558 63.0412C100.089 64.5232 99.3691 65.8963 98.3984 67.1605H95.5078C95.8771 66.6918 96.2204 66.1188 96.5376 65.4418C96.8549 64.7647 97.1319 64.026 97.3686 63.2259C97.6054 62.4209 97.79 61.5876 97.9226 60.7259C98.0552 59.8641 98.1214 59.0118 98.1214 58.169C98.1214 57.0469 98.0054 55.9152 97.7734 54.7741C97.5462 53.6283 97.2337 52.5677 96.8359 51.5923C96.4429 50.6122 96.0002 49.8097 95.5078 49.1847H98.3984C99.3691 50.4489 100.089 51.822 100.558 53.304C101.031 54.786 101.268 56.4077 101.268 58.169ZM106.12 64.1847C105.652 64.1847 105.249 64.0189 104.913 63.6875C104.582 63.3513 104.416 62.9489 104.416 62.4801C104.416 62.0161 104.582 61.6184 104.913 61.2869C105.249 60.9555 105.652 60.7898 106.12 60.7898C106.575 60.7898 106.973 60.9555 107.314 61.2869C107.654 61.6184 107.825 62.0161 107.825 62.4801C107.825 62.7926 107.744 63.0791 107.583 63.3395C107.427 63.5952 107.221 63.8011 106.966 63.9574C106.71 64.1089 106.428 64.1847 106.12 64.1847ZM106.12 56.5426C105.652 56.5426 105.249 56.3769 104.913 56.0455C104.582 55.714 104.416 55.3116 104.416 54.8381C104.416 54.3741 104.582 53.9787 104.913 53.652C105.249 53.3205 105.652 53.1548 106.12 53.1548C106.575 53.1548 106.973 53.3205 107.314 53.652C107.654 53.9787 107.825 54.3741 107.825 54.8381C107.825 55.1553 107.744 55.4441 107.583 55.7045C107.427 55.9602 107.221 56.1638 106.966 56.3153C106.71 56.4669 106.428 56.5426 106.12 56.5426ZM114.995 64V49.4545H120.733C121.837 49.4545 122.776 49.6652 123.553 50.0866C124.329 50.5033 124.921 51.0833 125.328 51.8267C125.74 52.5653 125.946 53.4176 125.946 54.3835C125.946 55.3494 125.738 56.2017 125.321 56.9403C124.905 57.679 124.301 58.2543 123.51 58.6662C122.724 59.0781 121.773 59.2841 120.655 59.2841H116.998V56.8196H120.158C120.75 56.8196 121.238 56.7178 121.621 56.5142C122.009 56.3059 122.298 56.0194 122.488 55.6548C122.682 55.2855 122.779 54.8617 122.779 54.3835C122.779 53.9006 122.682 53.4792 122.488 53.1193C122.298 52.7547 122.009 52.473 121.621 52.2741C121.233 52.0705 120.74 51.9688 120.144 51.9688H118.07V64H114.995ZM132.64 64.2131C131.537 64.2131 130.583 63.9787 129.778 63.5099C128.978 63.0365 128.36 62.3783 127.924 61.5355C127.489 60.688 127.271 59.7055 127.271 58.5881C127.271 57.4612 127.489 56.4763 127.924 55.6335C128.36 54.786 128.978 54.1278 129.778 53.6591C130.583 53.1856 131.537 52.9489 132.64 52.9489C133.743 52.9489 134.695 53.1856 135.495 53.6591C136.3 54.1278 136.921 54.786 137.356 55.6335C137.792 56.4763 138.01 57.4612 138.01 58.5881C138.01 59.7055 137.792 60.688 137.356 61.5355C136.921 62.3783 136.3 63.0365 135.495 63.5099C134.695 63.9787 133.743 64.2131 132.64 64.2131ZM132.654 61.8693C133.156 61.8693 133.575 61.7273 133.912 61.4432C134.248 61.1544 134.501 60.7614 134.672 60.2642C134.847 59.767 134.934 59.2012 134.934 58.5668C134.934 57.9323 134.847 57.3665 134.672 56.8693C134.501 56.3722 134.248 55.9792 133.912 55.6903C133.575 55.4015 133.156 55.2571 132.654 55.2571C132.148 55.2571 131.722 55.4015 131.376 55.6903C131.035 55.9792 130.777 56.3722 130.602 56.8693C130.431 57.3665 130.346 57.9323 130.346 58.5668C130.346 59.2012 130.431 59.767 130.602 60.2642C130.777 60.7614 131.035 61.1544 131.376 61.4432C131.722 61.7273 132.148 61.8693 132.654 61.8693ZM143.002 49.4545V64H139.977V49.4545H143.002ZM148.452 49.4545V64H145.426V49.4545H148.452ZM155.847 64.2131C154.725 64.2131 153.759 63.9858 152.949 63.5312C152.144 63.072 151.524 62.4233 151.088 61.5852C150.653 60.7424 150.435 59.7457 150.435 58.5952C150.435 57.473 150.653 56.4882 151.088 55.6406C151.524 54.7931 152.137 54.1326 152.928 53.6591C153.723 53.1856 154.656 52.9489 155.726 52.9489C156.446 52.9489 157.116 53.0649 157.736 53.2969C158.361 53.5241 158.906 53.8674 159.37 54.3267C159.838 54.786 160.203 55.3636 160.463 56.0597C160.724 56.7509 160.854 57.5606 160.854 58.4886V59.3196H151.642V57.4446H158.006C158.006 57.009 157.911 56.6231 157.722 56.2869C157.533 55.9508 157.27 55.688 156.934 55.4986C156.602 55.3045 156.216 55.2074 155.776 55.2074C155.317 55.2074 154.909 55.3139 154.554 55.527C154.204 55.7353 153.929 56.017 153.73 56.3722C153.532 56.7225 153.43 57.1132 153.425 57.544V59.3267C153.425 59.8665 153.525 60.3329 153.723 60.7259C153.927 61.1188 154.213 61.4219 154.583 61.6349C154.952 61.848 155.39 61.9545 155.897 61.9545C156.233 61.9545 156.541 61.9072 156.82 61.8125C157.099 61.7178 157.338 61.5758 157.537 61.3864C157.736 61.197 157.888 60.965 157.992 60.6903L160.79 60.875C160.648 61.5473 160.357 62.1345 159.917 62.6364C159.481 63.1335 158.917 63.5218 158.226 63.8011C157.54 64.0758 156.747 64.2131 155.847 64.2131ZM165.854 57.6932V64H162.828V53.0909H165.712V55.0156H165.84C166.081 54.3812 166.486 53.8793 167.054 53.5099C167.623 53.1359 168.311 52.9489 169.121 52.9489C169.879 52.9489 170.539 53.1146 171.103 53.446C171.666 53.7775 172.104 54.2509 172.417 54.8665C172.729 55.4773 172.885 56.2064 172.885 57.054V64H169.86V57.5938C169.864 56.9261 169.694 56.4053 169.348 56.0312C169.003 55.6525 168.527 55.4631 167.921 55.4631C167.514 55.4631 167.154 55.5507 166.841 55.7259C166.533 55.901 166.292 56.1567 166.117 56.4929C165.946 56.8243 165.859 57.2244 165.854 57.6932ZM1.2642 97.4545H5.05682L9.0625 107.227H9.23295L13.2386 97.4545H17.0312V112H14.0483V102.533H13.9276L10.1634 111.929H8.1321L4.3679 102.497H4.24716V112H1.2642V97.4545ZM22.619 112.206C21.9229 112.206 21.3027 112.085 20.7582 111.844C20.2137 111.598 19.7828 111.235 19.4656 110.757C19.1531 110.274 18.9968 109.673 18.9968 108.953C18.9968 108.347 19.1081 107.838 19.3306 107.426C19.5531 107.014 19.8562 106.683 20.2397 106.432C20.6232 106.181 21.0588 105.991 21.5465 105.864C22.0389 105.736 22.555 105.646 23.0948 105.594C23.7293 105.527 24.2406 105.466 24.6289 105.409C25.0172 105.348 25.2989 105.258 25.4741 105.139C25.6493 105.021 25.7369 104.846 25.7369 104.614V104.571C25.7369 104.121 25.5948 103.773 25.3107 103.527C25.0314 103.281 24.6336 103.158 24.1175 103.158C23.573 103.158 23.1398 103.278 22.8178 103.52C22.4959 103.757 22.2828 104.055 22.1786 104.415L19.3803 104.188C19.5224 103.525 19.8017 102.952 20.2184 102.469C20.6351 101.981 21.1725 101.607 21.8306 101.347C22.4935 101.081 23.2605 100.949 24.1317 100.949C24.7378 100.949 25.3178 101.02 25.8718 101.162C26.4305 101.304 26.9253 101.524 27.3562 101.822C27.7918 102.121 28.1351 102.504 28.386 102.973C28.637 103.437 28.7624 103.993 28.7624 104.642V112H25.8931V110.487H25.8079C25.6327 110.828 25.3983 111.129 25.1048 111.389C24.8112 111.645 24.4585 111.846 24.0465 111.993C23.6346 112.135 23.1587 112.206 22.619 112.206ZM23.4854 110.118C23.9305 110.118 24.3235 110.03 24.6644 109.855C25.0053 109.675 25.2728 109.434 25.467 109.131C25.6611 108.828 25.7582 108.484 25.7582 108.101V106.943C25.6635 107.005 25.5333 107.062 25.3675 107.114C25.2066 107.161 25.0243 107.206 24.8207 107.249C24.6171 107.286 24.4135 107.322 24.2099 107.355C24.0063 107.384 23.8216 107.41 23.6559 107.433C23.3008 107.485 22.9906 107.568 22.7255 107.682C22.4603 107.795 22.2544 107.949 22.1076 108.143C21.9608 108.333 21.8874 108.57 21.8874 108.854C21.8874 109.266 22.0366 109.58 22.3349 109.798C22.6379 110.011 23.0214 110.118 23.4854 110.118ZM34.1353 97.4545V112H31.1097V97.4545H34.1353ZM39.6697 112.206C38.9737 112.206 38.3535 112.085 37.8089 111.844C37.2644 111.598 36.8336 111.235 36.5163 110.757C36.2038 110.274 36.0476 109.673 36.0476 108.953C36.0476 108.347 36.1589 107.838 36.3814 107.426C36.6039 107.014 36.907 106.683 37.2905 106.432C37.674 106.181 38.1096 105.991 38.5973 105.864C39.0897 105.736 39.6058 105.646 40.1456 105.594C40.7801 105.527 41.2914 105.466 41.6797 105.409C42.0679 105.348 42.3497 105.258 42.5249 105.139C42.7 105.021 42.7876 104.846 42.7876 104.614V104.571C42.7876 104.121 42.6456 103.773 42.3615 103.527C42.0821 103.281 41.6844 103.158 41.1683 103.158C40.6238 103.158 40.1906 103.278 39.8686 103.52C39.5466 103.757 39.3336 104.055 39.2294 104.415L36.4311 104.188C36.5732 103.525 36.8525 102.952 37.2692 102.469C37.6858 101.981 38.2232 101.607 38.8814 101.347C39.5443 101.081 40.3113 100.949 41.1825 100.949C41.7886 100.949 42.3686 101.02 42.9226 101.162C43.4813 101.304 43.9761 101.524 44.407 101.822C44.8426 102.121 45.1858 102.504 45.4368 102.973C45.6877 103.437 45.8132 103.993 45.8132 104.642V112H42.9439V110.487H42.8587C42.6835 110.828 42.4491 111.129 42.1555 111.389C41.862 111.645 41.5092 111.846 41.0973 111.993C40.6854 112.135 40.2095 112.206 39.6697 112.206ZM40.5362 110.118C40.9813 110.118 41.3743 110.03 41.7152 109.855C42.0561 109.675 42.3236 109.434 42.5178 109.131C42.7119 108.828 42.8089 108.484 42.8089 108.101V106.943C42.7143 107.005 42.584 107.062 42.4183 107.114C42.2573 107.161 42.075 107.206 41.8714 107.249C41.6679 107.286 41.4643 107.322 41.2607 107.355C41.0571 107.384 40.8724 107.41 40.7067 107.433C40.3516 107.485 40.0414 107.568 39.7763 107.682C39.5111 107.795 39.3052 107.949 39.1584 108.143C39.0116 108.333 38.9382 108.57 38.9382 108.854C38.9382 109.266 39.0874 109.58 39.3857 109.798C39.6887 110.011 40.0722 110.118 40.5362 110.118ZM52.1804 112.178C51.3518 112.178 50.6013 111.964 49.929 111.538C49.2614 111.107 48.7311 110.475 48.3381 109.642C47.9498 108.804 47.7557 107.777 47.7557 106.56C47.7557 105.31 47.9569 104.27 48.3594 103.442C48.7618 102.608 49.2969 101.986 49.9645 101.574C50.6368 101.157 51.3731 100.949 52.1733 100.949C52.7841 100.949 53.2931 101.053 53.7003 101.261C54.1122 101.465 54.4437 101.721 54.6946 102.028C54.9503 102.331 55.1444 102.63 55.277 102.923H55.3693V97.4545H58.3878V112H55.4048V110.253H55.277C55.1349 110.556 54.9337 110.857 54.6733 111.155C54.4176 111.448 54.0838 111.692 53.6719 111.886C53.2647 112.08 52.7675 112.178 52.1804 112.178ZM53.1392 109.77C53.6269 109.77 54.0388 109.637 54.375 109.372C54.7159 109.102 54.9763 108.726 55.1562 108.243C55.3409 107.76 55.4332 107.194 55.4332 106.545C55.4332 105.897 55.3433 105.333 55.1634 104.855C54.9834 104.377 54.723 104.008 54.3821 103.747C54.0412 103.487 53.6269 103.357 53.1392 103.357C52.642 103.357 52.223 103.491 51.8821 103.761C51.5412 104.031 51.2831 104.405 51.108 104.884C50.9328 105.362 50.8452 105.916 50.8452 106.545C50.8452 107.18 50.9328 107.741 51.108 108.229C51.2879 108.712 51.5459 109.09 51.8821 109.365C52.223 109.635 52.642 109.77 53.1392 109.77ZM60.8754 112V101.091H63.9009V112H60.8754ZM62.3952 99.6847C61.9454 99.6847 61.5595 99.5355 61.2376 99.2372C60.9203 98.9342 60.7617 98.572 60.7617 98.1506C60.7617 97.7339 60.9203 97.3764 61.2376 97.0781C61.5595 96.7751 61.9454 96.6236 62.3952 96.6236C62.8451 96.6236 63.2286 96.7751 63.5458 97.0781C63.8678 97.3764 64.0288 97.7339 64.0288 98.1506C64.0288 98.572 63.8678 98.9342 63.5458 99.2372C63.2286 99.5355 62.8451 99.6847 62.3952 99.6847ZM71.2962 112.213C70.174 112.213 69.2081 111.986 68.3984 111.531C67.5935 111.072 66.9732 110.423 66.5376 109.585C66.102 108.742 65.8842 107.746 65.8842 106.595C65.8842 105.473 66.102 104.488 66.5376 103.641C66.9732 102.793 67.5864 102.133 68.3771 101.659C69.1726 101.186 70.1054 100.949 71.1754 100.949C71.8951 100.949 72.5651 101.065 73.1854 101.297C73.8104 101.524 74.3549 101.867 74.8189 102.327C75.2876 102.786 75.6522 103.364 75.9126 104.06C76.1731 104.751 76.3033 105.561 76.3033 106.489V107.32H67.0916V105.445H73.4553C73.4553 105.009 73.3606 104.623 73.1712 104.287C72.9818 103.951 72.719 103.688 72.3828 103.499C72.0514 103.304 71.6655 103.207 71.2251 103.207C70.7659 103.207 70.3587 103.314 70.0036 103.527C69.6532 103.735 69.3786 104.017 69.1797 104.372C68.9808 104.723 68.879 105.113 68.8743 105.544V107.327C68.8743 107.866 68.9737 108.333 69.1726 108.726C69.3762 109.119 69.6626 109.422 70.032 109.635C70.4013 109.848 70.8393 109.955 71.3459 109.955C71.6821 109.955 71.9898 109.907 72.2692 109.812C72.5485 109.718 72.7876 109.576 72.9865 109.386C73.1854 109.197 73.3369 108.965 73.4411 108.69L76.2393 108.875C76.0973 109.547 75.8061 110.134 75.3658 110.636C74.9302 111.134 74.3667 111.522 73.6754 111.801C72.9889 112.076 72.1958 112.213 71.2962 112.213ZM78.9453 106.169C78.9453 104.408 79.1797 102.786 79.6484 101.304C80.1219 99.822 80.844 98.4489 81.8146 97.1847H84.7053C84.3359 97.6534 83.9927 98.2263 83.6754 98.9034C83.3582 99.5758 83.0812 100.314 82.8445 101.119C82.6077 101.924 82.4231 102.758 82.2905 103.619C82.1579 104.476 82.0916 105.326 82.0916 106.169C82.0916 107.291 82.2053 108.425 82.4325 109.571C82.6645 110.712 82.977 111.773 83.37 112.753C83.7678 113.733 84.2128 114.536 84.7053 115.161H81.8146C80.844 113.896 80.1219 112.523 79.6484 111.041C79.1797 109.559 78.9453 107.935 78.9453 106.169ZM95.538 104.202L92.7681 104.372C92.7208 104.135 92.619 103.922 92.4627 103.733C92.3065 103.539 92.1005 103.385 91.8448 103.271C91.5939 103.153 91.2932 103.094 90.9428 103.094C90.4741 103.094 90.0787 103.193 89.7567 103.392C89.4348 103.586 89.2738 103.847 89.2738 104.173C89.2738 104.434 89.378 104.654 89.5863 104.834C89.7946 105.014 90.1521 105.158 90.6587 105.267L92.6332 105.665C93.6938 105.883 94.4845 106.233 95.0053 106.716C95.5262 107.199 95.7866 107.833 95.7866 108.619C95.7866 109.334 95.5759 109.962 95.1545 110.501C94.7378 111.041 94.1649 111.463 93.4357 111.766C92.7113 112.064 91.8756 112.213 90.9286 112.213C89.4845 112.213 88.3339 111.912 87.4769 111.311C86.6246 110.705 86.1251 109.881 85.9783 108.839L88.9542 108.683C89.0442 109.124 89.262 109.46 89.6076 109.692C89.9532 109.919 90.396 110.033 90.9357 110.033C91.466 110.033 91.8922 109.931 92.2141 109.727C92.5408 109.519 92.7066 109.251 92.7113 108.925C92.7066 108.65 92.5906 108.425 92.3633 108.25C92.136 108.07 91.7856 107.933 91.3121 107.838L89.4229 107.462C88.3576 107.249 87.5645 106.879 87.0437 106.354C86.5276 105.828 86.2695 105.158 86.2695 104.344C86.2695 103.643 86.4589 103.039 86.8377 102.533C87.2212 102.026 87.7586 101.635 88.4499 101.361C89.146 101.086 89.9603 100.949 90.8931 100.949C92.271 100.949 93.3552 101.24 94.146 101.822C94.9414 102.405 95.4054 103.198 95.538 104.202ZM102.791 106.169C102.791 107.935 102.554 109.559 102.081 111.041C101.612 112.523 100.893 113.896 99.9219 115.161H97.0312C97.4006 114.692 97.7438 114.119 98.0611 113.442C98.3783 112.765 98.6553 112.026 98.892 111.226C99.1288 110.421 99.3134 109.588 99.446 108.726C99.5786 107.864 99.6449 107.012 99.6449 106.169C99.6449 105.047 99.5289 103.915 99.2969 102.774C99.0696 101.628 98.7571 100.568 98.3594 99.5923C97.9664 98.6122 97.5237 97.8097 97.0312 97.1847H99.9219C100.893 98.4489 101.612 99.822 102.081 101.304C102.554 102.786 102.791 104.408 102.791 106.169ZM107.644 112.185C107.175 112.185 106.773 112.019 106.436 111.688C106.105 111.351 105.939 110.949 105.939 110.48C105.939 110.016 106.105 109.618 106.436 109.287C106.773 108.955 107.175 108.79 107.644 108.79C108.098 108.79 108.496 108.955 108.837 109.287C109.178 109.618 109.348 110.016 109.348 110.48C109.348 110.793 109.268 111.079 109.107 111.339C108.951 111.595 108.745 111.801 108.489 111.957C108.233 112.109 107.952 112.185 107.644 112.185ZM107.644 104.543C107.175 104.543 106.773 104.377 106.436 104.045C106.105 103.714 105.939 103.312 105.939 102.838C105.939 102.374 106.105 101.979 106.436 101.652C106.773 101.321 107.175 101.155 107.644 101.155C108.098 101.155 108.496 101.321 108.837 101.652C109.178 101.979 109.348 102.374 109.348 102.838C109.348 103.155 109.268 103.444 109.107 103.705C108.951 103.96 108.745 104.164 108.489 104.315C108.233 104.467 107.952 104.543 107.644 104.543ZM129.352 102.547H126.241C126.184 102.144 126.068 101.787 125.893 101.474C125.718 101.157 125.493 100.887 125.218 100.665C124.944 100.442 124.627 100.272 124.267 100.153C123.912 100.035 123.526 99.9759 123.109 99.9759C122.356 99.9759 121.7 100.163 121.142 100.537C120.583 100.906 120.15 101.446 119.842 102.156C119.534 102.862 119.38 103.719 119.38 104.727C119.38 105.764 119.534 106.635 119.842 107.341C120.154 108.046 120.59 108.579 121.149 108.939C121.708 109.299 122.354 109.479 123.088 109.479C123.5 109.479 123.881 109.424 124.231 109.315C124.586 109.206 124.901 109.048 125.176 108.839C125.45 108.626 125.678 108.368 125.858 108.065C126.042 107.762 126.17 107.417 126.241 107.028L129.352 107.043C129.271 107.71 129.07 108.354 128.748 108.974C128.431 109.59 128.002 110.142 127.463 110.629C126.928 111.112 126.288 111.496 125.545 111.78C124.806 112.059 123.971 112.199 123.038 112.199C121.741 112.199 120.581 111.905 119.558 111.318C118.54 110.731 117.735 109.881 117.143 108.768C116.556 107.656 116.262 106.309 116.262 104.727C116.262 103.141 116.561 101.792 117.157 100.679C117.754 99.5663 118.564 98.7187 119.586 98.1364C120.609 97.5492 121.76 97.2557 123.038 97.2557C123.881 97.2557 124.662 97.3741 125.382 97.6108C126.106 97.8475 126.748 98.1932 127.306 98.6477C127.865 99.0975 128.32 99.6491 128.67 100.303C129.025 100.956 129.252 101.704 129.352 102.547ZM136.429 112.213C135.326 112.213 134.372 111.979 133.567 111.51C132.767 111.036 132.149 110.378 131.713 109.536C131.278 108.688 131.06 107.705 131.06 106.588C131.06 105.461 131.278 104.476 131.713 103.634C132.149 102.786 132.767 102.128 133.567 101.659C134.372 101.186 135.326 100.949 136.429 100.949C137.533 100.949 138.484 101.186 139.284 101.659C140.089 102.128 140.71 102.786 141.145 103.634C141.581 104.476 141.799 105.461 141.799 106.588C141.799 107.705 141.581 108.688 141.145 109.536C140.71 110.378 140.089 111.036 139.284 111.51C138.484 111.979 137.533 112.213 136.429 112.213ZM136.444 109.869C136.945 109.869 137.364 109.727 137.701 109.443C138.037 109.154 138.29 108.761 138.461 108.264C138.636 107.767 138.723 107.201 138.723 106.567C138.723 105.932 138.636 105.366 138.461 104.869C138.29 104.372 138.037 103.979 137.701 103.69C137.364 103.402 136.945 103.257 136.444 103.257C135.937 103.257 135.511 103.402 135.165 103.69C134.824 103.979 134.566 104.372 134.391 104.869C134.221 105.366 134.135 105.932 134.135 106.567C134.135 107.201 134.221 107.767 134.391 108.264C134.566 108.761 134.824 109.154 135.165 109.443C135.511 109.727 135.937 109.869 136.444 109.869ZM150.975 116.091V110.253H150.882C150.74 110.556 150.539 110.857 150.279 111.155C150.023 111.448 149.689 111.692 149.277 111.886C148.87 112.08 148.373 112.178 147.786 112.178C146.957 112.178 146.207 111.964 145.534 111.538C144.867 111.107 144.337 110.475 143.944 109.642C143.555 108.804 143.361 107.777 143.361 106.56C143.361 105.31 143.562 104.27 143.965 103.442C144.367 102.608 144.902 101.986 145.57 101.574C146.242 101.157 146.979 100.949 147.779 100.949C148.39 100.949 148.899 101.053 149.306 101.261C149.718 101.465 150.049 101.721 150.3 102.028C150.556 102.331 150.75 102.63 150.882 102.923H151.01V101.091H153.993V116.091H150.975ZM148.745 109.77C149.232 109.77 149.644 109.637 149.98 109.372C150.321 109.102 150.582 108.726 150.762 108.243C150.946 107.76 151.039 107.194 151.039 106.545C151.039 105.897 150.949 105.333 150.769 104.855C150.589 104.377 150.328 104.008 149.988 103.747C149.647 103.487 149.232 103.357 148.745 103.357C148.248 103.357 147.828 103.491 147.488 103.761C147.147 104.031 146.889 104.405 146.713 104.884C146.538 105.362 146.451 105.916 146.451 106.545C146.451 107.18 146.538 107.741 146.713 108.229C146.893 108.712 147.151 109.09 147.488 109.365C147.828 109.635 148.248 109.77 148.745 109.77ZM163.418 107.355V101.091H166.444V112H163.539V110.018H163.425C163.179 110.658 162.769 111.171 162.196 111.56C161.628 111.948 160.935 112.142 160.115 112.142C159.386 112.142 158.745 111.976 158.191 111.645C157.637 111.313 157.203 110.842 156.891 110.232C156.583 109.621 156.427 108.889 156.422 108.037V101.091H159.448V107.497C159.453 108.141 159.625 108.65 159.966 109.024C160.307 109.398 160.764 109.585 161.337 109.585C161.702 109.585 162.042 109.502 162.36 109.337C162.677 109.166 162.933 108.915 163.127 108.584C163.326 108.252 163.423 107.843 163.418 107.355ZM173.835 112.213C172.713 112.213 171.747 111.986 170.938 111.531C170.133 111.072 169.512 110.423 169.077 109.585C168.641 108.742 168.423 107.746 168.423 106.595C168.423 105.473 168.641 104.488 169.077 103.641C169.512 102.793 170.125 102.133 170.916 101.659C171.712 101.186 172.644 100.949 173.714 100.949C174.434 100.949 175.104 101.065 175.724 101.297C176.349 101.524 176.894 101.867 177.358 102.327C177.827 102.786 178.191 103.364 178.452 104.06C178.712 104.751 178.842 105.561 178.842 106.489V107.32H169.631V105.445H175.994C175.994 105.009 175.9 104.623 175.71 104.287C175.521 103.951 175.258 103.688 174.922 103.499C174.59 103.304 174.205 103.207 173.764 103.207C173.305 103.207 172.898 103.314 172.543 103.527C172.192 103.735 171.918 104.017 171.719 104.372C171.52 104.723 171.418 105.113 171.413 105.544V107.327C171.413 107.866 171.513 108.333 171.712 108.726C171.915 109.119 172.202 109.422 172.571 109.635C172.94 109.848 173.378 109.955 173.885 109.955C174.221 109.955 174.529 109.907 174.808 109.812C175.088 109.718 175.327 109.576 175.526 109.386C175.724 109.197 175.876 108.965 175.98 108.69L178.778 108.875C178.636 109.547 178.345 110.134 177.905 110.636C177.469 111.134 176.906 111.522 176.214 111.801C175.528 112.076 174.735 112.213 173.835 112.213ZM183.842 97.4545V112H180.817V97.4545H183.842ZM193.262 107.355V101.091H196.287V112H193.382V110.018H193.269C193.023 110.658 192.613 111.171 192.04 111.56C191.472 111.948 190.778 112.142 189.959 112.142C189.23 112.142 188.588 111.976 188.034 111.645C187.48 111.313 187.047 110.842 186.735 110.232C186.427 109.621 186.271 108.889 186.266 108.037V101.091H189.292V107.497C189.296 108.141 189.469 108.65 189.81 109.024C190.151 109.398 190.608 109.585 191.181 109.585C191.545 109.585 191.886 109.502 192.203 109.337C192.521 109.166 192.776 108.915 192.971 108.584C193.169 108.252 193.266 107.843 193.262 107.355ZM203.636 112.213C202.519 112.213 201.558 111.976 200.753 111.503C199.953 111.025 199.337 110.362 198.906 109.514C198.48 108.667 198.267 107.691 198.267 106.588C198.267 105.471 198.482 104.491 198.913 103.648C199.349 102.8 199.967 102.14 200.767 101.666C201.567 101.188 202.519 100.949 203.622 100.949C204.574 100.949 205.407 101.122 206.122 101.467C206.837 101.813 207.403 102.298 207.82 102.923C208.236 103.548 208.466 104.282 208.509 105.125H205.653C205.573 104.58 205.36 104.143 205.014 103.811C204.673 103.475 204.226 103.307 203.672 103.307C203.203 103.307 202.794 103.435 202.443 103.69C202.098 103.941 201.828 104.308 201.634 104.791C201.439 105.274 201.342 105.859 201.342 106.545C201.342 107.241 201.437 107.833 201.626 108.321C201.821 108.809 202.093 109.18 202.443 109.436C202.794 109.692 203.203 109.82 203.672 109.82C204.018 109.82 204.328 109.749 204.602 109.607C204.882 109.464 205.111 109.259 205.291 108.989C205.476 108.714 205.597 108.385 205.653 108.001H208.509C208.461 108.835 208.234 109.569 207.827 110.203C207.424 110.833 206.868 111.325 206.158 111.68C205.447 112.036 204.607 112.213 203.636 112.213ZM213.471 105.693V112H210.446V97.4545H213.386V103.016H213.514C213.76 102.372 214.158 101.867 214.707 101.503C215.256 101.134 215.945 100.949 216.774 100.949C217.531 100.949 218.192 101.115 218.755 101.446C219.324 101.773 219.764 102.244 220.076 102.859C220.394 103.47 220.55 104.202 220.545 105.054V112H217.52V105.594C217.524 104.921 217.354 104.398 217.008 104.024C216.667 103.65 216.189 103.463 215.574 103.463C215.162 103.463 214.797 103.551 214.48 103.726C214.167 103.901 213.921 104.157 213.741 104.493C213.566 104.824 213.476 105.224 213.471 105.693ZM227.898 112.213C226.776 112.213 225.81 111.986 225 111.531C224.195 111.072 223.575 110.423 223.139 109.585C222.704 108.742 222.486 107.746 222.486 106.595C222.486 105.473 222.704 104.488 223.139 103.641C223.575 102.793 224.188 102.133 224.979 101.659C225.774 101.186 226.707 100.949 227.777 100.949C228.497 100.949 229.167 101.065 229.787 101.297C230.412 101.524 230.956 101.867 231.42 102.327C231.889 102.786 232.254 103.364 232.514 104.06C232.775 104.751 232.905 105.561 232.905 106.489V107.32H223.693V105.445H230.057C230.057 105.009 229.962 104.623 229.773 104.287C229.583 103.951 229.321 103.688 228.984 103.499C228.653 103.304 228.267 103.207 227.827 103.207C227.367 103.207 226.96 103.314 226.605 103.527C226.255 103.735 225.98 104.017 225.781 104.372C225.582 104.723 225.481 105.113 225.476 105.544V107.327C225.476 107.866 225.575 108.333 225.774 108.726C225.978 109.119 226.264 109.422 226.634 109.635C227.003 109.848 227.441 109.955 227.947 109.955C228.284 109.955 228.591 109.907 228.871 109.812C229.15 109.718 229.389 109.576 229.588 109.386C229.787 109.197 229.938 108.965 230.043 108.69L232.841 108.875C232.699 109.547 232.408 110.134 231.967 110.636C231.532 111.134 230.968 111.522 230.277 111.801C229.59 112.076 228.797 112.213 227.898 112.213ZM0.710227 147.99V145.455H12.6562V147.99H8.20312V160H5.16335V147.99H0.710227ZM13.4339 160V149.091H16.3672V150.994H16.4808C16.6797 150.317 17.0135 149.806 17.4822 149.46C17.951 149.11 18.4908 148.935 19.1016 148.935C19.2531 148.935 19.4164 148.944 19.5916 148.963C19.7668 148.982 19.9207 149.008 20.0533 149.041V151.726C19.9112 151.683 19.7147 151.645 19.4638 151.612C19.2128 151.579 18.9832 151.562 18.7749 151.562C18.3298 151.562 17.9321 151.66 17.5817 151.854C17.236 152.043 16.9614 152.308 16.7578 152.649C16.5589 152.99 16.4595 153.383 16.4595 153.828V160H13.4339ZM24.4158 160.206C23.7198 160.206 23.0996 160.085 22.555 159.844C22.0105 159.598 21.5797 159.235 21.2624 158.757C20.9499 158.274 20.7937 157.673 20.7937 156.953C20.7937 156.347 20.9049 155.838 21.1275 155.426C21.35 155.014 21.6531 154.683 22.0366 154.432C22.4201 154.181 22.8557 153.991 23.3434 153.864C23.8358 153.736 24.3519 153.646 24.8917 153.594C25.5262 153.527 26.0375 153.466 26.4258 153.409C26.814 153.348 27.0958 153.258 27.271 153.139C27.4461 153.021 27.5337 152.846 27.5337 152.614V152.571C27.5337 152.121 27.3917 151.773 27.1076 151.527C26.8282 151.281 26.4305 151.158 25.9144 151.158C25.3699 151.158 24.9367 151.278 24.6147 151.52C24.2927 151.757 24.0797 152.055 23.9755 152.415L21.1772 152.188C21.3192 151.525 21.5986 150.952 22.0153 150.469C22.4319 149.981 22.9693 149.607 23.6275 149.347C24.2904 149.081 25.0574 148.949 25.9286 148.949C26.5347 148.949 27.1147 149.02 27.6687 149.162C28.2274 149.304 28.7222 149.524 29.1531 149.822C29.5887 150.121 29.9319 150.504 30.1829 150.973C30.4338 151.437 30.5593 151.993 30.5593 152.642V160H27.69V158.487H27.6048C27.4296 158.828 27.1952 159.129 26.9016 159.389C26.6081 159.645 26.2553 159.846 25.8434 159.993C25.4315 160.135 24.9556 160.206 24.4158 160.206ZM25.2823 158.118C25.7274 158.118 26.1204 158.03 26.4613 157.855C26.8022 157.675 27.0697 157.434 27.2638 157.131C27.458 156.828 27.555 156.484 27.555 156.101V154.943C27.4603 155.005 27.3301 155.062 27.1644 155.114C27.0034 155.161 26.8211 155.206 26.6175 155.249C26.4139 155.286 26.2103 155.322 26.0067 155.355C25.8031 155.384 25.6185 155.41 25.4528 155.433C25.0977 155.485 24.7875 155.568 24.5224 155.682C24.2572 155.795 24.0513 155.949 23.9045 156.143C23.7577 156.333 23.6843 156.57 23.6843 156.854C23.6843 157.266 23.8335 157.58 24.1317 157.798C24.4348 158.011 24.8183 158.118 25.2823 158.118ZM32.9066 160V149.091H35.9322V160H32.9066ZM34.4265 147.685C33.9767 147.685 33.5908 147.536 33.2688 147.237C32.9516 146.934 32.793 146.572 32.793 146.151C32.793 145.734 32.9516 145.376 33.2688 145.078C33.5908 144.775 33.9767 144.624 34.4265 144.624C34.8763 144.624 35.2598 144.775 35.5771 145.078C35.899 145.376 36.06 145.734 36.06 146.151C36.06 146.572 35.899 146.934 35.5771 147.237C35.2598 147.536 34.8763 147.685 34.4265 147.685ZM44.1584 149.091V151.364H37.5888V149.091H44.1584ZM39.0803 146.477H42.1058V156.648C42.1058 156.927 42.1484 157.145 42.2337 157.301C42.3189 157.453 42.4373 157.559 42.5888 157.621C42.745 157.682 42.925 157.713 43.1286 157.713C43.2706 157.713 43.4126 157.701 43.5547 157.678C43.6967 157.649 43.8056 157.628 43.8814 157.614L44.3572 159.865C44.2057 159.912 43.9927 159.967 43.718 160.028C43.4434 160.095 43.1096 160.135 42.7166 160.149C41.9875 160.178 41.3482 160.08 40.799 159.858C40.2545 159.635 39.8307 159.29 39.5277 158.821C39.2247 158.352 39.0755 157.76 39.0803 157.045V146.477ZM50.9837 160.213C49.8615 160.213 48.8956 159.986 48.0859 159.531C47.281 159.072 46.6607 158.423 46.2251 157.585C45.7895 156.742 45.5717 155.746 45.5717 154.595C45.5717 153.473 45.7895 152.488 46.2251 151.641C46.6607 150.793 47.2739 150.133 48.0646 149.659C48.8601 149.186 49.7929 148.949 50.8629 148.949C51.5826 148.949 52.2526 149.065 52.8729 149.297C53.4979 149.524 54.0424 149.867 54.5064 150.327C54.9751 150.786 55.3397 151.364 55.6001 152.06C55.8606 152.751 55.9908 153.561 55.9908 154.489V155.32H46.7791V153.445H53.1428C53.1428 153.009 53.0481 152.623 52.8587 152.287C52.6693 151.951 52.4065 151.688 52.0703 151.499C51.7389 151.304 51.353 151.207 50.9126 151.207C50.4534 151.207 50.0462 151.314 49.6911 151.527C49.3407 151.735 49.0661 152.017 48.8672 152.372C48.6683 152.723 48.5665 153.113 48.5618 153.544V155.327C48.5618 155.866 48.6612 156.333 48.8601 156.726C49.0637 157.119 49.3501 157.422 49.7195 157.635C50.0888 157.848 50.5268 157.955 51.0334 157.955C51.3696 157.955 51.6773 157.907 51.9567 157.812C52.236 157.718 52.4751 157.576 52.674 157.386C52.8729 157.197 53.0244 156.965 53.1286 156.69L55.9268 156.875C55.7848 157.547 55.4936 158.134 55.0533 158.636C54.6177 159.134 54.0542 159.522 53.3629 159.801C52.6764 160.076 51.8833 160.213 50.9837 160.213ZM57.9652 160V149.091H60.8487V151.016H60.9766C61.2038 150.376 61.5826 149.872 62.1129 149.503C62.6432 149.134 63.2777 148.949 64.0163 148.949C64.7644 148.949 65.4013 149.136 65.9268 149.51C66.4524 149.879 66.8028 150.381 66.978 151.016H67.0916C67.3142 150.391 67.7166 149.891 68.299 149.517C68.8861 149.138 69.5798 148.949 70.38 148.949C71.398 148.949 72.2242 149.273 72.8587 149.922C73.4979 150.566 73.8175 151.48 73.8175 152.663V160H70.799V153.26C70.799 152.654 70.638 152.199 70.3161 151.896C69.9941 151.593 69.5916 151.442 69.1087 151.442C68.5594 151.442 68.1309 151.617 67.8232 151.967C67.5154 152.313 67.3615 152.77 67.3615 153.338V160H64.4283V153.196C64.4283 152.661 64.2744 152.235 63.9666 151.918C63.6636 151.6 63.2635 151.442 62.7663 151.442C62.4302 151.442 62.1271 151.527 61.8572 151.697C61.5921 151.863 61.3814 152.098 61.2251 152.401C61.0689 152.699 60.9908 153.049 60.9908 153.452V160H57.9652ZM81.179 160.213C80.0568 160.213 79.0909 159.986 78.2812 159.531C77.4763 159.072 76.8561 158.423 76.4205 157.585C75.9848 156.742 75.767 155.746 75.767 154.595C75.767 153.473 75.9848 152.488 76.4205 151.641C76.8561 150.793 77.4692 150.133 78.2599 149.659C79.0554 149.186 79.9882 148.949 81.0582 148.949C81.7779 148.949 82.4479 149.065 83.0682 149.297C83.6932 149.524 84.2377 149.867 84.7017 150.327C85.1705 150.786 85.535 151.364 85.7955 152.06C86.0559 152.751 86.1861 153.561 86.1861 154.489V155.32H76.9744V153.445H83.3381C83.3381 153.009 83.2434 152.623 83.054 152.287C82.8646 151.951 82.6018 151.688 82.2656 151.499C81.9342 151.304 81.5483 151.207 81.108 151.207C80.6487 151.207 80.2415 151.314 79.8864 151.527C79.536 151.735 79.2614 152.017 79.0625 152.372C78.8636 152.723 78.7618 153.113 78.7571 153.544V155.327C78.7571 155.866 78.8565 156.333 79.0554 156.726C79.259 157.119 79.5455 157.422 79.9148 157.635C80.2841 157.848 80.7221 157.955 81.2287 157.955C81.5649 157.955 81.8726 157.907 82.152 157.812C82.4313 157.718 82.6705 157.576 82.8693 157.386C83.0682 157.197 83.2197 156.965 83.3239 156.69L86.1222 156.875C85.9801 157.547 85.6889 158.134 85.2486 158.636C84.813 159.134 84.2495 159.522 83.5582 159.801C82.8717 160.076 82.0786 160.213 81.179 160.213ZM91.1861 153.693V160H88.1605V149.091H91.044V151.016H91.1719C91.4134 150.381 91.8182 149.879 92.3864 149.51C92.9545 149.136 93.6435 148.949 94.4531 148.949C95.2107 148.949 95.8712 149.115 96.4347 149.446C96.9981 149.777 97.4361 150.251 97.7486 150.866C98.0611 151.477 98.2173 152.206 98.2173 153.054V160H95.1918V153.594C95.1965 152.926 95.026 152.405 94.6804 152.031C94.3348 151.652 93.8589 151.463 93.2528 151.463C92.8456 151.463 92.4858 151.551 92.1733 151.726C91.8655 151.901 91.6241 152.157 91.4489 152.493C91.2784 152.824 91.1908 153.224 91.1861 153.693ZM106.404 149.091V151.364H99.8349V149.091H106.404ZM101.326 146.477H104.352V156.648C104.352 156.927 104.395 157.145 104.48 157.301C104.565 157.453 104.683 157.559 104.835 157.621C104.991 157.682 105.171 157.713 105.375 157.713C105.517 157.713 105.659 157.701 105.801 157.678C105.943 157.649 106.052 157.628 106.127 157.614L106.603 159.865C106.452 159.912 106.239 159.967 105.964 160.028C105.69 160.095 105.356 160.135 104.963 160.149C104.234 160.178 103.594 160.08 103.045 159.858C102.501 159.635 102.077 159.29 101.774 158.821C101.471 158.352 101.322 157.76 101.326 157.045V146.477ZM109.043 154.169C109.043 152.408 109.277 150.786 109.746 149.304C110.22 147.822 110.942 146.449 111.912 145.185H114.803C114.434 145.653 114.09 146.226 113.773 146.903C113.456 147.576 113.179 148.314 112.942 149.119C112.705 149.924 112.521 150.758 112.388 151.619C112.256 152.476 112.189 153.326 112.189 154.169C112.189 155.291 112.303 156.425 112.53 157.571C112.762 158.712 113.075 159.773 113.468 160.753C113.865 161.733 114.31 162.536 114.803 163.161H111.912C110.942 161.896 110.22 160.523 109.746 159.041C109.277 157.559 109.043 155.935 109.043 154.169ZM125.636 152.202L122.866 152.372C122.818 152.135 122.717 151.922 122.56 151.733C122.404 151.539 122.198 151.385 121.942 151.271C121.692 151.153 121.391 151.094 121.04 151.094C120.572 151.094 120.176 151.193 119.854 151.392C119.532 151.586 119.371 151.847 119.371 152.173C119.371 152.434 119.476 152.654 119.684 152.834C119.892 153.014 120.25 153.158 120.756 153.267L122.731 153.665C123.791 153.883 124.582 154.233 125.103 154.716C125.624 155.199 125.884 155.833 125.884 156.619C125.884 157.334 125.674 157.962 125.252 158.501C124.835 159.041 124.263 159.463 123.533 159.766C122.809 160.064 121.973 160.213 121.026 160.213C119.582 160.213 118.432 159.912 117.575 159.311C116.722 158.705 116.223 157.881 116.076 156.839L119.052 156.683C119.142 157.124 119.36 157.46 119.705 157.692C120.051 157.919 120.494 158.033 121.033 158.033C121.564 158.033 121.99 157.931 122.312 157.727C122.638 157.519 122.804 157.251 122.809 156.925C122.804 156.65 122.688 156.425 122.461 156.25C122.234 156.07 121.883 155.933 121.41 155.838L119.521 155.462C118.455 155.249 117.662 154.879 117.141 154.354C116.625 153.828 116.367 153.158 116.367 152.344C116.367 151.643 116.557 151.039 116.935 150.533C117.319 150.026 117.856 149.635 118.548 149.361C119.244 149.086 120.058 148.949 120.991 148.949C122.369 148.949 123.453 149.24 124.244 149.822C125.039 150.405 125.503 151.198 125.636 152.202ZM132.889 154.169C132.889 155.935 132.652 157.559 132.179 159.041C131.71 160.523 130.99 161.896 130.02 163.161H127.129C127.498 162.692 127.842 162.119 128.159 161.442C128.476 160.765 128.753 160.026 128.99 159.226C129.226 158.421 129.411 157.588 129.544 156.726C129.676 155.864 129.743 155.012 129.743 154.169C129.743 153.047 129.627 151.915 129.395 150.774C129.167 149.628 128.855 148.568 128.457 147.592C128.064 146.612 127.621 145.81 127.129 145.185H130.02C130.99 146.449 131.71 147.822 132.179 149.304C132.652 150.786 132.889 152.408 132.889 154.169ZM137.741 160.185C137.273 160.185 136.87 160.019 136.534 159.688C136.203 159.351 136.037 158.949 136.037 158.48C136.037 158.016 136.203 157.618 136.534 157.287C136.87 156.955 137.273 156.79 137.741 156.79C138.196 156.79 138.594 156.955 138.935 157.287C139.276 157.618 139.446 158.016 139.446 158.48C139.446 158.793 139.366 159.079 139.205 159.339C139.048 159.595 138.842 159.801 138.587 159.957C138.331 160.109 138.049 160.185 137.741 160.185ZM137.741 152.543C137.273 152.543 136.87 152.377 136.534 152.045C136.203 151.714 136.037 151.312 136.037 150.838C136.037 150.374 136.203 149.979 136.534 149.652C136.87 149.321 137.273 149.155 137.741 149.155C138.196 149.155 138.594 149.321 138.935 149.652C139.276 149.979 139.446 150.374 139.446 150.838C139.446 151.155 139.366 151.444 139.205 151.705C139.048 151.96 138.842 152.164 138.587 152.315C138.331 152.467 138.049 152.543 137.741 152.543ZM149.123 160H145.827L150.849 145.455H154.812L159.826 160H156.531L152.887 148.778H152.773L149.123 160ZM148.917 154.283H156.701V156.683H148.917V154.283ZM170.343 152.202L167.573 152.372C167.525 152.135 167.424 151.922 167.267 151.733C167.111 151.539 166.905 151.385 166.65 151.271C166.399 151.153 166.098 151.094 165.748 151.094C165.279 151.094 164.883 151.193 164.561 151.392C164.239 151.586 164.078 151.847 164.078 152.173C164.078 152.434 164.183 152.654 164.391 152.834C164.599 153.014 164.957 153.158 165.463 153.267L167.438 153.665C168.498 153.883 169.289 154.233 169.81 154.716C170.331 155.199 170.591 155.833 170.591 156.619C170.591 157.334 170.381 157.962 169.959 158.501C169.542 159.041 168.97 159.463 168.24 159.766C167.516 160.064 166.68 160.213 165.733 160.213C164.289 160.213 163.139 159.912 162.282 159.311C161.429 158.705 160.93 157.881 160.783 156.839L163.759 156.683C163.849 157.124 164.067 157.46 164.412 157.692C164.758 157.919 165.201 158.033 165.74 158.033C166.271 158.033 166.697 157.931 167.019 157.727C167.346 157.519 167.511 157.251 167.516 156.925C167.511 156.65 167.395 156.425 167.168 156.25C166.941 156.07 166.59 155.933 166.117 155.838L164.228 155.462C163.162 155.249 162.369 154.879 161.848 154.354C161.332 153.828 161.074 153.158 161.074 152.344C161.074 151.643 161.264 151.039 161.642 150.533C162.026 150.026 162.563 149.635 163.255 149.361C163.951 149.086 164.765 148.949 165.698 148.949C167.076 148.949 168.16 149.24 168.951 149.822C169.746 150.405 170.21 151.198 170.343 152.202ZM178.299 149.091V151.364H171.729V149.091H178.299ZM173.221 146.477H176.246V156.648C176.246 156.927 176.289 157.145 176.374 157.301C176.46 157.453 176.578 157.559 176.729 157.621C176.886 157.682 177.066 157.713 177.269 157.713C177.411 157.713 177.553 157.701 177.695 157.678C177.837 157.649 177.946 157.628 178.022 157.614L178.498 159.865C178.346 159.912 178.133 159.967 177.859 160.028C177.584 160.095 177.25 160.135 176.857 160.149C176.128 160.178 175.489 160.08 174.94 159.858C174.395 159.635 173.971 159.29 173.668 158.821C173.365 158.352 173.216 157.76 173.221 157.045V146.477ZM183.53 153.693V160H180.504V145.455H183.445V151.016H183.572C183.819 150.372 184.216 149.867 184.766 149.503C185.315 149.134 186.004 148.949 186.832 148.949C187.59 148.949 188.25 149.115 188.814 149.446C189.382 149.773 189.822 150.244 190.135 150.859C190.452 151.47 190.608 152.202 190.604 153.054V160H187.578V153.594C187.583 152.921 187.412 152.398 187.067 152.024C186.726 151.65 186.248 151.463 185.632 151.463C185.22 151.463 184.856 151.551 184.538 151.726C184.226 151.901 183.98 152.157 183.8 152.493C183.625 152.824 183.535 153.224 183.53 153.693ZM192.985 160V149.091H195.868V151.016H195.996C196.223 150.376 196.602 149.872 197.132 149.503C197.663 149.134 198.297 148.949 199.036 148.949C199.784 148.949 200.421 149.136 200.946 149.51C201.472 149.879 201.822 150.381 201.998 151.016H202.111C202.334 150.391 202.736 149.891 203.319 149.517C203.906 149.138 204.599 148.949 205.4 148.949C206.417 148.949 207.244 149.273 207.878 149.922C208.517 150.566 208.837 151.48 208.837 152.663V160H205.819V153.26C205.819 152.654 205.658 152.199 205.336 151.896C205.014 151.593 204.611 151.442 204.128 151.442C203.579 151.442 203.15 151.617 202.843 151.967C202.535 152.313 202.381 152.77 202.381 153.338V160H199.448V153.196C199.448 152.661 199.294 152.235 198.986 151.918C198.683 151.6 198.283 151.442 197.786 151.442C197.45 151.442 197.147 151.527 196.877 151.697C196.612 151.863 196.401 152.098 196.245 152.401C196.088 152.699 196.01 153.049 196.01 153.452V160H192.985ZM216.199 160.213C215.076 160.213 214.11 159.986 213.301 159.531C212.496 159.072 211.876 158.423 211.44 157.585C211.004 156.742 210.787 155.746 210.787 154.595C210.787 153.473 211.004 152.488 211.44 151.641C211.876 150.793 212.489 150.133 213.279 149.659C214.075 149.186 215.008 148.949 216.078 148.949C216.797 148.949 217.467 149.065 218.088 149.297C218.713 149.524 219.257 149.867 219.721 150.327C220.19 150.786 220.555 151.364 220.815 152.06C221.075 152.751 221.206 153.561 221.206 154.489V155.32H211.994V153.445H218.358C218.358 153.009 218.263 152.623 218.074 152.287C217.884 151.951 217.621 151.688 217.285 151.499C216.954 151.304 216.568 151.207 216.127 151.207C215.668 151.207 215.261 151.314 214.906 151.527C214.556 151.735 214.281 152.017 214.082 152.372C213.883 152.723 213.781 153.113 213.777 153.544V155.327C213.777 155.866 213.876 156.333 214.075 156.726C214.279 157.119 214.565 157.422 214.934 157.635C215.304 157.848 215.742 157.955 216.248 157.955C216.584 157.955 216.892 157.907 217.172 157.812C217.451 157.718 217.69 157.576 217.889 157.386C218.088 157.197 218.239 156.965 218.343 156.69L221.142 156.875C221 157.547 220.708 158.134 220.268 158.636C219.833 159.134 219.269 159.522 218.578 159.801C217.891 160.076 217.098 160.213 216.199 160.213ZM6.42045 208H1.2642V193.455H6.46307C7.92614 193.455 9.18561 193.746 10.2415 194.328C11.2973 194.906 12.1094 195.737 12.6776 196.821C13.2505 197.905 13.5369 199.203 13.5369 200.713C13.5369 202.228 13.2505 203.53 12.6776 204.619C12.1094 205.708 11.2926 206.544 10.2273 207.126C9.16667 207.709 7.89773 208 6.42045 208ZM4.33949 205.365H6.29261C7.2017 205.365 7.96638 205.204 8.58665 204.882C9.21165 204.555 9.6804 204.051 9.9929 203.369C10.3101 202.683 10.4688 201.797 10.4688 200.713C10.4688 199.638 10.3101 198.76 9.9929 198.078C9.6804 197.396 9.21402 196.894 8.59375 196.572C7.97348 196.25 7.20881 196.089 6.29972 196.089H4.33949V205.365ZM20.7298 208.213C19.6076 208.213 18.6417 207.986 17.832 207.531C17.0271 207.072 16.4068 206.423 15.9712 205.585C15.5356 204.742 15.3178 203.746 15.3178 202.595C15.3178 201.473 15.5356 200.488 15.9712 199.641C16.4068 198.793 17.02 198.133 17.8107 197.659C18.6062 197.186 19.5389 196.949 20.609 196.949C21.3287 196.949 21.9987 197.065 22.619 197.297C23.244 197.524 23.7885 197.867 24.2525 198.327C24.7212 198.786 25.0858 199.364 25.3462 200.06C25.6067 200.751 25.7369 201.561 25.7369 202.489V203.32H16.5252V201.445H22.8888C22.8888 201.009 22.7942 200.623 22.6048 200.287C22.4154 199.951 22.1526 199.688 21.8164 199.499C21.485 199.304 21.0991 199.207 20.6587 199.207C20.1995 199.207 19.7923 199.314 19.4371 199.527C19.0868 199.735 18.8121 200.017 18.6133 200.372C18.4144 200.723 18.3126 201.113 18.3079 201.544V203.327C18.3079 203.866 18.4073 204.333 18.6062 204.726C18.8098 205.119 19.0962 205.422 19.4656 205.635C19.8349 205.848 20.2728 205.955 20.7795 205.955C21.1156 205.955 21.4234 205.907 21.7028 205.812C21.9821 205.718 22.2212 205.576 22.4201 205.386C22.619 205.197 22.7705 204.965 22.8746 204.69L25.6729 204.875C25.5309 205.547 25.2397 206.134 24.7994 206.636C24.3638 207.134 23.8003 207.522 23.109 207.801C22.4225 208.076 21.6294 208.213 20.7298 208.213ZM36.788 200.202L34.0181 200.372C33.9708 200.135 33.869 199.922 33.7127 199.733C33.5565 199.539 33.3505 199.385 33.0948 199.271C32.8439 199.153 32.5432 199.094 32.1928 199.094C31.7241 199.094 31.3287 199.193 31.0067 199.392C30.6848 199.586 30.5238 199.847 30.5238 200.173C30.5238 200.434 30.628 200.654 30.8363 200.834C31.0446 201.014 31.4021 201.158 31.9087 201.267L33.8832 201.665C34.9438 201.883 35.7345 202.233 36.2553 202.716C36.7762 203.199 37.0366 203.833 37.0366 204.619C37.0366 205.334 36.8259 205.962 36.4045 206.501C35.9878 207.041 35.4149 207.463 34.6857 207.766C33.9613 208.064 33.1256 208.213 32.1786 208.213C30.7345 208.213 29.5839 207.912 28.7269 207.311C27.8746 206.705 27.3751 205.881 27.2283 204.839L30.2042 204.683C30.2942 205.124 30.512 205.46 30.8576 205.692C31.2032 205.919 31.646 206.033 32.1857 206.033C32.716 206.033 33.1422 205.931 33.4641 205.727C33.7908 205.519 33.9566 205.251 33.9613 204.925C33.9566 204.65 33.8406 204.425 33.6133 204.25C33.386 204.07 33.0356 203.933 32.5621 203.838L30.6729 203.462C29.6076 203.249 28.8145 202.879 28.2937 202.354C27.7776 201.828 27.5195 201.158 27.5195 200.344C27.5195 199.643 27.7089 199.039 28.0877 198.533C28.4712 198.026 29.0086 197.635 29.6999 197.361C30.396 197.086 31.2103 196.949 32.1431 196.949C33.521 196.949 34.6052 197.24 35.396 197.822C36.1914 198.405 36.6554 199.198 36.788 200.202ZM43.8707 208.213C42.7533 208.213 41.7921 207.976 40.9872 207.503C40.187 207.025 39.5715 206.362 39.1406 205.514C38.7145 204.667 38.5014 203.691 38.5014 202.588C38.5014 201.471 38.7169 200.491 39.1477 199.648C39.5833 198.8 40.2012 198.14 41.0014 197.666C41.8016 197.188 42.7533 196.949 43.8565 196.949C44.8082 196.949 45.6416 197.122 46.3565 197.467C47.0715 197.813 47.6373 198.298 48.054 198.923C48.4706 199.548 48.7003 200.282 48.7429 201.125H45.8878C45.8073 200.58 45.5942 200.143 45.2486 199.811C44.9077 199.475 44.4602 199.307 43.9062 199.307C43.4375 199.307 43.0279 199.435 42.6776 199.69C42.3319 199.941 42.062 200.308 41.8679 200.791C41.6738 201.274 41.5767 201.859 41.5767 202.545C41.5767 203.241 41.6714 203.833 41.8608 204.321C42.0549 204.809 42.3272 205.18 42.6776 205.436C43.0279 205.692 43.4375 205.82 43.9062 205.82C44.2519 205.82 44.562 205.749 44.8366 205.607C45.116 205.464 45.3456 205.259 45.5256 204.989C45.7102 204.714 45.831 204.385 45.8878 204.001H48.7429C48.6955 204.835 48.4683 205.569 48.0611 206.203C47.6586 206.833 47.1023 207.325 46.392 207.68C45.6818 208.036 44.8414 208.213 43.8707 208.213ZM50.68 208V197.091H53.6133V198.994H53.7269C53.9258 198.317 54.2596 197.806 54.7283 197.46C55.1971 197.11 55.7369 196.935 56.3477 196.935C56.4992 196.935 56.6625 196.944 56.8377 196.963C57.0129 196.982 57.1668 197.008 57.2994 197.041V199.726C57.1573 199.683 56.9608 199.645 56.7099 199.612C56.4589 199.579 56.2293 199.562 56.021 199.562C55.5759 199.562 55.1781 199.66 54.8278 199.854C54.4821 200.043 54.2075 200.308 54.0039 200.649C53.805 200.99 53.7056 201.383 53.7056 201.828V208H50.68ZM58.8636 208V197.091H61.8892V208H58.8636ZM60.3835 195.685C59.9337 195.685 59.5478 195.536 59.2259 195.237C58.9086 194.934 58.75 194.572 58.75 194.151C58.75 193.734 58.9086 193.376 59.2259 193.078C59.5478 192.775 59.9337 192.624 60.3835 192.624C60.8333 192.624 61.2169 192.775 61.5341 193.078C61.8561 193.376 62.017 193.734 62.017 194.151C62.017 194.572 61.8561 194.934 61.5341 195.237C61.2169 195.536 60.8333 195.685 60.3835 195.685ZM64.3129 212.091V197.091H67.2958V198.923H67.4308C67.5633 198.63 67.7551 198.331 68.006 198.028C68.2617 197.721 68.5932 197.465 69.0004 197.261C69.4123 197.053 69.9237 196.949 70.5344 196.949C71.3299 196.949 72.0638 197.157 72.7362 197.574C73.4085 197.986 73.9459 198.608 74.3484 199.442C74.7508 200.27 74.9521 201.31 74.9521 202.56C74.9521 203.777 74.7556 204.804 74.3626 205.642C73.9743 206.475 73.444 207.107 72.7717 207.538C72.104 207.964 71.3559 208.178 70.5273 208.178C69.9402 208.178 69.4407 208.08 69.0288 207.886C68.6216 207.692 68.2878 207.448 68.0273 207.155C67.7669 206.857 67.5681 206.556 67.4308 206.253H67.3384V212.091H64.3129ZM67.2745 202.545C67.2745 203.194 67.3645 203.76 67.5444 204.243C67.7243 204.726 67.9847 205.102 68.3256 205.372C68.6665 205.637 69.0808 205.77 69.5685 205.77C70.061 205.77 70.4776 205.635 70.8185 205.365C71.1594 205.09 71.4175 204.712 71.5927 204.229C71.7726 203.741 71.8626 203.18 71.8626 202.545C71.8626 201.916 71.775 201.362 71.5998 200.884C71.4246 200.405 71.1665 200.031 70.8256 199.761C70.4847 199.491 70.0657 199.357 69.5685 199.357C69.0761 199.357 68.6594 199.487 68.3185 199.747C67.9824 200.008 67.7243 200.377 67.5444 200.855C67.3645 201.333 67.2745 201.897 67.2745 202.545ZM82.7717 197.091V199.364H76.2021V197.091H82.7717ZM77.6935 194.477H80.7191V204.648C80.7191 204.927 80.7617 205.145 80.8469 205.301C80.9322 205.453 81.0505 205.559 81.2021 205.621C81.3583 205.682 81.5382 205.713 81.7418 205.713C81.8839 205.713 82.0259 205.701 82.168 205.678C82.31 205.649 82.4189 205.628 82.4947 205.614L82.9705 207.865C82.819 207.912 82.6059 207.967 82.3313 208.028C82.0567 208.095 81.7229 208.135 81.3299 208.149C80.6007 208.178 79.9615 208.08 79.4123 207.858C78.8678 207.635 78.444 207.29 78.141 206.821C77.8379 206.352 77.6888 205.76 77.6935 205.045V194.477ZM84.7425 208V197.091H87.7681V208H84.7425ZM86.2624 195.685C85.8126 195.685 85.4267 195.536 85.1048 195.237C84.7875 194.934 84.6289 194.572 84.6289 194.151C84.6289 193.734 84.7875 193.376 85.1048 193.078C85.4267 192.775 85.8126 192.624 86.2624 192.624C86.7122 192.624 87.0958 192.775 87.413 193.078C87.735 193.376 87.896 193.734 87.896 194.151C87.896 194.572 87.735 194.934 87.413 195.237C87.0958 195.536 86.7122 195.685 86.2624 195.685ZM95.1207 208.213C94.0175 208.213 93.0634 207.979 92.2585 207.51C91.4583 207.036 90.8404 206.378 90.4048 205.536C89.9692 204.688 89.7514 203.705 89.7514 202.588C89.7514 201.461 89.9692 200.476 90.4048 199.634C90.8404 198.786 91.4583 198.128 92.2585 197.659C93.0634 197.186 94.0175 196.949 95.1207 196.949C96.224 196.949 97.1757 197.186 97.9759 197.659C98.7808 198.128 99.401 198.786 99.8366 199.634C100.272 200.476 100.49 201.461 100.49 202.588C100.49 203.705 100.272 204.688 99.8366 205.536C99.401 206.378 98.7808 207.036 97.9759 207.51C97.1757 207.979 96.224 208.213 95.1207 208.213ZM95.1349 205.869C95.6368 205.869 96.0559 205.727 96.392 205.443C96.7282 205.154 96.9815 204.761 97.152 204.264C97.3272 203.767 97.4148 203.201 97.4148 202.567C97.4148 201.932 97.3272 201.366 97.152 200.869C96.9815 200.372 96.7282 199.979 96.392 199.69C96.0559 199.402 95.6368 199.257 95.1349 199.257C94.6283 199.257 94.2022 199.402 93.8565 199.69C93.5156 199.979 93.2576 200.372 93.0824 200.869C92.9119 201.366 92.8267 201.932 92.8267 202.567C92.8267 203.201 92.9119 203.767 93.0824 204.264C93.2576 204.761 93.5156 205.154 93.8565 205.443C94.2022 205.727 94.6283 205.869 95.1349 205.869ZM105.483 201.693V208H102.457V197.091H105.341V199.016H105.469C105.71 198.381 106.115 197.879 106.683 197.51C107.251 197.136 107.94 196.949 108.75 196.949C109.508 196.949 110.168 197.115 110.732 197.446C111.295 197.777 111.733 198.251 112.045 198.866C112.358 199.477 112.514 200.206 112.514 201.054V208H109.489V201.594C109.493 200.926 109.323 200.405 108.977 200.031C108.632 199.652 108.156 199.463 107.55 199.463C107.143 199.463 106.783 199.551 106.47 199.726C106.162 199.901 105.921 200.157 105.746 200.493C105.575 200.824 105.488 201.224 105.483 201.693ZM116.667 208.185C116.199 208.185 115.796 208.019 115.46 207.688C115.128 207.351 114.963 206.949 114.963 206.48C114.963 206.016 115.128 205.618 115.46 205.287C115.796 204.955 116.199 204.79 116.667 204.79C117.122 204.79 117.52 204.955 117.86 205.287C118.201 205.618 118.372 206.016 118.372 206.48C118.372 206.793 118.291 207.079 118.13 207.339C117.974 207.595 117.768 207.801 117.512 207.957C117.257 208.109 116.975 208.185 116.667 208.185ZM116.667 200.543C116.199 200.543 115.796 200.377 115.46 200.045C115.128 199.714 114.963 199.312 114.963 198.838C114.963 198.374 115.128 197.979 115.46 197.652C115.796 197.321 116.199 197.155 116.667 197.155C117.122 197.155 117.52 197.321 117.86 197.652C118.201 197.979 118.372 198.374 118.372 198.838C118.372 199.155 118.291 199.444 118.13 199.705C117.974 199.96 117.768 200.164 117.512 200.315C117.257 200.467 116.975 200.543 116.667 200.543ZM138.375 198.547H135.265C135.208 198.144 135.092 197.787 134.917 197.474C134.741 197.157 134.516 196.887 134.242 196.665C133.967 196.442 133.65 196.272 133.29 196.153C132.935 196.035 132.549 195.976 132.132 195.976C131.38 195.976 130.724 196.163 130.165 196.537C129.606 196.906 129.173 197.446 128.865 198.156C128.558 198.862 128.404 199.719 128.404 200.727C128.404 201.764 128.558 202.635 128.865 203.341C129.178 204.046 129.614 204.579 130.172 204.939C130.731 205.299 131.377 205.479 132.111 205.479C132.523 205.479 132.904 205.424 133.255 205.315C133.61 205.206 133.925 205.048 134.199 204.839C134.474 204.626 134.701 204.368 134.881 204.065C135.066 203.762 135.194 203.417 135.265 203.028L138.375 203.043C138.295 203.71 138.094 204.354 137.772 204.974C137.454 205.59 137.026 206.142 136.486 206.629C135.951 207.112 135.312 207.496 134.569 207.78C133.83 208.059 132.994 208.199 132.061 208.199C130.764 208.199 129.604 207.905 128.581 207.318C127.563 206.731 126.758 205.881 126.167 204.768C125.579 203.656 125.286 202.309 125.286 200.727C125.286 199.141 125.584 197.792 126.181 196.679C126.777 195.566 127.587 194.719 128.61 194.136C129.632 193.549 130.783 193.256 132.061 193.256C132.904 193.256 133.685 193.374 134.405 193.611C135.13 193.848 135.771 194.193 136.33 194.648C136.889 195.098 137.343 195.649 137.694 196.303C138.049 196.956 138.276 197.704 138.375 198.547ZM143.635 208.206C142.939 208.206 142.318 208.085 141.774 207.844C141.229 207.598 140.798 207.235 140.481 206.757C140.169 206.274 140.012 205.673 140.012 204.953C140.012 204.347 140.124 203.838 140.346 203.426C140.569 203.014 140.872 202.683 141.255 202.432C141.639 202.181 142.074 201.991 142.562 201.864C143.055 201.736 143.571 201.646 144.11 201.594C144.745 201.527 145.256 201.466 145.645 201.409C146.033 201.348 146.315 201.258 146.49 201.139C146.665 201.021 146.752 200.846 146.752 200.614V200.571C146.752 200.121 146.61 199.773 146.326 199.527C146.047 199.281 145.649 199.158 145.133 199.158C144.589 199.158 144.155 199.278 143.833 199.52C143.511 199.757 143.298 200.055 143.194 200.415L140.396 200.188C140.538 199.525 140.817 198.952 141.234 198.469C141.651 197.981 142.188 197.607 142.846 197.347C143.509 197.081 144.276 196.949 145.147 196.949C145.753 196.949 146.333 197.02 146.887 197.162C147.446 197.304 147.941 197.524 148.372 197.822C148.807 198.121 149.151 198.504 149.402 198.973C149.653 199.437 149.778 199.993 149.778 200.642V208H146.909V206.487H146.824C146.648 206.828 146.414 207.129 146.12 207.389C145.827 207.645 145.474 207.846 145.062 207.993C144.65 208.135 144.174 208.206 143.635 208.206ZM144.501 206.118C144.946 206.118 145.339 206.03 145.68 205.855C146.021 205.675 146.288 205.434 146.483 205.131C146.677 204.828 146.774 204.484 146.774 204.101V202.943C146.679 203.005 146.549 203.062 146.383 203.114C146.222 203.161 146.04 203.206 145.836 203.249C145.633 203.286 145.429 203.322 145.225 203.355C145.022 203.384 144.837 203.41 144.672 203.433C144.316 203.485 144.006 203.568 143.741 203.682C143.476 203.795 143.27 203.949 143.123 204.143C142.976 204.333 142.903 204.57 142.903 204.854C142.903 205.266 143.052 205.58 143.35 205.798C143.654 206.011 144.037 206.118 144.501 206.118ZM155.151 193.455V208H152.125V193.455H155.151ZM157.575 208V197.091H160.458V199.016H160.586C160.813 198.376 161.192 197.872 161.722 197.503C162.253 197.134 162.887 196.949 163.626 196.949C164.374 196.949 165.011 197.136 165.536 197.51C166.062 197.879 166.412 198.381 166.587 199.016H166.701C166.924 198.391 167.326 197.891 167.908 197.517C168.496 197.138 169.189 196.949 169.989 196.949C171.007 196.949 171.834 197.273 172.468 197.922C173.107 198.566 173.427 199.48 173.427 200.663V208H170.408V201.26C170.408 200.654 170.247 200.199 169.925 199.896C169.603 199.593 169.201 199.442 168.718 199.442C168.169 199.442 167.74 199.617 167.433 199.967C167.125 200.313 166.971 200.77 166.971 201.338V208H164.038V201.196C164.038 200.661 163.884 200.235 163.576 199.918C163.273 199.6 162.873 199.442 162.376 199.442C162.04 199.442 161.737 199.527 161.467 199.697C161.201 199.863 160.991 200.098 160.835 200.401C160.678 200.699 160.6 201.049 160.6 201.452V208H157.575ZM180.788 208.213C179.666 208.213 178.7 207.986 177.891 207.531C177.086 207.072 176.465 206.423 176.03 205.585C175.594 204.742 175.376 203.746 175.376 202.595C175.376 201.473 175.594 200.488 176.03 199.641C176.465 198.793 177.079 198.133 177.869 197.659C178.665 197.186 179.598 196.949 180.668 196.949C181.387 196.949 182.057 197.065 182.678 197.297C183.303 197.524 183.847 197.867 184.311 198.327C184.78 198.786 185.144 199.364 185.405 200.06C185.665 200.751 185.795 201.561 185.795 202.489V203.32H176.584V201.445H182.947C182.947 201.009 182.853 200.623 182.663 200.287C182.474 199.951 182.211 199.688 181.875 199.499C181.544 199.304 181.158 199.207 180.717 199.207C180.258 199.207 179.851 199.314 179.496 199.527C179.145 199.735 178.871 200.017 178.672 200.372C178.473 200.723 178.371 201.113 178.366 201.544V203.327C178.366 203.866 178.466 204.333 178.665 204.726C178.868 205.119 179.155 205.422 179.524 205.635C179.893 205.848 180.331 205.955 180.838 205.955C181.174 205.955 181.482 205.907 181.761 205.812C182.041 205.718 182.28 205.576 182.479 205.386C182.678 205.197 182.829 204.965 182.933 204.69L185.732 204.875C185.589 205.547 185.298 206.134 184.858 206.636C184.422 207.134 183.859 207.522 183.168 207.801C182.481 208.076 181.688 208.213 180.788 208.213ZM197.37 208.213C196.248 208.213 195.282 207.986 194.473 207.531C193.668 207.072 193.047 206.423 192.612 205.585C192.176 204.742 191.958 203.746 191.958 202.595C191.958 201.473 192.176 200.488 192.612 199.641C193.047 198.793 193.661 198.133 194.451 197.659C195.247 197.186 196.18 196.949 197.25 196.949C197.969 196.949 198.639 197.065 199.26 197.297C199.885 197.524 200.429 197.867 200.893 198.327C201.362 198.786 201.726 199.364 201.987 200.06C202.247 200.751 202.377 201.561 202.377 202.489V203.32H193.166V201.445H199.529C199.529 201.009 199.435 200.623 199.245 200.287C199.056 199.951 198.793 199.688 198.457 199.499C198.126 199.304 197.74 199.207 197.299 199.207C196.84 199.207 196.433 199.314 196.078 199.527C195.727 199.735 195.453 200.017 195.254 200.372C195.055 200.723 194.953 201.113 194.949 201.544V203.327C194.949 203.866 195.048 204.333 195.247 204.726C195.45 205.119 195.737 205.422 196.106 205.635C196.475 205.848 196.913 205.955 197.42 205.955C197.756 205.955 198.064 205.907 198.343 205.812C198.623 205.718 198.862 205.576 199.061 205.386C199.26 205.197 199.411 204.965 199.515 204.69L202.314 204.875C202.172 205.547 201.88 206.134 201.44 206.636C201.004 207.134 200.441 207.522 199.75 207.801C199.063 208.076 198.27 208.213 197.37 208.213ZM210.154 197.091V199.364H203.585V197.091H210.154ZM205.076 194.477H208.102V204.648C208.102 204.927 208.145 205.145 208.23 205.301C208.315 205.453 208.433 205.559 208.585 205.621C208.741 205.682 208.921 205.713 209.125 205.713C209.267 205.713 209.409 205.701 209.551 205.678C209.693 205.649 209.802 205.628 209.877 205.614L210.353 207.865C210.202 207.912 209.989 207.967 209.714 208.028C209.44 208.095 209.106 208.135 208.713 208.149C207.984 208.178 207.344 208.08 206.795 207.858C206.251 207.635 205.827 207.29 205.524 206.821C205.221 206.352 205.072 205.76 205.076 205.045V194.477ZM222.557 197.091V199.364H215.987V197.091H222.557ZM217.479 194.477H220.504V204.648C220.504 204.927 220.547 205.145 220.632 205.301C220.717 205.453 220.836 205.559 220.987 205.621C221.143 205.682 221.323 205.713 221.527 205.713C221.669 205.713 221.811 205.701 221.953 205.678C222.095 205.649 222.204 205.628 222.28 205.614L222.756 207.865C222.604 207.912 222.391 207.967 222.116 208.028C221.842 208.095 221.508 208.135 221.115 208.149C220.386 208.178 219.747 208.08 219.197 207.858C218.653 207.635 218.229 207.29 217.926 206.821C217.623 206.352 217.474 205.76 217.479 205.045V194.477ZM224.528 208V197.091H227.553V208H224.528ZM226.048 195.685C225.598 195.685 225.212 195.536 224.89 195.237C224.573 194.934 224.414 194.572 224.414 194.151C224.414 193.734 224.573 193.376 224.89 193.078C225.212 192.775 225.598 192.624 226.048 192.624C226.497 192.624 226.881 192.775 227.198 193.078C227.52 193.376 227.681 193.734 227.681 194.151C227.681 194.572 227.52 194.934 227.198 195.237C226.881 195.536 226.497 195.685 226.048 195.685ZM229.977 208V197.091H232.86V199.016H232.988C233.216 198.376 233.594 197.872 234.125 197.503C234.655 197.134 235.289 196.949 236.028 196.949C236.776 196.949 237.413 197.136 237.939 197.51C238.464 197.879 238.815 198.381 238.99 199.016H239.103C239.326 198.391 239.728 197.891 240.311 197.517C240.898 197.138 241.592 196.949 242.392 196.949C243.41 196.949 244.236 197.273 244.87 197.922C245.51 198.566 245.829 199.48 245.829 200.663V208H242.811V201.26C242.811 200.654 242.65 200.199 242.328 199.896C242.006 199.593 241.603 199.442 241.12 199.442C240.571 199.442 240.143 199.617 239.835 199.967C239.527 200.313 239.373 200.77 239.373 201.338V208H236.44V201.196C236.44 200.661 236.286 200.235 235.978 199.918C235.675 199.6 235.275 199.442 234.778 199.442C234.442 199.442 234.139 199.527 233.869 199.697C233.604 199.863 233.393 200.098 233.237 200.401C233.081 200.699 233.002 201.049 233.002 201.452V208H229.977ZM248.219 208V197.091H251.245V208H248.219ZM249.739 195.685C249.289 195.685 248.903 195.536 248.581 195.237C248.264 194.934 248.105 194.572 248.105 194.151C248.105 193.734 248.264 193.376 248.581 193.078C248.903 192.775 249.289 192.624 249.739 192.624C250.189 192.624 250.572 192.775 250.89 193.078C251.212 193.376 251.373 193.734 251.373 194.151C251.373 194.572 251.212 194.934 250.89 195.237C250.572 195.536 250.189 195.685 249.739 195.685ZM257.688 208.178C256.86 208.178 256.109 207.964 255.437 207.538C254.769 207.107 254.239 206.475 253.846 205.642C253.458 204.804 253.263 203.777 253.263 202.56C253.263 201.31 253.465 200.27 253.867 199.442C254.27 198.608 254.805 197.986 255.472 197.574C256.145 197.157 256.881 196.949 257.681 196.949C258.292 196.949 258.801 197.053 259.208 197.261C259.62 197.465 259.951 197.721 260.202 198.028C260.458 198.331 260.652 198.63 260.785 198.923H260.877V193.455H263.896V208H260.913V206.253H260.785C260.643 206.556 260.442 206.857 260.181 207.155C259.925 207.448 259.592 207.692 259.18 207.886C258.772 208.08 258.275 208.178 257.688 208.178ZM258.647 205.77C259.135 205.77 259.547 205.637 259.883 205.372C260.224 205.102 260.484 204.726 260.664 204.243C260.849 203.76 260.941 203.194 260.941 202.545C260.941 201.897 260.851 201.333 260.671 200.855C260.491 200.377 260.231 200.008 259.89 199.747C259.549 199.487 259.135 199.357 258.647 199.357C258.15 199.357 257.731 199.491 257.39 199.761C257.049 200.031 256.791 200.405 256.616 200.884C256.441 201.362 256.353 201.916 256.353 202.545C256.353 203.18 256.441 203.741 256.616 204.229C256.796 204.712 257.054 205.09 257.39 205.365C257.731 205.635 258.15 205.77 258.647 205.77ZM271.355 208.213C270.233 208.213 269.267 207.986 268.457 207.531C267.652 207.072 267.032 206.423 266.596 205.585C266.161 204.742 265.943 203.746 265.943 202.595C265.943 201.473 266.161 200.488 266.596 199.641C267.032 198.793 267.645 198.133 268.436 197.659C269.231 197.186 270.164 196.949 271.234 196.949C271.954 196.949 272.624 197.065 273.244 197.297C273.869 197.524 274.413 197.867 274.877 198.327C275.346 198.786 275.711 199.364 275.971 200.06C276.232 200.751 276.362 201.561 276.362 202.489V203.32H267.15V201.445H273.514C273.514 201.009 273.419 200.623 273.23 200.287C273.04 199.951 272.778 199.688 272.441 199.499C272.11 199.304 271.724 199.207 271.284 199.207C270.824 199.207 270.417 199.314 270.062 199.527C269.712 199.735 269.437 200.017 269.238 200.372C269.039 200.723 268.938 201.113 268.933 201.544V203.327C268.933 203.866 269.032 204.333 269.231 204.726C269.435 205.119 269.721 205.422 270.091 205.635C270.46 205.848 270.898 205.955 271.404 205.955C271.741 205.955 272.048 205.907 272.328 205.812C272.607 205.718 272.846 205.576 273.045 205.386C273.244 205.197 273.395 204.965 273.5 204.69L276.298 204.875C276.156 205.547 275.865 206.134 275.424 206.636C274.989 207.134 274.425 207.522 273.734 207.801C273.047 208.076 272.254 208.213 271.355 208.213Z" fill="white"/>
</svg>
