<svg width="185" height="211" viewBox="0 0 185 211" fill="none" xmlns="http://www.w3.org/2000/svg">
<path d="M136.763 160.301L43.5628 189.53C40.4014 190.517 37.0476 189.936 34.2372 187.915C31.4269 185.894 29.3895 182.599 28.5721 178.751L0.38592 45.449C-0.424384 41.5988 0.0524343 37.5144 1.71177 34.0918C3.37111 30.6693 6.07746 28.188 9.23708 27.1925L95.9445 0L118.138 12.0995L145.614 142.045C146.424 145.895 145.948 149.979 144.288 153.402C142.629 156.825 139.923 159.306 136.763 160.301V160.301Z" fill="#F2F2F2"/>
<path d="M10.582 31.7969C8.33056 32.5053 6.40213 34.271 5.21974 36.7065C4.03736 39.1421 3.6976 42.0486 4.275 44.7885L32.4786 177.995C33.061 180.733 34.5128 183.078 36.5153 184.517C38.5179 185.955 40.9076 186.368 43.1604 185.666L136.418 156.458C138.669 155.749 140.598 153.984 141.78 151.548C142.963 149.113 143.302 146.206 142.725 143.466L115.658 15.6257L96.1418 5L10.582 31.7969Z" fill="white"/>
<path d="M110.446 126.833L67.5869 139.922C67.3235 140.003 67.0494 140.021 66.7802 139.976C66.511 139.931 66.2519 139.823 66.0178 139.659C65.7837 139.495 65.579 139.278 65.4156 139.02C65.2522 138.762 65.1332 138.469 65.0654 138.157C64.9976 137.845 64.9823 137.519 65.0205 137.2C65.0586 136.881 65.1493 136.574 65.2876 136.296C65.4258 136.018 65.6088 135.776 65.8262 135.582C66.0435 135.388 66.2909 135.247 66.5542 135.167L109.413 122.078C109.676 121.997 109.951 121.979 110.22 122.024C110.489 122.069 110.748 122.177 110.982 122.341C111.216 122.505 111.421 122.722 111.584 122.98C111.748 123.238 111.867 123.531 111.935 123.843C112.002 124.155 112.018 124.481 111.98 124.8C111.941 125.119 111.851 125.426 111.712 125.704C111.574 125.982 111.391 126.224 111.174 126.418C110.957 126.612 110.709 126.753 110.446 126.833Z" fill="#CCCCCC"/>
<path d="M120.455 131.945L69.5742 147.921C69.0451 148.087 68.4834 147.99 68.0128 147.651C67.5423 147.312 67.2014 146.759 67.0651 146.114C66.9288 145.469 67.0084 144.784 67.2862 144.21C67.564 143.637 68.0174 143.221 68.5466 143.055L119.428 127.079C119.957 126.913 120.518 127.011 120.988 127.35C121.458 127.688 121.799 128.241 121.935 128.886C122.071 129.531 121.992 130.215 121.714 130.789C121.437 131.362 120.984 131.778 120.455 131.945V131.945Z" fill="#CCCCCC"/>
<path d="M50.5 156C54.6421 156 58 151.971 58 147C58 142.029 54.6421 138 50.5 138C46.3579 138 43 142.029 43 147C43 151.971 46.3579 156 50.5 156Z" fill="#E6E6E6"/>
<path d="M106.232 103.886L49.7686 121.755C48.1368 122.269 46.4058 121.967 44.9553 120.913C43.5049 119.86 42.4534 118.143 42.0316 116.138L30.1991 59.6256C29.781 57.6194 30.0272 55.4913 30.8838 53.7081C31.7404 51.9249 33.1373 50.6322 34.7682 50.1137L91.2314 32.2447C92.8632 31.7307 94.5942 32.0335 96.0447 33.0866C97.4951 34.1397 98.5466 35.8571 98.9684 37.8621L110.801 94.3744C111.219 96.3806 110.973 98.5087 110.116 100.292C109.26 102.075 107.863 103.368 106.232 103.886Z" fill="white"/>
<path d="M106.232 103.886L49.7686 121.755C48.1368 122.269 46.4058 121.967 44.9553 120.913C43.5049 119.86 42.4534 118.143 42.0316 116.138L30.1991 59.6256C29.781 57.6194 30.0272 55.4913 30.8838 53.7081C31.7404 51.9249 33.1373 50.6322 34.7682 50.1137L91.2314 32.2447C92.8632 31.7307 94.5942 32.0335 96.0447 33.0866C97.4951 34.1397 98.5466 35.8571 98.9684 37.8621L110.801 94.3744C111.219 96.3806 110.973 98.5087 110.116 100.292C109.26 102.075 107.863 103.368 106.232 103.886ZM34.9546 51.0036C33.5156 51.4612 32.283 52.6018 31.5272 54.1752C30.7713 55.7486 30.5541 57.6264 30.923 59.3965L42.7555 115.909C43.1277 117.678 44.0554 119.193 45.3353 120.122C46.6151 121.052 48.1424 121.319 49.5823 120.865L106.045 102.996C107.484 102.539 108.717 101.398 109.473 99.8248C110.229 98.2514 110.446 96.3736 110.077 94.6035L98.2445 38.0912C97.8723 36.3221 96.9446 34.8067 95.6647 33.8775C94.3849 32.9483 92.8576 32.6811 91.4178 33.1347L34.9546 51.0036Z" fill="#E6E6E6"/>
<path d="M88.2504 51.3673L59.3024 59.956C59.0493 60.0374 58.7789 60.0051 58.5457 59.8655C58.3125 59.7259 58.134 59.4894 58.0463 59.204C58.0055 59.0548 57.9914 58.8977 58.005 58.7421C58.0186 58.5865 58.0596 58.4357 58.1254 58.299C58.1913 58.1623 58.2806 58.0424 58.3879 57.9468C58.4953 57.8511 58.6184 57.7817 58.7498 57.7427L88.217 49C89.4073 49.6952 89.0941 51.117 88.25 51.3674L88.2504 51.3673Z" fill="#F2F2F2"/>
<path d="M89.2745 57.5826L61.2604 66.952C61.0155 67.0408 60.7537 67.0055 60.5281 66.8532C60.3024 66.7009 60.1297 66.443 60.0448 66.1316C60.0053 65.9689 59.9917 65.7975 60.0049 65.6277C60.018 65.458 60.0577 65.2935 60.1214 65.1444C60.1851 64.9952 60.2715 64.8644 60.3754 64.7601C60.4793 64.6558 60.5984 64.58 60.7256 64.5375L89.2423 55C90.3942 55.7584 90.0911 57.3095 89.2742 57.5827L89.2745 57.5826Z" fill="#F2F2F2"/>
<path d="M55.2037 72.2187L46.8599 74.9576C46.5874 75.0467 46.2983 74.9942 46.0561 74.8118C45.8139 74.6294 45.6383 74.3319 45.5679 73.9846L43.0333 61.4287C42.9634 61.0813 43.0045 60.7126 43.1476 60.4037C43.2906 60.0949 43.5239 59.871 43.7963 59.7812L52.1401 57.0423C52.4126 56.9534 52.7016 57.0059 52.9438 57.1883C53.186 57.3706 53.3616 57.6681 53.4321 58.0153L55.9667 70.5712C56.0366 70.9187 55.9955 71.2873 55.8524 71.5962C55.7094 71.9051 55.4761 72.129 55.2037 72.2187V72.2187Z" fill="#E6E6E6"/>
<path d="M92.2538 70.4408L48.2959 83.9546C48.0441 84.0386 47.775 84.0052 47.543 83.8613C47.3109 83.7174 47.1334 83.4736 47.0461 83.1793C47.0054 83.0256 46.9915 82.8635 47.005 82.7031C47.0185 82.5427 47.0593 82.3873 47.1248 82.2463C47.1903 82.1053 47.2792 81.9818 47.386 81.8832C47.4928 81.7846 47.6153 81.713 47.746 81.6728L92.2209 68C93.4053 68.7167 93.0936 70.1826 92.2538 70.4408L92.2538 70.4408Z" fill="#F2F2F2"/>
<path d="M93.2538 76.4408L49.2959 89.9546C49.0441 90.0386 48.775 90.0052 48.543 89.8613C48.311 89.7174 48.1334 89.4736 48.0461 89.1793C48.0054 89.0256 47.9915 88.8635 48.005 88.7031C48.0185 88.5427 48.0593 88.3873 48.1248 88.2463C48.1903 88.1053 48.2792 87.9818 48.386 87.8832C48.4928 87.7846 48.6153 87.713 48.746 87.6728L93.2209 74C94.4053 74.7167 94.0936 76.1826 93.2538 76.4408V76.4408Z" fill="#F2F2F2"/>
<path d="M94.27 82.4408L51.2677 95.9546C51.0214 96.0386 50.7581 96.0052 50.5312 95.8613C50.3042 95.7174 50.1305 95.4736 50.0451 95.1793C50.0053 95.0256 49.9917 94.8635 50.0049 94.7031C50.0181 94.5427 50.058 94.3873 50.1221 94.2463C50.1862 94.1053 50.2731 93.9818 50.3776 93.8832C50.4821 93.7846 50.6019 93.713 50.7298 93.6728L94.2379 80C95.3965 80.7167 95.0916 82.1826 94.27 82.4408V82.4408Z" fill="#F2F2F2"/>
<path d="M95.27 88.4408L52.2677 101.955C52.0214 102.039 51.7581 102.005 51.5312 101.861C51.3042 101.717 51.1305 101.474 51.0451 101.179C51.0053 101.026 50.9917 100.864 51.0049 100.703C51.0181 100.543 51.058 100.387 51.1221 100.246C51.1862 100.105 51.2731 99.9818 51.3776 99.8832C51.4821 99.7846 51.6019 99.713 51.7298 99.6728L95.2379 86C96.3965 86.7167 96.0916 88.1826 95.27 88.4408L95.27 88.4408Z" fill="#F2F2F2"/>
<path d="M97.2538 94.4408L53.2959 107.955C53.0441 108.039 52.775 108.005 52.543 107.861C52.311 107.717 52.1333 107.474 52.0461 107.179C52.0054 107.026 51.9915 106.864 52.005 106.703C52.0185 106.543 52.0593 106.387 52.1248 106.246C52.1903 106.105 52.2791 105.982 52.386 105.883C52.4928 105.785 52.6153 105.713 52.746 105.673L97.2209 92C98.4053 92.7167 98.0936 94.1826 97.2538 94.4408V94.4408Z" fill="#F2F2F2"/>
<path d="M51.2079 149.973C51.0346 150.019 50.8513 150.006 50.6858 149.935L50.6756 149.931L48.5072 148.978C48.4066 148.934 48.3153 148.87 48.2387 148.789C48.1621 148.709 48.1015 148.613 48.0606 148.508C48.0196 148.403 47.9991 148.291 48 148.177C48.001 148.064 48.0235 147.952 48.0663 147.848C48.109 147.744 48.1712 147.649 48.2492 147.57C48.3272 147.491 48.4196 147.428 48.521 147.386C48.6223 147.344 48.7308 147.323 48.84 147.324C48.9493 147.325 49.0573 147.348 49.1578 147.393L50.5628 148.012L52.404 143.524C52.4467 143.42 52.5087 143.326 52.5866 143.247C52.6645 143.167 52.7566 143.105 52.8578 143.062C52.959 143.02 53.0673 142.999 53.1764 143C53.2855 143.001 53.3934 143.024 53.4938 143.069L53.4941 143.069L53.483 143.098L53.4945 143.069C53.6972 143.158 53.8573 143.328 53.9397 143.539C54.0221 143.751 54.02 143.988 53.9339 144.198L51.7678 149.475C51.7176 149.597 51.641 149.705 51.544 149.791C51.447 149.877 51.3321 149.939 51.2084 149.971L51.2079 149.973Z" fill="white"/>
<path d="M172.676 211H76.3241C73.0566 210.996 69.9241 209.411 67.6137 206.594C65.3033 203.778 64.0037 199.959 64 195.976V58.0244C64.0037 54.0411 65.3033 50.2222 67.6137 47.4055C69.9241 44.5889 73.0566 43.0045 76.3241 43H165.964L185 61.4977V195.976C184.996 199.959 183.697 203.778 181.386 206.594C179.076 209.411 175.943 210.996 172.676 211V211Z" fill="#E6E6E6"/>
<path d="M76.7066 48C74.3982 48.0032 72.1852 49.129 70.553 51.1304C68.9207 53.1318 68.0026 55.8453 68 58.6757V196.324C68.0026 199.155 68.9207 201.868 70.553 203.87C72.1852 205.871 74.3982 206.997 76.7066 207H172.293C174.602 206.997 176.815 205.871 178.447 203.87C180.079 201.868 180.997 199.155 181 196.324V64.2205L164.403 48H76.7066Z" fill="white"/>
<path d="M153.947 88H110.053C109.509 88 108.987 87.7366 108.601 87.2678C108.216 86.7989 108 86.163 108 85.5C108 84.837 108.216 84.2011 108.601 83.7322C108.987 83.2634 109.509 83 110.053 83H153.947C154.491 83 155.013 83.2634 155.399 83.7322C155.784 84.2011 156 84.837 156 85.5C156 86.163 155.784 86.7989 155.399 87.2678C155.013 87.7366 154.491 88 153.947 88V88Z" fill="#6C63FF"/>
<path d="M161.961 96H110.034C109.494 95.9991 108.977 95.7353 108.595 95.2666C108.214 94.7978 108 94.1625 108 93.5C108 92.8375 108.214 92.2022 108.595 91.7334C108.977 91.2647 109.494 91.0009 110.034 91H161.961C162.229 90.9996 162.494 91.0639 162.741 91.1893C162.988 91.3148 163.213 91.4988 163.403 91.731C163.592 91.9632 163.742 92.239 163.845 92.5425C163.947 92.846 164 93.1714 164 93.5C164 93.8286 163.947 94.1539 163.845 94.4575C163.742 94.761 163.592 95.0368 163.403 95.269C163.213 95.5012 162.988 95.6852 162.741 95.8107C162.494 95.9361 162.229 96.0004 161.961 96V96Z" fill="#6C63FF"/>
<path d="M153.947 121H110.053C109.509 121 108.987 121.263 108.601 121.732C108.216 122.201 108 122.837 108 123.5C108 124.163 108.216 124.799 108.601 125.268C108.987 125.737 109.509 126 110.053 126H153.947C154.491 126 155.013 125.737 155.399 125.268C155.784 124.799 156 124.163 156 123.5C156 122.837 155.784 122.201 155.399 121.732C155.013 121.263 154.491 121 153.947 121V121Z" fill="#CCCCCC"/>
<path d="M161.964 129H110.036C109.496 129 108.978 129.263 108.596 129.732C108.215 130.201 108 130.837 108 131.5C108 132.163 108.215 132.799 108.596 133.268C108.978 133.737 109.496 134 110.036 134H161.964C162.504 134 163.022 133.737 163.404 133.268C163.785 132.799 164 132.163 164 131.5C164 130.837 163.785 130.201 163.404 129.732C163.022 129.263 162.504 129 161.964 129Z" fill="#CCCCCC"/>
<path d="M153.947 163H110.053C109.509 163 108.987 162.737 108.601 162.268C108.216 161.799 108 161.163 108 160.5C108 159.837 108.216 159.201 108.601 158.732C108.987 158.263 109.509 158 110.053 158H153.947C154.491 158 155.013 158.263 155.399 158.732C155.784 159.201 156 159.837 156 160.5C156 161.163 155.784 161.799 155.399 162.268C155.013 162.737 154.491 163 153.947 163V163Z" fill="#CCCCCC"/>
<path d="M161.961 172H110.034C109.494 171.999 108.977 171.735 108.595 171.267C108.214 170.798 108 170.162 108 169.5C108 168.838 108.214 168.202 108.595 167.733C108.977 167.265 109.494 167.001 110.034 167H161.961C162.229 167 162.494 167.064 162.741 167.189C162.988 167.315 163.213 167.499 163.403 167.731C163.592 167.963 163.742 168.239 163.845 168.543C163.947 168.846 164 169.171 164 169.5C164 169.829 163.947 170.154 163.845 170.457C163.742 170.761 163.592 171.037 163.403 171.269C163.213 171.501 162.988 171.685 162.741 171.811C162.494 171.936 162.229 172 161.961 172Z" fill="#CCCCCC"/>
<path d="M92 98C95.866 98 99 94.1944 99 89.5C99 84.8056 95.866 81 92 81C88.134 81 85 84.8056 85 89.5C85 94.1944 88.134 98 92 98Z" fill="#6C63FF"/>
<path d="M91.3492 93C91.1935 93.0003 91.042 92.9334 90.9175 92.8091L90.9098 92.8014L89.2841 91.1468C89.2086 91.0701 89.1452 90.9743 89.0975 90.865C89.0499 90.7557 89.0189 90.6349 89.0063 90.5096C88.9938 90.3843 88.9999 90.2569 89.0244 90.1348C89.0489 90.0127 89.0913 89.8981 89.1491 89.7978C89.2069 89.6975 89.279 89.6134 89.3613 89.5502C89.4436 89.487 89.5344 89.446 89.6286 89.4296C89.7228 89.4132 89.8185 89.4216 89.9103 89.4545C90.002 89.4873 90.088 89.544 90.1632 89.6211L91.2162 90.6955L93.7045 86.3762C93.7622 86.2761 93.8341 86.1921 93.9162 86.1289C93.9983 86.0658 94.089 86.0248 94.183 86.0083C94.277 85.9918 94.3726 86 94.4642 86.0326C94.5558 86.0652 94.6417 86.1215 94.7169 86.1983L94.7172 86.1985L94.7017 86.227L94.7176 86.1985C94.8694 86.3538 94.9687 86.5828 94.9938 86.8355C95.0188 87.0881 94.9675 87.3436 94.8511 87.5459L91.9244 92.624C91.8567 92.741 91.7697 92.8357 91.67 92.9007C91.5703 92.9657 91.4608 92.9993 91.3498 92.9989L91.3492 93Z" fill="white"/>
<path d="M100 127.499C100 128.615 99.8067 129.721 99.43 130.752C99.0533 131.783 98.501 132.72 97.8046 133.509C97.1082 134.299 96.2814 134.925 95.3714 135.352C94.4613 135.779 93.4859 135.999 92.5008 136C92.4363 136.001 92.3719 135.998 92.3077 135.991C90.8329 135.948 89.4021 135.413 88.1942 134.454C86.9863 133.494 86.055 132.152 85.5168 130.596C84.9787 129.04 84.8576 127.339 85.1687 125.705C85.4798 124.071 86.2093 122.578 87.2659 121.411C88.3225 120.245 89.6593 119.457 91.1089 119.147C92.5586 118.837 94.0568 119.019 95.416 119.669C96.7752 120.318 97.935 121.408 98.7504 122.801C99.5658 124.194 100 125.828 100 127.499V127.499Z" fill="#CCCCCC"/>
<path d="M92 174C95.866 174 99 169.971 99 165C99 160.029 95.866 156 92 156C88.134 156 85 160.029 85 165C85 169.971 88.134 174 92 174Z" fill="#CCCCCC"/>
<path d="M184.747 63H170.046C168.973 63 167.944 62.4656 167.185 61.5143C166.426 60.5631 166 59.2729 166 57.9276V44.317C166 44.2574 166.013 44.1991 166.039 44.1486C166.064 44.0981 166.1 44.0576 166.143 44.0316C166.186 44.0057 166.233 43.9954 166.281 44.0019C166.328 44.0084 166.373 44.0315 166.41 44.0685L184.904 62.4345C184.945 62.4753 184.975 62.5313 184.99 62.5945C185.005 62.6577 185.003 62.725 184.986 62.7872C184.969 62.8494 184.936 62.9032 184.894 62.9414C184.851 62.9795 184.8 63 184.747 63Z" fill="#CCCCCC"/>
<path d="M100 127.438C100 128.562 99.8036 129.675 99.4209 130.714C99.0382 131.753 98.4771 132.696 97.7695 133.491C97.062 134.286 96.222 134.917 95.2974 135.348C94.3729 135.778 93.3818 135.999 92.381 136C92.3155 136.001 92.25 135.998 92.1849 135.991C91.2004 133.233 90.8209 130.25 91.0783 127.293C91.3357 124.336 92.2225 121.491 93.6639 119C95.4365 119.341 97.0446 120.375 98.2041 121.919C99.3635 123.464 99.9996 125.418 100 127.438V127.438Z" fill="#6C63FF"/>
<path d="M108 123.502C108.001 122.839 108.213 122.203 108.589 121.734C108.965 121.265 109.474 121.001 110.006 121H120.683C121.307 122.582 121.75 124.265 122 126H110.006C109.475 126 108.965 125.737 108.589 125.269C108.213 124.8 108.001 124.165 108 123.502V123.502Z" fill="#6C63FF"/>
<path d="M123 129C123.001 130.689 122.812 132.37 122.439 134H110.11C109.551 134 109.014 133.737 108.618 133.268C108.222 132.799 108 132.163 108 131.5C108 130.837 108.222 130.201 108.618 129.732C109.014 129.263 109.551 129 110.11 129H123Z" fill="#6C63FF"/>
</svg>
