<svg width="203" height="219" viewBox="0 0 203 219" fill="none" xmlns="http://www.w3.org/2000/svg">
<path opacity="0.1" d="M101.5 219C157.557 219 203 215.866 203 212C203 208.134 157.557 205 101.5 205C45.4431 205 0 208.134 0 212C0 215.866 45.4431 219 101.5 219Z" fill="#6C63FF"/>
<path d="M120 44.1772C120 44.1772 105.262 63.431 105.887 58.0512C106.277 54.6724 104.261 50.546 102.693 47.9373C101.767 46.3857 101 45.3701 101 45.3701C101 45.3701 109.993 27.8341 110.493 30.2238C110.653 30.9789 111.692 32.7117 113.03 34.6899C115.852 38.8352 120 44.1772 120 44.1772Z" fill="#FFC1C8"/>
<path opacity="0.3" d="M145 203.139V205C145 205 131.894 200.023 124.678 194.781C121.703 192.618 120.855 190.608 121.019 189C125.003 191.196 132.414 195.384 134.658 197.272C136.565 198.872 141.491 201.408 145 203.139Z" fill="white"/>
<path d="M142.5 210C144.433 210 146 208.209 146 206C146 203.791 144.433 202 142.5 202C140.567 202 139 203.791 139 206C139 208.209 140.567 210 142.5 210Z" fill="#474463"/>
<path d="M101.5 204C103.433 204 105 202.209 105 200C105 197.791 103.433 196 101.5 196C99.567 196 98 197.791 98 200C98 202.209 99.567 204 101.5 204Z" fill="#474463"/>
<path d="M160.993 201.213C160.971 201.529 160.891 201.836 160.758 202.116L158.369 205L124.979 204.407L116 204.244C116 204.244 97.101 200.435 93.4188 198.658C89.7365 196.882 75.2599 193.632 75.2599 193.632C75.2599 193.632 66.5166 192.007 65.2335 187.309C64.8001 185.718 65.0185 184.581 65.4928 183.772C66.4245 182.189 68.3561 181.856 68.3561 181.856C72.3016 180.565 76.5199 180.738 80.3687 182.347L136.337 198.292L137.203 198.538C137.203 198.538 157.154 198.126 157.557 198.205C160.618 198.825 161.065 200.265 160.993 201.213Z" fill="#6C63FF"/>
<path opacity="0.3" d="M160.993 201.75C157.635 201.258 151.779 200.531 150.271 201.231C150.271 201.231 139.62 199.746 124.966 205L116 204.835C116 204.835 97.101 200.958 93.4188 199.15C89.7365 197.342 75.2599 194.035 75.2599 194.035C75.2599 194.035 66.5166 192.381 65.2335 187.6C64.8001 185.981 65.0185 184.823 65.4928 184C66.0901 185.962 67.2401 188.804 69.0761 189.6C71.9599 190.85 83.8121 193.396 83.8121 193.396L107.271 199.869C107.271 199.869 120.816 203.181 126.088 201.023C128.249 200.146 132.303 199.365 136.326 198.754L137.193 199.004C137.193 199.004 157.144 198.585 157.546 198.665C160.618 199.319 161.065 200.785 160.993 201.75Z" fill="white"/>
<path d="M128.967 197.149C128.938 197.728 128.874 198.305 128.775 198.874C128.775 198.874 115.158 199.42 108.07 198.241C106.113 197.915 105.006 197.212 104.456 196.372C104.211 195.975 104.058 195.514 104.014 195.034C103.969 194.553 104.033 194.068 104.2 193.622C104.279 193.366 104.378 193.119 104.498 192.884C105.027 191.847 105.839 191.112 106.284 191.211C107.517 191.489 109.632 188.654 109.632 188.654C109.464 186.922 111.891 186.297 112.269 186.58C112.337 186.638 112.416 186.676 112.501 186.689C112.585 186.703 112.671 186.691 112.75 186.657C112.83 186.622 112.9 186.565 112.953 186.491C113.007 186.417 113.043 186.328 113.057 186.234C113.082 186.105 113.089 185.48 113.089 184.749C113.089 183.532 113.057 182 113.057 182L126.743 183.866L127.286 186.8C127.784 189.416 128.477 193.01 128.775 194.239C128.982 195.191 129.047 196.174 128.967 197.149Z" fill="#474463"/>
<path opacity="0.1" d="M129 196.96C128.97 197.599 128.905 198.234 128.804 198.861C128.804 198.861 114.916 199.463 107.686 198.164C105.69 197.805 104.561 197.03 104 196.103C105.854 195.969 108.265 195.896 109.758 196.337C111.887 196.978 124.621 196.978 129 196.96Z" fill="black"/>
<path d="M103.995 192.707C104.01 192.841 103.991 192.976 103.941 193.099C103.891 193.222 103.812 193.327 103.712 193.404C102.071 194.813 94.1971 193.282 94.1971 193.282C94.1971 193.282 78.109 192.169 75.7045 190.345C75.4874 190.186 75.306 189.974 75.1742 189.725C74.1737 187.716 77.7955 184.341 78.109 184.341C78.4225 184.341 82.748 183.685 83.0382 183.622C85.0392 183.173 87.0402 181.794 87.3737 182.187C87.7072 182.58 89.3747 181.664 90.1884 181.534C90.4853 181.486 90.622 181.019 90.672 180.421C90.7189 179.614 90.6944 178.803 90.5987 178L103.448 181.845L103.562 184.122L103.932 191.702L103.979 192.633C103.987 192.657 103.992 192.681 103.995 192.707Z" fill="#474463"/>
<path opacity="0.1" d="M94.1435 193.326C94.1435 193.326 77.9534 192.285 75.5336 190.579C75.3152 190.431 75.1327 190.233 75 190C78.279 190.277 83.7461 190.746 84.7328 191.006C86.1525 191.353 94.1301 191.859 94.1301 191.859H103.94L103.987 192.729C104.413 195.185 94.1435 193.326 94.1435 193.326Z" fill="black"/>
<path d="M81.5 204C83.433 204 85 202.209 85 200C85 197.791 83.433 196 81.5 196C79.567 196 78 197.791 78 200C78 202.209 79.567 204 81.5 204Z" fill="#474463"/>
<path d="M125 213C127.209 213 129 211.209 129 209C129 206.791 127.209 205 125 205C122.791 205 121 206.791 121 209C121 211.209 122.791 213 125 213Z" fill="#474463"/>
<path d="M98.9727 60C98.9727 60 88.9863 60.9002 87.0615 61.5442C85.1368 62.1882 76.8359 61.8003 76.1214 61.5442C75.4068 61.2881 61.1983 64.7643 67.6974 68.2406C74.1966 71.7169 78.2957 68.2406 78.2957 68.2406C78.2957 68.2406 86.7197 67.7247 88.894 69.1445C91.0684 70.5642 99 69.7885 99 69.7885L98.9727 60Z" fill="#FFC1C8"/>
<path opacity="0.1" d="M106 7C106 7 114 0.740233 114 0.0447032C114 -0.650826 106 7 106 7Z" fill="black"/>
<path opacity="0.1" d="M145 111C145 111 153.757 112.423 153.995 112.93C154.234 113.438 145 111 145 111Z" fill="black"/>
<path opacity="0.1" d="M148 117C148 117 152.873 120.768 152.998 121.865C153.122 122.962 148 117 148 117Z" fill="black"/>
<path opacity="0.1" d="M147 125C147 125 147.984 128.448 149.624 128.959C151.265 129.471 147 125 147 125Z" fill="black"/>
<path opacity="0.1" d="M112 34.6912C111.912 35.2594 111.244 35.3238 111.108 35.877C109.81 41.2225 106.954 46.03 102.548 48C101.701 46.4429 101 45.4238 101 45.4238C101 45.4238 109.222 27.8265 109.68 30.2246C109.826 30.9709 110.777 32.706 112 34.6912Z" fill="black"/>
<path d="M112 30.9962C112.001 34.5564 111.092 38.0369 109.389 40.9975C107.687 43.9581 105.266 46.2658 102.434 47.6287C99.6017 48.9917 96.485 49.3487 93.4781 48.6546C90.4712 47.9605 87.7091 46.2465 85.541 43.7293C83.373 41.2121 81.8964 38.0049 81.2981 34.5131C80.6997 31.0213 81.0065 27.402 82.1796 24.1127C83.3526 20.8234 85.3393 18.012 87.8883 16.0339C90.4373 14.0559 93.4342 13.0001 96.5 13.0001C98.5373 12.9914 100.556 13.4509 102.44 14.3522C104.323 15.2534 106.035 16.5786 107.476 18.2514C108.916 19.9242 110.058 21.9115 110.834 24.0988C111.611 26.2861 112.007 28.6303 112 30.9962Z" fill="#FFC1C8"/>
<path opacity="0.1" d="M103.886 181.546L104 183.645C102.639 183.953 100.05 184.356 98.5418 183.412C96.592 182.192 93.7124 181.894 91.0736 180.233C91.1206 179.488 91.096 178.74 91 178L103.886 181.546Z" fill="black"/>
<path opacity="0.1" d="M127 187.084C126.907 187.652 126.821 188 126.821 188C126.821 188 116.116 186.681 113.031 184.903C113.031 183.617 113 182 113 182L126.473 183.97L127 187.084Z" fill="black"/>
<path d="M124.602 134.444C123.891 136.573 123.534 136.974 124.248 138.036C124.962 139.099 124.602 144.691 123.47 145.221C122.338 145.75 118.079 148.945 118.079 148.945C118.079 148.945 120.437 152.405 120.508 153.861C120.57 154.791 120.891 155.676 121.425 156.391C121.425 156.391 125.077 165.175 125.804 167.969C126.532 170.763 127.199 175.153 127.199 175.153C127.199 175.153 125.922 179.146 126.805 181.411C127.688 183.676 126.805 187 126.805 187C126.805 187 114.067 185.537 112.655 183.657C111.243 181.778 112.183 177.551 112.183 177.551C111.892 175.667 111.289 173.861 110.405 172.227C108.98 169.697 110.742 167.039 110.405 166.903C110.068 166.766 108.98 165.307 107.908 162.913C106.837 160.52 106.17 161.446 106.17 161.446C106.17 161.446 107.558 174.889 106.17 176.087C104.782 177.286 104.593 176.753 104.95 178.356C105.227 179.895 105.425 181.45 105.543 183.015C105.543 183.015 101.275 184.478 99.1421 183.015C97.0095 181.551 93.7989 181.283 90.979 179.022C88.1592 176.76 92.2559 172.9 92.9667 172.367C93.6776 171.833 92.7309 164.116 92.7309 164.116L91.7808 156.531C91.7808 156.531 94.9814 157.328 93.9302 154.402C92.8791 151.475 91.6629 141.36 91.07 139.765C90.477 138.169 93.0914 136.036 92.7309 134.974C92.3704 133.911 94.2705 127.789 94.2705 127.789C94.2705 127.789 94.3918 122.734 95.5743 121.785C96.0258 121.429 96.3189 120.325 96.5143 119.104C96.7216 117.662 96.8443 116.207 96.8815 114.748C96.8815 114.748 124.032 112.619 128.419 115.546C130.393 116.861 130.255 119.285 129.429 121.739C128.419 124.734 126.343 127.789 125.821 128.897C124.841 130.939 125.312 132.315 124.602 134.444Z" fill="#575988"/>
<path opacity="0.1" d="M129.412 121.461C125.991 122.485 121.435 123.991 120.692 124.855C119.488 126.269 115.393 116.901 115.393 116.901C115.393 116.901 115.636 123.943 110.217 120.998C105.527 118.446 97.9568 118.782 96 118.92C96.2105 117.531 96.3351 116.128 96.3729 114.721C96.3729 114.721 123.942 112.669 128.396 115.49C130.401 116.758 130.261 119.095 129.412 121.461Z" fill="black"/>
<path d="M115.113 42.2173C115.113 42.2173 117.542 39.0902 118.045 40.2633C118.548 41.4364 121.415 43.779 121.415 43.779C121.415 43.779 122.237 46.5139 123.684 46.9062C125.131 47.2984 136 62.9267 136 62.9267L132.089 71.3903L128.914 91.9702C128.914 91.9702 129.053 95.2269 128.189 96.4111C127.324 97.5954 124.024 97.3215 125.555 98.7537C127.085 100.186 129.282 101.489 130.503 108.006C131.725 114.523 133.189 118.294 133.189 118.294C133.189 118.294 121.71 121.421 120.488 122.853C119.267 124.285 115.113 114.778 115.113 114.778C115.113 114.778 115.359 121.924 109.862 118.938C104.366 115.951 94.9613 116.862 94.9613 116.862V109.164C94.9613 109.164 96.7935 106.166 95.8184 104.083C94.8433 101.999 96.4847 98.0913 96.4847 98.0913C96.4847 98.0913 95.9399 94.0538 94.9613 91.7112C93.9827 89.3686 94.3505 78.296 94.3505 78.296C94.3505 78.296 93.6079 71.1313 94.2846 67.4824C94.8588 64.3196 95.8729 61.2661 97.2932 58.4229C98.6362 55.6325 99.4864 53.0272 99.122 51.9836C98.7577 50.94 102.346 48.6825 102.346 48.6825L104.334 52.1131L104.841 54.1633C104.841 54.1633 115.359 46.1253 115.113 42.2173Z" fill="#DCE6F2"/>
<path d="M132.14 60C132.14 60 138.75 67.0781 139.458 68.2377C140.166 69.3972 142.537 75.4255 139.468 77.2545C136.399 79.0834 124.376 81.9037 123.182 80.9307C121.988 79.9577 114.798 82.0281 114.798 82.0281C114.798 82.0281 102.771 85.2471 105.367 79.9687C107.963 74.6903 114.104 75.5791 114.104 75.5791C114.104 75.5791 124.024 75.5609 125.084 74.4818C126.144 73.4027 134.139 71.0872 132.328 66.3173C130.517 61.5473 132.14 60 132.14 60Z" fill="#FFC1C8"/>
<path opacity="0.1" d="M112 93C112 93 97.6737 107 99.0998 107C100.526 107 112 93 112 93Z" fill="black"/>
<path opacity="0.1" d="M123 99C123 99 118.19 100.171 119.119 100.878C120.049 101.585 123 99 123 99Z" fill="black"/>
<path opacity="0.1" d="M106 63C106 63 111.92 63.5574 110.877 65.5066C109.833 67.4559 106 63 106 63Z" fill="black"/>
<path opacity="0.1" d="M101.358 127C101.358 127 100.552 129.706 101.358 131.157C102.165 132.608 101.358 136.07 101.358 136.07V148.164C101.358 148.164 101.247 156.943 104 160L101.358 127Z" fill="black"/>
<path opacity="0.1" d="M93 164C93 164 95.5961 166.823 95.9707 167.857C96.3454 168.89 93 164 93 164Z" fill="black"/>
<path opacity="0.1" d="M94 158.965C94 158.965 98.2866 157.356 98.9461 158.294C99.6055 159.232 94 158.965 94 158.965Z" fill="black"/>
<path opacity="0.1" d="M92.3137 175C92.3137 175 91.0606 175.127 93.5631 176.453C96.0657 177.78 100.936 179.458 101 178.884C101.063 178.31 92.3137 175 92.3137 175Z" fill="black"/>
<path opacity="0.1" d="M110 162.072C110.391 162.072 115.27 161.693 114.988 162.678C114.707 163.664 110 162.072 110 162.072Z" fill="black"/>
<path opacity="0.1" d="M116 154C116 154 117.409 152.531 117.928 153.154C118.447 153.777 116 154 116 154Z" fill="black"/>
<path opacity="0.1" d="M111.997 30.8702C111.998 32.5292 111.799 34.1804 111.403 35.7757C110.756 36.4518 109.638 36.4594 108.841 35.9562C107.906 35.3646 107.296 34.289 106.689 33.2672C106.082 32.2454 105.391 31.2236 104.397 30.7857C103.139 30.2402 101.704 30.7857 100.61 31.6922C99.5159 32.5988 98.6418 33.7973 97.6076 34.7654C96.5734 35.7334 95.2556 36.5171 93.9378 36.2789C93.0871 36.1291 92.3331 35.5759 91.6025 35.0419C90.6016 34.3159 89.5273 33.1865 88.4297 32.6987C87.3321 32.2108 86.428 33.0828 85.3838 33.0828C84.5531 33.4286 83.649 34.216 83.8158 35.211C83.9051 35.5801 84.0496 35.9285 84.2428 36.2405C84.5781 37.001 84.7104 37.8587 84.6231 38.7057C84.5359 39.5526 84.2329 40.3509 83.7524 41C82.3695 38.698 81.4763 36.0538 81.1448 33.281C80.8133 30.5081 81.0529 27.6844 81.8441 25.0378C82.6354 22.3913 83.9562 19.9961 85.6998 18.0458C87.4434 16.0955 89.561 14.6447 91.8814 13.8107C94.2019 12.9767 96.6602 12.7828 99.0577 13.2447C101.455 13.7065 103.725 14.8112 105.683 16.4695C107.641 18.1278 109.234 20.2932 110.331 22.7908C111.428 25.2884 112 28.0481 112 30.8471L111.997 30.8702Z" fill="black"/>
<path d="M85.55 33.0395C84.7047 33.3779 83.7847 34.1487 83.9511 35.1263C84.0454 35.4857 84.1934 35.825 84.389 36.1302C85.3802 38.0892 84.5418 40.9017 82.6916 41.8116C82.4017 41.9789 82.0704 42.037 81.7479 41.977C81.4922 41.8891 81.2594 41.7343 81.069 41.5258C80.0739 40.5408 79.3879 39.2304 79.1102 37.7846C78.8183 36.2806 78.9982 34.6864 78.8488 33.141C78.6995 31.5957 78.2208 30.0729 78.0545 28.5162C77.9367 27.7468 78.0107 26.9565 78.2684 26.2302C78.4922 25.7509 78.7807 25.3123 79.1238 24.9292C80.0777 23.7523 81.0724 22.5491 81.551 21.0564C82.308 18.6801 81.7581 15.6533 83.4147 13.9124C84.1819 13.1153 85.2547 12.8183 86.2052 12.3144C87.1001 11.7881 87.957 11.186 88.7682 10.5134C91.8404 8.17466 95.5746 6.37737 99.2273 7.20457C100.687 7.59594 102.084 8.22979 103.372 9.08457C105.765 10.5454 108.037 12.2363 110.162 14.138C111.081 14.8908 111.883 15.8038 112.538 16.8414C113.026 17.7298 113.377 18.7019 113.577 19.7178C114.064 21.9344 114.132 24.239 113.774 26.4858C113.434 28.6892 112.664 30.8286 112.633 33.0658C112.633 33.8178 112.687 34.63 112.338 35.2767C111.777 36.3069 110.389 36.4047 109.439 35.8332C108.488 35.2617 107.867 34.2013 107.252 33.2012C106.638 32.201 105.932 31.2009 104.92 30.776C103.64 30.2383 102.181 30.776 101.067 31.6596C99.9537 32.5432 99.0677 33.7201 98.012 34.6676C96.9562 35.6151 95.6357 36.3821 94.2778 36.149C93.4121 36.0024 92.6449 35.4647 91.9015 34.9421C90.8831 34.2277 89.79 33.1222 88.6765 32.6485C87.563 32.1747 86.6091 33.0395 85.55 33.0395Z" fill="#794F6A"/>
<g opacity="0.1">
<path opacity="0.1" d="M82.7651 40.556C82.4754 40.7234 82.1441 40.7816 81.8218 40.7216C81.5642 40.6345 81.3302 40.478 81.1408 40.2663C80.1426 39.2816 79.4533 37.9719 79.1725 36.5262C78.8831 35.0023 79.0636 33.422 78.9137 31.8755C78.7639 30.3291 78.2804 28.809 78.1169 27.2474C78.1169 27.1722 78.1169 27.0932 78.0999 27.0142C78.063 27.445 78.0687 27.879 78.1169 28.3085C78.2804 29.8663 78.7639 31.3713 78.9137 32.9366C79.0636 34.5019 78.8831 36.0634 79.1725 37.5835C79.4524 39.0307 80.1418 40.3418 81.1408 41.3274C81.3312 41.5367 81.565 41.6917 81.8218 41.7789C82.1441 41.8389 82.4754 41.7808 82.7651 41.6133C84.2293 40.8947 85.0568 39.002 84.8627 37.2712C84.7917 37.9696 84.5622 38.6369 84.1955 39.2112C83.8288 39.7854 83.3368 40.248 82.7651 40.556V40.556Z" fill="black"/>
<path opacity="0.1" d="M113.926 25.2232C113.586 27.4281 112.813 29.5691 112.785 31.8079C112.785 32.5604 112.84 33.3731 112.486 34.0203C111.927 35.0513 110.535 35.1491 109.581 34.5772C108.628 34.0053 108.005 32.948 107.385 31.9433C106.765 30.9387 106.064 29.9416 105.045 29.5164C103.765 28.9821 102.301 29.5164 101.184 30.4044C100.067 31.2924 99.1748 32.4626 98.1192 33.4145C97.0636 34.3665 95.7185 35.1303 94.3735 34.9008C93.5051 34.7503 92.7356 34.2122 91.9898 33.6892C90.9682 32.9743 89.8718 31.8718 88.7548 31.394C87.6379 30.9161 86.7117 31.7702 85.6459 31.7702C84.798 32.1126 83.8752 32.8802 84.0386 33.8623C84.0595 33.9684 84.0903 34.0718 84.1306 34.1708C84.4642 33.5286 85.0056 33.05 85.6459 32.8313C86.7083 32.8313 87.6482 31.9885 88.7548 32.455C89.8615 32.9216 90.9785 34.0354 91.9898 34.7503C92.7287 35.2733 93.4983 35.8114 94.3735 35.9581C95.7356 36.1914 97.0704 35.4351 98.1192 34.4756C99.168 33.5161 100.07 32.3309 101.184 31.4655C102.297 30.6 103.765 30.0432 105.045 30.5812C106.067 31.0064 106.768 32.0186 107.385 33.0082C108.001 33.9977 108.628 35.0475 109.581 35.642C110.535 36.2365 111.927 36.1161 112.486 35.0852C112.826 34.438 112.775 33.629 112.785 32.8727C112.813 30.6339 113.576 28.4929 113.926 26.288C114.106 25.1555 114.179 24.0055 114.144 22.8564C114.123 23.6501 114.05 24.441 113.926 25.2232V25.2232Z" fill="black"/>
</g>
</svg>
