<svg width="1978" height="980" viewBox="0 0 1978 980" fill="none" xmlns="http://www.w3.org/2000/svg">
<path d="M258.271 921.115C256.578 921.191 254.902 920.758 253.47 919.873C252.038 918.989 250.92 917.696 250.266 916.17C249.612 914.645 249.455 912.96 249.815 911.345C250.176 909.729 251.036 908.26 252.281 907.138C252.489 906.33 252.639 905.749 252.847 904.941C252.773 904.765 252.698 904.589 252.622 904.414C250.917 900.483 248.059 897.132 244.407 894.782C240.756 892.431 236.474 891.185 232.1 891.201C227.725 891.217 223.453 892.494 219.819 894.871C216.186 897.248 213.354 900.62 211.678 904.562C204.981 920.298 196.455 936.061 194.356 952.699C193.432 960.053 193.822 967.508 195.509 974.732C179.78 941.258 171.613 904.876 171.56 868.052C171.557 858.811 172.083 849.578 173.136 840.395C174.007 832.866 175.215 825.391 176.759 817.97C185.19 777.704 203.29 739.963 229.573 707.847C242.294 701.075 252.582 690.661 259.05 678.009C261.393 673.461 263.049 668.606 263.966 663.596C262.531 663.779 261.073 663.894 259.638 663.986C259.191 664.009 258.72 664.031 258.273 664.055L258.105 664.062C256.528 664.131 254.964 663.754 253.601 662.976C252.239 662.198 251.136 661.052 250.425 659.677C249.714 658.301 249.426 656.755 249.595 655.224C249.765 653.692 250.384 652.241 251.379 651.045C251.999 650.301 252.618 649.558 253.239 648.814C254.18 647.667 255.144 646.542 256.085 645.395C256.194 645.286 256.296 645.171 256.391 645.05C257.473 643.742 258.555 642.457 259.638 641.148C257.662 638.157 255.006 635.652 251.874 633.827C241.029 627.63 226.067 631.922 218.234 641.493C210.376 651.064 208.894 664.491 211.623 676.449C214.307 686.624 218.746 696.279 224.75 705.001C224.162 705.735 223.55 706.447 222.962 707.181C212.211 720.669 202.841 735.152 194.986 750.423C196.896 733.315 194.616 716.009 188.333 699.929C181.966 684.942 170.031 672.32 159.521 659.365C146.897 643.803 121.01 650.594 118.786 670.321C118.765 670.512 118.744 670.703 118.723 670.894C120.284 671.753 121.812 672.665 123.307 673.63C125.186 674.854 126.641 676.604 127.483 678.649C128.325 680.694 128.514 682.94 128.025 685.091C127.536 687.243 126.393 689.201 124.745 690.708C123.096 692.214 121.02 693.2 118.787 693.536L118.559 693.571C119.115 699.06 120.098 704.5 121.499 709.844C125.56 724.762 132.736 738.701 142.577 750.786C152.418 762.872 164.712 772.844 178.688 780.077C179.606 780.536 180.5 780.995 181.417 781.431C173.525 803.252 168.575 825.981 166.691 849.047C165.624 862.656 165.687 876.326 166.879 889.925L166.808 889.443C163.797 874.321 155.529 860.677 143.401 850.815C125.388 836.378 99.9383 831.061 80.5052 819.457C78.4399 818.163 76.0385 817.473 73.5842 817.467C71.1299 817.461 68.7251 818.14 66.6533 819.424C64.5816 820.708 62.9294 822.543 61.8916 824.713C60.8538 826.883 60.4737 829.297 60.7961 831.671C60.8221 831.84 60.8486 832.009 60.8756 832.178C63.7724 833.329 66.593 834.655 69.3209 836.148C70.882 837.007 72.4101 837.919 73.9052 838.884C75.7835 840.108 77.2389 841.858 78.0807 843.903C78.9226 845.948 79.1115 848.194 78.6229 850.345C78.1343 852.497 76.9909 854.455 75.3425 855.962C73.6941 857.468 71.6175 858.455 69.385 858.79L69.1562 858.825C68.9915 858.848 68.8504 858.871 68.6859 858.894C73.6357 870.424 80.5828 881.038 89.2231 890.269C99.8967 901.443 112.797 910.372 127.134 916.51C141.47 922.647 156.94 925.862 172.595 925.959H172.619C176.869 943.977 183.026 961.514 190.992 978.29H256.627C256.862 977.578 257.074 976.844 257.285 976.132C251.21 976.505 245.111 976.15 239.124 975.076C243.994 969.247 248.863 963.371 253.733 957.541C253.842 957.432 253.944 957.317 254.039 957.197C256.509 954.213 259.003 951.252 261.473 948.269L261.474 948.265C261.606 939.119 260.53 929.994 258.273 921.116L258.271 921.115Z" fill="#F2F2F2"/>
<path d="M1566.96 882.966C1568.2 884.088 1569.77 884.809 1571.45 885.031C1573.13 885.254 1574.84 884.967 1576.35 884.21C1577.85 883.453 1579.08 882.263 1579.87 880.8C1580.67 879.337 1580.98 877.673 1580.76 876.032C1581.14 875.283 1581.41 874.745 1581.78 873.995C1581.95 873.908 1582.13 873.82 1582.3 873.733C1586.2 871.797 1590.6 871.027 1594.94 871.521C1599.29 872.015 1603.39 873.751 1606.72 876.511C1610.06 879.271 1612.49 882.931 1613.7 887.032C1614.91 891.133 1614.85 895.492 1613.53 899.561C1608.28 915.809 1604.4 933.226 1595.03 947.277C1590.89 953.486 1585.67 958.946 1579.61 963.415C1613.73 947.676 1643.99 924.964 1668.32 896.817C1674.42 889.747 1680.11 882.351 1685.37 874.662C1689.67 868.354 1693.67 861.875 1697.39 855.226C1717.5 819.117 1728.55 778.868 1729.63 737.784C1724.36 724.612 1723.36 710.182 1726.76 696.438C1727.97 691.486 1729.9 686.73 1732.51 682.319C1733.48 683.361 1734.52 684.365 1735.56 685.336C1735.89 685.634 1736.23 685.948 1736.56 686.246L1736.69 686.357C1737.85 687.401 1739.29 688.094 1740.85 688.355C1742.4 688.615 1744 688.431 1745.46 687.825C1746.91 687.219 1748.15 686.216 1749.03 684.938C1749.91 683.66 1750.39 682.16 1750.42 680.62C1750.44 679.662 1750.45 678.703 1750.47 677.745C1750.51 676.276 1750.51 674.809 1750.55 673.34C1750.54 673.189 1750.53 673.036 1750.54 672.885C1750.57 671.204 1750.59 669.541 1750.63 667.86C1754.12 666.811 1757.8 666.562 1761.4 667.132C1773.79 669.201 1782.41 681.882 1782.09 694.127C1781.79 706.385 1774.06 717.592 1764.08 725.029C1755.32 731.13 1745.55 735.731 1735.2 738.634C1735.16 739.566 1735.16 740.495 1735.13 741.426C1734.46 758.5 1732.07 775.468 1728.01 792.088C1737.83 777.796 1751 765.984 1766.41 757.624C1781.17 750.154 1798.64 747.991 1815.23 744.677C1835.15 740.696 1850.48 762.152 1839.17 778.645C1839.06 778.805 1838.95 778.964 1838.84 779.123C1837.08 778.8 1835.31 778.538 1833.53 778.337C1831.28 778.095 1829.01 778.52 1827.02 779.556C1825.03 780.592 1823.4 782.192 1822.36 784.146C1821.31 786.099 1820.89 788.315 1821.16 790.504C1821.43 792.692 1822.37 794.751 1823.85 796.41L1824.01 796.58C1819.96 800.431 1815.62 803.977 1811.02 807.186C1798.07 816.052 1783.38 822.212 1767.87 825.28C1752.37 828.349 1736.38 828.259 1720.91 825.016C1719.91 824.791 1718.92 824.581 1717.93 824.338C1709.58 845.993 1698.37 866.496 1684.59 885.332C1676.43 896.416 1667.36 906.838 1657.48 916.495L1657.85 916.171C1670.13 906.49 1685.46 901.242 1701.25 901.311C1724.56 901.576 1747.54 913.491 1770.07 916.815C1772.5 917.122 1774.8 918.102 1776.68 919.639C1778.56 921.176 1779.95 923.206 1780.69 925.489C1781.43 927.773 1781.48 930.215 1780.84 932.527C1780.21 934.84 1778.9 936.926 1777.09 938.54C1776.96 938.653 1776.83 938.766 1776.7 938.878C1773.72 937.939 1770.69 937.183 1767.61 936.612C1765.85 936.29 1764.08 936.028 1762.3 935.827C1760.06 935.584 1757.79 936.009 1755.79 937.045C1753.8 938.082 1752.17 939.682 1751.13 941.635C1750.08 943.589 1749.67 945.805 1749.93 947.993C1750.2 950.182 1751.14 952.24 1752.63 953.899L1752.78 954.069C1752.89 954.19 1752.98 954.297 1753.09 954.418C1741.7 960.133 1729.38 963.892 1716.68 965.53C1701.13 967.378 1685.37 966.109 1670.35 961.802C1655.33 957.494 1641.37 950.239 1629.33 940.481L1629.31 940.466C1614.17 951.585 1597.88 961.139 1580.72 968.974L1530.49 927.753C1530.78 927.061 1531.1 926.366 1531.41 925.688C1535.82 929.789 1540.72 933.348 1546.01 936.286C1546.13 928.767 1546.28 921.212 1546.4 913.692C1546.39 913.541 1546.38 913.388 1546.39 913.237C1546.47 909.402 1546.51 905.57 1546.59 901.736L1546.59 901.732C1552.53 894.65 1559.37 888.343 1566.95 882.966L1566.96 882.966Z" fill="#F2F2F2"/>
<path d="M481.941 536.594C480.103 536.162 478.385 535.342 476.907 534.191C475.429 533.041 474.227 531.589 473.387 529.937C472.546 528.284 472.087 526.473 472.042 524.629C471.997 522.785 472.367 520.953 473.126 519.264L439.407 488.801L462.599 483.244L491.063 513.025C493.888 514.456 496.076 516.849 497.213 519.75C498.35 522.65 498.357 525.857 497.232 528.762C496.108 531.667 493.93 534.069 491.112 535.513C488.294 536.956 485.03 537.341 481.941 536.594H481.941Z" fill="#FFB6B6"/>
<path d="M379.045 453.51L343.702 352.855C340.909 344.874 341.476 336.138 345.277 328.563C349.079 320.989 355.804 315.195 363.979 312.453C368.507 310.94 373.32 310.418 378.078 310.924C382.835 311.43 387.42 312.952 391.507 315.381C395.595 317.81 399.083 321.088 401.726 324.98C404.369 328.873 406.101 333.286 406.8 337.905L420.926 431.356L480.021 490.401L464.478 512.008L379.045 453.51Z" fill="#3F3D56"/>
<path d="M320.7 928.365H345.932L357.935 833.417H320.696L320.7 928.365Z" fill="#FFB6B6"/>
<path d="M312.157 916.221L352.041 913.899V930.571L389.96 956.121C391.833 957.383 393.244 959.196 393.986 961.295C394.728 963.394 394.763 965.67 394.086 967.79C393.408 969.91 392.054 971.763 390.221 973.079C388.387 974.395 386.171 975.105 383.895 975.105H307.128L312.157 916.221Z" fill="#2F2E41"/>
<path d="M342.744 482.375C342.744 482.375 334.878 474.336 319.802 493.329C305.875 510.528 306.567 513.886 308.365 535.735C309.829 551.358 295.482 629.879 309.78 643.225L321.309 894.711C321.309 894.711 356.287 904.289 357.934 888.22L448.247 568.436L437.456 486.675L342.744 482.375Z" fill="#2F2E41"/>
<path d="M509.791 925.986L531.901 914.125L495.533 825.282L462.901 842.786L509.791 925.986Z" fill="#FFB6B6"/>
<path d="M496.308 919.36L530.111 898.577L538.344 913.186L584.189 917.752C586.453 917.977 588.585 918.903 590.272 920.394C591.959 921.884 593.113 923.862 593.566 926.038C594.02 928.214 593.748 930.475 592.791 932.49C591.835 934.505 590.243 936.169 588.248 937.238L546.639 959.558L536.667 964.907L520.978 973.323L496.308 919.36Z" fill="#2F2E41"/>
<path d="M308.873 524.807C308.873 524.807 308.416 565.319 304.585 589.049C300.873 610.667 305.683 632.854 318.047 651.155C327.045 664.158 340.297 676.278 359.416 681.253L493.706 896.209C493.706 896.209 529.086 888.16 522.594 873.305L443.822 550.63L393.991 484.056L308.873 524.807Z" fill="#2F2E41"/>
<path d="M307.786 410.192L303.789 535.734L437.049 499.755L439.393 493.548L445.106 472.409C445.106 472.409 431.894 441.996 434.588 371.179L400.926 283.618L347.607 282.555L347.31 282.845C330.47 299.246 318.049 319.456 311.153 341.675C304.258 363.894 303.101 387.431 307.786 410.192Z" fill="#3F3D56"/>
<path d="M575.861 461.787C574.052 462.324 572.145 462.467 570.273 462.207C568.401 461.947 566.611 461.289 565.028 460.281C563.445 459.273 562.108 457.938 561.111 456.371C560.114 454.804 559.481 453.042 559.257 451.211L514.362 441.634L531.464 425.372L571.475 436.96C574.654 436.797 577.783 437.777 580.27 439.714C582.758 441.652 584.43 444.412 584.971 447.473C585.511 450.533 584.883 453.681 583.204 456.319C581.525 458.957 578.912 460.903 575.861 461.787V461.787Z" fill="#FFB6B6"/>
<path d="M443.993 441.075L361.222 371.802C354.667 366.304 350.615 358.494 349.955 350.085C349.296 341.676 352.082 333.355 357.703 326.948C360.819 323.404 364.696 320.573 369.06 318.656C373.424 316.738 378.167 315.781 382.952 315.854C387.737 315.926 392.447 317.024 396.748 319.072C401.049 321.12 404.835 324.067 407.838 327.703L468.579 401.263L550.2 422.922L548.032 449.235L443.993 441.075Z" fill="#3F3D56"/>
<path d="M429.606 197.838C429.599 212.077 424.044 225.78 414.068 236.173C404.091 246.565 390.439 252.869 375.877 253.808C361.314 254.746 346.93 250.249 335.639 241.227C324.348 232.206 316.995 219.334 315.068 205.22C313.141 191.106 316.784 176.805 325.261 165.214C333.738 153.623 346.413 145.609 360.72 142.796C375.027 139.983 389.894 142.58 402.311 150.062C414.728 157.545 423.766 169.352 427.593 183.092C428.932 187.898 429.609 192.857 429.606 197.838Z" fill="#FFB8B8"/>
<path d="M408.667 123.96C404.005 123.825 405.605 115.252 401.849 112.517C401.831 112.6 401.812 112.682 401.792 112.765C401.3 114.617 400.211 116.266 398.686 117.469C397.16 118.671 395.28 119.365 393.32 119.446C391.361 119.528 389.427 118.993 387.802 117.922C386.178 116.85 384.949 115.298 384.296 113.493C383.673 111.406 382.546 109.495 381.008 107.922C379.471 106.348 377.569 105.158 375.462 104.451C375.228 112.398 369.067 119.295 361.717 122.727C354.366 126.159 345.986 126.73 337.838 126.848C329.69 126.965 321.425 126.699 313.524 128.645C305.623 130.59 297.938 135.163 294.563 142.399C291.187 149.635 293.595 159.597 300.977 162.965C295.259 162.995 290.407 167.598 288.429 172.833C286.809 178.203 286.386 183.849 287.189 189.391C288.796 209.914 292.715 232.008 308.031 246.161C319.705 256.948 336.414 261.293 352.492 261.231C368.569 261.168 365.742 259.726 381.288 255.722C381.288 255.722 396.068 214.385 392.346 210.318C388.624 206.252 385.533 201.048 386.207 195.636C386.88 190.224 392.842 185.377 398.015 187.437C397.145 185.267 396.49 184.854 396.079 184.964C396.34 184.347 396.569 183.718 396.763 183.078C397.737 179.817 399.49 176.829 401.878 174.358C404.266 171.887 407.221 170.004 410.501 168.865C413.813 167.816 417.375 167.781 420.708 168.766C424.041 169.75 426.986 171.705 429.146 174.37C446.169 158.795 435.608 124.741 408.667 123.96Z" fill="#2F2E41"/>
<path d="M1397.53 536.594C1399.37 536.162 1401.09 535.342 1402.57 534.191C1404.04 533.041 1405.24 531.589 1406.09 529.937C1406.93 528.284 1407.38 526.473 1407.43 524.629C1407.47 522.785 1407.1 520.953 1406.35 519.264L1440.06 488.801L1416.87 483.244L1388.41 513.025C1385.58 514.456 1383.4 516.849 1382.26 519.75C1381.12 522.65 1381.12 525.857 1382.24 528.762C1383.36 531.667 1385.54 534.069 1388.36 535.513C1391.18 536.956 1394.44 537.341 1397.53 536.594H1397.53Z" fill="#9E616A"/>
<path d="M1414.99 512.008L1399.45 490.401L1458.55 431.356L1472.67 337.905C1473.37 333.286 1475.1 328.873 1477.75 324.98C1480.39 321.088 1483.88 317.81 1487.96 315.381C1492.05 312.952 1496.64 311.43 1501.39 310.924C1506.15 310.418 1510.97 310.94 1515.49 312.453C1523.67 315.195 1530.39 320.989 1534.19 328.563C1538 336.138 1538.56 344.874 1535.77 352.855L1500.43 453.51L1414.99 512.008Z" fill="#E6E6E6"/>
<path d="M1558.77 928.365H1533.54L1521.54 833.417H1558.78L1558.77 928.365Z" fill="#9E616A"/>
<path d="M1572.34 975.105H1495.58C1493.3 975.105 1491.08 974.395 1489.25 973.079C1487.42 971.763 1486.06 969.91 1485.39 967.79C1484.71 965.67 1484.74 963.394 1485.49 961.295C1486.23 959.196 1487.64 957.383 1489.51 956.121L1527.43 930.571V913.899L1567.32 916.221L1572.34 975.105Z" fill="#2F2E41"/>
<path d="M1536.73 482.375C1536.73 482.375 1557.13 517.661 1572.21 536.654C1586.14 553.853 1584.34 562.987 1582.55 584.835C1581.08 600.458 1583.99 629.879 1569.69 643.225L1558.16 894.711C1558.16 894.711 1523.18 904.289 1521.54 888.22L1431.23 568.436L1442.02 486.675L1536.73 482.375Z" fill="#2F2E41"/>
<path d="M1369.68 925.986L1347.57 914.125L1383.94 825.282L1416.57 842.786L1369.68 925.986Z" fill="#9E616A"/>
<path d="M1358.49 973.323L1342.81 964.907L1332.83 959.558L1291.22 937.238C1289.23 936.169 1287.64 934.505 1286.68 932.49C1285.72 930.475 1285.45 928.214 1285.91 926.038C1286.36 923.862 1287.51 921.884 1289.2 920.394C1290.89 918.903 1293.02 917.977 1295.28 917.752L1341.13 913.186L1349.36 898.577L1383.16 919.36L1358.49 973.323Z" fill="#2F2E41"/>
<path d="M1570.6 524.807C1570.6 524.807 1571.06 565.319 1574.89 589.049C1578.6 610.667 1573.79 632.854 1561.43 651.155C1552.43 664.158 1539.18 676.278 1520.06 681.253L1385.77 896.209C1385.77 896.209 1350.39 888.16 1356.88 873.305L1435.65 550.63L1485.48 484.056L1570.6 524.807Z" fill="#2F2E41"/>
<path d="M1532.16 282.845L1531.86 282.555L1478.55 283.618L1444.88 371.179C1447.58 441.996 1434.37 472.409 1434.37 472.409L1440.08 493.548L1422.42 598.227L1592.24 564.703L1571.69 410.192C1576.37 387.431 1575.21 363.894 1568.32 341.675C1561.42 319.456 1549 299.246 1532.16 282.845Z" fill="#E6E6E6"/>
<path d="M1303.61 461.787C1305.42 462.324 1307.33 462.467 1309.2 462.207C1311.07 461.947 1312.86 461.289 1314.44 460.281C1316.03 459.272 1317.36 457.938 1318.36 456.371C1319.36 454.804 1319.99 453.042 1320.22 451.211L1365.11 441.634L1348.01 425.372L1308 436.96C1304.82 436.797 1301.69 437.777 1299.2 439.714C1296.71 441.652 1295.04 444.412 1294.5 447.473C1293.96 450.533 1294.59 453.681 1296.27 456.319C1297.95 458.957 1300.56 460.903 1303.61 461.787L1303.61 461.787Z" fill="#9E616A"/>
<path d="M1331.44 449.235L1329.27 422.922L1410.89 401.263L1471.63 327.703C1474.64 324.067 1478.42 321.12 1482.72 319.072C1487.02 317.024 1491.74 315.926 1496.52 315.854C1501.31 315.781 1506.05 316.738 1510.41 318.656C1514.78 320.573 1518.65 323.404 1521.77 326.948C1527.39 333.355 1530.18 341.676 1529.52 350.085C1528.86 358.494 1524.81 366.304 1518.25 371.802L1435.48 441.075L1331.44 449.235Z" fill="#E6E6E6"/>
<path d="M1451.88 183.092C1455.71 169.352 1464.74 157.545 1477.16 150.062C1489.58 142.58 1504.45 139.983 1518.75 142.796C1533.06 145.609 1545.73 153.623 1554.21 165.214C1562.69 176.805 1566.33 191.106 1564.4 205.22C1562.48 219.334 1555.12 232.206 1543.83 241.227C1532.54 250.249 1518.16 254.746 1503.6 253.808C1489.03 252.869 1475.38 246.565 1465.4 236.173C1455.43 225.78 1449.87 212.077 1449.87 197.838C1449.86 192.857 1450.54 187.898 1451.88 183.092Z" fill="#9E616A"/>
<path d="M1470.81 123.96C1475.47 123.825 1533.49 126.73 1541.63 126.848C1549.78 126.965 1558.05 126.699 1565.95 128.645C1573.85 130.59 1581.53 135.163 1584.91 142.399C1588.28 149.635 1589.07 167.598 1591.04 172.833C1592.66 178.203 1593.09 183.849 1592.28 189.391C1590.68 209.914 1586.76 232.008 1571.44 246.161C1559.77 256.948 1543.06 261.293 1526.98 261.231C1510.9 261.168 1513.73 259.726 1498.18 255.722C1498.18 255.722 1483.4 214.385 1487.13 210.318C1490.85 206.252 1493.94 201.048 1493.27 195.636C1492.59 190.224 1486.63 185.376 1481.46 187.436C1482.33 185.267 1482.98 184.854 1483.39 184.964C1483.13 184.347 1482.9 183.718 1482.71 183.078C1481.74 179.817 1479.98 176.829 1477.59 174.358C1475.21 171.887 1472.25 170.004 1468.97 168.865C1465.66 167.816 1462.1 167.781 1458.76 168.765C1455.43 169.75 1452.49 171.705 1450.33 174.37C1433.3 158.795 1443.86 124.741 1470.81 123.96Z" fill="#2F2E41"/>
<path d="M571.855 457.711C646.389 448.182 729.596 438.47 794.82 483.322C821.089 501.385 841.646 527.512 847.917 558.68C851.883 578.386 850.621 598.628 850.877 618.583C851.106 636.454 852.753 654.287 858.926 671.226C869.364 699.869 889.819 724.195 915.125 741.656C942.582 760.311 975.103 770.581 1008.56 771.16C1082.63 772.964 1150.16 733.782 1197.31 680.332C1247.95 622.929 1277 551.739 1302.35 481.089C1305.69 471.773 1309 462.446 1312.28 453.108C1313.72 449.025 1307.09 447.271 1305.66 451.328C1280.33 523.148 1254.35 596.432 1207.12 657.814C1163.81 714.109 1100.84 758.862 1027.01 764.035C993.344 766.393 959.476 759.925 930.24 743.204C903.397 727.851 880.909 704.729 868.472 676.741C861.78 660.862 858.205 643.897 857.935 626.731C857.19 606.863 858.686 586.89 856.175 567.104C852.15 535.39 835.641 507.723 810.854 487.055C785.813 466.678 755.755 453.03 723.65 447.461C683.672 440.112 642.745 442.667 602.599 447.237C592.339 448.405 582.097 449.706 571.855 451.016C567.538 451.567 567.482 458.27 571.855 457.711Z" fill="#3F3D56"/>
<path d="M1184.62 295.608C1171.56 309.134 1152.57 316.298 1133.59 317.726C1119.98 318.748 1106.29 317.036 1093.39 312.695C1080.48 308.354 1068.63 301.476 1058.56 292.488C1048.48 283.499 1040.41 272.591 1034.83 260.436C1029.25 248.282 1026.28 235.14 1026.11 221.823C1025.91 206.87 1029.25 191.983 1028.49 177.03C1026.62 140.092 1000.04 106.525 1002.87 69.6326L1021.08 75.1453C1008.87 71.3958 996.651 67.6463 984.435 63.8967C980.246 62.8046 976.228 61.1602 972.494 59.009C961.834 52.1795 958.7 37.1144 963.824 25.7096C968.971 14.3048 980.844 6.67185 993.357 4.12753C1001.87 2.55015 1010.62 2.60322 1019.11 4.28377C1023.18 4.991 1027.2 5.93756 1031.15 7.11825C1042.66 3.41597 1054.89 2.31987 1066.9 3.91305C1078.92 5.50623 1090.4 9.74687 1100.48 16.3135C1112.74 24.5333 1122.39 35.9372 1128.35 49.2334C1132.15 57.6215 1134.38 66.6112 1134.91 75.7701C1136.28 100.678 1125.4 126.478 1126.95 150.537C1127.29 157.118 1128.8 163.591 1131.41 169.664C1144.91 200.308 1187.34 212.427 1197.98 244.142C1203.91 261.796 1197.68 282.083 1184.62 295.608Z" fill="#2F2E41"/>
<path d="M1194.54 774.511L1177.03 792.226L1098.65 734.728L1124.51 708.584L1194.54 774.511Z" fill="#9E616A"/>
<path d="M1238.44 797.435L1226.01 810.005L1218.11 817.996L1185.14 851.335C1183.56 852.934 1181.5 853.997 1179.26 854.371C1177.01 854.744 1174.71 854.408 1172.67 853.412C1170.64 852.416 1168.98 850.811 1167.95 848.832C1166.92 846.853 1166.56 844.604 1166.93 842.413L1174.41 798.049L1162.11 786.473L1191.52 760.082L1238.44 797.435Z" fill="#2F2E41"/>
<path d="M1026.15 808.257L1003.44 818.977L950.258 738.603L983.78 722.784L1026.15 808.257Z" fill="#9E616A"/>
<path d="M1059.23 844.567L1043.12 852.173L1032.87 857.008L990.128 877.182C988.079 878.149 985.767 878.452 983.529 878.046C981.291 877.64 979.245 876.547 977.689 874.927C976.133 873.306 975.149 871.243 974.88 869.037C974.611 866.832 975.072 864.601 976.195 862.67L998.926 823.559L991.484 808.551L1028.43 793.696L1059.23 844.567Z" fill="#2F2E41"/>
<path d="M1063.2 364.086C1063.2 364.086 1083.61 399.372 1098.68 418.365C1112.61 435.564 1110.81 444.698 1109.02 466.547C1107.55 482.17 1110.46 511.59 1096.16 524.937L1089.92 661.23L1166.99 747.408C1166.99 747.408 1135.83 790.613 1134.18 774.543L1020.08 671.033L957.697 450.147L968.488 368.386L1063.2 364.086Z" fill="#2F2E41"/>
<path d="M1097.07 406.519C1097.07 406.519 1097.53 447.031 1101.36 470.76C1105.07 492.378 1100.26 514.566 1087.9 532.867C1078.9 545.869 1065.65 557.99 1046.53 562.965L981.152 667.61L1017.47 768.993C1017.47 768.993 965.27 798.327 971.762 783.471L908.582 651.655L962.122 432.341L1011.95 365.767L1097.07 406.519Z" fill="#2F2E41"/>
<path d="M1058.63 164.556L1058.34 164.266L1005.02 165.329L971.356 252.89C974.05 323.708 960.837 354.121 960.837 354.121L966.55 375.259L968.895 381.467L1118.71 446.415L1098.16 291.903C1102.84 269.143 1101.69 245.605 1094.79 223.386C1087.89 201.167 1075.47 180.958 1058.63 164.556Z" fill="#FD968F"/>
<path d="M830.083 343.498C831.891 344.035 833.799 344.178 835.67 343.918C837.542 343.658 839.332 343.001 840.915 341.992C842.498 340.984 843.836 339.649 844.833 338.082C845.83 336.515 846.463 334.754 846.687 332.922L891.581 323.345L874.479 307.083L834.468 318.671C831.29 318.508 828.16 319.488 825.673 321.426C823.186 323.363 821.513 326.124 820.973 329.184C820.432 332.244 821.061 335.392 822.74 338.03C824.419 340.668 827.031 342.614 830.083 343.499L830.083 343.498Z" fill="#9E616A"/>
<path d="M857.912 330.947L855.744 304.634L937.364 282.974L998.106 209.414C1001.11 205.778 1004.89 202.832 1009.2 200.784C1013.5 198.736 1018.21 197.637 1022.99 197.565C1027.78 197.493 1032.52 198.45 1036.88 200.367C1041.25 202.284 1045.12 205.115 1048.24 208.659C1053.86 215.066 1056.65 223.387 1055.99 231.796C1055.33 240.205 1051.28 248.015 1044.72 253.513L961.95 322.787L857.912 330.947Z" fill="#FD968F"/>
<path d="M1175.54 450.235C1176.27 448.533 1176.61 446.696 1176.53 444.853C1176.45 443.01 1175.96 441.206 1175.09 439.568C1174.22 437.93 1173 436.498 1171.5 435.372C1170 434.247 1168.27 433.456 1166.42 433.054L1161.17 388.512L1142.87 403.478L1150.66 443.482C1150.18 446.551 1150.86 449.687 1152.59 452.296C1154.31 454.906 1156.96 456.807 1160.03 457.639C1163.09 458.471 1166.37 458.177 1169.22 456.813C1172.08 455.448 1174.33 453.108 1175.54 450.235Z" fill="#9E616A"/>
<path d="M1165.54 421.959L1138.49 421.419L1124.6 340.013L1055.69 273.657C1052.29 270.377 1049.66 266.406 1048.01 262.025C1046.35 257.644 1045.7 252.961 1046.11 248.309C1046.52 243.657 1047.97 239.149 1050.36 235.106C1052.76 231.063 1056.03 227.583 1059.96 224.915C1067.06 220.103 1075.83 218.234 1084.34 219.72C1092.84 221.206 1100.4 225.924 1105.35 232.839L1167.67 320.149L1165.54 421.959Z" fill="#FD968F"/>
<path d="M978.351 64.8036C982.178 51.0632 991.215 39.256 1003.63 31.7738C1016.05 24.2916 1030.92 21.6941 1045.22 24.5074C1059.53 27.3207 1072.21 35.3345 1080.68 46.9253C1089.16 58.5161 1092.8 72.8171 1090.88 86.9312C1088.95 101.045 1081.6 113.917 1070.3 122.939C1059.01 131.961 1044.63 136.458 1030.07 135.519C1015.5 134.581 1001.85 128.277 991.875 117.884C981.899 107.492 976.345 93.788 976.337 79.5493C976.335 74.5687 977.012 69.6099 978.351 64.8036Z" fill="#9E616A"/>
<path d="M971.042 390.296C961 390.261 951.115 387.86 942.229 383.298C933.343 378.735 925.718 372.145 920.004 364.089C916.836 359.426 914.101 353.642 915.948 347.99C916.445 346.005 917.662 344.263 919.373 343.086C921.085 341.909 923.175 341.377 925.258 341.588C929.776 342.204 933.662 345.574 936.691 348.664C940.787 353.078 944.547 357.778 947.94 362.727C953.311 370.132 963.767 382.12 955.683 390.989C948.885 398.448 937.45 399.08 928.298 401.769C918.408 404.675 908.282 411.195 907.394 422.193C906.53 432.888 917.061 440.103 926.773 441.653C932.579 442.46 938.5 441.866 944.016 439.923C949.533 437.979 954.477 434.746 958.415 430.506C966.118 421.817 970.323 410.694 970.247 399.206C970.231 398.338 969.871 397.509 969.242 396.895C968.612 396.281 967.763 395.929 966.873 395.914C965.983 395.899 965.122 396.221 964.471 396.814C963.82 397.406 963.43 398.222 963.383 399.089C963.214 409.552 959.7 420.238 951.757 427.57C944.321 434.434 932.503 437.706 922.812 433.663C918.019 431.663 913.56 427.454 914.302 421.978C914.983 416.952 919.168 413.016 923.541 410.747C933.431 405.615 945.31 406.069 954.956 400.147C964.154 394.501 967.823 385.053 963.643 375.036C961.014 369.478 957.743 364.231 953.895 359.396C950.37 354.317 946.532 349.451 942.401 344.827C936.201 338.178 926.482 331.734 917.146 336.481C906.506 341.89 907.215 355.456 912.138 364.33C923.364 384.564 947.777 396.905 970.921 396.992C971.811 396.977 972.661 396.625 973.29 396.011C973.919 395.397 974.28 394.569 974.296 393.7C974.311 392.832 973.98 391.992 973.373 391.357C972.766 390.722 971.93 390.341 971.041 390.296L971.042 390.296Z" fill="#2F2E41"/>
<path d="M1126.95 150.538L1035.77 132.348C1032.45 115.274 1063.08 92.2637 1071.04 64.2093C1056.81 62.5354 1037.76 59.7455 1021.27 56.1076C1004.77 52.4473 990.818 47.9613 986.792 42.8503C989.715 28.9312 998.184 16.714 1010.34 8.88387C1022.49 1.0537 1037.33 -1.74882 1051.6 1.09221L1062.78 3.32407C1063.15 3.39103 1063.52 3.4803 1063.88 3.56958C1077.59 6.5629 1089.6 14.5962 1097.4 25.9998C1108.85 32.1792 1119.29 40.0122 1128.35 49.2335C1132.15 57.6215 1134.38 66.6112 1134.91 75.7701C1136.28 100.678 1125.4 126.478 1126.95 150.538Z" fill="#2F2E41"/>
<path d="M1978 977.344C1978 977.693 1977.93 978.039 1977.79 978.362C1977.66 978.684 1977.46 978.978 1977.2 979.224C1976.95 979.471 1976.65 979.667 1976.32 979.8C1975.99 979.933 1975.64 980.001 1975.28 980H2.72222C2.00025 980 1.30787 979.72 0.79735 979.222C0.286835 978.724 0 978.048 0 977.344C0 976.64 0.286835 975.964 0.79735 975.466C1.30787 974.968 2.00025 974.688 2.72222 974.688H1975.28C1975.64 974.687 1975.99 974.755 1976.32 974.888C1976.65 975.021 1976.95 975.217 1977.2 975.464C1977.46 975.711 1977.66 976.004 1977.79 976.326C1977.93 976.649 1978 976.995 1978 977.344Z" fill="#CCCCCC"/>
</svg>
