<svg width="2028" height="1583" viewBox="0 0 2028 1583" fill="none" xmlns="http://www.w3.org/2000/svg">
<g clip-path="url(#clip0_114_305)">
<path opacity="0.1" d="M640.311 55.8646C695.383 6.85364 781.86 -3.06906 860.693 0.696668C1108.1 12.9729 1331.43 132.121 1524.61 266.915C1594.56 315.7 1663.41 368.288 1708.8 435.488C1801.28 572.278 1773.8 761.77 1645.31 874.459C1601.58 912.794 1548.58 942.242 1494.17 968.245C1397.43 1014.56 1293.04 1051.75 1183.24 1062.39C1104.95 1069.92 1025.68 1063.8 947.831 1053.27C730.355 1023.85 516.88 958.774 337.943 847.459C259.469 798.636 185.467 737.933 153.156 658.946C120.845 579.96 141.511 479.867 221.647 433.116C254.788 413.778 294.422 405.042 333.206 396.833C390.316 384.764 448.333 372.864 499.856 348.33C553.098 322.987 616.115 273.976 605.546 217.866C594.26 157.671 585.201 104.819 640.311 55.8646Z" fill="#FD968F"/>
<path opacity="0.1" d="M869.922 1563.87C1008.7 1563.87 1121.2 1528.73 1121.2 1485.39C1121.2 1442.05 1008.7 1406.91 869.922 1406.91C731.145 1406.91 618.645 1442.05 618.645 1485.39C618.645 1528.73 731.145 1563.87 869.922 1563.87Z" fill="#FD968F"/>
<path d="M1385.2 678.283L1394.31 1161.65L1413.7 1163.93L1406.39 676.363L1385.2 678.283Z" fill="#F5C5CC"/>
<path d="M1338.34 669.189L1347.45 1152.56L1366.83 1154.84L1359.53 667.269L1338.34 669.189Z" fill="#F5C5CC"/>
<path d="M1349.79 643.921L1350.74 1171.12L1370.55 1169.24L1363 633.565L1349.79 643.921Z" fill="#CC929B"/>
<path d="M803.167 555.897L811.528 994.059L830.911 996.092L824.381 554.127L803.167 555.897Z" fill="#F5C5CC"/>
<path d="M814.359 547.707L823.947 1003.74L830.911 996.092L824.381 554.127L814.359 547.707Z" fill="#CC929B"/>
<path d="M844.405 566.987L852.766 1005.13L872.149 1007.16L865.619 565.217L844.405 566.987Z" fill="#F5C5CC"/>
<path d="M855.597 558.778L865.204 1014.81L872.149 1007.16L865.619 565.217L855.597 558.778Z" fill="#CC929B"/>
<path d="M884.719 579L893.08 1017.16L912.462 1019.19L905.932 577.249L884.719 579Z" fill="#F5C5CC"/>
<path d="M895.911 570.828L905.517 1026.84L912.462 1019.19L905.932 577.249L895.911 570.828Z" fill="#CC929B"/>
<path d="M923.937 581.448L932.543 1034.99L951.926 1037.1L945.132 579.64L923.937 581.448Z" fill="#F5C5CC"/>
<path d="M935.11 572.975L944.981 1045.01L951.926 1037.1L945.132 579.64L935.11 572.975Z" fill="#CC929B"/>
<path d="M966.458 584.987L975.084 1038.51L994.466 1040.62L987.672 583.161L966.458 584.987Z" fill="#F5C5CC"/>
<path d="M977.65 576.514L987.521 1048.53L994.466 1040.62L987.672 583.161L977.65 576.514Z" fill="#CC929B"/>
<path d="M1008.24 599.806L1016.85 1053.35L1036.23 1055.46L1029.46 597.998L1008.24 599.806Z" fill="#F5C5CC"/>
<path d="M1019.42 591.333L1029.29 1063.37L1036.23 1055.46L1029.46 597.998L1019.42 591.333Z" fill="#CC929B"/>
<path d="M1056.07 609.596L1064.9 1075.79L1084.28 1077.96L1077.28 607.732L1056.07 609.596Z" fill="#F5C5CC"/>
<path d="M1067.24 600.898L1077.34 1086.09L1084.28 1077.96L1077.28 607.732L1067.24 600.898Z" fill="#CC929B"/>
<path d="M1097.68 614.548L1106.5 1080.75L1125.9 1082.91L1118.88 612.684L1097.68 614.548Z" fill="#F5C5CC"/>
<path d="M1108.86 605.831L1118.95 1091.05L1125.9 1082.91L1118.88 612.684L1108.86 605.831Z" fill="#CC929B"/>
<path d="M1141.77 626.975L1150.6 1093.17L1169.99 1095.36L1162.99 625.13L1141.77 626.975Z" fill="#F5C5CC"/>
<path d="M1152.96 618.276L1163.04 1103.49L1169.99 1095.36L1162.99 625.13L1152.96 618.276Z" fill="#CC929B"/>
<path d="M765.402 555.125L764.458 527.372L774.273 522.024L1478.13 666.045L1479.43 701.273L765.402 555.125Z" fill="#F5C5CC"/>
<path d="M774.273 522.024L1480.72 665.932L1480 679.131L765.912 526.562" fill="#CC929B"/>
<path d="M803.413 1245.84L783.596 1253.03H764.723L763.779 510.162L774.16 495.777L784.181 492.84L796.807 490.938L803.413 1245.84Z" fill="#F5C5CC"/>
<path d="M803.413 1245.84L783.596 1253.03L782.369 511.631L784.181 492.84L796.807 490.938L803.413 1245.84Z" fill="#CC929B"/>
<path d="M1189.67 640.777L1198.5 1106.96L1217.89 1109.14L1210.89 638.913L1189.67 640.777Z" fill="#F5C5CC"/>
<path d="M1200.84 632.059L1210.94 1117.27L1217.89 1109.14L1210.89 638.913L1200.84 632.059Z" fill="#CC929B"/>
<path d="M1237.93 648.139L1246.93 1124.3L1266.32 1126.52L1259.13 646.256L1237.93 648.139Z" fill="#F5C5CC"/>
<path d="M1287.62 656.856L1296.74 1140.23L1316.12 1142.5L1308.84 654.936L1287.62 656.856Z" fill="#F5C5CC"/>
<path d="M1298.8 647.837L1309.2 1150.94L1316.12 1142.5L1308.84 654.936L1298.8 647.837Z" fill="#CC929B"/>
<path d="M528.808 1103.34L508.991 1105.22L508.066 585.195L508.047 578.021L521.259 567.665L521.466 582.088L528.808 1103.34Z" fill="#F5C5CC"/>
<path d="M598.639 1074.16L578.822 1076.04L577.897 564.502L577.878 548.836L591.09 538.481L591.392 559.493L598.639 1074.16Z" fill="#F5C5CC"/>
<path d="M713.765 1027.08L693.949 1028.97L693.043 523.888L693.005 501.765L706.216 491.409L706.631 520.744L713.765 1027.08Z" fill="#F5C5CC"/>
<path d="M763.779 1008.26L743.962 1010.14L743.075 517.393L743.019 482.936L756.23 472.58L756.909 520.443L763.779 1008.26Z" fill="#F5C5CC"/>
<path d="M563.723 1097.69L543.907 1099.57L542.963 576.138V572.372L556.174 562.016L556.306 571.939L563.723 1097.69Z" fill="#F5C5CC"/>
<path d="M665.638 1050.62L645.822 1052.5L644.897 538.933L644.878 525.301L658.089 514.945L658.353 534.263L665.638 1050.62Z" fill="#F5C5CC"/>
<path d="M632.611 1060.03L612.794 1061.92L611.888 551.454L611.85 534.715L625.061 524.359L625.363 546.163L632.611 1060.03Z" fill="#F5C5CC"/>
<path d="M507.67 1016.46L502.952 1026.35C502.952 1026.35 490.684 1044.71 492.1 1072.95C493.515 1101.19 472.339 1176.04 472.339 1176.04C472.339 1176.04 491.684 1184.98 506.311 1184.04C520.938 1183.1 552.55 1198.63 552.55 1198.63L618.078 1218.91L750.662 1249.98C750.662 1249.98 828.514 1293.28 849.747 1293.28C870.979 1293.28 955.436 1322 955.436 1322C955.436 1322 1069.62 1346.95 1078.58 1356.36C1087.55 1365.77 1125.35 1378.45 1129.13 1378.95C1132.9 1379.46 1190.46 1385.07 1190.46 1385.07C1190.46 1385.07 1257.46 1400.61 1266.9 1384.13C1272.4 1374.87 1276.08 1364.64 1277.75 1354.01C1277.75 1354.01 1307.48 1360.6 1315.5 1350.71C1323.52 1340.83 1323.99 1319.64 1333.43 1320.59C1342.87 1321.53 1381.56 1333.29 1385.8 1329.06C1390.05 1324.82 1412.7 1274.93 1428.74 1282.46C1444.78 1289.99 1472.62 1301.76 1472.62 1301.76L1456.58 1138.89L1449.5 1094.17C1449.5 1094.17 1192.35 1198.67 1183.39 1198.67C1174.42 1198.67 507.67 1016.46 507.67 1016.46Z" fill="#FD968F"/>
<path d="M1448.08 873.838L1446.67 1103.55L1179.56 1205.73L502.952 1026.39C502.952 1026.39 457.184 961.899 499.649 901.648C499.649 901.648 444.917 826.333 512.86 777.378L514.54 776.983L771.423 715.244L885.662 736.068L1390.43 828.178C1390.43 828.178 1440.01 846.536 1448.08 873.838Z" fill="#FD968F"/>
<path opacity="0.1" d="M876.641 758.041C863.902 764.631 771.423 788.638 753.022 803.23C734.62 817.822 607.226 829.157 607.226 829.157L593.071 831.982C593.071 831.982 594.015 822.567 537.867 795.266C528.897 790.863 520.951 784.635 514.54 776.983L771.423 715.244L885.662 736.068C885.813 745.087 884.266 754.087 876.641 758.041Z" fill="black"/>
<path d="M488.325 667.231C488.325 667.231 483.606 758.55 539.754 785.851C595.902 813.153 595.015 822.53 595.015 822.53L609.17 819.705C609.17 819.705 560.099 765.102 563.402 755.688C566.705 746.274 519.522 698.731 512.86 696.848C506.198 694.966 488.325 667.231 488.325 667.231Z" fill="#FD968F"/>
<path opacity="0.1" d="M489.325 668.605C489.325 668.605 484.607 759.924 540.755 787.226C596.902 814.528 595.959 823.942 595.959 823.942L610.114 821.118C610.114 821.118 561.043 766.514 564.346 757.1C567.649 747.686 520.409 700.143 513.86 698.261C507.311 696.378 489.325 668.605 489.325 668.605Z" fill="black"/>
<path opacity="0.1" d="M502.537 707.204C502.537 707.204 547.832 775.458 555.853 777.812C563.875 780.165 513.332 708.146 502.537 707.204Z" fill="black"/>
<path d="M481.776 654.484C481.776 654.484 511.029 630.948 514.804 626.241C518.579 621.534 560.1 619.651 561.515 619.651C562.931 619.651 594.543 600.352 629.93 594.232C665.318 588.113 679.473 585.289 679.473 585.289C679.473 585.289 731.374 563.636 734.205 558.929C737.036 554.221 761.099 549.044 790.824 572.109C820.55 595.174 886.134 698.731 886.606 710.029C887.078 721.326 891.324 742.037 878.585 748.627C865.845 755.217 773.367 779.224 754.965 793.816C736.564 808.408 609.113 819.743 609.113 819.743L561.043 767.456L535.564 726.504L493.1 681.786L481.776 654.484Z" fill="#FD968F"/>
<path opacity="0.1" d="M560.666 1061.03C560.666 1061.03 543.057 1064.8 553.116 1074.83C563.176 1084.87 560.666 1061.03 560.666 1061.03Z" fill="black"/>
<path opacity="0.1" d="M622.325 1081.12C622.325 1081.12 603.452 1103.72 607.226 1109.99C611.001 1116.26 622.325 1081.12 622.325 1081.12Z" fill="black"/>
<path opacity="0.1" d="M733.054 1109.99C733.054 1109.99 714.181 1132.58 717.955 1138.85C721.73 1145.12 733.054 1109.99 733.054 1109.99Z" fill="black"/>
<path opacity="0.1" d="M867.676 1147.64C867.676 1147.64 848.803 1170.24 852.577 1176.51C856.352 1182.78 867.676 1147.64 867.676 1147.64Z" fill="black"/>
<path opacity="0.1" d="M1048.86 1192.83C1048.86 1192.83 1029.99 1215.43 1033.76 1221.7C1037.53 1227.97 1048.86 1192.83 1048.86 1192.83Z" fill="black"/>
<path opacity="0.1" d="M676.434 1087.39C676.434 1087.39 657.561 1109.99 661.336 1116.26C665.11 1122.53 676.434 1087.39 676.434 1087.39Z" fill="black"/>
<path opacity="0.1" d="M939.394 1166.47C939.394 1166.47 920.521 1189.07 924.296 1195.34C928.07 1201.61 939.394 1166.47 939.394 1166.47Z" fill="black"/>
<path opacity="0.1" d="M994.749 1184.04C994.749 1184.04 975.876 1206.63 979.651 1212.92C983.426 1219.21 994.749 1184.04 994.749 1184.04Z" fill="black"/>
<path opacity="0.1" d="M782.124 1125.05C782.124 1125.05 763.251 1147.64 767.025 1153.91C770.8 1160.18 782.124 1125.05 782.124 1125.05Z" fill="black"/>
<path opacity="0.1" d="M1257.73 1261.88L1277.7 1353.97C1277.7 1353.97 1277.85 1289.48 1257.73 1261.88Z" fill="black"/>
<path opacity="0.1" d="M1319.37 1275.68L1333.37 1320.59C1333.37 1320.59 1331.96 1303.3 1319.37 1275.68Z" fill="black"/>
<path opacity="0.1" d="M1385.8 1329.02C1385.8 1329.02 1355.93 1220.45 1349.62 1212.92C1343.32 1205.39 1367.82 1322.13 1385.8 1329.02Z" fill="black"/>
<path opacity="0.1" d="M1421.28 1278.18C1421.28 1278.18 1386.07 1216.69 1399.9 1205.39C1413.73 1194.09 1421.28 1278.18 1421.28 1278.18Z" fill="black"/>
<path opacity="0.1" d="M499.649 901.61L1183.48 1054.76L1446.46 978.186L1180.97 1047.23C1180.97 1047.23 520.409 895.34 499.649 901.61Z" fill="black"/>
<path d="M520.315 735.24L521.259 1173.48L540.604 1175.83L541.547 733.828L520.315 735.24Z" fill="#F5C5CC"/>
<path d="M531.639 727.238L533.526 1183.36L540.603 1175.83L541.547 733.828L531.639 727.238Z" fill="#CC929B"/>
<path d="M561.364 747.008L562.308 1185.24L581.653 1187.6L582.597 745.596L561.364 747.008Z" fill="#F5C5CC"/>
<path d="M572.688 739.006L574.575 1195.13L581.653 1187.6L582.596 745.596L572.688 739.006Z" fill="#CC929B"/>
<path d="M601.47 759.717L602.413 1197.95L621.758 1200.31L622.702 758.305L601.47 759.717Z" fill="#F5C5CC"/>
<path d="M612.793 751.715L614.681 1207.84L621.758 1200.31L622.702 758.305L612.793 751.715Z" fill="#CC929B"/>
<path d="M640.632 762.824L641.575 1216.44L660.921 1218.87L661.864 761.355L640.632 762.824Z" fill="#F5C5CC"/>
<path d="M651.956 754.539L653.843 1226.67L660.92 1218.87L661.864 761.355L651.956 754.539Z" fill="#CC929B"/>
<path d="M683.096 767.06L684.04 1220.68L703.385 1223.11L704.328 765.592L683.096 767.06Z" fill="#F5C5CC"/>
<path d="M694.42 758.776L696.308 1230.9L703.385 1223.11L704.329 765.592L694.42 758.776Z" fill="#CC929B"/>
<path d="M724.617 782.594L725.561 1236.21L744.906 1238.64L745.85 781.125L724.617 782.594Z" fill="#F5C5CC"/>
<path d="M735.941 774.309L737.829 1246.44L744.906 1238.64L745.85 781.125L735.941 774.309Z" fill="#CC929B"/>
<path d="M783.596 784.665L785.484 1269.97L792.561 1261.95L793.505 791.669L783.596 784.665Z" fill="#CC929B"/>
<path d="M813.793 798.824L814.737 1265.1L834.082 1267.6L835.025 797.318L813.793 798.824Z" fill="#F5C5CC"/>
<path d="M825.117 790.314L827.004 1275.62L834.082 1267.6L835.026 797.318L825.117 790.314Z" fill="#CC929B"/>
<path d="M857.673 812.004L858.617 1278.28L877.962 1280.78L878.906 810.498L857.673 812.004Z" fill="#F5C5CC"/>
<path d="M868.997 803.494L870.884 1288.8L877.962 1280.78L878.906 810.498L868.997 803.494Z" fill="#CC929B"/>
<path d="M905.328 826.597L906.272 1292.87L925.617 1295.37L926.56 825.09L905.328 826.597Z" fill="#F5C5CC"/>
<path d="M916.652 818.086L918.539 1303.39L925.617 1295.37L926.56 825.09L916.652 818.086Z" fill="#CC929B"/>
<path d="M953.455 834.787L954.398 1311L973.743 1313.56L974.687 833.243L953.455 834.787Z" fill="#F5C5CC"/>
<path d="M964.779 826.088L966.666 1321.75L973.744 1313.56L974.687 833.243L964.779 826.088Z" fill="#CC929B"/>
<path d="M1003 844.333L1003.94 1327.8L1023.29 1330.39L1024.23 842.771L1003 844.333Z" fill="#CC929B"/>
<path d="M1053.48 857.513L1054.43 1340.98L1073.77 1343.57L1074.71 855.95L1053.48 857.513Z" fill="#F5C5CC"/>
<path d="M1064.81 848.683L1066.69 1351.88L1073.77 1343.57L1074.72 855.951L1064.81 848.683Z" fill="#CC929B"/>
<path d="M1100.19 867.398L1101.14 1350.86L1120.48 1353.46L1121.43 865.836L1100.19 867.398Z" fill="#CC929B"/>
<path d="M494.836 1258.68L475.019 1266.21H456.146L455.203 575.196L465.583 560.134L475.605 557.064L490.118 552.602L494.836 1258.68Z" fill="#F5C5CC"/>
<path d="M494.836 1258.68L475.019 1266.21L473.792 576.722L475.604 557.064L490.118 552.602L494.836 1258.68Z" fill="#CC929B"/>
<path d="M476.907 1287.86C489.415 1287.86 499.554 1277.75 499.554 1265.27C499.554 1252.79 489.415 1242.67 476.907 1242.67C464.399 1242.67 454.259 1252.79 454.259 1265.27C454.259 1277.75 464.399 1287.86 476.907 1287.86Z" fill="#40414D"/>
<path d="M1508.33 1364.46L1488.51 1371.65H1469.64L1468.69 611.837L1479.07 614.398L1489.09 611.46L1503.61 607.205L1508.33 1364.46Z" fill="#F5C5CC"/>
<path d="M1508.33 1364.46L1488.51 1371.65L1487.28 630.251L1489.09 611.46L1503.61 607.205L1508.33 1364.46Z" fill="#CC929B"/>
<path d="M1233.72 1221.96L1213.9 1223.84L1213 716.242L1212.96 696.641L1226.17 686.286L1226.55 713.342L1233.72 1221.96Z" fill="#F5C5CC"/>
<path d="M1303.55 1192.78L1283.74 1194.66L1282.85 696.434L1282.79 667.457L1296 657.101L1296.49 691.482L1303.55 1192.78Z" fill="#F5C5CC"/>
<path d="M1418.68 1145.7L1398.86 1147.59L1397.98 650.53L1397.92 620.385L1411.13 610.03L1411.62 644.881L1418.68 1145.7Z" fill="#F5C5CC"/>
<path d="M1447.93 601.557L1448.88 1128.76L1468.69 1126.88L1461.14 591.201L1447.93 601.557Z" fill="#F5C5CC"/>
<path d="M1268.64 1216.31L1248.82 1218.19L1247.91 707.713L1247.88 690.993L1261.09 680.637L1261.41 703.627L1268.64 1216.31Z" fill="#F5C5CC"/>
<path d="M1337.52 1178.65L1317.71 1180.54L1316.82 683.631L1316.76 653.335L1329.97 642.979L1330.47 678.151L1337.52 1178.65Z" fill="#F5C5CC"/>
<path d="M1375.89 1166.1L1356.08 1167.98L1355.19 671.072V668.116L1355.13 640.777L1368.34 630.421L1368.8 662.543L1368.83 665.593L1375.89 1166.1Z" fill="#F5C5CC"/>
<path d="M1194.09 1218.51L1467.75 1102.4L1486.62 1106.79L1487.25 1150.09L1199.13 1261.18L1194.09 1218.51Z" fill="#F5C5CC"/>
<path d="M1467.75 1102.4L1194.09 1218.51L1485.6 1106.54" fill="#CC929B"/>
<path d="M485.079 1157L1175.22 1366L1173.95 1399.89L482.569 1187.13L485.079 1157Z" fill="#F5C5CC"/>
<path d="M1205.41 1484.62L1185.6 1492.15H1166.72L1165.78 718.294V714.528L1167.25 712.382L1176.16 699.466L1186.18 696.396L1200.69 691.934L1200.84 718.294L1205.41 1484.62Z" fill="#F5C5CC"/>
<path d="M1205.41 1484.62L1185.59 1492.15L1184.37 716.054L1186.18 696.396L1200.69 691.934L1205.41 1484.62Z" fill="#CC929B"/>
<path opacity="0.1" d="M1200.69 691.934L1200.84 718.294C1195.38 719.09 1189.88 719.606 1184.37 719.838C1170.78 720.365 1165.78 718.313 1165.78 718.313C1165.78 718.049 1166.31 715.941 1167.25 712.42L1176.16 699.503L1186.18 696.434L1200.69 691.934Z" fill="black"/>
<path opacity="0.1" d="M1226.17 686.286L1226.55 713.342C1221.68 714.472 1217.16 715.439 1213 716.242V696.641L1226.17 686.286Z" fill="black"/>
<path opacity="0.1" d="M1261.09 680.637L1261.41 703.627C1256.71 705.114 1252.2 706.47 1247.91 707.713V690.993L1261.09 680.637Z" fill="black"/>
<path opacity="0.1" d="M1296 657.101L1296.49 691.482C1291.78 693.227 1287.23 694.878 1282.85 696.434V667.457L1296 657.101Z" fill="black"/>
<path opacity="0.1" d="M1329.97 642.979L1330.47 678.151L1319.59 682.52L1316.82 683.631V653.335L1329.97 642.979Z" fill="black"/>
<path opacity="0.1" d="M1411.62 644.881L1397.98 650.53V620.404L1411.19 610.048L1411.62 644.881Z" fill="black"/>
<path opacity="0.1" d="M1368.82 662.543L1355.21 668.191V640.852L1368.42 630.496L1368.82 662.543Z" fill="black"/>
<path d="M1514.93 624.151C1514.93 624.151 1480.02 624.151 1470.58 621.327C1461.14 618.502 1441.33 629.799 1319.59 678.754C1245.99 708.371 1205.13 715.244 1184.37 716.054C1170.78 716.581 1165.78 714.528 1165.78 714.528C1165.78 714.528 1190.63 600.766 1269.79 579.508C1278.61 577.11 1287.29 574.199 1295.78 570.791L1297.31 570.207C1303.95 567.638 1310.77 565.53 1317.71 563.899C1343.11 558.081 1361.25 546.953 1407.17 546.615C1435.66 546.138 1463.46 555.341 1486.02 572.711C1501.76 585.063 1515.33 602.14 1514.93 624.151Z" fill="#CC929B"/>
<path d="M1300.72 569.548C1202.77 611.686 1187.82 690.447 1184.37 716.054C1170.78 716.581 1165.78 714.528 1165.78 714.528C1165.78 714.528 1190.63 600.766 1269.79 579.508C1278.61 577.11 1287.29 574.199 1295.78 570.791L1297.31 570.207C1298.44 570.037 1299.57 569.811 1300.72 569.548Z" fill="#F5C5CC"/>
<path opacity="0.1" d="M521.259 567.665L521.466 582.088C516.692 583.274 512.237 584.31 508.066 585.195V578.021L521.259 567.665Z" fill="black"/>
<path opacity="0.1" d="M556.174 562.016L556.306 571.939C551.663 573.47 547.216 574.87 542.963 576.138V572.372L556.174 562.016Z" fill="black"/>
<path opacity="0.1" d="M591.089 538.481L591.391 559.493C586.748 561.263 582.25 562.933 577.897 564.502V548.836L591.089 538.481Z" fill="black"/>
<path opacity="0.1" d="M625.061 524.359L625.363 546.163C621.022 547.832 616.531 549.596 611.888 551.454V534.715L625.061 524.359Z" fill="black"/>
<path opacity="0.1" d="M658.089 514.945L658.354 534.263C654.076 535.694 649.59 537.25 644.897 538.932V525.301L658.089 514.945Z" fill="black"/>
<path opacity="0.1" d="M706.216 491.409L706.631 520.744C702.46 521.61 697.949 522.627 693.042 523.888V501.765L706.216 491.409Z" fill="black"/>
<path opacity="0.1" d="M756.909 520.367C752.467 518.698 747.809 517.671 743.075 517.317V482.861L756.286 472.505L756.909 520.367Z" fill="black"/>
<path d="M804.357 520.593C804.357 520.593 769.441 520.593 760.005 517.769C750.568 514.945 730.751 499.882 609.019 548.836C535.414 578.454 494.553 585.326 473.793 586.136C460.204 586.663 455.203 584.611 455.203 584.611C455.203 584.611 473.944 485.76 556.589 469.078C561.202 468.181 565.758 467.018 570.235 465.595C575.312 463.938 583.314 461.566 594.072 459.099C621.815 452.735 667.809 445.749 728.939 448.706C750.127 449.497 770.223 458.286 785.163 473.296C791.413 479.466 796.339 486.842 799.639 494.974C802.939 503.106 804.544 511.823 804.357 520.593Z" fill="#CC929B"/>
<path d="M594.072 459.099C496.12 501.238 477.246 560.529 473.793 586.136C460.204 586.663 455.203 584.611 455.203 584.611C455.203 584.611 473.944 485.76 556.589 469.078C561.202 468.181 565.758 467.018 570.235 465.595C575.312 463.881 583.314 461.566 594.072 459.099Z" fill="#F5C5CC"/>
<path d="M482.569 733.828L482.097 706.056L492.005 700.878L1169.55 852.448L1167.67 887.752L482.569 733.828Z" fill="#F5C5CC"/>
<path d="M492.005 700.878L1169.55 852.448L1168.61 865.628L483.569 705.284" fill="#CC929B"/>
<path d="M1488.51 1394.24C1501.02 1394.24 1511.16 1384.13 1511.16 1371.65C1511.16 1359.17 1501.02 1349.05 1488.51 1349.05C1476 1349.05 1465.86 1359.17 1465.86 1371.65C1465.86 1384.13 1476 1394.24 1488.51 1394.24Z" fill="#40414D"/>
<path d="M1188.43 1522.28C1200.93 1522.28 1211.07 1512.16 1211.07 1499.68C1211.07 1487.2 1200.93 1477.09 1188.43 1477.09C1175.92 1477.09 1165.78 1487.2 1165.78 1499.68C1165.78 1512.16 1175.92 1522.28 1188.43 1522.28Z" fill="#40414D"/>
<path d="M508.368 1035.24C508.368 1035.24 488.231 1057.83 481.946 1077.92C475.661 1098.01 489.495 1173.33 489.495 1173.33C496.587 1160.8 501.681 1147.24 504.594 1133.15C509.614 1109.31 508.368 1035.24 508.368 1035.24Z" fill="#FD968F"/>
<path d="M1463.97 1222.9C1463.97 1222.9 1476.24 1285.04 1477.19 1294.45C1478.13 1303.87 1446.05 1289.74 1446.05 1289.74L1463.97 1222.9Z" fill="#FD968F"/>
<path d="M1092.17 454.109H1091.85C1091.77 453.47 1091.53 452.86 1091.15 452.34C1090.29 451.334 1089.22 450.525 1088.02 449.967L1079.17 445.053L1086.81 447.821C1086.45 447.207 1086.06 446.615 1085.62 446.051L1086.51 446.54L1085.91 445.693L1085.1 445.411C1081.02 440.647 1074.22 438.67 1067.64 438.764H1067.75C1068.6 438.651 1069.47 438.576 1070.32 438.519C1068.43 438.401 1066.53 438.458 1064.66 438.689C1064.87 438.78 1065.09 438.843 1065.32 438.877C1064.71 438.877 1064.11 438.99 1063.43 439.065C1062.46 439.328 1061.44 439.328 1060.47 439.065C1059.87 438.762 1059.35 438.323 1058.95 437.783C1058.56 437.244 1058.29 436.619 1058.18 435.959C1057.24 432.193 1058.73 428.145 1059.16 424.21C1059.38 422.362 1059.18 420.491 1058.58 418.73C1058.58 418.354 1058.58 417.977 1058.58 417.601C1058.27 416.768 1057.76 416.02 1057.11 415.418C1056.45 414.816 1055.66 414.377 1054.8 414.136C1054.79 414.28 1054.79 414.425 1054.8 414.569L1054.48 414.437C1054.48 417.808 1054.48 421.197 1054.48 424.567C1051.55 422.261 1048.95 419.562 1046.76 416.546C1046.37 416.088 1046.11 415.537 1045.99 414.946C1045.8 413.232 1047.99 412.046 1048.12 410.314C1048.11 409.757 1047.93 409.218 1047.59 408.777C1047.25 408.336 1046.77 408.017 1046.24 407.866L1046.8 407.659C1046.13 407.349 1045.39 407.219 1044.65 407.283C1043.03 407.65 1041.44 408.128 1039.89 408.714L1040.38 408.808C1040.02 408.928 1039.65 409.029 1039.27 409.109C1034.53 410.088 1030.31 406.322 1026.89 402.914L1026.15 402.18C1024.53 388.002 1021.91 371.753 1021.91 371.753C1021.91 371.753 1019.55 353.188 1016.25 343.209C1012.94 333.229 1008.19 315.606 1008.19 315.606C1008.19 315.606 997.316 294.198 994.976 293.256C994.062 292.802 993.174 292.299 992.315 291.75C991.294 288.548 990.66 285.236 990.427 281.884C989.842 263.168 1009.89 249.875 1012.91 231.329C1015.38 216.266 1005.87 201.203 1007.24 185.933C1007.88 179.249 1010.58 172.96 1012.04 166.408C1013.42 160.051 1013.6 153.495 1012.58 147.071C1012.1 143.616 1011.06 140.264 1009.49 137.148C1012.23 133.612 1014.52 129.747 1016.3 125.644C1019.36 116.945 1016.06 107.229 1011.28 99.2835C995.938 73.9966 964.854 54.0947 935.789 51.5152C924.069 50.442 912.311 50.2348 900.572 50.0465C887.097 49.8018 873.168 49.6511 860.712 54.8479C835.95 65.1848 824.23 92.8064 809.188 115.1C796.762 133.537 780.851 149.379 762.345 161.738C753.644 167.537 743.471 173.713 741.433 184.012C741.239 185 741.119 186.001 741.075 187.006C740.82 186.101 740.612 185.183 740.452 184.257C738.395 195.008 746 204.969 749.888 215.23C751.92 220.593 753.091 226.242 753.361 231.969C753.512 229.26 753.512 226.544 753.361 223.835C757.136 243.379 750.209 264.354 745.925 284.331C745.604 285.8 745.359 287.269 745.057 288.737C741.541 289.716 738.193 291.22 735.129 293.2C728.409 297.662 720.798 300.617 712.821 301.861C702.121 303.537 692.495 309.305 685.984 317.941C684.776 319.56 683.606 320.671 682.587 320.784C678.34 321.273 654.673 395.006 654.673 395.006C654.673 395.006 649.747 425.377 649.747 432.494C649.747 439.611 641.235 491.014 641.235 491.014C641.235 491.014 638.385 500.428 639.348 504.325C639.895 506.491 638.593 513.74 637.366 519.577C636.852 519.363 636.399 519.027 636.045 518.598C634.63 515.754 608.585 518.598 616.644 537.633C618.647 542.755 621.76 547.371 625.759 551.152C622.173 560.115 619.059 568.456 619.475 569.51C619.475 569.51 619.475 576.307 620.079 584.705C614.549 588.471 610.019 591.86 610.019 591.86C609.623 602.253 616.568 603.91 623.098 603.534C624.778 609.559 627.231 614.341 630.836 615.64C642.67 619.933 650.238 618.032 654.031 621.289C657.825 624.546 678.057 630.873 678.057 630.873C686.65 632.164 695.306 632.988 703.989 633.339L707.461 635.072L707.046 633.189C708.16 632.982 707.65 631.664 706.254 629.423C705.631 626.542 704.838 622.776 703.951 618.484L709.141 616.601L710.557 618.691C708.669 628.557 707.461 635.128 707.461 635.128C707.461 635.128 698.025 668.907 702.252 674.141C706.48 679.375 702.252 686.041 702.252 686.041C702.252 686.041 701.309 694.589 703.687 694.589C706.065 694.589 708.877 705.528 706.518 706.018C704.159 706.508 693.306 715.526 697.081 717.428C700.856 719.33 697.081 723.604 697.081 727.897C697.081 731.022 702.856 735.654 705.989 737.932C705.423 739.966 704.838 742.131 704.291 744.259C702.668 750.548 701.403 756.611 701.799 758.814C702.743 764.048 699.44 778.791 700.384 783.554C701.328 788.318 704.649 798.768 702.271 803.061C699.893 807.354 702.743 821.607 702.743 821.607L707.008 862.032C707.008 862.032 704.177 873.461 707.008 876.304C709.839 879.147 712.217 912.474 715.048 916.278C717.879 920.081 722.164 940.058 718.823 946.723C715.483 953.389 723.088 967.171 723.088 967.171C723.088 967.171 722.617 983.345 722.617 987.619C722.617 991.893 726.863 998.559 726.863 998.559C726.863 998.559 731.128 1021.4 730.638 1027.1C730.147 1032.81 733.469 1040.9 733.469 1040.9C733.469 1040.9 736.319 1057.55 735.847 1061.35C735.375 1065.16 739.621 1070.39 739.621 1070.39C739.621 1070.39 744.83 1082.76 743.396 1087.99C741.962 1093.23 746.699 1098.46 746.699 1098.46C746.699 1098.46 746.227 1109.87 746.227 1111.3C746.227 1112.74 756.173 1124.15 756.173 1124.15C756.173 1124.15 751.908 1132.71 754.286 1136.05C756.664 1139.38 756.173 1151.26 759.948 1155.08C763.722 1158.9 762.779 1174.57 767.497 1177.43C772.215 1180.29 776.481 1182.67 777.424 1188.84C778.368 1195.02 782.162 1204.07 786.427 1205.5C787.236 1206.06 787.939 1206.75 788.503 1207.56L786.616 1215.56L780.784 1239.75C780.784 1239.75 775.122 1274.94 775.575 1280.18C776.028 1285.41 769.913 1290.65 769.913 1290.65C769.913 1290.65 764.704 1321.09 763.76 1324.9C762.816 1328.7 764.232 1335.84 764.232 1335.84C764.232 1335.84 760.929 1353.91 763.288 1354.87C765.647 1355.83 775.594 1365.81 775.594 1365.81H776.367L775.348 1369.39L759.023 1427.19C759.023 1427.19 743.924 1452.4 778.915 1465.25C780.085 1467.51 781.161 1467.56 779.897 1467.13C781.048 1468.11 804.432 1487.84 806.319 1497.08C808.206 1506.33 824.305 1516.1 829.986 1517.06C835.667 1518.02 873.527 1548.45 887.247 1518.49C900.968 1488.54 863.109 1469.01 863.109 1469.01L834.289 1450.5C834.289 1450.5 819.625 1429.09 817.303 1425.29C814.982 1421.49 810.679 1402.92 813.529 1400.08C814.982 1398.61 819.53 1385.58 823.645 1373.19C824.022 1372.01 824.419 1370.84 824.796 1369.67C832.836 1371.55 841.933 1367.79 841.933 1367.79L863.014 1334.61L866.789 1328.79L867.468 1330.15C867.468 1330.15 884.983 1331.58 893.495 1333.01C896.199 1333.12 898.903 1332.78 901.497 1332.01C901.818 1332.71 902.138 1333.43 902.44 1334.14C904.506 1338.55 906.259 1343.1 907.687 1347.75C909.103 1353.93 910.537 1375.81 910.537 1375.81C910.537 1375.81 901.1 1407.22 898.703 1412.92C896.307 1418.63 901.063 1466.21 947.925 1447.17C947.925 1447.17 953.587 1438.13 958.796 1438.13C964.005 1438.13 976.782 1425.29 972.007 1411.49C967.232 1397.69 947.472 1355.36 961.136 1333.01C972.158 1315.01 971.271 1290.87 956.455 1279.65C955.833 1279.18 955.172 1278.77 954.568 1278.35C954.729 1275.96 954.729 1273.55 954.568 1271.16C951.246 1225.5 930.033 1223.11 930.033 1223.11C930.033 1223.11 917.728 1220.27 916.312 1215.58C915.482 1212.83 904.818 1198.63 895.986 1187.09C896.288 1186.6 896.571 1186.11 896.854 1185.62C896.854 1185.45 897.043 1185.28 897.118 1185.11C897.533 1184.34 897.93 1183.55 898.307 1182.72C905.177 1167.32 903.403 1144.91 903.044 1140.9C902.573 1135.67 903.044 1129 903.044 1121.4C903.044 1113.79 910.594 1102.36 909.669 1098.09C908.744 1093.81 918.671 1076.21 918.671 1071.92C918.671 1067.62 925.636 1041.92 925.636 1041.92C925.636 1041.92 939.356 1012.42 942.206 1003.85C944.924 995.64 993.39 845.99 997.316 833.865C997.389 833.596 997.477 833.332 997.58 833.074C997.58 833.074 1013.06 782.556 1002.69 749.38C1002.02 747.19 1001.21 745.045 1000.26 742.96C1003.43 741.435 1005.62 740.324 1005.62 740.324C1005.62 740.324 999.467 722.248 1002.3 715.583C1005.13 708.918 1003.24 696.076 1003.24 696.076C1003.24 696.076 991.918 689.411 991.427 686.568C990.937 683.725 986.218 679.903 987.653 676.099C989.087 672.296 997.089 674.216 996.165 665.63C995.24 657.045 985.294 648.026 986.237 642.791C987.181 637.557 990.956 628.049 986.237 622.343C981.519 616.638 979.613 607.601 979.141 600.465C979.009 598.582 979.424 593.027 980.085 585.703C985.13 588.835 990.34 591.695 995.693 594.27C995.693 594.27 1016.04 597.132 1017 595.23C1018.82 592.806 1020.88 590.573 1023.15 588.565C1048.71 582.389 1037.35 535.845 1037.35 535.845C1037.35 535.845 1036.97 532.437 1036.36 526.826C1037.01 526.664 1037.61 526.376 1038.14 525.978C1040.31 524.397 1040.84 521.384 1042.16 519.012C1043.66 516.769 1045.42 514.709 1047.41 512.874C1052.09 507.79 1054.86 501.294 1057.54 494.911C1059.24 490.844 1060.98 486.777 1062.69 482.691C1064.41 478.605 1066.47 473.729 1070.24 470.773C1074.58 467.289 1080.47 466.612 1086 466.103C1085.78 461.878 1084.2 457.837 1081.49 454.58C1083.15 454.072 1084.91 453.944 1086.63 454.205C1088.34 454.466 1089.98 455.109 1091.42 456.086C1091.49 455.959 1091.56 455.827 1091.63 455.691H1091.74C1092.05 455.226 1092.21 454.67 1092.17 454.109ZM688.041 584.385C688.154 583.443 688.324 582.502 688.532 581.561C689.456 580.694 690.57 579.678 691.759 578.736L698.365 579.376C696.741 580.694 695.326 581.9 694.175 582.879C692.136 581.843 689.909 582.86 688.041 584.385ZM701.252 571.337C702.187 571.269 703.108 571.073 703.989 570.753C705.253 570.753 706.555 570.753 707.877 570.753H709.764C706.612 572.956 703.423 575.404 700.592 577.682L701.252 571.487V571.337ZM712.142 475.311C712.142 475.311 711.708 488.829 712.67 502.424C711.198 503.459 709.67 504.589 708.16 505.775L711.5 474.426L712.142 475.311Z" fill="url(#paint0_linear_114_305)"/>
<path d="M958.645 1436.14C953.455 1436.14 947.793 1445.08 947.793 1445.08C901.082 1463.91 896.363 1416.84 898.723 1411.19C901.082 1405.54 910.518 1374.47 910.518 1374.47C910.518 1374.47 909.103 1352.82 907.687 1346.7C906.256 1342.1 904.51 1337.6 902.46 1333.24C899.289 1326.03 895.892 1318.93 895.892 1318.93C895.892 1318.93 916.18 1269.03 943.075 1273.74C947.868 1274.54 952.399 1276.48 956.286 1279.39C971.064 1290.5 971.951 1314.39 960.948 1332.11C947.265 1354.23 967.081 1396.13 971.8 1409.78C976.518 1423.43 963.835 1436.14 958.645 1436.14Z" fill="#FDC2CC"/>
<path d="M887.399 1515.69C873.716 1545.34 835.969 1515.22 830.307 1514.28C824.645 1513.33 808.603 1503.92 806.716 1494.51C804.828 1485.09 781.482 1465.83 780.293 1464.87C781.558 1465.26 780.482 1465.21 779.312 1462.99C744.396 1450.28 759.495 1425.33 759.495 1425.33L775.764 1368.13L780.255 1352.37L831.213 1349.07C831.213 1349.07 827.722 1360.2 823.834 1371.89C819.738 1384.15 815.209 1397.05 813.755 1398.5C810.924 1401.32 815.171 1419.68 817.53 1423.45C819.889 1427.21 834.516 1448.39 834.516 1448.39L863.298 1466.75C863.298 1466.75 901.082 1486.03 887.399 1515.69Z" fill="#FDC2CC"/>
<path opacity="0.1" d="M831.251 1349.05C831.251 1349.05 827.759 1360.18 823.871 1371.87C821.209 1371.11 818.845 1369.55 817.096 1367.41L776.047 1368.35L775.801 1368.11L780.293 1352.35L831.251 1349.05Z" fill="black"/>
<path d="M997.335 837.385C997.335 837.385 997.335 837.649 997.09 838.157C993.164 850.151 944.849 998.201 942.131 1006.37C939.3 1014.85 925.617 1044.03 925.617 1044.03C925.617 1044.03 918.539 1069.45 918.539 1073.68C918.539 1077.92 908.631 1095.34 909.575 1099.57C910.518 1103.81 902.969 1115.11 902.969 1122.64C902.969 1130.17 902.497 1136.76 902.969 1141.94C903.328 1145.91 905.083 1168.09 898.232 1183.36C896.738 1186.92 894.521 1190.12 891.721 1192.78C890.958 1193.46 890.144 1194.09 889.286 1194.66C872.3 1205.96 870.885 1321.75 870.885 1321.75L870.092 1323L863.203 1333.77L842.103 1366.53C842.103 1366.53 825.117 1373.59 817.096 1363.7L776.047 1364.64C776.047 1364.64 766.138 1354.76 763.779 1353.82C761.42 1352.88 764.723 1334.99 764.723 1334.99C764.723 1334.99 763.307 1327.93 764.251 1324.16C765.195 1320.4 770.385 1290.27 770.385 1290.27C770.385 1290.27 776.519 1285.09 776.047 1279.92C775.575 1274.74 781.237 1239.9 781.237 1239.9L787.05 1215.97L789.919 1204.17L795.864 1179.69L835.969 826.182L886.927 810.649L985.067 815.356L995.825 834.749L997.335 837.385Z" fill="#5F5D7E"/>
<path opacity="0.1" d="M859.089 1011.08C858.617 1020.02 856.258 1033.67 857.201 1041.68C858.145 1049.68 861.448 1079.8 860.032 1085.45C858.617 1091.1 865.222 1097.69 867.582 1100.52C869.941 1103.34 868.525 1111.81 868.997 1118.4C869.469 1124.99 875.603 1131.11 875.603 1131.11C875.603 1131.11 868.525 1146.18 873.715 1148.53C878.906 1150.88 889.758 1172.54 889.758 1172.54C889.758 1172.54 893.4 1177.11 898.232 1183.32C896.384 1187.86 893.281 1191.78 889.286 1194.62C872.3 1205.92 870.884 1321.71 870.884 1321.71L870.092 1322.96L859.561 1301.94C859.561 1301.94 796.807 1207.33 792.561 1205.92C791.537 1205.52 790.63 1204.87 789.918 1204.04L795.864 1179.56L835.969 826.051L886.927 810.517L985.067 815.224L933.392 820.402C933.392 820.402 910.424 836.839 910.273 837.348L868.997 854.764L861.448 967.736C861.448 967.736 859.561 1002.14 859.089 1011.08Z" fill="black"/>
<path opacity="0.1" d="M995.825 834.655C994.523 839.89 858.617 824.205 858.617 824.205L859.561 860.451L852.011 973.422C852.011 973.422 850.124 1007.78 849.652 1016.73C849.18 1025.67 846.821 1039.32 847.765 1047.32C848.709 1055.33 852.011 1085.45 850.596 1091.1C849.18 1096.75 855.786 1103.34 858.145 1106.16C860.504 1108.99 859.089 1117.46 859.561 1124.05C860.032 1130.64 866.166 1136.76 866.166 1136.76C866.166 1136.76 859.089 1151.82 864.279 1154.18C869.469 1156.53 880.321 1178.18 880.321 1178.18C880.321 1178.18 885.511 1184.72 891.645 1192.74C890.883 1193.43 890.069 1194.06 889.21 1194.62C872.225 1205.92 870.809 1321.71 870.809 1321.71L870.016 1322.96L863.203 1333.77L850.124 1307.69C850.124 1307.69 801.714 1234.69 787.05 1215.97L789.919 1204.17L795.864 1179.69L835.969 826.182L886.927 810.649L985.067 815.356L995.825 834.655Z" fill="black"/>
<path opacity="0.1" d="M956.342 1279.31C954.455 1313.02 918.86 1329.51 902.46 1333.24C899.289 1326.03 895.892 1318.93 895.892 1318.93C895.892 1318.93 916.18 1269.03 943.075 1273.74C947.881 1274.51 952.432 1276.42 956.342 1279.31Z" fill="black"/>
<path d="M853.427 1011.08C852.955 1020.02 850.596 1033.67 851.54 1041.68C852.483 1049.68 855.786 1079.8 854.371 1085.45C852.955 1091.1 859.561 1097.69 861.92 1100.52C864.279 1103.34 862.864 1111.81 863.335 1118.4C863.807 1124.99 869.941 1131.11 869.941 1131.11C869.941 1131.11 862.864 1146.18 868.054 1148.53C873.244 1150.88 884.096 1172.54 884.096 1172.54C884.096 1172.54 914.765 1211.13 916.18 1215.84C917.596 1220.55 929.863 1223.37 929.863 1223.37C929.863 1223.37 951.096 1225.73 954.399 1270.92C957.701 1316.1 902.025 1333.52 893.532 1332.11C885.04 1330.7 867.582 1329.28 867.582 1329.28L853.899 1301.98C853.899 1301.98 791.145 1207.37 786.899 1205.96C782.653 1204.54 778.878 1195.6 777.934 1189.48C776.991 1183.36 772.744 1181.01 768.026 1178.18C763.307 1175.36 764.251 1159.83 760.477 1156.06C756.702 1152.29 757.174 1140.53 754.815 1137.23C752.455 1133.94 756.702 1125.46 756.702 1125.46C756.702 1125.46 746.793 1114.17 746.793 1112.75C746.793 1111.34 747.265 1100.05 747.265 1100.05C747.265 1100.05 742.547 1094.87 743.962 1089.69C745.378 1084.51 740.188 1072.27 740.188 1072.27C740.188 1072.27 735.941 1067.09 736.413 1063.33C736.885 1059.56 734.054 1043.09 734.054 1043.09C734.054 1043.09 730.751 1035.09 731.223 1029.44C731.695 1023.79 727.448 1001.19 727.448 1001.19C727.448 1001.19 723.202 994.605 723.202 990.368C723.202 986.132 723.674 970.127 723.674 970.127C723.674 970.127 716.125 956.477 719.427 949.887C722.73 943.297 718.484 923.527 715.653 919.761C712.822 915.995 710.463 883.045 707.632 880.221C704.801 877.396 707.632 866.099 707.632 866.099L703.385 826.088C703.385 826.088 700.554 811.967 702.913 807.73C705.272 803.494 701.97 793.138 701.026 788.431C700.082 783.724 703.385 769.132 702.441 763.954C702.045 761.77 703.31 755.782 704.914 749.55C707.141 740.964 709.991 731.945 709.991 731.945C709.991 731.945 952.511 709.351 987.427 732.886C994.976 737.932 999.638 745.596 1002.53 754.558C1012.85 787.395 997.411 837.404 997.411 837.404L863.411 854.821L855.862 967.793C855.862 967.793 853.899 1002.14 853.427 1011.08Z" fill="#5F5D7E"/>
<path opacity="0.1" d="M814.737 1178.65C814.737 1178.65 856.73 1165.95 866.638 1174.42C876.547 1182.89 814.737 1178.65 814.737 1178.65Z" fill="black"/>
<path opacity="0.1" d="M829.835 1232.32C829.835 1232.32 842.575 1218.67 861.448 1222.9C872.52 1225.48 884.134 1224.32 894.476 1219.61L829.835 1232.32Z" fill="black"/>
<path opacity="0.1" d="M874.188 1247.85C874.188 1247.85 908.631 1243.14 910.047 1247.38C911.462 1251.62 874.188 1247.85 874.188 1247.85Z" fill="black"/>
<path opacity="0.1" d="M864.279 1275.62C864.279 1275.62 902.497 1264.33 904.384 1269.03C906.272 1273.74 862.392 1275.15 862.392 1275.15L864.279 1275.62Z" fill="black"/>
<path opacity="0.1" d="M907.215 1021.91C907.215 1021.91 871.356 1053.44 876.546 1056.74C881.736 1060.03 907.215 1021.91 907.215 1021.91Z" fill="black"/>
<path opacity="0.1" d="M877.962 1100.05C877.962 1100.05 902.969 1100.05 898.251 1105.69C893.532 1111.34 877.962 1100.05 877.962 1100.05Z" fill="black"/>
<path opacity="0.1" d="M893.06 1122.17C893.06 1122.17 883.152 1130.64 885.511 1132.52C887.87 1134.41 893.06 1122.17 893.06 1122.17Z" fill="black"/>
<path opacity="0.1" d="M784.068 1324.11C784.068 1324.11 815.209 1334.46 815.68 1341.05C816.152 1347.64 784.068 1324.11 784.068 1324.11Z" fill="black"/>
<path d="M935.053 339.838L925.145 398.678C925.145 398.678 839.272 443.867 837.857 443.867C836.441 443.867 775.103 433.511 772.744 433.511C770.385 433.511 730.279 312.537 758.589 305.005C766.252 302.972 777.368 298.076 789.503 291.995C822.23 275.67 862.392 250.873 862.392 250.873C862.392 250.873 922.314 244.283 907.687 285.706C902.025 301.955 904.932 313.779 910.65 322.158C919.634 335.15 935.053 339.838 935.053 339.838Z" fill="#FDC2CC"/>
<path opacity="0.1" d="M935.053 339.838L925.145 398.678C925.145 398.678 839.272 443.867 837.857 443.867C836.441 443.867 775.103 433.511 772.744 433.511C770.385 433.511 730.279 312.537 758.589 305.005C766.252 302.972 777.368 298.076 789.503 291.995C797.223 292.503 802.469 293.237 802.469 293.237C802.469 293.237 821.343 365.257 822.758 387.381C824.174 409.504 873.244 411.858 876.547 410.916C879.849 409.975 893.532 355.843 893.532 355.843C893.532 355.843 892.117 337.014 896.363 337.014C899.912 337.014 908.103 325.717 910.65 322.158C919.634 335.15 935.053 339.838 935.053 339.838Z" fill="black"/>
<path opacity="0.1" d="M1002.45 754.558C995.882 757.759 980.179 765.065 976.027 763.973C970.837 762.56 958.098 762.56 958.098 762.56C958.098 762.56 950.548 771.033 942.527 769.15C934.506 767.268 902.894 768.68 902.894 768.68C902.894 768.68 846.274 771.033 835.422 767.268C824.57 763.502 785.88 760.207 785.88 760.207C785.88 760.207 733.035 754.087 724.07 750.322C721.542 749.221 718.766 748.816 716.028 749.147C713.29 749.478 710.691 750.534 708.5 752.205C708.5 752.205 706.858 751.131 704.838 749.569C707.065 740.983 709.915 731.964 709.915 731.964C709.915 731.964 952.436 709.369 987.351 732.905C994.9 737.932 999.638 745.596 1002.45 754.558Z" fill="black"/>
<path d="M802.469 297.003C802.469 297.003 754.814 290.413 735.941 303.122C729.235 307.541 721.651 310.464 713.708 311.69C703.059 313.336 693.466 319.04 686.946 327.6C685.738 329.219 684.568 330.311 683.568 330.424C679.321 330.895 655.73 403.856 655.73 403.856L712.821 483.407C712.821 483.407 711.406 527.654 719.427 536.127C727.448 544.6 708.103 641.567 708.103 641.567C708.103 641.567 698.666 674.988 702.913 680.166C707.159 685.344 702.913 691.934 702.913 691.934C702.913 691.934 701.969 700.407 704.328 700.407C706.688 700.407 709.519 711.233 707.159 711.704C704.8 712.175 693.948 721.119 697.723 723.001C701.497 724.884 697.723 729.121 697.723 733.357C697.723 737.594 708.575 744.654 708.575 744.654C710.766 742.983 713.365 741.927 716.103 741.596C718.841 741.265 721.618 741.671 724.145 742.771C733.11 746.537 785.955 752.657 785.955 752.657C785.955 752.657 824.645 755.952 835.497 759.717C846.349 763.483 902.969 761.129 902.969 761.129C902.969 761.129 934.581 759.717 942.602 761.6C950.624 763.483 958.173 755.01 958.173 755.01C958.173 755.01 970.912 755.01 976.102 756.422C981.292 757.834 1005.36 745.596 1005.36 745.596C1005.36 745.596 999.222 727.709 1002.05 721.119C1004.88 714.529 1003 701.819 1003 701.819C1003 701.819 991.673 695.229 991.201 692.405C990.729 689.581 986.011 685.815 987.426 682.049C988.842 678.283 996.863 680.166 995.919 671.693C994.975 663.22 985.067 654.277 986.011 649.099C986.954 643.921 990.729 634.507 986.011 628.858C981.292 623.21 979.405 614.266 978.933 607.205C978.461 600.144 986.011 536.127 986.011 536.127L968.553 407.151L1021.87 380.791C1021.87 380.791 1019.51 362.433 1016.21 352.548C1012.91 342.663 1008.19 325.246 1008.19 325.246C1008.19 325.246 997.335 304.064 994.975 303.122C992.616 302.181 967.609 285.706 961.947 288.06C956.285 290.413 911.462 324.775 911.462 324.775C911.462 324.775 900.61 340.78 896.363 340.78C892.117 340.78 893.532 359.608 893.532 359.608C893.532 359.608 879.849 413.741 876.546 414.682C873.243 415.624 824.173 413.27 822.758 391.146C821.342 369.023 802.469 297.003 802.469 297.003Z" fill="#D39999"/>
<path d="M728.486 575.309C721.941 576.746 715.274 577.565 708.575 577.757C698.893 578.021 690.381 576.797 688.286 573.314C682.625 563.899 682.625 546.012 682.625 546.012C682.625 546.012 708.217 551.905 725.882 558.345L728.807 559.437C735.658 562.092 740.867 564.803 742.018 567.175C743.66 570.357 737.338 573.332 728.486 575.309Z" fill="#FDC2CC"/>
<path opacity="0.1" d="M913.821 313.478C961.508 313.478 1000.17 274.912 1000.17 227.337C1000.17 179.763 961.508 141.196 913.821 141.196C866.134 141.196 827.476 179.763 827.476 227.337C827.476 274.912 866.134 313.478 913.821 313.478Z" fill="black"/>
<path d="M913.821 309.712C961.508 309.712 1000.17 271.146 1000.17 223.571C1000.17 175.997 961.508 137.43 913.821 137.43C866.134 137.43 827.476 175.997 827.476 223.571C827.476 271.146 866.134 309.712 913.821 309.712Z" fill="#FDC2CC"/>
<path opacity="0.1" d="M722.73 688.639C722.73 688.639 747.265 688.639 756.702 690.993C766.138 693.346 785.955 693.817 785.955 693.817C785.955 693.817 731.223 691.934 722.73 688.639Z" fill="black"/>
<path opacity="0.1" d="M723.674 703.702C723.674 703.702 755.286 706.056 755.758 710.763C756.23 715.47 723.674 703.702 723.674 703.702Z" fill="black"/>
<path opacity="0.1" d="M964.307 645.804C964.307 645.804 983.652 652.865 983.18 655.218C982.708 657.572 966.194 651.453 964.307 645.804Z" fill="black"/>
<path d="M667.998 395.383L655.73 403.856C655.73 403.856 650.54 433.982 650.54 441.042C650.54 448.103 642.047 498.94 642.047 498.94C642.047 498.94 639.216 508.355 640.16 512.12C641.104 515.886 636.385 535.186 636.385 535.186C636.385 535.186 619.399 574.255 620.343 576.609C621.287 578.962 701.026 586.494 701.026 586.494L712.35 481.053L667.998 395.383Z" fill="#D39999"/>
<path d="M632.139 563.899L620.343 576.609C620.343 576.609 619.871 618.032 631.667 622.268C643.463 626.504 651.012 624.622 654.786 627.917C658.561 631.212 678.85 637.331 678.85 637.331C678.85 637.331 701.026 640.626 707.631 639.684C714.237 638.743 668.941 602.498 698.667 571.901L632.139 563.899Z" fill="#D39999"/>
<path d="M1005.36 362.433L1021.87 380.791C1021.87 380.791 1028.95 424.567 1027.06 430.687C1025.17 436.806 1036.97 543.188 1036.97 543.188C1036.97 543.188 1048.29 589.318 1022.81 595.437C1020.55 597.421 1018.5 599.629 1016.68 602.027C1015.74 603.91 995.447 601.086 995.447 601.086L964.307 397.266L1005.36 362.433Z" fill="#D39999"/>
<path opacity="0.1" d="M780.765 530.949C780.765 530.949 842.575 494.233 853.899 492.35C865.223 490.467 935.525 457.047 935.525 457.047C935.525 457.047 970.441 474.934 973.744 488.585C977.046 502.235 959.117 556.838 959.117 556.838C959.117 556.838 901.554 596.849 898.251 605.322C894.948 613.795 845.406 638.743 845.406 642.98C845.406 647.216 767.082 693.346 732.639 652.865C698.195 612.383 698.667 600.615 698.667 600.615L785.955 580.374L794.448 542.717L780.765 530.949Z" fill="black"/>
<path d="M780.765 527.183C780.765 527.183 842.575 490.468 853.899 488.585C865.223 486.702 935.525 453.281 935.525 453.281C935.525 453.281 970.441 471.168 973.744 484.819C977.046 498.47 959.117 553.073 959.117 553.073C959.117 553.073 901.554 593.084 898.251 601.557C894.948 610.029 845.406 634.977 845.406 639.214C845.406 643.45 767.082 689.581 732.639 649.099C698.195 608.617 698.667 596.849 698.667 596.849L785.955 576.609L794.448 538.951L780.765 527.183Z" fill="#C4C8E2"/>
<path d="M685.455 543.658L682.624 567.194L660.184 565.556L638.272 563.937C638.272 563.937 625.533 563.937 617.512 545.108C609.491 526.28 635.441 523.455 636.857 526.28C637.933 528.407 665.167 537.275 678.378 541.474L685.455 543.658Z" fill="#FDC2CC"/>
<path opacity="0.1" d="M685.455 543.658L682.624 567.194L660.184 565.556C663.845 560.134 671.508 550.211 678.397 541.474L685.455 543.658Z" fill="black"/>
<path opacity="0.1" d="M682.625 546.012C682.625 546.012 708.217 551.905 725.882 558.345C724.712 560.228 716.898 572.429 708.575 577.757C698.893 578.021 690.381 576.797 688.286 573.314C682.625 563.899 682.625 546.012 682.625 546.012Z" fill="black"/>
<path opacity="0.1" d="M728.486 575.309L728.071 572.052C728.071 572.052 727.882 571.355 727.712 570.301C727.373 568.155 727.127 564.54 728.713 562.337C729.637 561.037 729.43 560.115 728.826 559.456C735.677 562.111 740.886 564.822 742.037 567.194C743.66 570.358 737.338 573.332 728.486 575.309Z" fill="black"/>
<path d="M808.603 559.908C808.603 559.908 782.973 585.496 781.388 590.975C779.803 596.454 731.374 596.624 731.374 596.624L728.071 570.263C728.071 570.263 727.882 569.567 727.713 568.512C727.373 566.366 727.127 562.751 728.713 560.548C731.072 557.253 726.033 556.311 726.033 556.311C726.033 556.311 712.973 577.795 701.97 578.435C701.97 578.435 686.72 589.412 686.871 591.615C686.871 591.615 679.473 598.356 679.322 606.509C679.171 614.661 669.734 617.975 662.808 615.622C655.881 613.268 638.744 608.241 633.233 609.032C627.722 609.822 610.284 614.981 610.906 598.826C610.906 598.826 633.554 581.881 639.216 582.351C644.878 582.822 658.089 576.232 659.977 571.054C661.864 565.876 693.948 526.336 693.948 526.336C693.948 526.336 714.237 507.187 722.409 505.305C722.409 505.305 738.772 492.595 763.458 511.895C763.458 511.895 797.6 532.907 798.695 535.732C799.563 537.953 809.471 547.443 810.302 554.56C810.493 555.522 810.438 556.517 810.141 557.452C809.844 558.387 809.315 559.231 808.603 559.908Z" fill="#FDC2CC"/>
<path opacity="0.1" d="M728.543 522.476C728.543 522.476 731.053 536.918 729.807 542.096C728.562 547.274 726.033 556.217 726.033 556.217C726.033 556.217 741.282 532.361 728.543 522.476Z" fill="black"/>
<path opacity="0.1" d="M729.638 557.629C729.638 557.629 737.508 548.987 739.244 551.19C740.98 553.393 729.638 557.629 729.638 557.629Z" fill="black"/>
<path d="M1051.84 469.53C1051.84 481.509 1047.93 493.161 1040.69 502.722C1033.46 512.282 1023.3 519.231 1011.75 522.514C1006.92 523.899 1001.93 524.609 996.901 524.623H996.618C989.368 524.62 982.19 523.193 975.493 520.423C968.797 517.653 962.712 513.594 957.588 508.479C952.463 503.363 948.399 497.29 945.627 490.607C942.855 483.925 941.43 476.763 941.432 469.53C941.423 466.297 941.714 463.07 942.301 459.89C944.453 447.847 950.57 436.863 959.683 428.679C968.797 420.494 980.386 415.575 992.616 414.701C993.938 414.588 995.278 414.532 996.618 414.532C1011.25 414.527 1025.28 420.316 1035.64 430.629C1045.99 440.942 1051.82 454.933 1051.84 469.53Z" fill="#F8BDC5"/>
<path d="M1080.96 462.771C1083.66 465.989 1085.23 469.993 1085.45 474.181C1079.94 474.689 1074.13 475.348 1069.75 478.794C1065.98 481.731 1064.09 486.325 1062.2 490.599C1060.48 494.629 1058.77 498.658 1057.07 502.687C1054.39 508.995 1051.63 515.434 1046.97 520.461C1044.99 522.274 1043.23 524.309 1041.72 526.524C1040.42 528.878 1039.84 531.853 1037.72 533.434C1036.66 534.083 1035.45 534.458 1034.21 534.527C1032.96 534.596 1031.72 534.357 1030.59 533.83C1028.27 532.964 1026.19 531.514 1023.87 530.591C1022.38 530.019 1020.83 529.614 1019.25 529.386C1012.34 528.37 1004.73 529.857 998.864 526.148C998.184 525.698 997.552 525.18 996.977 524.604C994.684 522.361 993.024 519.556 992.164 516.47C991.732 515.219 991.578 513.889 991.711 512.572C991.981 511.368 992.513 510.238 993.27 509.262C994.027 508.286 994.989 507.487 996.09 506.924C996.41 506.735 996.731 506.547 997.071 506.378C1002.73 503.422 1010.6 502.725 1013.57 496.963C1016.4 491.503 1012.89 484.857 1008.58 480.451C1006.55 478.379 1004.13 476.026 1004.41 473.126C1004.68 470.566 1006.96 468.777 1008.87 467.063C1014.26 462.197 1017.9 455.691 1019.21 448.555C1019.71 446.35 1019.67 444.057 1019.1 441.871C1018.51 440.303 1017.7 438.826 1016.7 437.484L1010.58 428.446C1008.7 425.256 1006.12 422.528 1003.03 420.463C1000.49 418.937 997.562 418.41 994.995 416.904C994.018 416.371 993.198 415.592 992.617 414.645C992.293 414.115 992.185 413.481 992.315 412.875C992.636 411.368 994.202 410.634 995.769 410.201C999.822 409.027 1004.06 408.625 1008.26 409.015C1009.59 409.297 1010.97 409.297 1012.3 409.015C1012.96 408.839 1013.54 408.432 1013.92 407.868C1014.31 407.305 1014.47 406.623 1014.4 405.946C1019.04 404.741 1023.44 408.356 1026.83 411.745C1030.23 415.134 1034.38 418.843 1039.18 417.883C1040.89 417.544 1042.48 416.565 1044.22 416.377C1045.95 416.188 1048.1 417.318 1047.99 419.069C1047.88 420.82 1045.69 421.95 1045.88 423.645C1045.99 424.231 1046.26 424.777 1046.65 425.226C1048.83 428.218 1051.41 430.892 1054.33 433.172C1054.33 429.839 1054.33 426.488 1054.33 423.155C1058.11 424.096 1059.48 428.917 1059.05 432.814C1058.62 436.712 1057.16 440.647 1058.07 444.45C1058.18 445.102 1058.45 445.718 1058.84 446.251C1059.23 446.783 1059.74 447.217 1060.33 447.519C1061.3 447.782 1062.33 447.782 1063.3 447.519C1071.96 446.295 1082.08 448.593 1086.38 456.181L1078.83 453.45L1087.61 458.233C1088.81 458.784 1089.88 459.587 1090.74 460.586C1091.16 461.094 1091.4 461.721 1091.44 462.376C1091.48 463.032 1091.32 463.684 1090.97 464.239C1089.51 463.265 1087.86 462.628 1086.13 462.373C1084.4 462.119 1082.63 462.255 1080.96 462.771Z" fill="#585268"/>
<g opacity="0.1">
<path opacity="0.1" d="M1064.33 447.086C1065.3 447.349 1066.33 447.349 1067.3 447.086C1068.15 446.973 1069 446.898 1069.86 446.842C1067.98 446.722 1066.08 446.779 1064.2 447.011L1064.33 447.086Z" fill="black"/>
<path opacity="0.1" d="M1082.75 453.074L1086 454.863L1085.4 454.015L1082.75 453.074Z" fill="black"/>
<path opacity="0.1" d="M1058.41 432.739C1058.41 430.555 1058.41 428.352 1058.41 426.149C1058.08 425.329 1057.57 424.594 1056.92 424C1056.26 423.406 1055.48 422.969 1054.63 422.722V429.35C1055.82 430.557 1057.08 431.689 1058.41 432.739Z" fill="black"/>
<path opacity="0.1" d="M1086.53 462.112C1088.2 462.397 1089.78 463.04 1091.17 463.994C1091.5 463.557 1091.67 463.017 1091.64 462.469C1089.98 461.984 1088.24 461.862 1086.53 462.112Z" fill="black"/>
<path opacity="0.1" d="M1034.76 533.547C1032.44 532.681 1030.36 531.232 1028.04 530.309C1026.55 529.736 1025 529.332 1023.42 529.104C1016.51 528.087 1008.9 529.575 1003.03 525.865C1002.36 525.415 1001.72 524.898 1001.15 524.321C998.854 522.079 997.194 519.274 996.335 516.187C995.903 514.936 995.748 513.606 995.882 512.29C996.152 511.086 996.684 509.956 997.441 508.979C998.197 508.003 999.16 507.205 1000.26 506.641C1000.58 506.453 1000.9 506.265 1001.24 506.095C1007 503.139 1014.77 502.443 1017.74 496.681C1020.57 491.221 1017.06 484.574 1012.75 480.168C1010.72 478.097 1008.3 475.744 1008.58 472.844C1008.85 470.283 1011.13 468.495 1013.04 466.781C1018.43 461.914 1022.07 455.409 1023.38 448.273C1023.88 446.068 1023.84 443.775 1023.27 441.588C1022.68 440.02 1021.87 438.543 1020.87 437.201L1014.75 428.164C1012.87 424.973 1010.29 422.245 1007.21 420.18C1004.66 418.655 1001.73 418.128 999.166 416.622C998.189 416.088 997.369 415.309 996.787 414.362C996.464 413.832 996.356 413.199 996.485 412.592C996.806 411.086 998.467 410.352 999.939 409.919C1002.4 409.23 1004.93 408.813 1007.49 408.676C1003.67 408.451 999.842 408.871 996.165 409.919C994.693 410.352 993.032 411.086 992.711 412.592C992.581 413.199 992.689 413.832 993.013 414.362C993.594 415.309 994.414 416.088 995.391 416.622C997.958 418.128 1000.88 418.655 1003.43 420.18C1006.51 422.245 1009.09 424.973 1010.98 428.164L1017.1 437.201C1018.1 438.543 1018.9 440.02 1019.49 441.588C1020.07 443.775 1020.11 446.068 1019.61 448.273C1018.29 455.409 1014.66 461.914 1009.26 466.781C1007.38 468.495 1005.07 470.283 1004.81 472.844C1004.53 475.744 1006.94 478.097 1008.98 480.168C1013.28 484.574 1016.79 491.221 1013.96 496.681C1011 502.424 1003.22 503.12 997.467 506.095C997.127 506.265 996.806 506.453 996.485 506.641C995.385 507.205 994.423 508.003 993.666 508.979C992.909 509.956 992.377 511.086 992.107 512.29C991.974 513.606 992.128 514.936 992.56 516.187C993.42 519.274 995.08 522.079 997.373 524.321C997.948 524.898 998.58 525.415 999.26 525.865C1005.13 529.631 1012.74 528.087 1019.64 529.104C1021.22 529.332 1022.78 529.736 1024.27 530.309C1026.59 531.232 1028.66 532.681 1030.99 533.547C1032.67 534.238 1034.53 534.395 1036.31 533.999C1035.78 533.886 1035.26 533.735 1034.76 533.547Z" fill="black"/>
<path opacity="0.1" d="M1043.25 417.45C1044.41 417.154 1045.56 416.783 1046.67 416.339C1046 416.013 1045.26 415.877 1044.52 415.944C1042.92 416.323 1041.34 416.801 1039.8 417.375C1040.93 417.655 1042.11 417.68 1043.25 417.45Z" fill="black"/>
<path opacity="0.1" d="M1012.34 408.676C1013.68 408.928 1015.05 408.896 1016.38 408.582C1017.03 408.406 1017.61 408.002 1017.99 407.443C1018.37 406.883 1018.55 406.206 1018.47 405.532C1017.24 405.213 1015.94 405.213 1014.7 405.532C1014.78 406.209 1014.61 406.891 1014.22 407.454C1013.84 408.018 1013.26 408.424 1012.6 408.601C1012.47 408.641 1012.34 408.672 1012.21 408.695L1012.34 408.676Z" fill="black"/>
</g>
<path d="M946.849 439.404C939.809 444.657 928.58 446.936 918.256 447.689C910.185 448.327 902.075 448.327 894.004 447.689L875.829 440.873C875.829 440.873 877.301 437.954 879.793 434.095C884.756 426.412 893.778 414.983 903.195 415.454C917.35 416.151 932.222 416.847 933.638 416.847C935.053 416.847 962.646 427.636 946.849 439.404Z" fill="#FDC2CC"/>
<path d="M900.874 62.5111C887.436 62.2664 873.564 62.1157 861.24 67.2748C836.46 77.4987 824.777 104.819 809.792 126.849C797.364 145.104 781.5 160.778 763.081 172.998C754.399 178.646 744.321 184.86 742.226 195.027C739.999 205.778 747.699 215.739 751.662 225.925C760.061 247.597 751.662 271.603 746.699 294.311C744.377 305.217 742.881 316.281 742.226 327.411C741.686 332.565 742.024 337.772 743.226 342.813C747.001 356.106 761.269 365.709 761.382 379.529C761.382 388.943 754.739 397.831 756.683 406.981C759.193 418.674 773.423 422.892 785.219 424.906C788.043 425.68 791.035 425.588 793.806 424.643C795.693 423.739 797.241 422.007 799.166 421.046C805.715 417.808 812.981 424.643 820.304 424.511C829.495 424.341 834.667 413.515 834.893 404.345C835.12 395.176 832.666 385.517 835.969 377.044C840.366 365.747 852.955 360.38 863.58 354.449C875.338 347.878 886.53 338.389 890.003 325.416C892.173 317.395 891.192 308.903 890.324 300.656C889.002 288.003 887.965 275.294 887.247 262.603C885.36 230.218 912.33 203.236 944.735 205.76H945.339C954.776 206.532 965.911 207.435 972.573 200.582C975.215 197.852 976.895 194.086 980.122 192.203C986.426 188.625 995.089 193.728 1001.43 190.207C1006.39 187.439 1007.45 180.793 1006.68 175.144C1005.9 169.496 1003.92 163.847 1004.98 158.311C1006.49 150.46 1013.64 144.849 1016.3 137.299C1019.36 128.694 1016.06 119.072 1011.3 111.277C996.07 86.2164 965.061 66.597 935.997 63.9609C924.314 62.8312 912.594 62.6994 900.874 62.5111Z" fill="#865A61"/>
<path opacity="0.1" d="M879.793 434.038C891.003 436.335 904.649 441.438 918.256 447.67C910.185 448.308 902.075 448.308 894.004 447.67L875.829 440.854C875.829 440.854 877.301 437.898 879.793 434.038Z" fill="black"/>
<path opacity="0.1" d="M1019.27 529.386C1012.36 528.37 1004.75 529.857 998.882 526.148C998.203 525.698 997.571 525.18 996.995 524.604H996.712C989.456 524.614 982.269 523.197 975.563 520.433C968.857 517.67 962.762 513.615 957.628 508.5C952.494 503.385 948.421 497.31 945.642 490.623C942.863 483.936 941.432 476.769 941.432 469.53C941.423 466.297 941.714 463.07 942.301 459.89C961.646 470.679 977.329 481.769 980.349 487.191C984.812 494.328 990.067 500.941 996.014 506.905C1001.28 512.554 1006.92 517.976 1011.75 522.514C1014.62 525.169 1017.21 527.522 1019.27 529.386Z" fill="black"/>
<path d="M1022.34 535.656C1022.34 535.656 987.898 506.001 978.462 489.055C969.025 472.11 836.441 400.09 853.427 454.693C870.413 509.296 928.92 514.474 928.92 514.474C928.92 514.474 947.793 535.656 949.68 546.012C951.567 556.368 958.173 571.431 958.173 571.431L989.786 585.552L1004.41 582.257C1004.41 582.257 1038.86 563.428 1022.34 535.656Z" fill="#FDC2CC"/>
<path opacity="0.1" d="M956.286 569.548C956.286 569.548 1011.96 601.086 1017.62 527.183L1031.78 531.891L1017.62 581.786L993.56 599.203C993.56 599.203 960.06 583.669 956.286 569.548Z" fill="black"/>
<path d="M958.173 571.431C958.173 571.431 1013.85 602.969 1019.51 529.066L1033.67 533.773L1019.51 583.669L995.447 601.086C995.447 601.086 961.947 585.552 958.173 571.431Z" fill="#D39999"/>
<path d="M1007.34 196.929C1007.98 190.32 1010.68 184.088 1012.09 177.592C1013.49 171.308 1013.68 164.817 1012.66 158.462C1012.09 153.871 1010.38 149.496 1007.68 145.734C1005.79 143.38 1000.13 138.202 996.826 140.537C994.938 141.874 994.429 149.612 993.674 151.834C991.025 159.297 987.476 166.41 983.105 173.016C992.438 185.865 998.032 201.037 999.268 216.857C1000.5 232.677 997.336 248.53 990.112 262.667C982.889 276.804 971.89 288.675 958.331 296.97C944.772 305.265 929.179 309.662 913.274 309.675C911.217 309.675 909.179 309.581 907.159 309.43C905.272 312.706 903.554 316.02 901.818 319.334C899.767 322.699 898.384 326.425 897.741 330.311C897.584 334.026 898.154 337.735 899.421 341.232C902.935 352.734 907.787 363.786 913.878 374.163C916.002 377.384 917.743 380.84 919.068 384.462C920.144 387.946 920.333 391.674 921.729 395.025C924.862 402.557 933.053 406.322 940.602 409.467C945.113 411.35 949.831 413.232 954.701 412.837C955.157 412.871 955.615 412.81 956.046 412.657C956.477 412.504 956.872 412.263 957.204 411.949C957.536 411.636 957.799 411.256 957.976 410.835C958.153 410.414 958.239 409.961 958.23 409.504C958.492 407.531 958.287 405.524 957.631 403.644C956.976 401.764 955.888 400.063 954.455 398.678C960.858 400.68 967.577 401.478 974.272 401.031C974.871 401.156 975.494 401.106 976.065 400.888C976.637 400.669 977.133 400.292 977.495 399.799C977.858 399.307 978.07 398.721 978.108 398.112C978.145 397.502 978.006 396.895 977.707 396.362C975.969 389.26 973.318 382.412 969.818 375.989C966.383 369.663 962.004 362.301 965.137 355.843C966.93 352.077 970.705 349.968 974.14 347.728C985.747 340.196 996.033 327.92 995.127 314.118C994.636 306.587 990.824 299.413 990.597 291.825C990.012 273.317 1009.98 260.08 1013 241.798C1015.4 226.848 1005.88 212.048 1007.34 196.929Z" fill="#865A61"/>
<g opacity="0.1">
<path opacity="0.1" d="M760.363 371.998C760.25 358.177 746.001 348.575 742.207 335.282C741.623 333.185 741.262 331.033 741.131 328.861C740.711 333.539 741.074 338.254 742.207 342.813C745.68 354.958 757.834 364.033 760.005 376.065C760.247 374.723 760.367 373.361 760.363 371.998Z" fill="black"/>
<path opacity="0.1" d="M819.285 416.979C811.962 417.111 804.696 410.276 798.147 413.515C796.26 414.475 794.75 416.207 792.787 417.111C790.016 418.057 787.024 418.149 784.2 417.375C772.442 415.36 758.249 411.161 755.701 399.563C755.22 402.012 755.22 404.532 755.701 406.981C758.211 418.674 772.442 422.891 784.238 424.906C787.062 425.68 790.054 425.588 792.825 424.643C794.712 423.739 796.26 422.007 798.185 421.046C804.734 417.808 812 424.643 819.323 424.511C828.514 424.341 833.685 413.515 833.912 404.345C833.912 402.462 833.912 400.58 833.78 398.697C832.817 407.395 827.835 416.81 819.285 416.979Z" fill="black"/>
<path opacity="0.1" d="M889.022 317.865C885.511 330.838 874.32 340.328 862.599 346.899C851.974 352.849 839.385 358.196 834.988 369.493C833.369 374.372 832.816 379.54 833.365 384.65C833.528 382.043 834.075 379.474 834.988 377.025C839.385 365.728 851.974 360.361 862.599 354.43C874.357 347.859 885.549 338.37 889.022 325.397C890.22 320.471 890.621 315.386 890.211 310.334C890.064 312.877 889.666 315.4 889.022 317.865Z" fill="black"/>
<path opacity="0.1" d="M992.353 183.899C987.804 183.561 983.067 182.506 979.141 184.69C975.838 186.573 974.159 190.339 971.592 193.069C964.93 199.923 953.889 199.019 944.358 198.247H943.754C911.349 195.724 884.417 222.724 886.266 255.091C886.266 255.335 886.266 255.599 886.266 255.844C886.716 248.784 888.563 241.882 891.7 235.537C894.836 229.193 899.2 223.53 904.541 218.876C909.881 214.222 916.093 210.668 922.816 208.42C929.54 206.173 936.643 205.275 943.716 205.778H944.32C953.757 206.55 964.892 207.454 971.554 200.6C974.196 197.87 975.876 194.105 979.103 192.222C982.878 190.038 987.691 191.092 992.315 191.431C995.945 200.432 998.019 209.981 998.449 219.674C998.449 218.45 998.543 217.226 998.543 215.908C998.544 204.942 996.442 194.078 992.353 183.899Z" fill="black"/>
<path opacity="0.1" d="M754.173 242.532C754.738 234.345 753.561 226.132 750.719 218.431C747.737 210.73 742.622 203.18 741.282 195.328C739.225 205.967 746.831 215.814 750.719 225.963C752.736 231.27 753.901 236.862 754.173 242.532Z" fill="black"/>
<path opacity="0.1" d="M1012.21 162.849C1012.03 165.276 1011.68 167.686 1011.15 170.06C1009.73 176.556 1007.04 182.789 1006.39 189.397C1006.17 191.752 1006.17 194.122 1006.39 196.477C1007.11 190.038 1009.7 183.937 1011.09 177.648C1012.19 172.796 1012.56 167.81 1012.21 162.849Z" fill="black"/>
<path opacity="0.1" d="M1011.98 234.304C1008.96 252.586 988.993 265.823 989.578 284.331C989.608 285.334 989.696 286.333 989.842 287.325C992.22 271.114 1009.22 258.593 1011.98 241.835C1012.45 238.8 1012.51 235.717 1012.17 232.666C1012.11 233.212 1012.11 233.758 1011.98 234.304Z" fill="black"/>
<path opacity="0.1" d="M1015.42 129.729C1013.63 133.764 1011.35 137.559 1008.62 141.027C1009.4 142.543 1010.04 144.132 1010.51 145.771C1012.5 143.129 1014.13 140.236 1015.36 137.167C1016.54 133.653 1016.84 129.902 1016.23 126.246C1016.06 127.429 1015.79 128.595 1015.42 129.729Z" fill="black"/>
<path opacity="0.1" d="M993.881 312.104C992.202 323.627 983.161 333.662 973.121 340.234C969.686 342.474 965.911 344.658 964.118 348.349C962.877 351.126 962.695 354.26 963.609 357.161C963.742 356.72 963.913 356.292 964.118 355.88C965.911 352.115 969.686 350.006 973.121 347.765C984.728 340.234 995.014 327.957 994.108 314.156C994.07 313.459 993.976 312.782 993.881 312.104Z" fill="black"/>
<path opacity="0.1" d="M956.135 404.515C955.435 405.048 954.58 405.339 953.7 405.343C948.831 405.757 944.113 403.856 939.602 401.973C932.053 398.847 923.824 395.044 920.729 387.531C919.332 384.18 919.143 380.452 918.068 376.968C916.743 373.346 915.001 369.89 912.877 366.669C906.787 356.293 901.935 345.24 898.421 333.738C897.873 332 897.419 330.234 897.062 328.447C896.93 329.068 896.816 329.709 896.741 330.33C896.584 334.044 897.154 337.754 898.421 341.25C901.935 352.753 906.787 363.805 912.877 374.182C915.001 377.403 916.743 380.859 918.068 384.481C919.143 387.964 919.332 391.692 920.729 395.044C923.862 402.575 932.053 406.341 939.602 409.486C944.113 411.368 948.831 413.251 953.7 412.856C954.156 412.89 954.615 412.829 955.046 412.676C955.477 412.523 955.871 412.282 956.204 411.968C956.536 411.654 956.799 411.275 956.975 410.854C957.152 410.433 957.239 409.98 957.229 409.523C957.478 407.622 957.284 405.689 956.663 403.875C956.528 404.118 956.349 404.335 956.135 404.515Z" fill="black"/>
<path opacity="0.1" d="M975.725 392.954C974.952 393.322 974.109 393.521 973.252 393.538C966.558 393.984 959.838 393.186 953.436 391.184C955.775 393.442 957.159 396.507 957.305 399.751C962.525 400.979 967.9 401.423 973.252 401.069C973.852 401.194 974.474 401.144 975.046 400.926C975.617 400.707 976.114 400.329 976.476 399.837C976.838 399.345 977.05 398.759 977.088 398.149C977.125 397.54 976.986 396.932 976.687 396.4C976.404 395.232 976.064 394.084 975.725 392.954Z" fill="black"/>
</g>
<path opacity="0.1" d="M712.35 434.452C712.35 434.452 710.463 473.051 716.124 475.875C721.786 478.7 712.35 434.452 712.35 434.452Z" fill="black"/>
<path opacity="0.1" d="M819.455 536.127C821.342 536.127 828.892 539.893 829.835 544.129C830.779 548.366 819.455 536.127 819.455 536.127Z" fill="black"/>
<path opacity="0.1" d="M814.737 542.246C816.624 542.246 824.173 546.012 825.117 550.249C826.061 554.485 814.737 542.246 814.737 542.246Z" fill="black"/>
<path opacity="0.1" d="M832.194 559.192C834.082 559.192 841.631 562.958 842.575 567.194C843.518 571.431 832.194 559.192 832.194 559.192Z" fill="black"/>
<path opacity="0.1" d="M808.603 559.908C808.603 559.908 782.973 585.496 781.388 590.975C779.802 596.454 731.374 596.623 731.374 596.623L728.071 570.263C728.071 570.263 727.882 569.567 727.712 568.512C741.093 565.086 784.483 549.1 810.301 554.767C810.457 555.697 810.384 556.651 810.088 557.547C809.792 558.442 809.282 559.252 808.603 559.908Z" fill="black"/>
<path d="M691.891 592.293C691.891 592.293 716.596 570.489 724.145 570.96C731.695 571.431 823.701 532.361 829.835 576.138C835.969 619.914 712.35 622.268 712.35 622.268L693.477 629.329C693.477 629.329 677.736 595.117 691.891 592.293Z" fill="#FDC2CC"/>
<path d="M684.663 595.437C684.663 595.437 695.987 579.753 699.44 598.883C702.894 618.013 708.103 641.567 708.103 641.567L682.775 629.009L684.663 595.437Z" fill="#D39999"/>
<path opacity="0.1" d="M1733.28 1264.08C1779.96 1264.08 1817.81 1258.29 1817.81 1251.15C1817.81 1244 1779.96 1238.21 1733.28 1238.21C1686.59 1238.21 1648.74 1244 1648.74 1251.15C1648.74 1258.29 1686.59 1264.08 1733.28 1264.08Z" fill="#FD968F"/>
<path opacity="0.1" d="M1494.66 1504.92C1567.63 1504.92 1626.77 1495.86 1626.77 1484.7C1626.77 1473.53 1567.63 1464.47 1494.66 1464.47C1421.7 1464.47 1362.55 1473.53 1362.55 1484.7C1362.55 1495.86 1421.7 1504.92 1494.66 1504.92Z" fill="#FD968F"/>
<path opacity="0.1" d="M1853.25 1583C1949.76 1583 2028 1571.02 2028 1556.24C2028 1541.47 1949.76 1529.49 1853.25 1529.49C1756.74 1529.49 1678.51 1541.47 1678.51 1556.24C1678.51 1571.02 1756.74 1583 1853.25 1583Z" fill="#FD968F"/>
<path opacity="0.1" d="M132.112 1297.82C205.076 1297.82 264.225 1288.77 264.225 1277.6C264.225 1266.43 205.076 1257.38 132.112 1257.38C59.1487 1257.38 0 1266.43 0 1277.6C0 1288.77 59.1487 1297.82 132.112 1297.82Z" fill="#FD968F"/>
<path d="M1666.62 1127.05C1666.62 1127.05 1654.67 1182.59 1707.85 1189.18L1711.16 1183C1711.16 1183 1669.92 1144.33 1666.62 1127.05Z" fill="#FD968F"/>
<path d="M1728.07 1182.57L1715.71 1185.19L1714.46 1185.47C1714.46 1185.47 1681.47 1158.73 1681.88 1099.07C1686.31 1107.86 1691.58 1116.2 1697.64 1123.96C1710.72 1141.2 1725.52 1164.31 1728.07 1182.57Z" fill="#FD968F"/>
<path d="M1732.26 1188.29C1731.28 1188.93 1730.18 1189.34 1729.03 1189.49C1727.87 1189.64 1726.7 1189.53 1725.59 1189.16C1693.83 1181.76 1704.57 1078.51 1704.57 1078.51C1706.33 1079.33 1708.34 1092.46 1715.55 1109.42C1728.37 1139.21 1742.51 1180.82 1732.26 1188.29Z" fill="#FD968F"/>
<path d="M1802.69 1127.05C1802.69 1127.05 1804.77 1182.59 1751.56 1189.18L1748.26 1183C1748.26 1183 1799.41 1144.33 1802.69 1127.05Z" fill="#FD968F"/>
<path d="M1787.44 1099.07C1787.84 1158.73 1744.98 1185.47 1744.98 1185.47L1743.73 1185.19L1731.37 1182.57C1733.8 1164.25 1748.71 1141.15 1761.77 1123.96C1769.17 1114.55 1777.81 1106.18 1787.44 1099.07Z" fill="#FD968F"/>
<path d="M1743.54 1182.89C1741.63 1185.21 1739.21 1187.06 1736.47 1188.29C1735.64 1188.68 1734.77 1188.97 1733.88 1189.16C1726.05 1191.04 1723.33 1185.4 1723.78 1175.81C1724.52 1158.87 1735.24 1129.3 1744.86 1107.24C1751.79 1091.35 1763.11 1079.3 1764.79 1078.51C1764.76 1078.51 1764.28 1158.9 1743.54 1182.89Z" fill="#FD968F"/>
<path d="M1734.65 1042.3C1734.65 1042.3 1699.19 1167.77 1729.71 1186.69C1760.23 1205.62 1742.51 1053.41 1734.65 1042.3Z" fill="#FD968F"/>
<path opacity="0.1" d="M1666.62 1127.05C1666.62 1127.05 1654.67 1182.59 1707.85 1189.18L1711.16 1183C1711.16 1183 1669.92 1144.33 1666.62 1127.05Z" fill="black"/>
<path opacity="0.1" d="M1728.07 1182.57L1715.71 1185.19L1714.46 1185.47C1714.46 1185.47 1681.47 1158.73 1681.88 1099.07C1686.31 1107.86 1691.58 1116.2 1697.64 1123.96C1710.72 1141.2 1725.52 1164.31 1728.07 1182.57Z" fill="black"/>
<path opacity="0.1" d="M1732.26 1188.29C1731.28 1188.93 1730.18 1189.34 1729.03 1189.49C1727.87 1189.64 1726.7 1189.53 1725.59 1189.16C1693.83 1181.76 1704.57 1078.51 1704.57 1078.51C1706.33 1079.33 1708.34 1092.46 1715.55 1109.42C1728.37 1139.21 1742.51 1180.82 1732.26 1188.29Z" fill="black"/>
<path opacity="0.1" d="M1802.69 1127.05C1802.69 1127.05 1804.77 1182.59 1751.56 1189.18L1748.26 1183C1748.26 1183 1799.41 1144.33 1802.69 1127.05Z" fill="black"/>
<path opacity="0.1" d="M1787.44 1099.07C1787.84 1158.73 1744.98 1185.47 1744.98 1185.47L1743.73 1185.19L1731.37 1182.57C1733.8 1164.25 1748.71 1141.15 1761.77 1123.96C1769.17 1114.55 1777.81 1106.18 1787.44 1099.07Z" fill="black"/>
<path opacity="0.1" d="M1743.54 1182.89C1741.63 1185.21 1739.21 1187.06 1736.47 1188.29C1735.64 1188.68 1734.77 1188.97 1733.88 1189.16C1726.05 1191.04 1723.33 1185.4 1723.78 1175.81C1724.52 1158.87 1735.24 1129.3 1744.86 1107.24C1751.79 1091.35 1763.11 1079.3 1764.79 1078.51C1764.76 1078.51 1764.28 1158.9 1743.54 1182.89Z" fill="black"/>
<path opacity="0.1" d="M1734.65 1042.3C1734.65 1042.3 1699.19 1167.77 1729.71 1186.69C1760.23 1205.62 1742.51 1053.41 1734.65 1042.3Z" fill="black"/>
<path d="M1666.62 1127.05C1666.62 1127.05 1659.61 1182.59 1712.8 1189.18L1716.1 1183C1716.1 1183 1669.92 1144.33 1666.62 1127.05Z" fill="#FD968F"/>
<path d="M1733.07 1182.57L1720.71 1185.19L1719.46 1185.47C1719.46 1185.47 1681.53 1158.73 1681.94 1099.07C1681.94 1099.07 1691.66 1109.46 1702.7 1123.96C1715.69 1141.2 1730.54 1164.31 1733.07 1182.57Z" fill="#FD968F"/>
<path opacity="0.1" d="M1733.07 1182.57L1720.71 1185.19C1708.99 1174.93 1704.32 1148.11 1702.65 1123.96C1715.69 1141.2 1730.54 1164.31 1733.07 1182.57Z" fill="black"/>
<path d="M1737.2 1188.29C1736.23 1188.93 1735.12 1189.34 1733.97 1189.49C1732.82 1189.64 1731.64 1189.53 1730.54 1189.16C1698.78 1181.76 1704.57 1078.51 1704.57 1078.51C1706.33 1079.33 1713.2 1092.46 1720.5 1109.42C1733.31 1139.21 1747.39 1180.82 1737.2 1188.29Z" fill="#FD968F"/>
<path d="M1802.69 1127.05C1802.69 1127.05 1809.71 1182.59 1756.51 1189.18L1753.23 1183C1753.23 1183 1799.41 1144.33 1802.69 1127.05Z" fill="#FD968F"/>
<path d="M1787.44 1099.07C1787.84 1158.73 1749.92 1185.47 1749.92 1185.47L1748.68 1185.19L1736.31 1182.57C1738.77 1164.25 1753.66 1141.15 1766.72 1123.96C1777.72 1109.46 1787.44 1099.07 1787.44 1099.07Z" fill="#FD968F"/>
<path opacity="0.1" d="M1766.72 1123.96C1765.13 1146.55 1761.06 1171.29 1750.96 1182.89C1750.27 1183.72 1749.5 1184.49 1748.68 1185.19L1736.31 1182.57C1738.73 1164.31 1753.66 1141.2 1766.72 1123.96Z" fill="black"/>
<path d="M1748.49 1182.89C1746.58 1185.21 1744.16 1187.06 1741.41 1188.29C1740.57 1188.67 1739.7 1188.96 1738.81 1189.16C1730.99 1191.04 1728.26 1185.4 1728.71 1175.81C1729.44 1158.87 1740.16 1129.3 1749.79 1107.24C1756.72 1091.35 1763 1079.3 1764.78 1078.51C1764.76 1078.51 1769.25 1158.9 1748.49 1182.89Z" fill="#FD968F"/>
<path opacity="0.1" d="M1737.2 1188.29C1735.4 1188.29 1733.65 1187.73 1732.18 1186.69C1717.23 1177.41 1716.93 1142.56 1720.5 1109.5C1733.31 1139.21 1747.39 1180.82 1737.2 1188.29Z" fill="black"/>
<path opacity="0.1" d="M1748.49 1182.89C1746.77 1186.66 1744.45 1188.54 1741.41 1188.29C1739.88 1188.1 1738.42 1187.55 1737.15 1186.69C1733.27 1184.03 1730.32 1180.23 1728.71 1175.81C1729.45 1158.87 1740.16 1129.3 1749.79 1107.24C1753.21 1137.95 1754.34 1170.33 1748.49 1182.89Z" fill="black"/>
<path d="M1734.65 1042.3C1734.65 1042.3 1704.15 1167.77 1734.65 1186.69C1765.15 1205.62 1742.51 1053.41 1734.65 1042.3Z" fill="#FD968F"/>
<path d="M1793.22 1180.54H1666.22V1201.51H1685.58L1686.07 1203.98L1693.83 1244.71H1767.66L1775.42 1203.98L1775.89 1201.51H1793.22V1180.54Z" fill="#4B4770"/>
<path opacity="0.1" d="M1793.22 1180.54H1666.22V1201.51H1685.58L1686.07 1203.98L1693.83 1244.71H1767.66L1775.42 1203.98L1775.89 1201.51H1793.22V1180.54Z" fill="black"/>
<path d="M1782.5 1192.87L1780.38 1203.98L1772.61 1244.71H1698.78L1691.02 1203.98L1688.89 1192.87H1782.5Z" fill="#4B4770"/>
<path opacity="0.1" d="M1782.5 1192.87L1780.38 1203.98H1691.02L1688.89 1192.87H1782.5Z" fill="black"/>
<path d="M1798.16 1180.54H1671.16V1201.51H1798.16V1180.54Z" fill="#4B4770"/>
<path d="M206.001 1056.59C204.19 1059.06 202.742 1061.78 201.698 1064.67C201.434 1065.36 201.169 1066.17 200.905 1066.94C200.429 1066.72 199.929 1066.55 199.414 1066.44C197.215 1065.88 194.939 1065.68 192.677 1065.85C192.677 1064.99 192.79 1063.97 192.809 1063.08C193.092 1053.16 191.922 1039.34 182.428 1045.2C173.331 1050.85 179.824 1060.26 185.693 1066.29C186.203 1066.81 186.713 1067.3 187.203 1067.77C181.843 1071.54 180.824 1080.44 179.937 1089.69C179.05 1098.93 171.18 1109.05 165.952 1114.81C165.424 1115.39 164.952 1115.92 164.48 1116.41C162.381 1114.73 159.951 1113.52 157.348 1112.85C154.746 1112.18 152.031 1112.06 149.381 1112.51C149.174 1111.7 148.947 1110.85 148.683 1109.95C144.361 1094.64 135.604 1068.28 124.393 1062.63C124.865 1062.05 125.356 1061.45 125.865 1060.75C130.621 1054.54 135.981 1045.31 128.074 1042.96C120.166 1040.6 119.449 1050.96 119.883 1058.72C119.883 1059.68 120.034 1060.6 120.109 1061.47C118.535 1061.54 116.991 1061.93 115.573 1062.61C114.155 1063.3 112.892 1064.27 111.862 1065.46L110.635 1064.01C104.218 1056.48 92.4599 1044.5 88.8928 1053.56C85.59 1061.97 95.9325 1072.93 103.218 1079.28L103.671 1079.67C98.7824 1099.48 120.128 1115.62 131.622 1122.66L133.113 1123.58C117.259 1142.2 107.464 1177.15 107.464 1177.15L151.873 1185.06C151.873 1185.06 181.296 1159.71 177.521 1135.93H177.823C207.247 1130.04 213.928 1098.75 209.36 1080.18L209.87 1079.95C215.226 1077.77 219.922 1074.23 223.496 1069.69C231.706 1058.26 214.456 1045.39 206.001 1056.59Z" fill="#FD968F"/>
<path opacity="0.1" d="M206.001 1056.59C204.19 1059.06 202.742 1061.78 201.698 1064.67C201.434 1065.36 201.169 1066.17 200.905 1066.94C200.429 1066.72 199.929 1066.55 199.414 1066.44C197.215 1065.88 194.939 1065.68 192.677 1065.85C192.677 1064.99 192.79 1063.97 192.809 1063.08C193.092 1053.16 191.922 1039.34 182.428 1045.2C173.331 1050.85 179.824 1060.26 185.693 1066.29C186.203 1066.81 186.713 1067.3 187.203 1067.77C181.843 1071.54 180.824 1080.44 179.937 1089.69C179.05 1098.93 171.18 1109.05 165.952 1114.81C165.424 1115.39 164.952 1115.92 164.48 1116.41C162.381 1114.73 159.951 1113.52 157.348 1112.85C154.746 1112.18 152.031 1112.06 149.381 1112.51C149.174 1111.7 148.947 1110.85 148.683 1109.95C144.361 1094.64 135.604 1068.28 124.393 1062.63C124.865 1062.05 125.356 1061.45 125.865 1060.75C130.621 1054.54 135.981 1045.31 128.074 1042.96C120.166 1040.6 119.449 1050.96 119.883 1058.72C119.883 1059.68 120.034 1060.6 120.109 1061.47C118.535 1061.54 116.991 1061.93 115.573 1062.61C114.155 1063.3 112.892 1064.27 111.862 1065.46L110.635 1064.01C104.218 1056.48 92.4599 1044.5 88.8928 1053.56C85.59 1061.97 95.9325 1072.93 103.218 1079.28L103.671 1079.67C98.7824 1099.48 120.128 1115.62 131.622 1122.66L133.113 1123.58C117.259 1142.2 107.464 1177.15 107.464 1177.15L151.873 1185.06C151.873 1185.06 181.296 1159.71 177.521 1135.93H177.823C207.247 1130.04 213.928 1098.75 209.36 1080.18L209.87 1079.95C215.226 1077.77 219.922 1074.23 223.496 1069.69C231.706 1058.26 214.456 1045.39 206.001 1056.59Z" fill="black"/>
<path d="M117.637 1069.35L112.446 1084.42C112.446 1084.42 109.559 1082.38 105.916 1079.18C98.6313 1072.84 88.2888 1061.88 91.5916 1053.46C95.1586 1044.41 106.917 1056.36 113.333 1063.91C115.919 1067.02 117.637 1069.35 117.637 1069.35Z" fill="#FD968F"/>
<path d="M128.583 1060.75C127.004 1062.81 125.316 1064.79 123.525 1066.68C123.083 1064.04 122.774 1061.38 122.601 1058.72C122.166 1050.96 122.997 1040.66 130.791 1042.96C138.586 1045.25 133.339 1054.5 128.583 1060.75Z" fill="#FD968F"/>
<path d="M195.526 1063.08C195.375 1068.07 194.885 1072.07 194.885 1072.07C192.596 1070.29 190.433 1068.36 188.411 1066.29C182.541 1060.22 176.049 1050.85 185.146 1045.2C194.639 1039.34 195.809 1053.22 195.526 1063.08Z" fill="#FD968F"/>
<path d="M226.195 1069.64C222.621 1074.18 217.925 1077.71 212.569 1079.9C211.085 1080.55 209.559 1081.1 208.002 1081.56L201.887 1072.99C202.534 1070.16 203.379 1067.38 204.416 1064.67C205.459 1061.78 206.908 1059.06 208.719 1056.59C217.174 1045.39 234.424 1058.26 226.195 1069.64Z" fill="#FD968F"/>
<path opacity="0.1" d="M113.334 1064.01C115.919 1067.02 117.637 1069.35 117.637 1069.35L112.447 1084.42C112.447 1084.42 109.559 1082.38 105.917 1079.18C106.726 1074.33 108.737 1069.75 111.767 1065.87C112.277 1065.27 112.824 1064.61 113.334 1064.01Z" fill="black"/>
<path opacity="0.1" d="M128.583 1060.75C127.004 1062.81 125.315 1064.79 123.525 1066.68C123.083 1064.04 122.774 1061.38 122.6 1058.72C124.759 1058.75 126.851 1059.46 128.583 1060.75Z" fill="black"/>
<path d="M154.118 1120.87L141.19 1126.52C141.19 1126.52 138.378 1125.16 134.32 1122.64C120.751 1114.32 93.4788 1093.36 111.673 1068.66C129.866 1043.95 145.21 1088.26 151.306 1109.93C153.137 1116.43 154.118 1120.87 154.118 1120.87Z" fill="#FD968F"/>
<path opacity="0.1" d="M188.411 1066.29C190.291 1064.36 192.834 1063.21 195.526 1063.08C195.375 1068.07 194.885 1072.07 194.885 1072.07C192.596 1070.29 190.433 1068.36 188.411 1066.29Z" fill="black"/>
<path opacity="0.1" d="M212.569 1079.9C211.085 1080.55 209.559 1081.1 208.002 1081.56L201.887 1072.99C202.534 1070.16 203.379 1067.38 204.416 1064.67C208.36 1066.96 211.267 1072.69 212.569 1079.9Z" fill="black"/>
<path d="M180.522 1135.88L178.352 1136.25C135.075 1142.8 164.084 1119.51 164.084 1119.51C164.084 1119.51 165.971 1117.63 168.67 1114.81C173.898 1109.05 181.749 1098.99 182.655 1089.69C184.014 1075.7 185.58 1062.58 202.132 1066.44C218.382 1070.16 221.496 1127.69 180.522 1135.88Z" fill="#FD968F"/>
<path d="M179.71 1243.37H97.0269V1265.06H179.71V1243.37Z" fill="#D4DFEC"/>
<path d="M191.921 1172.86H83.8911V1248.55H191.921V1172.86Z" fill="#D4DFEC"/>
<path opacity="0.1" d="M179.71 1243.37H97.0269V1265.06H179.71V1243.37Z" fill="black"/>
<path opacity="0.1" d="M191.921 1172.86H83.8911V1248.55H191.921V1172.86Z" fill="black"/>
<path d="M185.146 1243.37H102.462V1265.06H185.146V1243.37Z" fill="#D4DFEC"/>
<path opacity="0.1" d="M151.306 1109.95C153.194 1116.43 154.118 1120.87 154.118 1120.87L141.19 1126.52C141.19 1126.52 138.378 1125.16 134.32 1122.64C139.378 1116.28 145.078 1111.44 151.306 1109.95Z" fill="black"/>
<path opacity="0.1" d="M180.522 1135.88L178.352 1136.25C135.075 1142.8 164.084 1119.51 164.084 1119.51C164.084 1119.51 165.971 1117.63 168.67 1114.81C176.748 1121.25 180.088 1128.53 180.522 1135.88Z" fill="black"/>
<path d="M110.163 1177.15C110.163 1177.15 134.396 1090.54 168.386 1117.27C202.377 1144.01 154.571 1185.06 154.571 1185.06L110.163 1177.15Z" fill="#FD968F"/>
<path opacity="0.1" d="M122.393 1084.96C123.894 1084.96 125.11 1083.75 125.11 1082.25C125.11 1080.75 123.894 1079.54 122.393 1079.54C120.892 1079.54 119.675 1080.75 119.675 1082.25C119.675 1083.75 120.892 1084.96 122.393 1084.96Z" fill="black"/>
<path opacity="0.1" d="M122.166 1097.62C123.667 1097.62 124.884 1096.4 124.884 1094.9C124.884 1093.41 123.667 1092.19 122.166 1092.19C120.665 1092.19 119.448 1093.41 119.448 1094.9C119.448 1096.4 120.665 1097.62 122.166 1097.62Z" fill="black"/>
<path opacity="0.1" d="M200.999 1087.45C202.5 1087.45 203.717 1086.23 203.717 1084.74C203.717 1083.24 202.5 1082.03 200.999 1082.03C199.499 1082.03 198.282 1083.24 198.282 1084.74C198.282 1086.23 199.499 1087.45 200.999 1087.45Z" fill="black"/>
<path opacity="0.1" d="M137.567 1152.29C139.068 1152.29 140.285 1151.08 140.285 1149.58C140.285 1148.09 139.068 1146.87 137.567 1146.87C136.066 1146.87 134.849 1148.09 134.849 1149.58C134.849 1151.08 136.066 1152.29 137.567 1152.29Z" fill="black"/>
<path opacity="0.1" d="M195.337 1108.46C196.838 1108.46 198.055 1107.25 198.055 1105.75C198.055 1104.25 196.838 1103.04 195.337 1103.04C193.836 1103.04 192.62 1104.25 192.62 1105.75C192.62 1107.25 193.836 1108.46 195.337 1108.46Z" fill="black"/>
<path opacity="0.1" d="M167.254 1136.48C168.755 1136.48 169.972 1135.26 169.972 1133.77C169.972 1132.27 168.755 1131.06 167.254 1131.06C165.753 1131.06 164.537 1132.27 164.537 1133.77C164.537 1135.26 165.753 1136.48 167.254 1136.48Z" fill="black"/>
<path opacity="0.1" d="M131.678 1090.39C133.179 1090.39 134.396 1089.17 134.396 1087.67C134.396 1086.18 133.179 1084.96 131.678 1084.96C130.177 1084.96 128.96 1086.18 128.96 1087.67C128.96 1089.17 130.177 1090.39 131.678 1090.39Z" fill="black"/>
<path opacity="0.1" d="M193.526 1095.58C195.027 1095.58 196.244 1094.37 196.244 1092.87C196.244 1091.37 195.027 1090.16 193.526 1090.16C192.025 1090.16 190.808 1091.37 190.808 1092.87C190.808 1094.37 192.025 1095.58 193.526 1095.58Z" fill="black"/>
<path opacity="0.1" d="M184.24 1116.6C185.741 1116.6 186.958 1115.38 186.958 1113.88C186.958 1112.39 185.741 1111.17 184.24 1111.17C182.739 1111.17 181.522 1112.39 181.522 1113.88C181.522 1115.38 182.739 1116.6 184.24 1116.6Z" fill="black"/>
<path opacity="0.1" d="M155.704 1150.26C157.205 1150.26 158.422 1149.05 158.422 1147.55C158.422 1146.05 157.205 1144.84 155.704 1144.84C154.203 1144.84 152.986 1146.05 152.986 1147.55C152.986 1149.05 154.203 1150.26 155.704 1150.26Z" fill="black"/>
<path opacity="0.1" d="M149.815 1136.93C151.316 1136.93 152.533 1135.72 152.533 1134.22C152.533 1132.72 151.316 1131.51 149.815 1131.51C148.314 1131.51 147.098 1132.72 147.098 1134.22C147.098 1135.72 148.314 1136.93 149.815 1136.93Z" fill="black"/>
<path opacity="0.1" d="M135.755 1106.88C137.256 1106.88 138.473 1105.67 138.473 1104.17C138.473 1102.67 137.256 1101.46 135.755 1101.46C134.254 1101.46 133.037 1102.67 133.037 1104.17C133.037 1105.67 134.254 1106.88 135.755 1106.88Z" fill="black"/>
<path opacity="0.1" d="M185.146 1243.37H102.462V1251.3H185.146V1243.37Z" fill="black"/>
<path d="M197.357 1172.86H89.3267V1248.55H197.357V1172.86Z" fill="#D4DFEC"/>
<path opacity="0.1" d="M159.328 1162.46C160.829 1162.46 162.045 1161.25 162.045 1159.75C162.045 1158.25 160.829 1157.04 159.328 1157.04C157.827 1157.04 156.61 1158.25 156.61 1159.75C156.61 1161.25 157.827 1162.46 159.328 1162.46Z" fill="black"/>
<path opacity="0.1" d="M143.021 1165.85C144.522 1165.85 145.739 1164.64 145.739 1163.14C145.739 1161.64 144.522 1160.43 143.021 1160.43C141.52 1160.43 140.303 1161.64 140.303 1163.14C140.303 1164.64 141.52 1165.85 143.021 1165.85Z" fill="black"/>
</g>
<defs>
<linearGradient id="paint0_linear_114_305" x1="851.068" y1="1531.69" x2="851.068" y2="49.8771" gradientUnits="userSpaceOnUse">
<stop stop-color="#808080" stop-opacity="0.25"/>
<stop offset="0.54" stop-color="#808080" stop-opacity="0.12"/>
<stop offset="1" stop-color="#808080" stop-opacity="0.1"/>
</linearGradient>
<clipPath id="clip0_114_305">
<rect width="2028" height="1583" fill="white"/>
</clipPath>
</defs>
</svg>
